<?xml version="1.0" encoding="utf-8"?>
<!-- Generator: Adobe Illustrator 18.1.1, SVG Export Plug-In . SVG Version: 6.00 Build 0)  -->
<svg version="1.1" xmlns="http://www.w3.org/2000/svg" xmlns:xlink="http://www.w3.org/1999/xlink" x="0px" y="0px"
	 viewBox="0 0 420.5 480.9" enable-background="new 0 0 420.5 480.9" xml:space="preserve">
<g id="Layer_2">
</g>
<g id="Layer_1">
	<g>
		<g id="fipcNQ.tif_6_">
			<g>
				<path fill="#A5CFDB" d="M55.4,102.6c0.5-0.3,1-0.6,1.5-0.8c3.7,0.4,7.3,0.9,10.4,2.8c1.8,1.1,3.5,2.3,4.9,3.9
					c2.5,2.8,4.8,5.7,7,8.8c1.3,1.8,2.4,3.8,3.2,5.9c0.9,2.2,1.6,4.5,2.3,6.8c0.2,0.6,0,1.4,0,2.2c-3.4,0.6-6.6,0.2-9.6-1.1
					c-5.2-2.2-9.4-5.7-12.9-10.1c-3.4-4.4-5.4-9.3-6.6-14.6c0-0.2-0.2-0.4-0.3-0.6C55.4,104.7,55.4,103.6,55.4,102.6z"/>
				<path fill="#A5CFDB" d="M268,241c0.6-0.6,1-1.1,1.5-1.4c5.7-3.6,11.9-5.9,18.7-6.2c4.5-0.1,8.8,0.4,12.9,2.3
					c2.8,1.3,5.4,3,7.4,5.4c0.5,0.6,0.7,1.2,1.1,1.9c-1.4,1.7-3.3,2.7-5,3.6c-5.7,2.8-11.7,4.1-18,3.5c-6.2-0.6-11.9-2.6-16.6-7
					C269.3,242.5,268.8,241.8,268,241z"/>
				<path fill="#A5CFDB" d="M331.6,35.1c1.5,0.1,2.2,0.9,2.9,1.6c4.5,4.8,7.2,10.6,8.3,17.1c0.7,4.5,0.5,9-0.6,13.4
					c-0.7,3.1-2.3,5.8-4.4,8.3c-1.1,0.5-1.9,0.2-2.6-0.7c-3.3-4.2-6.3-8.6-8-13.7c-2.6-7.6-2.1-15,1.7-22.1c0.4-0.7,0.6-1.4,1.1-2
					C330.5,36.2,331.1,35.6,331.6,35.1z"/>
				<path fill="#A5CFDB" d="M346.8,199.3c0,0.5,0,1.1,0,1.7c-3.6,3.9-7.7,6.8-12.6,8.8c-5.8,2.4-11.8,2.9-18,1.8
					c-3-0.5-5.7-1.8-8.4-3.1c-0.8-0.4-1.3-1-1.1-2.2c1.4-2,3.5-3.6,5.6-5.2c4.3-3.2,9.1-5.4,14.4-6.4c6.7-1.3,13.1-0.3,18.9,3.5
					c0.3,0.2,0.6,0.4,1,0.6C346.6,198.9,346.7,199,346.8,199.3z"/>
				<path fill="#A5CFDB" d="M115,207.9c-10.1,6.8-27.6,6.4-39.8-6.9c0-0.5,0-1.2,0-1.9c4.1-3.1,8.6-4.6,13.7-4.8
					c5.6-0.2,10.8,1.2,15.7,3.8c3.6,1.8,6.7,4.2,9.5,7C114.9,205.8,115.7,206.6,115,207.9z"/>
				<path fill="#A5CFDB" d="M90,34.8c0.7,0.7,1.3,1.1,1.6,1.6c3.6,5.7,5.3,11.9,4.5,18.6c-0.5,4.6-2.2,8.9-4.6,12.8
					c-1.4,2.3-3.1,4.4-4.6,6.6c-0.6,0.9-1.4,1.6-2.7,1c-2.5-2.9-4.1-6.3-4.8-10.1c-1.5-8-0.3-15.5,3.6-22.6c1.2-2.3,3-4.2,4.7-6.3
					C88.2,35.8,89.1,35.4,90,34.8z"/>
				<path fill="#A5CFDB" d="M153.7,241.1c-1.3,2.1-3.2,3.5-5.2,4.7c-7.4,4.4-15.2,5.3-23.6,3.4c-4-0.9-7.7-2.5-11-4.8
					c-0.4-0.3-0.7-0.5-1-0.8c-0.2-0.1-0.3-0.4-0.4-0.6c0.3-1.8,1.8-2.9,3.1-4c4.2-3.5,9.2-5.2,14.6-5.6c7.4-0.5,14.2,1.4,20.6,5.1
					C151.9,239.1,153.1,239.6,153.7,241.1z"/>
				<path fill="#A5CFDB" d="M359.5,167.2c-0.1,0.8-0.1,1.5-0.4,2.2c-1.4,3.6-3.4,6.8-6.1,9.6c-2.6,2.9-5.6,5.2-9,6.9
					c-5.8,2.9-11.9,4.3-18.5,3c-0.9-0.2-1.6-0.4-2.1-1.5c0.3-1.9,1.3-3.8,2.3-5.5c1.4-2.4,3-4.6,5.2-6.4c1.2-1,2.4-2,3.7-2.8
					c2.4-1.6,4.8-3.1,7.2-4.5c2.3-1.4,4.9-1.6,7.5-1.9C351.8,166,357.3,166.4,359.5,167.2z"/>
				<path fill="#A5CFDB" d="M288.3,32.9c0.7-1.2,1.5-1.4,2.3-1.3c2.2,0.2,4.4,0.1,6.5,0.6c7.3,1.6,13,5.8,17.4,11.8
					c2.6,3.6,4.5,7.6,5.5,11.9c0.1,0.6,0.1,1.1,0.2,1.9c-0.8,0.3-1.5,0.6-2.1,0.7c-5.2,0.6-9.9-0.8-14.3-3.4
					c-5.6-3.3-9.9-7.9-13-13.6C289.4,38.8,288.4,35.9,288.3,32.9z"/>
				<path fill="#A5CFDB" d="M62.7,167.1c0.6-0.2,1.1-0.4,1.6-0.5c4.2-0.4,8.3-0.8,12.5,0.2c2.2,0.5,4,1.7,5.8,2.8
					c2.3,1.5,4.8,2.9,6.9,4.6c1.8,1.5,3.4,3.3,5,5.1c1.7,1.9,2.8,4.3,3.7,6.6c0.2,0.5,0.3,1.1,0.3,1.5c-0.5,1.1-1.3,1.3-2.1,1.5
					c-5.1,1-10.1,0.3-15-1.5c-3.9-1.4-7.3-3.6-10.3-6.2c-3.7-3.3-6.5-7.2-8.3-11.9c-0.1-0.3-0.2-0.7-0.2-1.1
					C62.5,167.9,62.6,167.6,62.7,167.1z"/>
				<path fill="#A5CFDB" d="M82.3,107.2c-0.7-0.2-1.5-0.3-2.1-0.5c-3.3-1.3-5.9-3.3-8.2-6c-3.4-4.2-5.4-8.9-6.4-14.1
					c-1-5-0.9-10.1,0.1-15.1c0.1-0.7,0.5-1.3,0.8-2.2c0.9,0.2,1.6,0.3,2.3,0.5c3.7,1.5,6.5,4.1,9.1,7.1c1.6,1.9,2.9,4.1,3.8,6.3
					c1.1,2.5,1.8,5.2,2.3,7.9c0.9,4.9,0.3,9.8-0.8,14.7c-0.1,0.2-0.2,0.4-0.3,0.6C82.8,106.5,82.6,106.7,82.3,107.2z"/>
				<path fill="#A5CFDB" d="M354.8,69.2c1.6,0.8,1.5,2.1,1.7,3.2c0.8,4.9,0.8,9.8-0.2,14.7c-1.2,5.6-3.5,10.6-7.4,14.9
					c-2.2,2.4-4.9,3.9-7.9,5c-0.2,0.1-0.4,0.1-0.7,0.1c-0.2,0-0.4,0-0.8-0.1c-0.2-0.4-0.6-0.8-0.7-1.2c-1.5-6.3-1.7-12.5,0-18.8
					c0.8-2.7,1.9-5.2,3.3-7.6c1.4-2.3,3-4.5,5.2-6.1c1.7-1.3,3.6-2.4,5.4-3.5C353.5,69.5,354.3,69.4,354.8,69.2z"/>
				<path fill="#A5CFDB" d="M101.7,58c0.1-1,0.2-1.7,0.3-2.3c1.6-6,4.4-11.2,8.8-15.6c2.6-2.6,5.4-4.7,8.7-6.2
					c3.8-1.7,7.8-2.5,12-2.3c0.6,0,1.2,0.3,1.8,0.5c0.7,2.1-0.1,3.8-0.6,5.4c-1.3,4.3-3.7,8-6.8,11.2c-2.4,2.5-5,4.7-8,6.5
					c-4.4,2.5-9,3.9-14.2,3.3C103.2,58.4,102.6,58.2,101.7,58z"/>
				<path fill="#A5CFDB" d="M129.9,226.1c-3.8,3.4-8.4,5.3-13.4,6.2c-5.9,1-11.8,0.3-17.4-2c-3.8-1.6-7.4-3.5-10.3-6.8
					c0.5-0.6,0.8-1.3,1.2-1.7c3.9-3.3,8.3-5.3,13.3-5.9c8-0.9,15.3,1.2,22,5.4c1.2,0.7,2.4,1.6,3.5,2.4
					C129.7,224.2,130.2,224.9,129.9,226.1z"/>
				<path fill="#A5CFDB" d="M292,226c-0.3-1.2,0.3-1.8,1.1-2.4c4.2-3.1,8.8-5.6,14-6.9c6.3-1.5,12.4-1.5,18.4,1.2
					c2.1,0.9,4,2,5.7,3.4c0.7,0.5,1.2,1.3,1.7,1.8c-1.7,3.5-10.3,8.1-17.2,9.1C306.5,233.7,297.9,231.3,292,226z"/>
				<path fill="#A5CFDB" d="M336.7,160c-0.4-1.3,0.2-2.6,0.5-3.9c1.3-4.7,2.9-9.3,6-13.2c1-1.2,1.7-2.6,2.7-3.8
					c2.6-3.3,6.1-5.5,10.1-6.8c1.9-0.6,3.9-1.1,5.8-1.6c1-0.2,2-0.2,2.8-0.3c1,0.9,1.1,1.8,1,2.7c-0.4,3.4-1.3,6.7-2.7,9.9
					c-1.4,3.1-3.2,5.9-5.5,8.4c-1.8,1.9-3.9,3.7-6,5.3c-3.2,2.4-7,3.7-11,4.1C339,160.9,337.7,161.2,336.7,160z"/>
				<path fill="#A5CFDB" d="M85.4,159.8c-1,1.3-2.2,1.2-3.3,1.1c-5.2-0.4-9.6-2.5-13.6-5.8c-4.3-3.5-7.5-7.8-9.7-12.7
					c-1.3-2.8-2-5.8-2.4-8.8c-0.1-1-0.2-2,0.7-3c0.4,0,0.9-0.2,1.5-0.1c4.2,0.7,8.4,1.5,12,4c1.7,1.2,3.5,2.6,4.9,4.2
					c2.4,2.7,4.5,5.8,6.2,9.1c1.8,3.5,2.8,7.2,3.7,11C85.5,159.1,85.4,159.5,85.4,159.8z"/>
				<path fill="#A5CFDB" d="M337.2,132.1c0-0.8-0.2-1.5,0-2.1c1.3-3.7,2.2-7.6,4.4-11c1.9-2.9,3.8-5.7,6.1-8.3
					c1.1-1.2,2.1-2.5,3.3-3.6c3.1-2.9,6.9-4.4,11.1-5c0.7-0.1,1.5-0.3,2.2-0.3c0.7,0,1.4,0.3,2,0.5c0.5,2.5-0.1,4.6-0.7,6.6
					c-1,3.3-2.2,6.5-4.1,9.4c-1.4,2-3,3.9-4.6,5.7c-3.3,3.5-7.3,6.1-12,7.6C342.5,132.5,340.1,132.4,337.2,132.1z"/>
				<path fill="#A5CFDB" d="M142.3,192.2c0.8,0.4,1.5,0.6,2,1c2.3,1.9,3.9,4.4,4.9,7.2c2,5.6,2.9,11.5,2.3,17.4
					c-0.3,2.9-1.2,5.7-2.7,8.2c-1.9,3.1-4.5,3.4-7.3,1c-2.6-2.4-4.3-5.4-5.1-8.8c-0.6-2.5-1.1-5.1-1.4-7.7c-0.3-3,0.4-5.9,1-8.9
					c0.5-2.4,1.6-4.5,3.1-6.4C140,194.2,141.1,193.4,142.3,192.2z"/>
				<path fill="#A5CFDB" d="M279.8,192.2c1.3,1.4,2.4,2.5,3.3,3.7c2.2,2.8,2.8,6.2,3.4,9.6c0.9,5-0.3,9.8-1.7,14.6
					c-0.8,2.7-2.4,5.1-4.6,7.1c-2,1.9-5,2.6-7.1-0.9c-1.6-2.7-2.6-5.6-2.8-8.7c-0.5-5.7,0.4-11.4,2.2-16.8c1-2.9,2.7-5.5,5-7.6
					C278.2,192.7,279,192.6,279.8,192.2z"/>
				<path fill="#A5CFDB" d="M292.6,175.9c1.2-0.4,2,0.2,2.8,0.9c2,1.6,3.5,3.7,4.8,5.9c2.7,4.5,3.8,9.4,3.9,14.6
					c0,4.5-0.9,8.8-3.7,12.5c-0.5,0.7-1,1.3-1.7,1.8c-2.2,1.8-4.3,1.5-6-0.7c-1.6-2.1-2.8-4.4-3.6-6.9c-1.4-4.3-1.6-8.7-1.2-13.3
					c0.4-4.8,2.1-9.2,4-13.5C292,176.6,292.3,176.2,292.6,175.9z"/>
				<path fill="#A5CFDB" d="M308.4,133.9c0.9,0.2,1.7,0.1,2.3,0.4c4,2.3,8.1,4.5,11.9,7c4.4,2.9,6.9,7.2,8.3,12.1c0.6,2,1.4,4,1,6.1
					c-0.3,1.5-0.7,3-1.1,4.5c-0.1,0.3-0.5,0.6-0.8,0.9c-2.9-0.2-5.7-0.4-8.2-2.1c-5-3.4-9-7.7-11.4-13.2c-1.2-2.8-2.1-5.7-2.8-8.7
					C307.1,138.8,307.7,136.5,308.4,133.9z"/>
				<path fill="#A5CFDB" d="M129.5,175.9c0.2,0.4,0.6,0.8,0.8,1.4c1.1,3,2.4,6,3.2,9.1c1,4,1.2,8.1,0.6,12.3
					c-0.6,4.3-1.9,8.3-4.5,11.8c-0.5,0.6-1.1,1.2-1.8,1.7c-1.1,0.8-2.4,0.8-3.6,0.1c-0.7-0.5-1.5-1-2.1-1.7
					c-2.1-2.6-3.2-5.7-3.9-8.9c-0.9-4.6-0.2-9.1,1.2-13.5c1.2-4.2,3.6-7.9,6.8-10.9C127.1,176.3,127.9,175.5,129.5,175.9z"/>
				<path fill="#A5CFDB" d="M113.6,134.3c0.6,2.3,1.2,4.6,0.7,7c-1.3,6.8-4.2,12.9-9.3,17.8c-1.8,1.7-3.9,3.2-6,4.6
					c-2.1,1.3-4.7,1.3-6.9,1.5c-1.4-1-1.5-2.3-1.8-3.5c-0.6-2-0.5-4.1,0.1-6.2c1-3.3,2.1-6.5,4.1-9.4c1.8-2.5,4-4.4,6.5-6
					c2.9-1.8,5.9-3.4,8.9-5.1C111,134.4,112,133.5,113.6,134.3z"/>
				<path fill="#A5CFDB" d="M304.2,88.7c1.4-1,2.8-1.3,4.2-1.4c3.5-0.3,6.8,0.4,10,1.8c3.7,1.6,7,3.8,9.8,6.5c2.9,2.8,5.2,6,6.1,10
					c0.2,0.7,0.2,1.5,0.2,2.2c0,1.6-0.8,2.7-2.3,3.2c-1,0.3-2.1,0.5-3.1,0.4c-3.3-0.3-6.4-1.1-9.4-2.7c-3.2-1.8-6.2-3.9-8.7-6.6
					c-3-3.2-5.7-6.7-6.7-11.2C304.3,90.2,304.3,89.4,304.2,88.7z"/>
				<path fill="#A5CFDB" d="M117.8,88.8c0,2.2-0.7,4.2-1.7,6.1c-2.7,5.1-6.6,9.1-11.3,12.2c-3.6,2.4-7.7,4-12.1,4.3
					c-4.4,0.2-6.2-2.1-5-6.3c1.1-4.1,3.6-7.3,6.6-10.1c2.8-2.6,6-4.6,9.6-6.1c3.9-1.7,7.9-2.3,12-1.1c0.4,0.1,0.7,0.3,1,0.4
					C117.2,88.3,117.3,88.5,117.8,88.8z"/>
				<path fill="#A5CFDB" d="M315.3,192c-3.5-1.1-6-3.4-8.1-6.2c-2.4-3.2-3.2-7-4-10.8c-0.9-4.5-0.5-9.1-0.4-13.6
					c0-0.8,0.2-1.6,0.5-2.4c1.2-3.5,4.3-3.4,6-1.8c6.5,6.2,11,13.5,10.9,23c0,4-1.5,7.6-3.6,10.9c-0.1,0.2-0.3,0.4-0.4,0.5
					C316,191.7,315.8,191.8,315.3,192z"/>
				<path fill="#A5CFDB" d="M298.2,65.3c0.7-0.3,1.4-0.6,2.1-0.9c4.2-1.3,8.4-0.9,12.6,0.2c4.3,1.2,8,3.3,11.3,6.2
					c1.8,1.6,3.3,3.6,4.5,5.8c1.1,2,1.2,4.3,1.4,6.5c0,0.3-0.2,0.7-0.4,1.1c-3.8,1.8-7.6,1.9-11.5,0.6c-4.7-1.6-9.1-3.9-12.7-7.3
					c-2.9-2.7-5.6-5.6-6.9-9.5c-0.1-0.4-0.3-0.8-0.4-1.3C298.2,66.4,298.2,66,298.2,65.3z"/>
				<path fill="#A5CFDB" d="M123.8,65.5c-0.1,0.7-0.1,1.4-0.3,2c-1,3-2.7,5.6-4.9,7.9c-2.4,2.5-5.1,4.8-8.2,6.5
					c-3.5,2-7.1,3.4-11.1,3.9C97.2,86,95,85.4,93,84.7c-0.9-0.3-1.2-1.1-1.1-2c0.2-3.5,1.4-6.7,3.7-9.4c5-5.8,11.5-8.9,19.1-9.7
					C117.6,63.3,121.3,64,123.8,65.5z"/>
				<path fill="#A5CFDB" d="M106.5,192.1c-0.5-0.4-1-0.6-1.2-1c-2.9-4.3-4.2-9-3.4-14.2c0.8-5.8,2.9-11.1,7-15.4
					c1.1-1.2,2.1-2.5,3.2-3.8c0.8-0.9,1.8-1.3,3-1.4c1.4-0.1,2.6,0.4,3.1,1.7c0.5,1.1,0.9,2.3,0.9,3.4c0.1,4.5,0.5,9.1-0.4,13.6
					c-0.7,3.7-1.6,7.4-3.8,10.7C112.8,188.5,110.2,190.8,106.5,192.1z"/>
				<path fill="#A5CFDB" d="M90.6,137.1c-0.9-2.2-1.2-4.3-0.9-6.5c0.8-5.5,3.5-10,7.7-13.5c2.5-2.1,5-4.2,8-5.7
					c2.7-1.3,5.6-1.6,8.5-1.6c0.3,0,0.6,0.1,0.9,0.2c0.3,0.1,0.5,0.3,0.8,0.5c0.6,1.7,0.6,3.4,0.3,5.1c-0.8,4.5-2.9,8.2-5.9,11.6
					c-2,2.3-4.2,4.3-6.6,6c-3.2,2.3-6.7,4-10.7,4.1C92,137.4,91.2,137.2,90.6,137.1z"/>
				<path fill="#A5CFDB" d="M306.5,110.3c0.5-0.2,1-0.4,1.5-0.5c4.4-0.1,8.4,0.9,11.9,3.7c1.1,0.8,2.1,1.7,3.2,2.5
					c4.2,2.9,7,6.9,8.6,11.7c1,3,1.1,6.1-0.2,9.3c-2,0.8-3.9,0.3-5.9-0.2c-4.2-1.2-7.7-3.6-10.8-6.6c-3.5-3.3-6.5-7-8-11.7
					C305.9,115.7,305.5,113.6,306.5,110.3z"/>
			</g>
		</g>
		<polygon fill="#FFD54C" points="413.8,332.9 8.1,332.9 24.2,284.5 8.1,236 413.8,236 400.7,284.5 		"/>
		<polygon fill="#EBA715" points="359.1,332.9 65.8,332.9 33.6,319.5 388.3,319.5 		"/>
		<g>
			<polygon fill="#A5CFDB" points="62.9,378.5 211,463.9 359,378.5 359,266.7 62.9,266.7 			"/>
			<polygon fill="#6BB3C7" points="89.5,358.9 211,429.1 332.4,358.9 332.4,267.2 89.5,267.2 			"/>
		</g>
		<rect x="33.6" y="222.3" fill="#FFE18B" width="354.7" height="96.9"/>
		
			<text transform="matrix(1 0 0 1 55.8811 287.3076)" fill="#006C90" stroke="#006C90" stroke-width="0.3303" stroke-miterlimit="10" font-family="'Bitter-Regular'" font-size="43.4994" letter-spacing="2">CHALLENGER</text>
		<text transform="matrix(1 0 0 1 134.7502 357.7256)" fill="#FFFFFF" font-family="'Bitter-Regular'" font-size="31.5817">Developer</text>
		<g>
			<path fill="#006C90" d="M145.5,162.2c-2.9,8.1,1.4,17,9.4,19.9c7.8,2.8,16.7-1.1,19.8-8.8c0.7-1.8,1.1-3.7,1.1-5.6
				c0-2.2,0.9-4.3,2.5-5.9l72.1-69.5c0.3-0.3,0.7-0.3,1-0.2l0,0c10.2,3.6,21.3-1.7,24.9-11.9c0.4-1.1,0.7-2.2,0.9-3.3l-13,4.5
				c-3.6,1.2-7.5-0.7-8.8-4.3l-1.8-5.3c-1.2-3.6,0.7-7.5,4.3-8.8l12.5-4.3c-1.7-1.4-3.7-2.6-6-3.4c-10.1-3.6-21.3,1.7-24.9,11.8
				c-1.4,3.9-1.5,7.9-0.5,11.6c0.1,0.3,0,0.7-0.3,0.9l-72.5,69.8c-1.6,1.5-3.7,2.3-5.8,2.3C154,151.6,147.8,155.7,145.5,162.2z
				 M149.5,165l-0.6-1c-0.2-0.4-0.1-0.8,0.3-1l1.1-0.4c0.3-0.1,0.5-0.4,0.4-0.8l-0.3-1.2c-0.1-0.4,0.2-0.8,0.6-0.8l1.2,0
				c0.3,0,0.6-0.3,0.6-0.6l0.1-1.2c0-0.4,0.4-0.7,0.8-0.6l1.2,0.3c0.3,0.1,0.7-0.1,0.8-0.4l0.5-1.1c0.2-0.4,0.6-0.5,1-0.3l1,0.7
				c0.3,0.2,0.7,0.1,0.9-0.1l0.8-0.9c0.3-0.3,0.8-0.3,1,0l0.7,0.9c0.2,0.3,0.6,0.3,0.9,0.2l1-0.6c0.4-0.2,0.8-0.1,1,0.3l0.4,1.1
				c0.1,0.3,0.4,0.5,0.8,0.4l1.2-0.3c0.4-0.1,0.8,0.2,0.8,0.6l0,1.2c0,0.3,0.3,0.6,0.6,0.6l1.2,0.1c0.4,0,0.7,0.4,0.6,0.8l-0.3,1.2
				c-0.1,0.3,0.1,0.7,0.4,0.8l1.1,0.5c0.4,0.2,0.5,0.6,0.3,1l-0.7,1c-0.2,0.3-0.1,0.7,0.1,0.9l0.9,0.8c0.3,0.3,0.3,0.8,0,1l-0.9,0.7
				c-0.3,0.2-0.3,0.6-0.2,0.9l0.6,1c0.2,0.4,0,0.8-0.3,1l-1.1,0.4c-0.3,0.1-0.5,0.4-0.4,0.8l0.3,1.2c0.1,0.4-0.2,0.8-0.6,0.8l-1.2,0
				c-0.3,0-0.6,0.3-0.6,0.6l-0.1,1.2c0,0.4-0.4,0.7-0.8,0.6l-1.2-0.3c-0.3-0.1-0.7,0.1-0.8,0.4l-0.5,1.1c-0.2,0.4-0.6,0.5-1,0.3
				l-1-0.7c-0.3-0.2-0.7-0.1-0.9,0.1l-0.8,0.9c-0.3,0.3-0.8,0.3-1,0l-0.7-0.9c-0.2-0.3-0.6-0.3-0.9-0.2l-1,0.6
				c-0.4,0.2-0.8,0.1-1-0.3l-0.4-1.1c-0.1-0.3-0.4-0.5-0.8-0.4l-1.2,0.3c-0.4,0.1-0.8-0.2-0.8-0.6l0-1.2c0-0.3-0.3-0.6-0.6-0.6
				l-1.2-0.1c-0.4,0-0.7-0.4-0.6-0.8l0.3-1.2c0.1-0.3-0.1-0.7-0.4-0.8l-1.1-0.5c-0.4-0.2-0.5-0.6-0.3-1l0.7-1
				c0.2-0.3,0.1-0.7-0.1-0.9l-0.9-0.8c-0.3-0.3-0.3-0.8,0-1l0.9-0.7C149.6,165.6,149.7,165.2,149.5,165z"/>
		</g>
		<g id="xZbDM8.tif_12_">
			<g>
				<path fill="#0090AA" d="M145,86c4.4,4.5,8.8,9,13.2,13.5c0.4,0.4,0.8,0.9,1.2,1.3c2.7,2.6,4.5,2.6,7.1-0.1c1.9-2,2-3.5,0.2-5.5
					c-2.3-2.6-2.3-3.5,0.3-6c3.7-3.4,7.4-3.3,10.9,0.2c12.9,13.1,25.8,26.2,38.7,39.3c0.8,0.8,1.3,1.5,1,2.8c-0.2,0.9,0.4,2.3,1.2,3
					c14.2,14.5,28.4,29,42.6,43.5c1.2,1.3,2.4,2.6,3.7,3.8c1.5,1.4,3.2,1.6,4.8,0.2c2.1-1.8,4.1-3.6,6-5.5c1.6-1.7,1.4-3.2-0.2-4.8
					c-15.3-15.6-30.6-31.2-45.9-46.8c-0.8-0.8-2.1-1.6-3-1.5c-1.9,0.3-2.8-0.7-4-1.8c-12.2-12.4-24.4-24.7-36.6-37.1
					c-3.6-3.6-4.7-8.2-4.1-13c0.5-4.2,3.3-6.6,7.1-8.2c4.8-2,9.8-2.2,14.9-1.9c1.2,0.1,2.3,0.1,4.3,0.1c-1-1-1.5-1.8-2.1-2.1
					c-3.7-1.6-7.4-3.1-11.1-4.6c-2.7-0.1-5.4-0.1-8-0.2c-0.2,0.1-0.4,0.3-0.6,0.3c-5.4,0.5-10.4,2.4-15.1,4.8
					c-4.9,2.5-8.6,6.3-12.4,9.9c5,5.8,3,8.7-0.6,12c-1.8,1.7-3.5,1.6-5.2-0.2c-2.1-2.1-4-2.2-6.2-0.2c-0.8,0.7-1.4,1.7-2.1,2.5
					C145,84.6,145,85.3,145,86z"/>
			</g>
		</g>
	</g>
</g>
</svg>
