<?xml version="1.0" encoding="utf-8"?>
<!-- Generator: Adobe Illustrator 18.1.1, SVG Export Plug-In . SVG Version: 6.00 Build 0)  -->
<svg version="1.1" xmlns="http://www.w3.org/2000/svg" xmlns:xlink="http://www.w3.org/1999/xlink" x="0px" y="0px"
	 viewBox="0 0 420.5 462.6" enable-background="new 0 0 420.5 462.6" xml:space="preserve">
<g id="Layer_2">
</g>
<g id="Layer_1">
	<g>
		<g id="fipcNQ.tif_6_">
			<g>
				<path fill="#A5CFDB" d="M53.9,90.5c0.5-0.3,1-0.6,1.5-0.8c3.7,0.4,7.3,0.9,10.5,2.8c1.8,1.1,3.5,2.4,4.9,3.9
					c2.5,2.8,4.8,5.8,7,8.8c1.3,1.8,2.4,3.8,3.3,5.9c1,2.2,1.6,4.5,2.3,6.8c0.2,0.6,0,1.4,0,2.2c-3.4,0.6-6.6,0.2-9.6-1.1
					c-5.2-2.2-9.4-5.7-12.9-10.2c-3.4-4.4-5.4-9.3-6.6-14.6c0-0.2-0.2-0.4-0.3-0.6C53.9,92.6,53.9,91.5,53.9,90.5z"/>
				<path fill="#A5CFDB" d="M267.2,229.3c0.6-0.6,1-1.1,1.5-1.4c5.7-3.6,11.9-5.9,18.8-6.2c4.5-0.1,8.8,0.4,13,2.3
					c2.8,1.3,5.4,3,7.4,5.4c0.5,0.6,0.7,1.2,1.1,1.9c-1.4,1.8-3.3,2.7-5.1,3.6c-5.7,2.9-11.8,4.1-18.1,3.5c-6.3-0.6-12-2.6-16.7-7
					C268.5,230.8,268,230.2,267.2,229.3z"/>
				<path fill="#A5CFDB" d="M331,22.7c1.5,0.1,2.2,0.9,2.9,1.6c4.5,4.9,7.2,10.6,8.3,17.2c0.7,4.5,0.5,9-0.6,13.4
					c-0.7,3.1-2.3,5.8-4.4,8.3c-1.1,0.5-1.9,0.2-2.6-0.7c-3.3-4.2-6.3-8.6-8-13.7c-2.6-7.6-2.1-15.1,1.7-22.2c0.4-0.7,0.6-1.4,1.1-2
					C330,23.9,330.6,23.3,331,22.7z"/>
				<path fill="#A5CFDB" d="M346.3,187.5c0,0.5,0,1.1,0,1.7c-3.6,3.9-7.8,6.9-12.6,8.9c-5.9,2.4-11.9,2.9-18.1,1.9
					c-3-0.5-5.7-1.9-8.4-3.1c-0.8-0.4-1.3-1-1.1-2.2c1.4-2.1,3.5-3.7,5.6-5.2c4.3-3.2,9.1-5.5,14.4-6.5c6.8-1.3,13.1-0.3,18.9,3.6
					c0.3,0.2,0.6,0.4,1,0.6C346.1,187.2,346.2,187.2,346.3,187.5z"/>
				<path fill="#A5CFDB" d="M113.7,196.2c-10.1,6.8-27.7,6.4-40-7c0-0.5,0-1.2,0-1.9c4.1-3.1,8.7-4.6,13.8-4.9
					c5.6-0.2,10.8,1.2,15.8,3.8c3.6,1.8,6.7,4.2,9.6,7C113.6,194.1,114.4,194.8,113.7,196.2z"/>
				<path fill="#A5CFDB" d="M88.7,22.4c0.7,0.7,1.3,1.1,1.6,1.6c3.6,5.7,5.3,11.9,4.5,18.7c-0.5,4.6-2.2,8.9-4.6,12.8
					c-1.4,2.3-3.1,4.4-4.6,6.6c-0.6,0.9-1.4,1.6-2.7,1c-2.5-2.9-4.1-6.3-4.8-10.1c-1.5-8-0.3-15.6,3.6-22.6c1.2-2.3,3.1-4.3,4.7-6.3
					C86.8,23.5,87.7,23.1,88.7,22.4z"/>
				<path fill="#A5CFDB" d="M152.6,229.5c-1.3,2.1-3.2,3.5-5.2,4.7c-7.4,4.4-15.3,5.3-23.6,3.4c-4-0.9-7.7-2.5-11.1-4.8
					c-0.4-0.3-0.7-0.5-1-0.8c-0.2-0.1-0.3-0.4-0.4-0.6c0.3-1.8,1.8-2.9,3.1-4c4.2-3.5,9.2-5.3,14.7-5.6c7.4-0.5,14.3,1.4,20.7,5.1
					C150.7,227.5,152,228,152.6,229.5z"/>
				<path fill="#A5CFDB" d="M359,155.3c-0.1,0.8-0.1,1.5-0.4,2.2c-1.4,3.6-3.5,6.8-6.1,9.7c-2.6,2.9-5.7,5.2-9.1,6.9
					c-5.8,2.9-12,4.3-18.5,3c-0.9-0.2-1.6-0.4-2.1-1.5c0.3-1.9,1.3-3.8,2.3-5.5c1.4-2.4,3-4.7,5.2-6.4c1.2-1,2.4-2,3.8-2.8
					c2.4-1.6,4.8-3.1,7.2-4.6c2.3-1.4,5-1.6,7.6-1.9C351.3,154.1,356.8,154.5,359,155.3z"/>
				<path fill="#A5CFDB" d="M287.6,20.6c0.7-1.2,1.5-1.4,2.3-1.3c2.2,0.2,4.4,0.1,6.5,0.6c7.4,1.6,13.1,5.8,17.5,11.9
					c2.6,3.6,4.5,7.6,5.5,12c0.1,0.6,0.2,1.1,0.2,1.9c-0.8,0.3-1.5,0.6-2.1,0.7c-5.2,0.6-9.9-0.8-14.4-3.4c-5.6-3.3-10-7.9-13-13.7
					C288.7,26.4,287.7,23.6,287.6,20.6z"/>
				<path fill="#A5CFDB" d="M61.2,155.2c0.6-0.2,1.1-0.4,1.6-0.5c4.2-0.4,8.4-0.8,12.5,0.2c2.2,0.5,4,1.7,5.8,2.8
					c2.4,1.5,4.8,2.9,6.9,4.6c1.9,1.5,3.5,3.3,5,5.1c1.7,2,2.8,4.3,3.7,6.7c0.2,0.5,0.3,1.1,0.3,1.5c-0.5,1.1-1.3,1.3-2.2,1.5
					c-5.2,1-10.1,0.3-15-1.5c-3.9-1.4-7.3-3.6-10.3-6.3c-3.7-3.3-6.5-7.3-8.3-11.9c-0.1-0.3-0.2-0.7-0.2-1.1
					C61.1,156,61.2,155.7,61.2,155.2z"/>
				<path fill="#A5CFDB" d="M80.9,95.1c-0.7-0.2-1.5-0.3-2.1-0.5c-3.3-1.3-5.9-3.3-8.2-6.1c-3.4-4.2-5.4-9-6.4-14.2
					c-1-5-0.9-10.1,0.1-15.2c0.1-0.7,0.5-1.3,0.8-2.2c0.9,0.2,1.6,0.3,2.3,0.5c3.7,1.5,6.5,4.1,9.1,7.1c1.6,1.9,2.9,4.1,3.8,6.3
					c1.1,2.5,1.8,5.3,2.3,8c0.9,4.9,0.3,9.9-0.8,14.7c-0.1,0.2-0.2,0.4-0.3,0.6C81.4,94.4,81.2,94.6,80.9,95.1z"/>
				<path fill="#A5CFDB" d="M354.4,57c1.6,0.9,1.5,2.1,1.7,3.2c0.8,4.9,0.8,9.9-0.2,14.7c-1.2,5.6-3.5,10.7-7.4,14.9
					c-2.2,2.4-4.9,3.9-7.9,5c-0.2,0.1-0.4,0.1-0.7,0.1c-0.2,0-0.4,0-0.8-0.1c-0.2-0.4-0.6-0.8-0.7-1.2c-1.5-6.3-1.7-12.6,0-18.9
					c0.8-2.7,1.9-5.2,3.3-7.6c1.4-2.3,3.1-4.5,5.3-6.1c1.7-1.3,3.6-2.4,5.5-3.5C353,57.3,353.8,57.2,354.4,57z"/>
				<path fill="#A5CFDB" d="M100.3,45.7c0.1-1,0.2-1.7,0.3-2.3c1.6-6,4.4-11.2,8.9-15.7c2.6-2.6,5.4-4.8,8.7-6.2
					c3.8-1.7,7.8-2.5,12-2.3c0.6,0,1.2,0.3,1.8,0.5c0.7,2.1-0.1,3.8-0.6,5.5c-1.3,4.3-3.7,8-6.8,11.3c-2.4,2.5-5,4.8-8,6.5
					c-4.4,2.5-9.1,3.9-14.2,3.3C101.9,46.2,101.3,46,100.3,45.7z"/>
				<path fill="#A5CFDB" d="M128.7,214.5c-3.8,3.4-8.5,5.3-13.5,6.2c-5.9,1-11.8,0.3-17.4-2c-3.8-1.6-7.4-3.5-10.3-6.8
					c0.5-0.6,0.8-1.3,1.2-1.7c3.9-3.3,8.3-5.3,13.4-5.9c8-0.9,15.3,1.2,22.1,5.4c1.2,0.7,2.4,1.6,3.5,2.4
					C128.5,212.5,129,213.2,128.7,214.5z"/>
				<path fill="#A5CFDB" d="M291.3,214.3c-0.3-1.2,0.3-1.8,1.1-2.4c4.3-3.2,8.9-5.6,14-6.9c6.3-1.5,12.5-1.5,18.5,1.2
					c2.1,0.9,4,2,5.8,3.4c0.7,0.5,1.2,1.3,1.7,1.8c-1.7,3.5-10.4,8.1-17.2,9.2C305.9,222,297.2,219.6,291.3,214.3z"/>
				<path fill="#A5CFDB" d="M336.2,148.1c-0.4-1.3,0.2-2.6,0.5-3.9c1.3-4.7,2.9-9.3,6-13.2c1-1.2,1.7-2.6,2.7-3.9
					c2.6-3.3,6.1-5.5,10.1-6.8c1.9-0.6,3.9-1.1,5.9-1.6c1-0.2,2-0.2,2.8-0.3c1,0.9,1.1,1.8,1,2.7c-0.4,3.5-1.3,6.8-2.7,9.9
					c-1.4,3.1-3.2,5.9-5.6,8.4c-1.8,2-3.9,3.7-6.1,5.3c-3.2,2.4-7,3.8-11,4.1C338.5,149,337.2,149.3,336.2,148.1z"/>
				<path fill="#A5CFDB" d="M84,147.9c-1,1.3-2.2,1.2-3.3,1.1c-5.2-0.4-9.6-2.6-13.6-5.8c-4.3-3.5-7.5-7.8-9.7-12.8
					c-1.3-2.8-2.1-5.8-2.4-8.9c-0.1-1-0.2-2,0.7-3c0.4,0,1-0.2,1.5-0.1c4.2,0.7,8.5,1.5,12.1,4c1.8,1.2,3.5,2.6,4.9,4.2
					c2.4,2.8,4.5,5.8,6.2,9.1c1.8,3.5,2.8,7.3,3.7,11.1C84.1,147.2,84,147.6,84,147.9z"/>
				<path fill="#A5CFDB" d="M336.7,120.1c0-0.8-0.2-1.5,0-2.1c1.3-3.7,2.2-7.7,4.4-11.1c1.9-2.9,3.8-5.7,6.2-8.3
					c1.1-1.2,2.1-2.5,3.4-3.6c3.1-2.9,6.9-4.4,11.1-5c0.7-0.1,1.5-0.3,2.2-0.3c0.7,0,1.4,0.3,2,0.5c0.5,2.5-0.1,4.6-0.7,6.7
					c-1,3.3-2.2,6.6-4.1,9.4c-1.4,2-3,4-4.7,5.7c-3.3,3.5-7.4,6.1-12,7.6C342,120.5,339.6,120.4,336.7,120.1z"/>
				<path fill="#A5CFDB" d="M141.1,180.4c0.8,0.4,1.5,0.6,2,1c2.3,2,3.9,4.4,4.9,7.2c2,5.7,2.9,11.5,2.3,17.5
					c-0.3,2.9-1.2,5.7-2.7,8.3c-1.9,3.1-4.6,3.5-7.3,1c-2.6-2.4-4.3-5.4-5.1-8.8c-0.6-2.5-1.1-5.1-1.4-7.7c-0.3-3,0.4-6,1-8.9
					c0.5-2.4,1.6-4.5,3.1-6.4C138.8,182.4,139.9,181.6,141.1,180.4z"/>
				<path fill="#A5CFDB" d="M279.1,180.4c1.3,1.4,2.4,2.5,3.4,3.7c2.2,2.8,2.8,6.2,3.4,9.6c0.9,5.1-0.3,9.9-1.7,14.6
					c-0.8,2.7-2.4,5.1-4.6,7.1c-2,1.9-5,2.6-7.2-0.9c-1.6-2.7-2.6-5.6-2.8-8.7c-0.5-5.8,0.4-11.4,2.2-16.8c1-3,2.7-5.5,5-7.6
					C277.5,180.9,278.2,180.8,279.1,180.4z"/>
				<path fill="#A5CFDB" d="M291.9,164c1.3-0.4,2,0.2,2.8,0.9c2,1.6,3.5,3.7,4.8,5.9c2.7,4.5,3.8,9.5,3.9,14.6
					c0,4.5-0.9,8.8-3.7,12.5c-0.5,0.7-1,1.3-1.7,1.8c-2.2,1.8-4.3,1.5-6.1-0.7c-1.6-2.1-2.8-4.4-3.6-7c-1.4-4.4-1.6-8.8-1.2-13.3
					c0.4-4.8,2.1-9.2,4-13.5C291.3,164.8,291.7,164.4,291.9,164z"/>
				<path fill="#A5CFDB" d="M307.8,121.9c0.9,0.2,1.7,0.1,2.3,0.4c4,2.3,8.1,4.5,12,7.1c4.4,2.9,6.9,7.2,8.3,12.2c0.6,2,1.4,4,1,6.2
					c-0.3,1.5-0.7,3.1-1.1,4.6c-0.1,0.3-0.5,0.6-0.8,0.9c-2.9-0.2-5.7-0.4-8.3-2.1c-5.1-3.4-9-7.7-11.4-13.2
					c-1.2-2.8-2.2-5.8-2.8-8.7C306.5,126.8,307,124.5,307.8,121.9z"/>
				<path fill="#A5CFDB" d="M128.2,164c0.2,0.4,0.6,0.8,0.8,1.4c1.1,3,2.4,6,3.2,9.1c1,4,1.2,8.1,0.6,12.3
					c-0.6,4.3-1.9,8.3-4.5,11.8c-0.5,0.6-1.1,1.2-1.8,1.7c-1.1,0.8-2.4,0.8-3.6,0.1c-0.7-0.5-1.5-1-2.1-1.7c-2.1-2.6-3.2-5.7-3.9-9
					c-0.9-4.7-0.2-9.2,1.2-13.6c1.3-4.2,3.6-7.9,6.8-11C125.9,164.5,126.7,163.6,128.2,164z"/>
				<path fill="#A5CFDB" d="M112.4,122.3c0.6,2.3,1.2,4.6,0.7,7c-1.3,6.9-4.3,12.9-9.3,17.8c-1.8,1.7-3.9,3.3-6.1,4.6
					c-2.1,1.3-4.7,1.4-6.9,1.5c-1.5-1-1.5-2.4-1.8-3.5c-0.6-2.1-0.5-4.1,0.1-6.2c1-3.3,2.1-6.5,4.1-9.4c1.8-2.5,4-4.4,6.6-6
					c2.9-1.8,6-3.4,9-5.1C109.7,122.4,110.7,121.5,112.4,122.3z"/>
				<path fill="#A5CFDB" d="M303.6,76.6c1.4-1,2.8-1.3,4.2-1.4c3.5-0.3,6.8,0.4,10.1,1.8c3.7,1.6,7,3.8,9.9,6.6
					c2.9,2.8,5.2,6,6.1,10c0.2,0.7,0.2,1.5,0.2,2.2c0,1.6-0.8,2.8-2.3,3.2c-1,0.3-2.1,0.5-3.1,0.4c-3.3-0.3-6.5-1.1-9.4-2.7
					c-3.2-1.8-6.2-3.9-8.7-6.6c-3-3.2-5.8-6.7-6.7-11.2C303.6,78.1,303.7,77.3,303.6,76.6z"/>
				<path fill="#A5CFDB" d="M116.5,76.7c0,2.2-0.7,4.2-1.7,6.2c-2.7,5.1-6.6,9.1-11.3,12.3c-3.7,2.4-7.7,4.1-12.1,4.3
					c-4.4,0.2-6.2-2.1-5.1-6.4c1.1-4.1,3.6-7.3,6.7-10.2c2.8-2.6,6.1-4.6,9.6-6.1c3.9-1.7,7.9-2.3,12.1-1.1c0.4,0.1,0.7,0.3,1,0.4
					C115.9,76.2,116.1,76.3,116.5,76.7z"/>
				<path fill="#A5CFDB" d="M314.7,180.2c-3.5-1.1-6-3.4-8.1-6.2c-2.4-3.2-3.2-7-4-10.9c-0.9-4.5-0.5-9.1-0.4-13.7
					c0-0.8,0.2-1.6,0.5-2.4c1.2-3.5,4.4-3.4,6.1-1.8c6.5,6.3,11,13.6,11,23c0,4.1-1.5,7.6-3.6,10.9c-0.1,0.2-0.3,0.4-0.4,0.5
					C315.4,179.9,315.2,180,314.7,180.2z"/>
				<path fill="#A5CFDB" d="M297.6,53c0.7-0.3,1.4-0.6,2.1-0.9c4.2-1.3,8.4-0.9,12.6,0.2c4.3,1.2,8,3.3,11.3,6.2
					c1.8,1.7,3.3,3.6,4.5,5.8c1.1,2,1.2,4.3,1.4,6.5c0,0.3-0.2,0.7-0.4,1.1c-3.8,1.8-7.6,1.9-11.5,0.6c-4.8-1.6-9.1-3.9-12.8-7.3
					c-2.9-2.7-5.6-5.6-6.9-9.5c-0.1-0.4-0.3-0.8-0.4-1.3C297.5,54.2,297.6,53.8,297.6,53z"/>
				<path fill="#A5CFDB" d="M122.6,53.2c-0.1,0.7-0.1,1.4-0.3,2c-1,3-2.7,5.7-4.9,7.9c-2.5,2.5-5.1,4.8-8.2,6.5
					c-3.5,2-7.2,3.5-11.2,3.9c-2.2,0.3-4.3-0.4-6.4-1.1c-0.9-0.3-1.2-1.1-1.1-2c0.2-3.6,1.4-6.7,3.7-9.4c5-5.9,11.5-8.9,19.1-9.7
					C116.3,51.1,120,51.8,122.6,53.2z"/>
				<path fill="#A5CFDB" d="M105.2,180.2c-0.5-0.4-1-0.6-1.2-1c-2.9-4.3-4.2-9.1-3.4-14.3c0.9-5.8,2.9-11.1,7-15.5
					c1.1-1.2,2.1-2.5,3.2-3.8c0.8-0.9,1.9-1.3,3-1.4c1.4-0.1,2.6,0.4,3.2,1.7c0.5,1.1,0.9,2.3,0.9,3.4c0.1,4.6,0.5,9.2-0.4,13.7
					c-0.8,3.7-1.6,7.5-3.8,10.7C111.5,176.7,108.9,178.9,105.2,180.2z"/>
				<path fill="#A5CFDB" d="M89.2,125.1c-0.9-2.2-1.2-4.4-0.9-6.5c0.8-5.5,3.5-10.1,7.7-13.5c2.5-2.1,5-4.3,8-5.7
					c2.7-1.3,5.6-1.6,8.5-1.6c0.3,0,0.6,0.1,0.9,0.2c0.3,0.1,0.5,0.3,0.8,0.5c0.6,1.7,0.6,3.4,0.3,5.1c-0.8,4.5-3,8.3-5.9,11.7
					c-2,2.3-4.2,4.3-6.6,6c-3.2,2.3-6.7,4-10.7,4.1C90.6,125.4,89.9,125.2,89.2,125.1z"/>
				<path fill="#A5CFDB" d="M305.9,98.2c0.5-0.2,1-0.4,1.5-0.5c4.4-0.1,8.5,0.9,12,3.7c1.1,0.8,2.1,1.7,3.2,2.5
					c4.2,2.9,7,7,8.6,11.8c1,3,1.2,6.2-0.2,9.3c-2,0.8-4,0.3-5.9-0.2c-4.2-1.2-7.7-3.7-10.8-6.6c-3.5-3.3-6.6-7-8-11.7
					C305.3,103.6,304.9,101.5,305.9,98.2z"/>
			</g>
		</g>
		<polygon fill="#FFD54C" points="413.5,321.6 6.5,321.6 22.7,273 6.5,224.4 413.5,224.4 400.3,273 		"/>
		<polygon fill="#EBA715" points="358.6,321.6 64.4,321.6 32.1,308.1 387.9,308.1 		"/>
		<g>
			<polygon fill="#A5CFDB" points="61.4,367.3 210,453.1 358.6,367.3 358.6,255.1 61.4,255.1 			"/>
			<polygon fill="#6BB3C7" points="88.1,347.7 210,418 331.9,347.7 331.9,255.7 88.1,255.7 			"/>
		</g>
		<rect x="32.1" y="210.6" fill="#FFE18B" width="355.9" height="97.2"/>
		
			<text transform="matrix(1 0 0 1 54.4006 283.0661)" fill="#006C90" stroke="#006C90" stroke-width="0.3303" stroke-miterlimit="10" font-family="'Bitter-Regular'" font-size="43.6463" letter-spacing="2">CHALLENGER</text>
	</g>
</g>
</svg>
