<?xml version="1.0" encoding="utf-8"?>
<!-- Generator: Adobe Illustrator 18.1.1, SVG Export Plug-In . SVG Version: 6.00 Build 0)  -->
<svg version="1.1" xmlns="http://www.w3.org/2000/svg" xmlns:xlink="http://www.w3.org/1999/xlink" x="0px" y="0px"
	 viewBox="0 0 420.5 480.9" enable-background="new 0 0 420.5 480.9" xml:space="preserve">
<g id="Layer_2">
</g>
<g id="Layer_1">
	<g>
		<g id="fipcNQ.tif_6_">
			<g>
				<path fill="#A5CFDB" d="M55.2,95.8c0.5-0.3,1-0.6,1.5-0.8c3.7,0.4,7.3,0.9,10.4,2.8c1.8,1.1,3.5,2.3,4.9,3.9
					c2.5,2.8,4.8,5.7,7,8.7c1.3,1.8,2.4,3.8,3.2,5.8c0.9,2.2,1.6,4.5,2.3,6.8c0.2,0.6,0,1.4,0,2.2c-3.4,0.6-6.5,0.2-9.5-1.1
					c-5.2-2.2-9.4-5.6-12.8-10.1c-3.4-4.3-5.4-9.2-6.5-14.5c0-0.2-0.2-0.4-0.3-0.6C55.2,97.9,55.2,96.8,55.2,95.8z"/>
				<path fill="#A5CFDB" d="M267.1,233.7c0.6-0.6,1-1.1,1.5-1.4c5.7-3.6,11.8-5.9,18.6-6.1c4.5-0.1,8.8,0.4,12.9,2.3
					c2.8,1.3,5.3,3,7.3,5.4c0.5,0.5,0.7,1.2,1.1,1.9c-1.4,1.7-3.2,2.7-5,3.6c-5.7,2.8-11.7,4.1-18,3.5c-6.2-0.6-11.9-2.6-16.6-7
					C268.4,235.2,267.9,234.5,267.1,233.7z"/>
				<path fill="#A5CFDB" d="M330.5,28.5c1.5,0.1,2.2,0.8,2.9,1.6c4.5,4.8,7.2,10.5,8.2,17c0.7,4.5,0.5,8.9-0.6,13.3
					c-0.7,3.1-2.3,5.8-4.3,8.2c-1.1,0.5-1.9,0.2-2.6-0.7c-3.3-4.2-6.3-8.6-8-13.6c-2.5-7.6-2.1-15,1.7-22.1c0.4-0.7,0.6-1.4,1.1-2
					C329.5,29.6,330.1,29,330.5,28.5z"/>
				<path fill="#A5CFDB" d="M345.7,192.1c0,0.5,0,1.1,0,1.7c-3.6,3.9-7.7,6.8-12.5,8.8c-5.8,2.4-11.8,2.9-18,1.8
					c-3-0.5-5.6-1.8-8.3-3.1c-0.8-0.4-1.2-1-1-2.2c1.4-2,3.5-3.6,5.6-5.2c4.3-3.2,9.1-5.4,14.3-6.4c6.7-1.3,13-0.3,18.8,3.5
					c0.3,0.2,0.6,0.4,1,0.6C345.5,191.8,345.5,191.9,345.7,192.1z"/>
				<path fill="#A5CFDB" d="M114.6,200.8c-10,6.8-27.5,6.3-39.7-6.9c0-0.5,0-1.2,0-1.9c4.1-3,8.6-4.6,13.7-4.8
					c5.6-0.2,10.7,1.2,15.7,3.8c3.5,1.8,6.7,4.2,9.5,7C114.5,198.7,115.3,199.4,114.6,200.8z"/>
				<path fill="#A5CFDB" d="M89.8,28.2c0.7,0.7,1.3,1.1,1.6,1.6c3.6,5.7,5.3,11.9,4.5,18.5c-0.5,4.6-2.2,8.8-4.6,12.7
					c-1.4,2.3-3,4.4-4.6,6.6c-0.6,0.9-1.4,1.6-2.7,1c-2.4-2.9-4.1-6.2-4.8-10.1c-1.5-7.9-0.3-15.5,3.6-22.5c1.2-2.3,3-4.2,4.7-6.2
					C87.9,29.2,88.8,28.9,89.8,28.2z"/>
				<path fill="#A5CFDB" d="M153.2,233.9c-1.3,2.1-3.2,3.5-5.1,4.6c-7.3,4.4-15.2,5.3-23.5,3.4c-4-0.9-7.6-2.5-11-4.8
					c-0.4-0.3-0.7-0.5-1-0.8c-0.2-0.1-0.3-0.4-0.4-0.6c0.3-1.8,1.8-2.9,3-4c4.2-3.5,9.1-5.2,14.6-5.6c7.4-0.5,14.2,1.4,20.5,5
					C151.4,231.8,152.6,232.4,153.2,233.9z"/>
				<path fill="#A5CFDB" d="M358.3,160.2c-0.1,0.8-0.1,1.5-0.3,2.2c-1.4,3.6-3.4,6.7-6,9.6c-2.6,2.8-5.6,5.2-9,6.9
					c-5.8,2.9-11.9,4.2-18.4,2.9c-0.9-0.2-1.6-0.4-2.1-1.5c0.3-1.9,1.3-3.7,2.3-5.5c1.4-2.4,3-4.6,5.2-6.4c1.2-1,2.4-2,3.7-2.8
					c2.4-1.6,4.8-3.1,7.2-4.5c2.3-1.4,4.9-1.6,7.5-1.9C350.6,159,356.1,159.4,358.3,160.2z"/>
				<path fill="#A5CFDB" d="M287.4,26.3c0.7-1.2,1.5-1.4,2.3-1.3c2.2,0.2,4.4,0.1,6.4,0.6c7.3,1.6,13,5.8,17.3,11.8
					c2.6,3.6,4.5,7.6,5.5,11.9c0.1,0.6,0.1,1.1,0.2,1.9c-0.8,0.3-1.4,0.6-2.1,0.7c-5.2,0.6-9.9-0.8-14.3-3.4
					c-5.6-3.3-9.9-7.9-12.9-13.6C288.5,32.2,287.4,29.3,287.4,26.3z"/>
				<path fill="#A5CFDB" d="M62.5,160.1c0.6-0.2,1.1-0.4,1.6-0.5c4.2-0.4,8.3-0.8,12.5,0.2c2.2,0.5,4,1.7,5.8,2.8
					c2.3,1.5,4.7,2.8,6.9,4.6c1.8,1.5,3.4,3.3,5,5.1c1.6,1.9,2.7,4.2,3.7,6.6c0.2,0.5,0.3,1.1,0.3,1.5c-0.5,1.1-1.3,1.3-2.1,1.5
					c-5.1,1-10.1,0.3-14.9-1.5c-3.8-1.4-7.2-3.5-10.3-6.2c-3.7-3.3-6.4-7.2-8.2-11.8c-0.1-0.3-0.2-0.7-0.2-1.1
					C62.4,160.9,62.4,160.6,62.5,160.1z"/>
				<path fill="#A5CFDB" d="M82,100.4c-0.7-0.2-1.5-0.3-2.1-0.5c-3.3-1.3-5.9-3.3-8.2-6c-3.4-4.1-5.4-8.9-6.4-14.1
					c-1-5-0.9-10.1,0.1-15.1c0.1-0.7,0.5-1.3,0.8-2.2c0.9,0.2,1.6,0.3,2.3,0.5c3.7,1.5,6.5,4.1,9.1,7.1c1.6,1.9,2.8,4.1,3.8,6.3
					c1.1,2.5,1.8,5.2,2.2,7.9c0.9,4.9,0.3,9.8-0.8,14.6c-0.1,0.2-0.2,0.4-0.3,0.6C82.5,99.7,82.4,99.9,82,100.4z"/>
				<path fill="#A5CFDB" d="M353.7,62.5c1.6,0.8,1.5,2.1,1.7,3.2c0.8,4.9,0.8,9.8-0.2,14.6c-1.2,5.6-3.5,10.6-7.4,14.8
					c-2.1,2.3-4.9,3.9-7.8,5c-0.2,0.1-0.4,0.1-0.7,0.1c-0.2,0-0.4,0-0.8-0.1c-0.2-0.4-0.6-0.8-0.7-1.2c-1.5-6.3-1.7-12.5,0-18.8
					c0.8-2.7,1.9-5.2,3.3-7.5c1.3-2.3,3-4.4,5.2-6c1.7-1.3,3.6-2.4,5.4-3.5C352.4,62.8,353.1,62.7,353.7,62.5z"/>
				<path fill="#A5CFDB" d="M101.3,51.3c0.1-1,0.2-1.6,0.3-2.3c1.6-6,4.4-11.2,8.8-15.6c2.6-2.6,5.4-4.7,8.7-6.2
					c3.8-1.7,7.8-2.5,12-2.3c0.6,0,1.2,0.3,1.8,0.5c0.7,2.1-0.1,3.8-0.6,5.4c-1.3,4.3-3.7,7.9-6.7,11.2c-2.4,2.5-5,4.7-8,6.4
					c-4.4,2.5-9,3.9-14.1,3.3C102.9,51.8,102.3,51.6,101.3,51.3z"/>
				<path fill="#A5CFDB" d="M129.5,218.9c-3.8,3.4-8.4,5.3-13.4,6.1c-5.9,1-11.8,0.3-17.3-2c-3.7-1.6-7.4-3.4-10.2-6.8
					c0.5-0.6,0.8-1.3,1.2-1.7c3.8-3.3,8.3-5.3,13.3-5.8c8-0.9,15.2,1.2,21.9,5.3c1.2,0.7,2.3,1.6,3.5,2.4
					C129.3,217,129.8,217.6,129.5,218.9z"/>
				<path fill="#A5CFDB" d="M291.1,218.8c-0.3-1.2,0.3-1.8,1.1-2.4c4.2-3.1,8.8-5.6,14-6.8c6.2-1.5,12.4-1.5,18.4,1.2
					c2.1,0.9,4,2,5.7,3.4c0.7,0.5,1.2,1.3,1.7,1.8c-1.7,3.5-10.3,8.1-17.1,9.1C305.5,226.5,296.9,224.1,291.1,218.8z"/>
				<path fill="#A5CFDB" d="M335.6,153c-0.4-1.3,0.2-2.6,0.5-3.9c1.3-4.7,2.9-9.2,6-13.1c1-1.2,1.7-2.6,2.7-3.8
					c2.6-3.3,6-5.5,10-6.8c1.9-0.6,3.9-1.1,5.8-1.6c1-0.2,2-0.2,2.8-0.3c1,0.9,1.1,1.8,1,2.7c-0.4,3.4-1.3,6.7-2.7,9.9
					c-1.4,3.1-3.2,5.9-5.5,8.4c-1.8,1.9-3.9,3.7-6,5.3c-3.2,2.4-6.9,3.7-10.9,4.1C337.9,153.9,336.6,154.2,335.6,153z"/>
				<path fill="#A5CFDB" d="M85.1,152.8c-1,1.3-2.2,1.2-3.3,1.1c-5.2-0.4-9.6-2.5-13.6-5.8c-4.2-3.5-7.4-7.7-9.7-12.7
					c-1.3-2.8-2-5.8-2.4-8.8c-0.1-1-0.2-2,0.7-3c0.4,0,0.9-0.2,1.5-0.1c4.2,0.7,8.4,1.5,12,4c1.7,1.2,3.5,2.6,4.9,4.2
					c2.4,2.7,4.5,5.8,6.1,9c1.8,3.5,2.8,7.2,3.7,11C85.2,152.1,85.1,152.5,85.1,152.8z"/>
				<path fill="#A5CFDB" d="M336.1,125.2c0-0.8-0.2-1.5,0-2.1c1.3-3.7,2.2-7.6,4.4-11c1.9-2.9,3.8-5.7,6.1-8.2
					c1.1-1.2,2.1-2.5,3.3-3.6c3.1-2.9,6.9-4.4,11-5c0.7-0.1,1.5-0.3,2.2-0.3c0.7,0,1.4,0.3,2,0.5c0.5,2.5-0.1,4.5-0.7,6.6
					c-1,3.3-2.2,6.5-4.1,9.4c-1.4,2-2.9,3.9-4.6,5.7c-3.3,3.5-7.3,6.1-11.9,7.6C341.4,125.6,339,125.5,336.1,125.2z"/>
				<path fill="#A5CFDB" d="M141.9,185.1c0.8,0.4,1.5,0.6,2,1c2.2,1.9,3.9,4.4,4.8,7.1c2,5.6,2.9,11.4,2.3,17.4
					c-0.3,2.9-1.2,5.7-2.7,8.2c-1.9,3.1-4.5,3.4-7.2,1c-2.6-2.4-4.2-5.4-5-8.8c-0.6-2.5-1.1-5.1-1.4-7.7c-0.3-3,0.4-5.9,1-8.8
					c0.5-2.4,1.6-4.5,3.1-6.4C139.5,187.1,140.6,186.3,141.9,185.1z"/>
				<path fill="#A5CFDB" d="M278.9,185.1c1.3,1.4,2.4,2.5,3.3,3.7c2.2,2.8,2.8,6.2,3.4,9.5c0.9,5-0.3,9.8-1.7,14.5
					c-0.8,2.7-2.4,5.1-4.5,7.1c-2,1.8-5,2.6-7.1-0.9c-1.6-2.7-2.6-5.6-2.8-8.6c-0.5-5.7,0.4-11.3,2.2-16.7c1-2.9,2.7-5.5,5-7.6
					C277.3,185.6,278.1,185.5,278.9,185.1z"/>
				<path fill="#A5CFDB" d="M291.6,168.8c1.2-0.4,2,0.2,2.8,0.9c2,1.6,3.5,3.7,4.8,5.9c2.7,4.5,3.8,9.4,3.9,14.5
					c0,4.4-0.9,8.7-3.7,12.4c-0.5,0.7-1,1.3-1.6,1.8c-2.2,1.8-4.3,1.5-6-0.7c-1.6-2.1-2.8-4.4-3.6-6.9c-1.4-4.3-1.6-8.7-1.2-13.3
					c0.4-4.8,2.1-9.1,4-13.4C291,169.6,291.4,169.2,291.6,168.8z"/>
				<path fill="#A5CFDB" d="M307.4,127c0.9,0.2,1.7,0.1,2.3,0.4c4,2.3,8.1,4.5,11.9,7c4.3,2.9,6.8,7.1,8.3,12.1c0.6,2,1.3,4,1,6.1
					c-0.3,1.5-0.7,3-1.1,4.5c-0.1,0.3-0.5,0.5-0.8,0.9c-2.8-0.2-5.6-0.4-8.2-2.1c-5-3.3-8.9-7.6-11.4-13.2c-1.2-2.8-2.1-5.7-2.8-8.7
					C306.1,131.9,306.7,129.6,307.4,127z"/>
				<path fill="#A5CFDB" d="M129.1,168.8c0.2,0.4,0.6,0.8,0.8,1.4c1.1,3,2.4,6,3.2,9c1,4,1.2,8.1,0.6,12.2
					c-0.6,4.3-1.9,8.3-4.5,11.8c-0.5,0.6-1.1,1.2-1.7,1.7c-1.1,0.8-2.4,0.8-3.6,0.1c-0.7-0.5-1.5-1-2.1-1.7
					c-2.1-2.6-3.2-5.6-3.9-8.9c-0.9-4.6-0.1-9.1,1.1-13.5c1.2-4.2,3.5-7.9,6.8-10.9C126.7,169.3,127.5,168.4,129.1,168.8z"/>
				<path fill="#A5CFDB" d="M113.3,127.4c0.6,2.3,1.2,4.6,0.7,7c-1.3,6.8-4.2,12.9-9.3,17.7c-1.8,1.7-3.9,3.2-6,4.6
					c-2.1,1.3-4.6,1.3-6.9,1.5c-1.4-1-1.5-2.3-1.8-3.5c-0.6-2-0.5-4.1,0.1-6.2c1-3.3,2.1-6.5,4.1-9.3c1.8-2.5,4-4.4,6.5-6
					c2.9-1.8,5.9-3.4,8.9-5.1C110.7,127.5,111.7,126.6,113.3,127.4z"/>
				<path fill="#A5CFDB" d="M303.2,82c1.4-1,2.8-1.3,4.2-1.4c3.5-0.3,6.8,0.4,10,1.8c3.7,1.6,7,3.8,9.8,6.5c2.8,2.8,5.2,6,6.1,10
					c0.2,0.7,0.2,1.5,0.2,2.2c0,1.6-0.8,2.7-2.3,3.2c-1,0.3-2.1,0.5-3.1,0.4c-3.3-0.3-6.4-1.1-9.4-2.7c-3.2-1.8-6.2-3.9-8.7-6.6
					c-3-3.2-5.7-6.7-6.7-11.2C303.3,83.5,303.3,82.7,303.2,82z"/>
				<path fill="#A5CFDB" d="M117.4,82.1c0,2.2-0.7,4.2-1.7,6.1c-2.7,5.1-6.5,9-11.2,12.2c-3.6,2.4-7.6,4-12.1,4.3
					c-4.4,0.2-6.2-2.1-5-6.3c1.1-4.1,3.6-7.3,6.6-10.1c2.8-2.6,6-4.6,9.5-6.1c3.9-1.7,7.9-2.2,12-1.1c0.4,0.1,0.7,0.3,1,0.4
					C116.8,81.6,117,81.7,117.4,82.1z"/>
				<path fill="#A5CFDB" d="M314.3,184.9c-3.5-1.1-6-3.3-8-6.2c-2.4-3.2-3.2-7-3.9-10.8c-0.9-4.5-0.5-9.1-0.4-13.6
					c0-0.8,0.2-1.6,0.5-2.4c1.2-3.5,4.3-3.4,6-1.8c6.5,6.2,10.9,13.5,10.9,22.9c0,4-1.5,7.5-3.6,10.9c-0.1,0.2-0.3,0.4-0.4,0.5
					C315,184.6,314.7,184.7,314.3,184.9z"/>
				<path fill="#A5CFDB" d="M297.2,58.6c0.7-0.3,1.4-0.6,2.1-0.9c4.2-1.3,8.4-0.9,12.5,0.2c4.3,1.2,8,3.3,11.2,6.2
					c1.8,1.6,3.3,3.6,4.5,5.8c1.1,2,1.2,4.3,1.4,6.5c0,0.3-0.2,0.7-0.4,1.1c-3.7,1.8-7.6,1.9-11.5,0.6c-4.7-1.6-9-3.9-12.7-7.3
					c-2.9-2.7-5.6-5.6-6.9-9.5c-0.1-0.4-0.3-0.8-0.4-1.3C297.2,59.7,297.2,59.3,297.2,58.6z"/>
				<path fill="#A5CFDB" d="M123.4,58.8c-0.1,0.7-0.1,1.4-0.3,2c-1,3-2.7,5.6-4.9,7.9c-2.4,2.5-5.1,4.8-8.2,6.5
					c-3.5,1.9-7.1,3.4-11.1,3.9c-2.2,0.3-4.3-0.4-6.3-1.1c-0.9-0.3-1.2-1.1-1.1-2c0.2-3.5,1.4-6.7,3.7-9.4c5-5.8,11.4-8.9,19-9.6
					C117.2,56.6,120.9,57.4,123.4,58.8z"/>
				<path fill="#A5CFDB" d="M106.2,184.9c-0.5-0.4-1-0.6-1.2-1c-2.9-4.3-4.2-9-3.4-14.2c0.8-5.8,2.9-11,7-15.4
					c1.1-1.2,2.1-2.5,3.2-3.7c0.8-0.9,1.8-1.3,3-1.4c1.4-0.1,2.6,0.4,3.1,1.7c0.5,1.1,0.9,2.3,0.9,3.4c0.1,4.5,0.5,9.1-0.4,13.6
					c-0.7,3.7-1.6,7.4-3.8,10.6C112.5,181.4,109.9,183.6,106.2,184.9z"/>
				<path fill="#A5CFDB" d="M90.3,130.2c-0.9-2.2-1.2-4.3-0.9-6.5c0.8-5.5,3.5-10,7.7-13.4c2.5-2,5-4.2,8-5.6
					c2.7-1.3,5.5-1.6,8.5-1.6c0.3,0,0.6,0.1,0.9,0.2c0.3,0.1,0.5,0.3,0.8,0.5c0.6,1.7,0.6,3.4,0.3,5.1c-0.8,4.5-2.9,8.2-5.9,11.6
					c-2,2.3-4.1,4.3-6.6,6c-3.2,2.3-6.7,3.9-10.7,4.1C91.7,130.5,91,130.3,90.3,130.2z"/>
				<path fill="#A5CFDB" d="M305.5,103.5c0.5-0.2,1-0.4,1.5-0.5c4.4-0.1,8.4,0.9,11.9,3.7c1,0.8,2.1,1.7,3.2,2.4
					c4.2,2.9,7,6.9,8.5,11.7c1,3,1.1,6.1-0.2,9.3c-2,0.8-3.9,0.3-5.8-0.2c-4.2-1.2-7.6-3.6-10.8-6.6c-3.5-3.3-6.5-7-8-11.7
					C304.9,108.8,304.5,106.7,305.5,103.5z"/>
			</g>
		</g>
		<polygon fill="#FFD54C" points="412.4,325.3 8.1,325.3 24.2,277 8.1,228.8 412.4,228.8 399.3,277 		"/>
		<polygon fill="#EBA715" points="357.9,325.3 65.6,325.3 33.5,312 387,312 		"/>
		<g>
			<polygon fill="#A5CFDB" points="62.7,370.7 210.3,455.9 357.9,370.7 357.9,259.3 62.7,259.3 			"/>
			<polygon fill="#6BB3C7" points="89.2,351.2 210.3,421.1 331.4,351.2 331.4,259.9 89.2,259.9 			"/>
		</g>
		<rect x="33.5" y="215.1" fill="#FFE18B" width="353.5" height="96.5"/>
		
			<text transform="matrix(1 0 0 1 55.7236 279.8728)" fill="#006C90" stroke="#006C90" stroke-width="0.3303" stroke-miterlimit="10" font-family="'Bitter-Regular'" font-size="43.3525" letter-spacing="2">CHALLENGER</text>
		<text transform="matrix(1 0 0 1 143.0186 350.0525)" fill="#FFFFFF" font-family="'Bitter-Regular'" font-size="31.4751">Designer</text>
		<g>
			<g>
				<path fill="#006C90" d="M265.1,72.9c0.1-0.1,0.2-0.2,0.2-0.3l10.6-22.3c0.2-0.5,0.1-1-0.2-1.4c-0.4-0.4-0.9-0.5-1.4-0.3
					l-22.5,10.2c-0.1,0-0.2,0.1-0.3,0.2l0,0l-100.1,98c-0.2,0.2-0.2,0.6,0,0.8l12.9,13.2c0.2,0.2,0.6,0.2,0.8,0L265.1,72.9
					L265.1,72.9z M252.1,59.4l12.9-5.9l0.6,1.6l3.5,3.5l1.7,0.8l-6,12.8c-0.1,0.1-0.1,0.2-0.2,0.3l-1.2,0.7
					c-0.9,0.2-1.9-0.1-2.6-0.8c-0.8-0.8-1-2.1-0.5-3.2c0.1-0.2,0.1-0.4-0.1-0.6c-0.2-0.2-0.4-0.2-0.6-0.1c-1.1,0.5-2.3,0.2-3.1-0.6
					c-0.8-0.8-1-2.1-0.5-3.2c0.1-0.2,0.1-0.4-0.1-0.6c-0.2-0.2-0.4-0.2-0.6-0.1c-1.1,0.5-2.3,0.2-3.1-0.6c-0.9-1-1.1-2.4-0.3-3.5
					l0.3-0.3C251.9,59.5,252,59.5,252.1,59.4z"/>
				<path fill="#006C90" d="M163.7,171.4l-12.8-13.1c-0.2-0.2-0.5-0.2-0.7,0l-0.6,0.6c-0.2,0.2-0.2,0.5,0,0.7l12.8,13.1
					c0.2,0.2,0.5,0.2,0.7,0l0.6-0.6C163.9,171.9,163.9,171.6,163.7,171.4z"/>
				<path fill="#006C90" d="M161.9,173.2L149.1,160c-0.2-0.2-0.5-0.2-0.7,0l-0.6,0.6c-0.2,0.2-0.2,0.5,0,0.7l12.8,13.1
					c0.2,0.2,0.5,0.2,0.7,0l0.6-0.6C162.1,173.7,162.1,173.4,161.9,173.2z"/>
				<path fill="#006C90" d="M143.7,164.6c-1.9,1.9-1.9,4.9-0.1,6.8l6.8,7c1.9,1.9,4.9,1.9,6.8,0.1l2.9-2.9l-13.6-13.9L143.7,164.6z"
					/>
			</g>
			<g>
				<g id="dHHvKr.tif_5_">
					<g>
						<path fill="#0090AA" d="M153.2,78.2C153.2,78.2,153.1,78.2,153.2,78.2c-0.1-0.3-0.2-0.5-0.2-0.7c-2.2-6.5-4.4-13-6.6-19.5
							c-0.6-1.7-1.1-3.3-1.7-5c-1.1,0.2-2,0-2.5-1.1c-0.4-0.8-0.1-1.5,0.2-2.3c0.1-0.1,0.1-0.1,0.2-0.2c0.7-0.4,1.3-0.7,2.1-0.4
							c0.9,0.3,1.3,1,1.4,2.5c0.1,0,0.3,0.1,0.4,0.1c8.1,2.3,16.2,4.6,24.2,6.9c0.4,0.1,0.6,0.3,0.8,0.7c1.3,2.6,2.6,5.1,4,7.6
							c2.3,4,4.4,8.1,8.2,11c-3.6,3.8-7.2,7.5-10.8,11.3c-0.8-0.7-1.4-1.5-2.2-2.1c-0.8-0.6-1.6-1.2-2.5-1.8
							c-3.6-2.3-7.5-4.1-11.4-5.8C155.6,79.1,154.4,78.7,153.2,78.2z M158,63.5c-4.1-3.9-8.1-7.7-12.1-11.6c-0.3,0.4-0.6,0.7-1,1.1
							c4.1,3.9,8.1,7.7,12.1,11.6c-1.8,3.1-0.7,5.9,1.3,7.4c2,1.5,5,1.1,6.8-0.7c1.7-1.8,1.9-4.8,0.4-6.7
							C163.9,62.5,161.1,61.5,158,63.5z"/>
						<path fill="#0090AA" d="M182.3,98.9c-0.5-0.4-0.9-0.8-1.4-1.2c-0.8-0.8-1.7-1.6-2.5-2.4c-0.3-0.3-0.4-0.5-0.1-0.8
							c3.6-3.7,7.1-7.4,10.6-11.1c0.1-0.1,0.5-0.2,0.6-0.1c1.3,1.2,2.6,2.5,3.9,3.7c0,0,0.1,0.1,0.1,0.2
							C189.8,91.1,186,95,182.3,98.9z"/>
						<path fill="#0090AA" d="M189.2,81c-4.4,4.6-8.8,9.3-13.3,13.9c-1.1-1-2.1-2-3.2-3.1c4.4-4.6,8.8-9.2,13.3-13.9
							C187.1,79,188.1,80,189.2,81z"/>
					</g>
				</g>
				<path fill="#0090AA" d="M276.9,169.2l-8.9,9.4c-0.7,0.7-1.8,0.7-2.5,0.1L224,141.2l-39.2-39.8c-0.7-0.7-0.7-1.8-0.1-2.5l8.9-9.4
					c0.7-0.7,1.8-0.7,2.5-0.1l41.7,37.3l39.1,39.9C277.6,167.4,277.6,168.5,276.9,169.2z"/>
			</g>
		</g>
	</g>
</g>
</svg>
