<?xml version="1.0" encoding="utf-8"?>
<!-- Generator: Adobe Illustrator 18.1.1, SVG Export Plug-In . SVG Version: 6.00 Build 0)  -->
<!DOCTYPE svg PUBLIC "-//W3C//DTD SVG 1.1//EN" "http://www.w3.org/Graphics/SVG/1.1/DTD/svg11.dtd">
<svg version="1.1" id="Layer_1" xmlns="http://www.w3.org/2000/svg" xmlns:xlink="http://www.w3.org/1999/xlink" x="0px" y="0px"
	 viewBox="0 0 200 200" enable-background="new 0 0 200 200" xml:space="preserve">
<g>
	<g>
		<g>
			<path fill="#869D38" stroke="#869D38" stroke-width="0.4372" stroke-miterlimit="10" d="M175.9,43.5c0.1-0.1,0.2-0.3,0.3-0.4
				l14.5-30.6c0.3-0.6,0.2-1.4-0.3-1.9c-0.5-0.5-1.2-0.6-1.9-0.3l-30.8,14c-0.1,0.1-0.2,0.1-0.4,0.2l0,0L20.2,158.6
				c-0.3,0.3-0.3,0.8,0,1l17.6,18c0.3,0.3,0.8,0.3,1,0L175.9,43.5L175.9,43.5z M158,25.1l17.7-8l0.9,2.2l4.7,4.8l2.3,1.1l-8.3,17.5
				c-0.1,0.1-0.2,0.3-0.3,0.3l-1.7,0.9c-1.2,0.3-2.6-0.1-3.5-1.1c-1.1-1.1-1.4-2.9-0.7-4.3c0.1-0.3,0.1-0.6-0.1-0.8
				c-0.2-0.2-0.5-0.3-0.8-0.2c-1.5,0.6-3.2,0.3-4.3-0.8c-1.1-1.1-1.4-2.9-0.7-4.3c0.1-0.3,0.1-0.6-0.1-0.8c-0.2-0.2-0.5-0.3-0.8-0.2
				c-1.5,0.6-3.2,0.3-4.3-0.8c-1.3-1.3-1.4-3.3-0.5-4.8l0.4-0.4C157.9,25.2,157.9,25.1,158,25.1z"/>
			<path fill="#869D38" stroke="#869D38" stroke-width="0.4372" stroke-miterlimit="10" d="M37.1,178.4l-17.6-18
				c-0.3-0.3-0.7-0.3-1,0l-0.9,0.8c-0.3,0.3-0.3,0.7,0,1l17.6,18c0.3,0.3,0.7,0.3,1,0l0.9-0.8C37.3,179.1,37.3,178.6,37.1,178.4z"/>
			<path fill="#869D38" stroke="#869D38" stroke-width="0.4372" stroke-miterlimit="10" d="M34.6,180.8l-17.6-18
				c-0.3-0.3-0.7-0.3-1,0l-0.9,0.8c-0.3,0.3-0.3,0.7,0,1l17.6,18c0.3,0.3,0.7,0.3,1,0l0.9-0.8C34.8,181.5,34.8,181.1,34.6,180.8z"/>
			<path fill="#869D38" stroke="#869D38" stroke-width="0.4372" stroke-miterlimit="10" d="M9.6,169.1c-2.6,2.5-2.6,6.7-0.1,9.3
				l9.4,9.6c2.5,2.6,6.7,2.6,9.3,0.1l4-3.9l-18.6-19L9.6,169.1z"/>
		</g>
	</g>
	<g>
		<g id="dHHvKr.tif_4_">
			<g>
				<path fill="#C0D17F" d="M22.7,50.8c0,0-0.1-0.1-0.1-0.1c-0.1-0.3-0.1-0.6-0.2-0.8c-3-8.9-6-17.8-9.1-26.7
					c-0.8-2.3-1.6-4.5-2.3-6.9c-1.5,0.3-2.7-0.1-3.5-1.5c-0.6-1.1-0.2-2.1,0.3-3.1c0.1-0.1,0.2-0.2,0.2-0.3C9,10.9,9.9,10.6,11,11
					c1.3,0.5,1.8,1.4,1.9,3.4c0.2,0.1,0.4,0.1,0.6,0.2c11.1,3.2,22.1,6.3,33.2,9.5c0.6,0.2,0.9,0.4,1.1,1c1.8,3.5,3.5,7,5.5,10.4
					c3.1,5.5,6.1,11.1,11.3,15.1c-4.9,5.2-9.9,10.3-14.7,15.4c-1-1-2-2-3-2.8c-1.1-0.9-2.2-1.7-3.4-2.4c-5-3.2-10.3-5.6-15.7-7.9
					C26,52,24.3,51.5,22.7,50.8z M29.3,30.7c-5.5-5.3-11.1-10.6-16.6-15.9c-0.5,0.5-0.9,0.9-1.4,1.4c5.6,5.3,11.1,10.6,16.6,15.9
					c-2.5,4.3-1,8,1.8,10.1c2.8,2,6.8,1.6,9.2-1c2.4-2.5,2.6-6.6,0.5-9.2C37.3,29.3,33.5,27.9,29.3,30.7z"/>
				<path fill="#C0D17F" d="M62.5,79.1c-0.6-0.6-1.3-1.1-1.9-1.7c-1.2-1.1-2.3-2.2-3.4-3.3c-0.4-0.4-0.5-0.6-0.1-1.1
					c4.9-5.1,9.7-10.1,14.6-15.2c0.2-0.2,0.7-0.3,0.8-0.2c1.8,1.7,3.5,3.4,5.3,5.1c0.1,0.1,0.1,0.2,0.1,0.2
					C72.8,68.4,67.6,73.8,62.5,79.1z"/>
				<path fill="#C0D17F" d="M72,54.6c-6.1,6.4-12.1,12.7-18.2,19c-1.5-1.4-2.9-2.8-4.4-4.2c6.1-6.3,12.1-12.7,18.2-19
					C69.1,51.8,70.5,53.2,72,54.6z"/>
			</g>
		</g>
		<path fill="#C0D17F" d="M192.1,175.4l-12.2,12.8c-0.9,1-2.4,1-3.4,0.1l-56.9-51.2L65.9,82.6c-1-0.9-1-2.4-0.1-3.4l12.2-12.8
			c0.9-1,2.4-1,3.4-0.1l57,51L192,172C193,172.9,193,174.4,192.1,175.4z"/>
	</g>
</g>
</svg>
