<?xml version="1.0" encoding="utf-8"?>
<!-- Generator: Adobe Illustrator 18.1.1, SVG Export Plug-In . SVG Version: 6.00 Build 0)  -->
<svg version="1.1" xmlns="http://www.w3.org/2000/svg" xmlns:xlink="http://www.w3.org/1999/xlink" x="0px" y="0px"
	 viewBox="0 0 420.5 462.6" enable-background="new 0 0 420.5 462.6" xml:space="preserve">
<g id="Layer_2">
</g>
<g id="Layer_1">
	<g>
		<g>
			<path fill="#694A86" stroke="#694A86" stroke-width="0.3303" stroke-miterlimit="10" d="M165.4,198h32.7c1.6,0,2.9-1.3,2.9-2.9
				V31.4c0-1.6-1.3-2.9-2.9-2.9h-32.7c-1.6,0-2.9,1.3-2.9,2.9V195C162.5,196.7,163.8,198,165.4,198z"/>
			<path fill="#8E7AA4" d="M136.3,198.2h24.1c1,0,1.8-0.8,1.8-1.8V55c0-1-0.8-1.8-1.8-1.8h-24.1c-1,0-1.8,0.8-1.8,1.8v141.4
				C134.4,197.4,135.2,198.2,136.3,198.2z"/>
			<path fill="#8E7AA4" d="M71.9,191l15.9,6.1c1.1,0.4,2.3-0.1,2.7-1.2l44.2-115c0.4-1.1-0.1-2.3-1.2-2.7l-15.9-6.1
				c-1.1-0.4-2.3,0.1-2.7,1.2l-44.2,115C70.3,189.4,70.9,190.6,71.9,191z"/>
			<path fill="#694A86" stroke="#694A86" stroke-width="0.2907" stroke-miterlimit="10" d="M349.5,166.1v29.8c0,1.1-0.9,2.1-2.1,2.1
				H202.3c-1.1,0-2.1-0.9-2.1-2.1v-29.8c0-1.1,0.9-2.1,2.1-2.1h145.1C348.5,164,349.5,164.9,349.5,166.1z"/>
			<path fill="#8E7AA4" d="M327.9,142.7v20.3c0,0.6-0.4,1-1,1H201.3c-0.6,0-1-0.4-1-1v-20.3c0-0.6,0.4-1,1-1h125.7
				C327.5,141.7,327.9,142.2,327.9,142.7z"/>
			<path fill="#B4A9C6" d="M332.5,114.1v25.2c0,1.3-1.1,2.4-2.4,2.4H202.7c-1.3,0-2.4-1.1-2.4-2.4v-25.2c0-1.3,1.1-2.4,2.4-2.4
				h127.5C331.5,111.7,332.5,112.7,332.5,114.1z"/>
			<path fill="#8E7AA4" d="M313.4,90.5v20.8c0,0.2-0.2,0.4-0.4,0.4H200.6c-0.2,0-0.4-0.2-0.4-0.4V90.5c0-0.2,0.2-0.4,0.4-0.4H313
				C313.3,90.2,313.4,90.3,313.4,90.5z"/>
			<rect x="134.3" y="68.8" fill="#B4A9C6" width="28.1" height="3.6"/>
			<rect x="134.3" y="75.5" fill="#B4A9C6" width="28.1" height="3.6"/>
			<rect x="134.2" y="166.9" fill="#B4A9C6" width="28.1" height="3.6"/>
			<rect x="134.2" y="173.5" fill="#B4A9C6" width="28.1" height="3.6"/>
			<path fill="#8E7AA4" d="M246.2,135.6h-37.8c-0.9,0-1.6-0.7-1.6-1.6v-14.2c0-0.9,0.7-1.6,1.6-1.6h37.8c0.9,0,1.6,0.7,1.6,1.6v14.2
				C247.8,134.8,247.1,135.6,246.2,135.6z"/>
			<rect x="252" y="118.9" fill="#8E7AA4" width="73.3" height="4"/>
			<rect x="252" y="124.9" fill="#8E7AA4" width="35.9" height="4"/>
			<rect x="162.3" y="41.4" fill="#8E7AA4" width="39" height="5.5"/>
			<rect x="162.3" y="181" fill="#8E7AA4" width="39" height="5.5"/>
			
				<rect x="65.4" y="134.2" transform="matrix(0.369 -0.9294 0.9294 0.369 -62.1269 180.8325)" fill="#694A86" stroke="#694A86" stroke-width="0.3303" stroke-miterlimit="10" width="73.3" height="4"/>
		</g>
		<polygon fill="#FFD54C" points="413.8,302.6 6.8,302.6 22.9,254 6.8,205.4 413.8,205.4 400.6,254 		"/>
		<polygon fill="#EBA715" points="358.9,302.6 64.6,302.6 32.3,289.2 388.2,289.2 		"/>
		<g>
			<polygon fill="#B4A9C6" points="61.7,348.3 210.3,434.1 358.9,348.3 358.9,236.2 61.7,236.2 			"/>
			<polygon fill="#8E7AA4" points="88.4,328.7 210.3,399.1 332.2,328.7 332.2,236.7 88.4,236.7 			"/>
		</g>
		<rect x="32.3" y="191.6" fill="#FFE18B" width="355.9" height="97.2"/>
		
			<text transform="matrix(1 0 0 1 68.9126 260.0519)" fill="#694A86" stroke="#694A86" stroke-width="0.3303" stroke-miterlimit="10" font-family="'Bitter-Regular'" font-size="43.6463" letter-spacing="2">EDUCATION</text>
	</g>
</g>
</svg>
