<?xml version="1.0" encoding="utf-8"?>
<!-- Generator: Adobe Illustrator 18.1.1, SVG Export Plug-In . SVG Version: 6.00 Build 0)  -->
<svg version="1.1" xmlns="http://www.w3.org/2000/svg" xmlns:xlink="http://www.w3.org/1999/xlink" x="0px" y="0px"
	 viewBox="0 0 420.5 438.7" enable-background="new 0 0 420.5 438.7" xml:space="preserve">
<g id="Layer_2">
</g>
<g id="Layer_1">
	<g>
		<path fill="#B23028" d="M295.8,29l-1-2.1h-19.8c-2.1-5.9-4.7-11.4-7.8-16.5H153.3c-3.1,5.1-5.7,10.6-7.8,16.5h-19.8l-1,2.1
			c-0.4,0.9-10.1,21.4-10.1,37.3c0,5.4,4.4,14.2,39,34.7c2.4,1.4,4.7,2.8,7.1,4.1c15.5,17.3,35.4,30.3,44.5,35.7v0.6
			c-4.1,1.1-7,3.6-7,6.5s2.9,5.3,7,6.5v17.3c0,5.2-34.4,12.6-34.4,27.2h78.8c0-14.6-34.4-21.7-34.4-27.1v-17.4c4.1-1.1,7-3.6,7-6.5
			c0-2.9-2.9-5.3-7-6.5v-0.6c9.1-5.5,29.1-18.4,44.5-35.7c2.3-1.3,4.7-2.7,7.1-4.1c18.2-10.8,39-24.5,39-34.7
			C305.9,50.4,296.2,29.8,295.8,29z M121.9,66.2c0-11.5,6.1-26.6,8.5-32.1h12.9c-2.2,8.1-3.3,16.7-3.3,25.6
			c0,10.6,3.7,20.8,9.4,30.1C123.3,73.5,121.9,67.4,121.9,66.2z M271.3,89.8c5.7-9.4,9.4-19.5,9.4-30.1c0-8.9-1.2-17.5-3.3-25.6
			h12.9c2.4,5.5,8.5,20.6,8.5,32.1C298.7,67.4,297.3,73.5,271.3,89.8z"/>
		<polygon fill="#FFD54C" points="411,298.6 9.5,298.6 25.4,250.7 9.5,202.7 411,202.7 398,250.7 		"/>
		<polygon fill="#EBA715" points="356.9,298.6 66.6,298.6 34.7,285.4 385.8,285.4 		"/>
		<g>
			<polygon fill="#D99482" points="63.7,343.7 210.3,428.3 356.9,343.7 356.9,233 63.7,233 			"/>
			<polygon fill="#C35C4A" points="90,324.3 210.3,393.8 330.5,324.3 330.5,233.6 90,233.6 			"/>
		</g>
		<rect x="34.7" y="189.1" fill="#FFE18B" width="351.1" height="95.9"/>
		<text transform="matrix(1 0 0 1 159.6536 227.6334)"><tspan x="0" y="0" fill="#B23028" stroke="#B23028" stroke-width="0.3303" stroke-miterlimit="10" font-family="'Bitter-Regular'" font-size="34.8008" letter-spacing="1">HIGH</tspan><tspan x="-61.4" y="41.8" fill="#B23028" stroke="#B23028" stroke-width="0.3303" stroke-miterlimit="10" font-family="'Bitter-Regular'" font-size="34.8008" letter-spacing="1">PERFORMER</tspan></text>
	</g>
</g>
</svg>
