<?xml version="1.0" encoding="utf-8"?>
<!-- Generator: Adobe Illustrator 18.1.1, SVG Export Plug-In . SVG Version: 6.00 Build 0)  -->
<svg version="1.1" xmlns="http://www.w3.org/2000/svg" xmlns:xlink="http://www.w3.org/1999/xlink" x="0px" y="0px"
	 viewBox="0 0 420.5 480.9" enable-background="new 0 0 420.5 480.9" xml:space="preserve">
<g id="Layer_2">
</g>
<g id="Layer_1">
	<g>
		<g>
			<g>
				<g>
					<path fill="#FFFFFF" stroke="#869D38" stroke-width="0.9008" stroke-miterlimit="10" d="M269.3,222.3c0,8.4-6.9,15.3-15.3,15.3
						H127c-8.4,0-15.3-6.9-15.3-15.3V30.6c0-8.4,6.9-15.3,15.3-15.3h127c8.4,0,15.3,6.9,15.3,15.3V222.3z"/>
				</g>
			</g>
			<path fill="#C0D17F" d="M190.5,217.7c-2.9,0-5.3,2.4-5.3,5.3s2.4,5.3,5.3,5.3c2.9,0,5.3-2.4,5.3-5.3S193.4,217.7,190.5,217.7z"/>
			<g>
				<rect x="118.1" y="45.8" fill="#C0D17F" width="144.9" height="161.4"/>
			</g>
			<polygon fill="#EF5051" points="198.2,132.4 198.2,132.4 198.2,132.4 			"/>
			<rect x="124.7" y="101.3" fill="#A8C046" width="109.9" height="13.3"/>
			<rect x="124.7" y="120.8" fill="#A8C046" width="59.5" height="15.3"/>
			<rect x="124.7" y="150.7" fill="#A8C046" width="75.6" height="9.3"/>
			<rect x="124.7" y="163.8" fill="#A8C046" width="92.6" height="8.2"/>
			<circle fill="#A8C046" cx="190.5" cy="70.8" r="15.5"/>
		</g>
		<g>
			<g>
				<g>
					<path fill="#FFFFFF" stroke="#869D38" stroke-width="0.9008" stroke-miterlimit="10" d="M311.9,247c0,6.7-5.5,12.2-12.2,12.2
						h-58.1c-6.7,0-12.2-5.5-12.2-12.2V94.5c0-6.7,5.5-12.2,12.2-12.2h58.1c6.7,0,12.2,5.5,12.2,12.2V247z"/>
				</g>
				<path fill="#C0D17F" d="M270.7,243.4c-2.3,0-4.2,1.9-4.2,4.2s1.9,4.2,4.2,4.2s4.2-1.9,4.2-4.2S273,243.4,270.7,243.4z"/>
				<g>
					<rect x="234.6" y="106.5" fill="#C0D17F" width="72.3" height="128.5"/>
				</g>
				<polygon fill="#EF5051" points="255.3,175.5 255.3,175.5 255.3,175.5 				"/>
			</g>
			<path fill="#869D38" stroke="#869D38" stroke-width="0.2252" stroke-miterlimit="10" d="M251.8,131.8h-10.5
				c-0.8,0-1.5-0.7-1.5-1.5v-10.5c0-0.8,0.7-1.5,1.5-1.5h10.5c0.8,0,1.5,0.7,1.5,1.5v10.5C253.3,131.1,252.7,131.8,251.8,131.8z"/>
			<path fill="#A8C046" d="M268.1,131.8h-10.5c-0.8,0-1.5-0.7-1.5-1.5v-10.5c0-0.8,0.7-1.5,1.5-1.5h10.5c0.8,0,1.5,0.7,1.5,1.5v10.5
				C269.6,131.1,269,131.8,268.1,131.8z"/>
			<path fill="#A8C046" d="M284.7,131.8h-10.5c-0.8,0-1.5-0.7-1.5-1.5v-10.5c0-0.8,0.7-1.5,1.5-1.5h10.5c0.8,0,1.5,0.7,1.5,1.5v10.5
				C286.2,131.1,285.5,131.8,284.7,131.8z"/>
			<path fill="#A8C046" d="M301,131.8h-10.5c-0.8,0-1.5-0.7-1.5-1.5v-10.5c0-0.8,0.7-1.5,1.5-1.5H301c0.8,0,1.5,0.7,1.5,1.5v10.5
				C302.5,131.1,301.8,131.8,301,131.8z"/>
			<path fill="#A8C046" d="M252.2,149.8h-10.5c-0.8,0-1.5-0.7-1.5-1.5v-10.5c0-0.8,0.7-1.5,1.5-1.5h10.5c0.8,0,1.5,0.7,1.5,1.5v10.5
				C253.7,149.1,253,149.8,252.2,149.8z"/>
			<path fill="#A8C046" d="M268.5,149.8H258c-0.8,0-1.5-0.7-1.5-1.5v-10.5c0-0.8,0.7-1.5,1.5-1.5h10.5c0.8,0,1.5,0.7,1.5,1.5v10.5
				C270,149.1,269.3,149.8,268.5,149.8z"/>
			<path fill="#A8C046" d="M285.1,149.8h-10.5c-0.8,0-1.5-0.7-1.5-1.5v-10.5c0-0.8,0.7-1.5,1.5-1.5h10.5c0.8,0,1.5,0.7,1.5,1.5v10.5
				C286.6,149.1,285.9,149.8,285.1,149.8z"/>
			<path fill="#869D38" stroke="#869D38" stroke-width="0.2252" stroke-miterlimit="10" d="M301.4,149.8h-10.5
				c-0.8,0-1.5-0.7-1.5-1.5v-10.5c0-0.8,0.7-1.5,1.5-1.5h10.5c0.8,0,1.5,0.7,1.5,1.5v10.5C302.8,149.1,302.2,149.8,301.4,149.8z"/>
			<path fill="#A8C046" d="M252.4,167.7h-10.5c-0.8,0-1.5-0.7-1.5-1.5v-10.5c0-0.8,0.7-1.5,1.5-1.5h10.5c0.8,0,1.5,0.7,1.5,1.5v10.5
				C253.9,167,253.2,167.7,252.4,167.7z"/>
			<path fill="#869D38" stroke="#869D38" stroke-width="0.2252" stroke-miterlimit="10" d="M268.7,167.7h-10.5
				c-0.8,0-1.5-0.7-1.5-1.5v-10.5c0-0.8,0.7-1.5,1.5-1.5h10.5c0.8,0,1.5,0.7,1.5,1.5v10.5C270.2,167,269.6,167.7,268.7,167.7z"/>
			<path fill="#A8C046" d="M285.3,167.7h-10.5c-0.8,0-1.5-0.7-1.5-1.5v-10.5c0-0.8,0.7-1.5,1.5-1.5h10.5c0.8,0,1.5,0.7,1.5,1.5v10.5
				C286.8,167,286.1,167.7,285.3,167.7z"/>
			<path fill="#A8C046" d="M301.6,167.7h-10.5c-0.8,0-1.5-0.7-1.5-1.5v-10.5c0-0.8,0.7-1.5,1.5-1.5h10.5c0.8,0,1.5,0.7,1.5,1.5v10.5
				C303.1,167,302.4,167.7,301.6,167.7z"/>
			<path fill="#869D38" stroke="#869D38" stroke-width="0.2252" stroke-miterlimit="10" d="M252.8,185.7h-10.5
				c-0.8,0-1.5-0.7-1.5-1.5v-10.5c0-0.8,0.7-1.5,1.5-1.5h10.5c0.8,0,1.5,0.7,1.5,1.5v10.5C254.3,185,253.6,185.7,252.8,185.7z"/>
			<path fill="#A8C046" d="M269.1,185.7h-10.5c-0.8,0-1.5-0.7-1.5-1.5v-10.5c0-0.8,0.7-1.5,1.5-1.5h10.5c0.8,0,1.5,0.7,1.5,1.5v10.5
				C270.6,185,269.9,185.7,269.1,185.7z"/>
			<path fill="#A8C046" d="M285.7,185.7h-10.5c-0.8,0-1.5-0.7-1.5-1.5v-10.5c0-0.8,0.7-1.5,1.5-1.5h10.5c0.8,0,1.5,0.7,1.5,1.5v10.5
				C287.2,185,286.5,185.7,285.7,185.7z"/>
			<path fill="#A8C046" d="M301.9,185.7h-10.5c-0.8,0-1.5-0.7-1.5-1.5v-10.5c0-0.8,0.7-1.5,1.5-1.5h10.5c0.8,0,1.5,0.7,1.5,1.5v10.5
				C303.4,185,302.8,185.7,301.9,185.7z"/>
		</g>
		<polygon fill="#FFD54C" points="412.8,342.9 10.1,342.9 26.1,294.8 10.1,246.7 412.8,246.7 399.7,294.8 		"/>
		<polygon fill="#EBA715" points="358.5,342.9 67.3,342.9 35.4,329.6 387.5,329.6 		"/>
		<g>
			<polygon fill="#C0D17F" points="64.4,388.1 211.4,473 358.4,388.1 358.4,277.1 64.4,277.1 			"/>
			<polygon fill="#A8C046" points="90.8,368.7 211.4,438.3 332,368.7 332,277.7 90.8,277.7 			"/>
		</g>
		<rect x="35.4" y="233.1" fill="#FFE18B" width="352.1" height="96.2"/>
		<g>
			<text transform="matrix(1 0 0 1 94.3093 273.5096)"><tspan x="0" y="0" fill="#657D1A" stroke="#657D1A" stroke-width="0.2252" stroke-miterlimit="10" font-family="'Bitter-Regular'" font-size="34.9026" letter-spacing="1">SHOW YOUR</tspan><tspan x="54" y="41.9" fill="#657D1A" stroke="#657D1A" stroke-width="0.2252" stroke-miterlimit="10" font-family="'Bitter-Regular'" font-size="34.9026" letter-spacing="1">SKILLS</tspan></text>
		</g>
	</g>
</g>
</svg>
