<?xml version="1.0" encoding="utf-8"?>
<!-- Generator: Adobe Illustrator 18.1.1, SVG Export Plug-In . SVG Version: 6.00 Build 0)  -->
<svg version="1.1" xmlns="http://www.w3.org/2000/svg" xmlns:xlink="http://www.w3.org/1999/xlink" x="0px" y="0px"
	 viewBox="0 0 420.5 480.9" enable-background="new 0 0 420.5 480.9" xml:space="preserve">
<g id="Layer_2">
</g>
<g id="Layer_1">
	<g>
		<g>
			<g>
				<g>
					<path fill="#FFFFFF" stroke="#869D38" stroke-width="0.9008" stroke-miterlimit="10" d="M268.3,218.6c0,8.4-6.9,15.3-15.3,15.3
						H125.7c-8.4,0-15.3-6.9-15.3-15.3V26.7c0-8.4,6.9-15.3,15.3-15.3h127.2c8.4,0,15.3,6.9,15.3,15.3V218.6z"/>
				</g>
			</g>
			<path fill="#C0D17F" d="M189.3,214c-2.9,0-5.3,2.4-5.3,5.3c0,2.9,2.4,5.3,5.3,5.3c2.9,0,5.3-2.4,5.3-5.3
				C194.6,216.4,192.2,214,189.3,214z"/>
			<g>
				<rect x="116.8" y="41.8" fill="#C0D17F" width="145.1" height="161.6"/>
			</g>
			<polygon fill="#EF5051" points="197.1,128.6 197.1,128.6 197.1,128.6 			"/>
			<rect x="123.5" y="97.5" fill="#A8C046" width="110.1" height="13.3"/>
			<rect x="123.5" y="116.9" fill="#A8C046" width="59.6" height="15.3"/>
			<rect x="123.5" y="146.9" fill="#A8C046" width="75.7" height="9.3"/>
			<rect x="123.5" y="160" fill="#A8C046" width="92.8" height="8.2"/>
			<circle fill="#A8C046" cx="189.3" cy="66.8" r="15.5"/>
		</g>
		<g>
			<g>
				<g>
					<path fill="#FFFFFF" stroke="#869D38" stroke-width="0.9008" stroke-miterlimit="10" d="M310.9,243.3c0,6.7-5.5,12.2-12.2,12.2
						h-58.1c-6.7,0-12.2-5.5-12.2-12.2V90.6c0-6.7,5.5-12.2,12.2-12.2h58.1c6.7,0,12.2,5.5,12.2,12.2V243.3z"/>
				</g>
				<path fill="#C0D17F" d="M269.6,239.7c-2.3,0-4.2,1.9-4.2,4.2s1.9,4.2,4.2,4.2s4.2-1.9,4.2-4.2S272,239.7,269.6,239.7z"/>
				<g>
					<rect x="233.5" y="102.6" fill="#C0D17F" width="72.4" height="128.7"/>
				</g>
				<polygon fill="#EF5051" points="254.2,171.7 254.2,171.7 254.2,171.7 				"/>
			</g>
			<path fill="#869D38" stroke="#869D38" stroke-width="0.2252" stroke-miterlimit="10" d="M250.7,127.9h-10.5
				c-0.8,0-1.5-0.7-1.5-1.5v-10.5c0-0.8,0.7-1.5,1.5-1.5h10.5c0.8,0,1.5,0.7,1.5,1.5v10.5C252.2,127.3,251.6,127.9,250.7,127.9z"/>
			<path fill="#A8C046" d="M267.1,127.9h-10.5c-0.8,0-1.5-0.7-1.5-1.5v-10.5c0-0.8,0.7-1.5,1.5-1.5h10.5c0.8,0,1.5,0.7,1.5,1.5v10.5
				C268.6,127.3,267.9,127.9,267.1,127.9z"/>
			<path fill="#A8C046" d="M283.7,127.9h-10.5c-0.8,0-1.5-0.7-1.5-1.5v-10.5c0-0.8,0.7-1.5,1.5-1.5h10.5c0.8,0,1.5,0.7,1.5,1.5v10.5
				C285.2,127.3,284.5,127.9,283.7,127.9z"/>
			<path fill="#A8C046" d="M300,127.9h-10.5c-0.8,0-1.5-0.7-1.5-1.5v-10.5c0-0.8,0.7-1.5,1.5-1.5H300c0.8,0,1.5,0.7,1.5,1.5v10.5
				C301.5,127.3,300.8,127.9,300,127.9z"/>
			<path fill="#A8C046" d="M251.1,146h-10.5c-0.8,0-1.5-0.7-1.5-1.5V134c0-0.8,0.7-1.5,1.5-1.5h10.5c0.8,0,1.5,0.7,1.5,1.5v10.5
				C252.6,145.3,251.9,146,251.1,146z"/>
			<path fill="#A8C046" d="M267.4,146h-10.5c-0.8,0-1.5-0.7-1.5-1.5V134c0-0.8,0.7-1.5,1.5-1.5h10.5c0.8,0,1.5,0.7,1.5,1.5v10.5
				C268.9,145.3,268.3,146,267.4,146z"/>
			<path fill="#A8C046" d="M284,146h-10.5c-0.8,0-1.5-0.7-1.5-1.5V134c0-0.8,0.7-1.5,1.5-1.5H284c0.8,0,1.5,0.7,1.5,1.5v10.5
				C285.5,145.3,284.9,146,284,146z"/>
			<path fill="#869D38" stroke="#869D38" stroke-width="0.2252" stroke-miterlimit="10" d="M300.3,146h-10.5c-0.8,0-1.5-0.7-1.5-1.5
				V134c0-0.8,0.7-1.5,1.5-1.5h10.5c0.8,0,1.5,0.7,1.5,1.5v10.5C301.8,145.3,301.2,146,300.3,146z"/>
			<path fill="#A8C046" d="M251.3,163.9h-10.5c-0.8,0-1.5-0.7-1.5-1.5v-10.5c0-0.8,0.7-1.5,1.5-1.5h10.5c0.8,0,1.5,0.7,1.5,1.5v10.5
				C252.8,163.2,252.1,163.9,251.3,163.9z"/>
			<path fill="#869D38" stroke="#869D38" stroke-width="0.2252" stroke-miterlimit="10" d="M267.7,163.9h-10.5
				c-0.8,0-1.5-0.7-1.5-1.5v-10.5c0-0.8,0.7-1.5,1.5-1.5h10.5c0.8,0,1.5,0.7,1.5,1.5v10.5C269.1,163.2,268.5,163.9,267.7,163.9z"/>
			<path fill="#A8C046" d="M284.3,163.9h-10.5c-0.8,0-1.5-0.7-1.5-1.5v-10.5c0-0.8,0.7-1.5,1.5-1.5h10.5c0.8,0,1.5,0.7,1.5,1.5v10.5
				C285.8,163.2,285.1,163.9,284.3,163.9z"/>
			<path fill="#A8C046" d="M300.6,163.9H290c-0.8,0-1.5-0.7-1.5-1.5v-10.5c0-0.8,0.7-1.5,1.5-1.5h10.5c0.8,0,1.5,0.7,1.5,1.5v10.5
				C302,163.2,301.4,163.9,300.6,163.9z"/>
			<path fill="#869D38" stroke="#869D38" stroke-width="0.2252" stroke-miterlimit="10" d="M251.7,181.9h-10.5
				c-0.8,0-1.5-0.7-1.5-1.5v-10.5c0-0.8,0.7-1.5,1.5-1.5h10.5c0.8,0,1.5,0.7,1.5,1.5v10.5C253.2,181.2,252.5,181.9,251.7,181.9z"/>
			<path fill="#A8C046" d="M268,181.9h-10.5c-0.8,0-1.5-0.7-1.5-1.5v-10.5c0-0.8,0.7-1.5,1.5-1.5H268c0.8,0,1.5,0.7,1.5,1.5v10.5
				C269.5,181.2,268.8,181.9,268,181.9z"/>
			<path fill="#A8C046" d="M284.6,181.9h-10.5c-0.8,0-1.5-0.7-1.5-1.5v-10.5c0-0.8,0.7-1.5,1.5-1.5h10.5c0.8,0,1.5,0.7,1.5,1.5v10.5
				C286.1,181.2,285.4,181.9,284.6,181.9z"/>
			<path fill="#A8C046" d="M300.9,181.9h-10.5c-0.8,0-1.5-0.7-1.5-1.5v-10.5c0-0.8,0.7-1.5,1.5-1.5h10.5c0.8,0,1.5,0.7,1.5,1.5v10.5
				C302.4,181.2,301.7,181.9,300.9,181.9z"/>
		</g>
		<polygon fill="#FFD54C" points="411.9,339.3 8.7,339.3 24.7,291.2 8.7,243 411.9,243 398.8,291.2 		"/>
		<polygon fill="#EBA715" points="357.5,339.3 66,339.3 34,326 386.6,326 		"/>
		<g>
			<polygon fill="#C0D17F" points="63.1,384.6 210.3,469.6 357.5,384.6 357.5,273.5 63.1,273.5 			"/>
			<polygon fill="#A8C046" points="89.5,365.2 210.3,434.9 331,365.2 331,274 89.5,274 			"/>
		</g>
		<rect x="34" y="229.4" fill="#FFE18B" width="352.6" height="96.3"/>
		<g>
			<text transform="matrix(1 0 0 1 93.0102 268.05)"><tspan x="0" y="0" fill="#657D1A" stroke="#657D1A" stroke-width="0.2252" stroke-miterlimit="10" font-family="'Bitter-Regular'" font-size="34.948" letter-spacing="1">SHOW YOUR</tspan><tspan x="54.1" y="41.9" fill="#657D1A" stroke="#657D1A" stroke-width="0.2252" stroke-miterlimit="10" font-family="'Bitter-Regular'" font-size="34.948" letter-spacing="1">SKILLS</tspan></text>
		</g>
		<text transform="matrix(1 0 0 1 148.2231 359.9748)"><tspan x="0" y="0" fill="#FFFFFF" font-family="'Bitter-Regular'" font-size="23.6936">iOS / Swift</tspan><tspan x="27" y="28.4" fill="#FFFFFF" font-family="'Bitter-Regular'" font-size="23.6936">Ready</tspan></text>
	</g>
</g>
</svg>
