<?xml version="1.0" encoding="UTF-8" standalone="no"?>
<svg width="270px" height="203px" viewBox="0 0 270 203" version="1.1" xmlns="http://www.w3.org/2000/svg" xmlns:xlink="http://www.w3.org/1999/xlink" xmlns:sketch="http://www.bohemiancoding.com/sketch/ns">
    <!-- Generator: Sketch 3.3.3 (12081) - http://www.bohemiancoding.com/sketch -->
    <title>card-bg-no-image</title>
    <desc>Created with Sketch.</desc>
    <defs>
        <rect id="path-1" x="0" y="0" width="270" height="202"></rect>
    </defs>
    <g id="Dashboard-Web" stroke="none" stroke-width="1" fill="none" fill-rule="evenodd" sketch:type="MSPage">
        <g id="Dashboard-Cards" sketch:type="MSArtboardGroup" transform="translate(-2660.000000, -217.000000)">
            <g id="card-bg-no-image" sketch:type="MSLayerGroup" transform="translate(2660.000000, 217.500000)">
                <g id="Mask">
                    <use fill="#F0F0F0" fill-rule="evenodd" sketch:type="MSShapeGroup" xlink:href="#path-1"></use>
                    <use fill="none" xlink:href="#path-1"></use>
                    <use fill="none" xlink:href="#path-1"></use>
                    <use fill="none" xlink:href="#path-1"></use>
                    <use fill="none" xlink:href="#path-1"></use>
                </g>
                <g id="Stroke-141-+-Stroke-142-+-Stroke-143" transform="translate(113.000000, 63.000000)" stroke="#B7B7B7" stroke-width="2" sketch:type="MSShapeGroup" stroke-linecap="square" stroke-linejoin="round">
                    <path d="M0,0 L44,0 L44,44 L0,44 L0,0 Z" id="Stroke-141"></path>
                    <path d="M6,36.0001 L14,24.0001 L20,30.0001 L28,20.0001 L38,36.0001 L6,36.0001 L6,36.0001 Z" id="Stroke-142"></path>
                    <path d="M18,8.0001 C20.209,8.0001 22,9.7911 22,12.0001 C22,14.2091 20.209,16.0001 18,16.0001 C15.791,16.0001 14,14.2091 14,12.0001 C14,9.7911 15.791,8.0001 18,8.0001 L18,8.0001 Z" id="Stroke-143"></path>
                </g>
                <text id="NO-IMAGES-AVAILABLE" sketch:type="MSTextLayer" font-family="Roboto" font-size="11" font-weight="normal" fill="#7F7F7F">
                    <tspan x="77" y="137">NO IMAGES AVAILABLE</tspan>
                </text>
            </g>
        </g>
    </g>
</svg>