<?xml version="1.0" encoding="UTF-8" standalone="no"?>
<svg width="32px" height="32px" viewBox="0 0 32 32" version="1.1" xmlns="http://www.w3.org/2000/svg" xmlns:xlink="http://www.w3.org/1999/xlink">
    <defs></defs>
    <g id="Page-1" stroke="none" stroke-width="1" fill="none" fill-rule="evenodd" stroke-linecap="round" stroke-linejoin="round">
        <g id="skillpicker-iOS-enabled" stroke-width="2" stroke="#05C14F">
            <g id="iOS-Developer" transform="translate(1.000000, 3.000000)">
                <g id="Stroke-1696-+-Stroke-1699">
                    <path d="M4.00000007,22 L1.0003,22 C0.4473,22 0.0003,21.552 0.0003,21 L0.0003,1 C0.0003,0.448 0.4473,0 1.0003,0 L29.0003,0 C29.5523,0 30.0003,0.448 30.0003,1 L30.0003,21 C30.0003,21.552 29.5523,22 29.0003,22 L16.9999996,22" id="Stroke-1696"></path>
                    <path d="M26,10 L26,12" id="Stroke-1699"></path>
                </g>
                <g id="Stroke-1698-+-Stroke-1702" transform="translate(5.000000, 9.000000)">
                    <path d="M10,18 L1,18 C0.448,18 0,17.552 0,17 L0,1 C0,0.448 0.448,0 1,0 L10,0 C10.552,0 11,0.448 11,1 L11,17 C11,17.552 10.552,18 10,18 L10,18 Z" id="Stroke-1698"></path>
                    <path d="M5,15 L6,15" id="Stroke-1702"></path>
                </g>
            </g>
        </g>
    </g>
</svg>