<?xml version="1.0" encoding="UTF-8" standalone="no"?>
<svg width="25px" height="28px" viewBox="0 0 25 28" version="1.1" xmlns="http://www.w3.org/2000/svg" xmlns:xlink="http://www.w3.org/1999/xlink" xmlns:sketch="http://www.bohemiancoding.com/sketch/ns">
    <!-- Generator: Sketch 3.3.3 (12081) - http://www.bohemiancoding.com/sketch -->
    <title>ico-track-data</title>
    <desc>Created with Sketch.</desc>
    <defs></defs>
    <g id="ASSETS-EXPORT" stroke="none" stroke-width="1" fill="none" fill-rule="evenodd" sketch:type="MSPage">
        <path d="M21.3081325,13.9957141 C20.8393491,13.5137707 20.3259962,13.0316796 19.7625209,12.5534309 C19.7597444,12.556239 19.7568218,12.559047 19.7540454,12.561855 C19.4661703,12.3159323 19.1671893,12.0703052 18.8546183,11.8261561 C17.7634694,10.9722251 16.523999,10.130413 15.157396,9.33234669 C15.035524,9.26096409 14.9137982,9.19135497 14.7920723,9.12218923 C15.2297301,8.94587569 15.6587663,8.78700138 16.078158,8.6455663 C16.5627234,8.9368605 17.0338448,9.23613536 17.4919608,9.54206077 C17.4329245,9.10977486 17.3665817,8.68842541 17.2929324,8.27875138 C18.3320593,8.00341851 19.2840929,7.85444613 20.0975958,7.85444613 C21.0493372,7.85444613 21.7437445,8.06238674 21.9572397,8.40925 C22.0887563,8.62369337 22.0414103,8.96641851 21.9798898,9.21588812 C21.8257232,9.83941436 21.3965409,10.6247707 20.6999416,11.4999834 C20.6278997,11.5893964 20.5416833,11.6829475 20.4632118,11.7739862 C21.0287329,12.2585898 21.542232,12.74275 22.0088234,13.2248412 C22.170881,13.0375912 22.3250477,12.8507845 22.4691313,12.6656036 C23.2582306,11.6430442 23.7942336,10.6476782 24.022634,9.73300552 C24.3146007,8.55718785 24.0331553,7.75483564 23.7454263,7.2872279 C23.3076224,6.57428867 22.3192025,5.72626934 20.0975958,5.72626934 C17.9996147,5.72626934 15.2889126,6.48487569 12.4059238,7.84853453 C11.5222788,8.26618923 10.6241669,8.7376395 9.72050212,9.26584116 C9.62960957,9.31904558 9.54120123,9.3737279 9.45118546,9.42752348 C9.52351956,8.94617127 9.60549821,8.48964779 9.69609849,8.05883978 C10.1625438,7.79902486 10.6339576,7.55206768 11.1050791,7.31220442 C10.7263114,7.15421685 10.3517815,7.00716575 9.98222004,6.87060773 C10.7116985,4.22102762 11.7451262,2.82707182 12.4059238,2.82707182 C12.9710066,2.82707182 13.8074518,3.8661837 14.4960139,5.82410635 C15.1863297,5.57241989 15.8564795,5.36063674 16.5014951,5.18993923 C15.5298801,2.40734807 14.0831981,0.698895028 12.4059238,0.698895028 C10.5300595,0.698895028 8.93739417,2.83889503 7.98199954,6.23348481 C7.97922308,6.23274586 7.97630049,6.23185912 7.9733779,6.23112017 C7.79086216,6.88183978 7.63669555,7.58044337 7.50313319,8.31200414 C7.5041561,8.31215193 7.50532514,8.3125953 7.50634804,8.31289088 C7.19626126,10.0200138 7.02441297,11.94025 7.02441297,14 C7.02441297,14.1059655 7.02675105,14.2095663 7.02762782,14.3147928 C6.65324406,14.0125622 6.30253328,13.7126961 5.97724903,13.4172638 C5.98689358,12.8562528 6.00954365,12.3088384 6.04169214,11.7717693 C5.71173174,12.0318798 5.39331558,12.2940594 5.08688203,12.5575691 C3.78501438,11.2162265 3.02820973,10.0139544 2.82377457,9.16164917 C2.77642862,8.96848757 2.71899973,8.61526934 2.84627852,8.41146685 C3.01096645,8.15386878 3.57809502,7.8772058 4.67333556,7.8772058 C5.2135763,7.8772058 5.82395919,7.95021409 6.47350479,8.07672238 C6.60721327,7.34309254 6.76503312,6.64936602 6.94594144,5.99657735 C6.13214629,5.83637293 5.36774291,5.74695994 4.67333556,5.74695994 C2.49279127,5.74695994 1.51489271,6.57221961 1.07723488,7.26225138 C0.787313962,7.71921823 0.49958499,8.50723481 0.778838451,9.66487431 C1.0941859,10.974442 2.07836803,12.4813094 3.54945364,14.0036948 C3.54273168,14.0107887 3.5354252,14.0178826 3.52855712,14.0249765 C3.99529472,14.5049986 4.51288538,14.9853163 5.07212295,15.4610525 C5.07665296,15.456471 5.08147524,15.4515939 5.08600525,15.4470124 C6.41008459,16.5845525 7.97659275,17.6985939 9.71202661,18.7112514 C9.80291915,18.7646036 9.89351944,18.8147044 9.98441198,18.8668743 C9.98411972,18.8668743 9.98382746,18.8670221 9.9835352,18.8671699 C9.54426995,19.0427445 9.11333407,19.2005843 8.69204275,19.3417238 C8.21639125,19.0535331 7.75506044,18.7592831 7.30790419,18.4601561 C7.36284888,18.8853481 7.42583069,19.2996036 7.49611898,19.7024793 C6.44004113,19.982837 5.47339454,20.1328439 4.64659387,20.1328439 C3.55544494,20.1328439 2.99416156,19.8668218 2.83210395,19.6157265 C2.7416498,19.4742914 2.73317429,19.2203881 2.81164583,18.8943633 C2.97574925,18.1984199 3.49976961,17.2753232 4.37303946,16.2382804 C3.81847803,15.7606229 3.30454061,15.2742459 2.83634171,14.7896423 C1.75527572,16.0573854 1.02345922,17.2960138 0.762618077,18.4000055 C0.491693998,19.5514378 0.778838451,20.3286657 1.06875936,20.7772086 C1.5064172,21.4549738 2.48066252,22.2610207 4.64659387,22.2610207 C5.63296794,22.2610207 6.75115082,22.096087 7.9570114,21.7830677 L7.9570114,21.7833633 C7.96782498,21.7804075 7.97893082,21.7771561 7.9897444,21.7743481 C9.14372901,21.4725608 10.3772081,21.0361367 11.6537953,20.4760124 C12.8089489,19.9711616 13.9962511,19.3662569 15.1904213,18.6676533 C15.2523802,18.6315925 15.312001,18.5944972 15.3733754,18.5582887 C15.3038178,19.0375718 15.2247617,19.4924696 15.137084,19.9207652 C14.6545644,20.1901865 14.1711681,20.4468978 13.6885024,20.6900124 C14.0795449,20.851547 14.4666419,21.0015539 14.8486244,21.1400331 C14.1251373,23.8036533 13.0902482,25.1729282 12.4081157,25.1729282 C11.8184832,25.1729282 10.9713706,24.141797 10.2854387,22.161558 C9.59263881,22.4111754 8.91868959,22.6186727 8.26958238,22.7893702 C9.23126058,25.6012238 10.6878794,27.301105 12.4059238,27.301105 C15.5256423,27.301105 17.7877269,21.7062169 17.7877269,14 C17.7877269,13.8924088 17.7850966,13.7868867 17.7842198,13.6800345 C18.1607955,13.9815262 18.5117985,14.2793232 18.8354754,14.5715041 C18.8267076,15.1427127 18.8052266,15.6994378 18.774101,16.2447831 C19.1120985,15.9818646 19.4373827,15.7168771 19.7498076,15.450855 C21.6414539,17.3984323 22.2975753,18.983924 21.9719988,19.5864641 C21.8425281,19.8275097 21.2875283,20.1100843 20.1550247,20.1100843 C19.6105462,20.1100843 19.0023552,20.0397362 18.3589471,19.9169227 C18.2296225,20.6484834 18.0775017,21.3428011 17.9028769,21.9913039 C18.7024975,22.1466312 19.4626631,22.238261 20.1550247,22.238261 C22.4549568,22.238261 23.4186808,21.3485649 23.8190756,20.6048854 C24.7218636,18.9316064 23.707871,16.506076 21.2970267,14.0070939 C21.3006799,14.0032514 21.3044793,13.9995566 21.3081325,13.9957141 L21.3081325,13.9957141 Z M15.6834622,14 C15.6834622,14.6620994 15.6654883,15.2946409 15.6330475,15.8995456 C15.1622183,16.2097569 14.6643551,16.5193771 14.1382889,16.8261892 C13.5591778,17.1638895 12.9813817,17.476761 12.4087003,17.7668729 C11.862176,17.4896188 11.3119984,17.1910829 10.761967,16.8703785 C10.2050675,16.5449448 9.67827069,16.2155207 9.17894622,15.8847666 C9.14650547,15.2854779 9.12867767,14.6579613 9.12867767,14 C9.12867767,13.339674 9.14708999,12.7072804 9.18069977,12.1022279 C9.6817778,11.768518 10.2114972,11.4364337 10.7726345,11.1089309 C11.3081991,10.7960594 11.843033,10.5053564 12.3742137,10.2326837 C12.9474797,10.5235345 13.5258602,10.8372928 14.1052637,11.1754365 C14.6443354,11.4902293 15.1515508,11.8062044 15.631294,12.1215884 C15.6649038,12.7199903 15.6834622,13.3455856 15.6834622,14 L15.6834622,14 Z M12.4059238,11.6058011 C11.0992339,11.6058011 10.038626,12.6784613 10.038626,14 C10.038626,15.3216865 11.0992339,16.3941989 12.4059238,16.3941989 C13.7127599,16.3941989 14.7733677,15.3216865 14.7733677,14 C14.7733677,12.6784613 13.7127599,11.6058011 12.4059238,11.6058011" id="ico-track-data" fill="#d1d3d4" sketch:type="MSShapeGroup"></path>
    </g>
</svg>
