<?xml version="1.0" encoding="UTF-8" standalone="no"?>
<svg width="14px" height="14px" viewBox="0 0 14 14" version="1.1" xmlns="http://www.w3.org/2000/svg" xmlns:xlink="http://www.w3.org/1999/xlink" xmlns:sketch="http://www.bohemiancoding.com/sketch/ns">
    <!-- Generator: Sketch 3.3.3 (12081) - http://www.bohemiancoding.com/sketch -->
    <title>ico-star</title>
    <desc>Created with Sketch.</desc>
    <defs></defs>
    <g id="Dashboard" stroke="none" stroke-width="1" fill="none" fill-rule="evenodd" sketch:type="MSPage">
        <g id="Cards---Specks" sketch:type="MSArtboardGroup" transform="translate(-1364.000000, -1594.000000)" fill="#FFFFFF">
            <g id="Rectangle-130-+-6-IMAGES-+-Rectangle-135" sketch:type="MSLayerGroup" transform="translate(1360.000000, 1589.000000)">
                <path d="M15.0517024,18.8457667 C15.0004468,18.8457667 14.947869,18.8315333 14.9029913,18.8018222 L10.9371024,16.3126222 L6.97121348,18.8018222 C6.87484681,18.8631889 6.75024681,18.8586778 6.65839125,18.7920222 C6.56544681,18.7253667 6.52259125,18.6083889 6.55121348,18.4966222 L7.69306903,13.9567333 L4.10004681,10.9542778 C4.01270236,10.8809333 3.97855792,10.7616222 4.01355792,10.6524222 C4.04855792,10.5440778 4.14710236,10.4676222 4.26081348,10.4597667 L8.93230236,10.1428222 L10.6767024,5.79838889 C10.7195579,5.69222222 10.823469,5.62222222 10.9371024,5.62222222 C11.0508135,5.62222222 11.1546468,5.69222222 11.1975024,5.79838889 L12.9419024,10.1428222 L17.6133913,10.4597667 C17.7271024,10.4676222 17.8257246,10.5440778 17.8606468,10.6524222 C17.8956468,10.7616222 17.8615024,10.8797667 17.7741579,10.9542778 L14.1812135,13.9567333 L15.3229913,18.4966222 C15.3516135,18.6083889 15.3087579,18.7242778 15.2158135,18.7920222 C15.167669,18.8270222 15.1096468,18.8457667 15.0517024,18.8457667" id="ico-star" sketch:type="MSShapeGroup"></path>
            </g>
        </g>
    </g>
</svg>