<?xml version="1.0" encoding="UTF-8" standalone="no"?>
<svg width="28px" height="27px" viewBox="0 0 28 27" version="1.1" xmlns="http://www.w3.org/2000/svg" xmlns:xlink="http://www.w3.org/1999/xlink" xmlns:sketch="http://www.bohemiancoding.com/sketch/ns">
    <!-- Generator: Sketch 3.3.3 (12081) - http://www.bohemiancoding.com/sketch -->
    <title>ico-google+</title>
    <desc>Created with Sketch.</desc>
    <defs></defs>
    <g id="navigation-states" stroke="none" stroke-width="1" fill="none" fill-rule="evenodd" sketch:type="MSPage">
        <g id="Mobile-320-menu-speck-10" sketch:type="MSArtboardGroup" transform="translate(-231.000000, -1252.000000)" fill="#B7B7B7">
            <g id="©-2015-topcoder.-All-Copy-+-Group" sketch:type="MSLayerGroup" transform="translate(20.000000, 1212.000000)">
                <g id="Group" sketch:type="MSShapeGroup">
                    <g id="google+-copy" transform="translate(211.000000, 40.000000)">
                        <path d="M1.50952632,6.8835 C1.50952632,9.1245 2.27115789,10.7415 3.77152632,11.691 C5.00173684,12.471 6.42731579,12.588 7.16910526,12.588 C7.34921053,12.588 7.49421053,12.579 7.59494737,12.573 C7.59494737,12.573 7.35989474,14.079 8.49547368,15.567 L8.44357895,15.567 C6.47615789,15.567 0.0595263158,15.9705 0.0595263158,21.1575 C0.0595263158,26.4315 5.95263158,26.7 7.13552632,26.7 C7.22863158,26.7 7.28357895,26.697 7.28357895,26.697 C7.29578947,26.697 7.37973684,26.7 7.52473684,26.7 C8.28331579,26.7 10.2446316,26.607 12.0655263,25.7355 C14.4282632,24.6105 15.6264211,22.647 15.6264211,19.908 C15.6264211,17.262 13.8009474,15.687 12.4684737,14.535 C11.6549474,13.8315 10.9513158,13.2255 10.9513158,12.636 C10.9513158,12.036 11.4656842,11.5845 12.1143684,11.013 C13.166,10.0905 14.1581053,8.775 14.1581053,6.288 C14.1581053,4.1025 13.8696316,2.634 12.0914737,1.7025 C12.2761579,1.6095 12.9324737,1.542 13.2560526,1.497 C14.2191579,1.368 15.6279474,1.221 15.6279474,0.4485 L15.6279474,0.3 L8.60842105,0.3 C8.53821053,0.303 1.50952632,0.558 1.50952632,6.8835 L1.50952632,6.8835 Z M12.8408947,20.403 C12.9752105,22.512 11.1390526,24.0675 8.381,24.264 C5.58021053,24.4665 3.27547368,23.2275 3.14115789,21.12 C3.07552632,20.106 3.52884211,19.116 4.41563158,18.3255 C5.31463158,17.526 6.54942105,17.031 7.89257895,16.9335 C8.05131579,16.9245 8.20852632,16.9155 8.36573684,16.9155 C10.9589474,16.917 12.7142105,18.414 12.8408947,20.403 L12.8408947,20.403 Z M11.0077895,5.439 C11.6961579,7.821 10.6567368,10.308 8.99915789,10.7685 C8.80836842,10.821 8.613,10.8465 8.41305263,10.8465 C6.89589474,10.8465 5.39247368,9.3375 4.83384211,7.257 C4.52247368,6.093 4.54842105,5.07 4.90557895,4.089 C5.25510526,3.1215 5.887,2.472 6.68068421,2.2515 C6.87147368,2.199 7.06836842,2.172 7.26831579,2.172 C9.09989474,2.172 10.2782105,2.919 11.0077895,5.439 L11.0077895,5.439 Z M22.8947368,10.5 L22.8947368,6 L19.8421053,6 L19.8421053,10.5 L15.2631579,10.5 L15.2631579,13.5 L19.8421053,13.5 L19.8421053,18 L22.8947368,18 L22.8947368,13.5 L27.4736842,13.5 L27.4736842,10.5 L22.8947368,10.5 L22.8947368,10.5 Z" id="ico-google+"></path>
                    </g>
                </g>
            </g>
        </g>
    </g>
</svg>