<?xml version="1.0" encoding="UTF-8" standalone="no"?>
<svg width="26px" height="24px" viewBox="0 0 26 24" version="1.1" xmlns="http://www.w3.org/2000/svg" xmlns:xlink="http://www.w3.org/1999/xlink" xmlns:sketch="http://www.bohemiancoding.com/sketch/ns">
    <!-- Generator: Sketch 3.3.3 (12081) - http://www.bohemiancoding.com/sketch -->
    <title>ico-track-design</title>
    <desc>Created with Sketch.</desc>
    <defs></defs>
    <g id="ASSETS-EXPORT" stroke="none" stroke-width="1" fill="none" fill-rule="evenodd" sketch:type="MSPage">
        <path d="M23.6199753,5.45757979 C23.6076119,5.47192029 23.5942041,5.48575529 23.5797519,5.49899948 L5.99174869,21.5780527 C5.89793018,21.6664313 5.76563419,21.7157236 5.62906293,21.7157236 C5.49534185,21.7157236 5.36280835,21.6664313 5.26637716,21.5780527 L5.05708335,21.3867235 L5.05708335,21.3867235 L1.7874915,22.1884517 L2.66438021,19.1993968 L2.45490931,19.0079057 C2.25420894,18.8244168 2.25420894,18.5275774 2.45490931,18.3445229 L20.0445751,2.26503539 C20.057289,2.25338304 20.0705768,2.24240112 20.0843815,2.2321171 L20.6112865,1.75039798 C21.0986678,1.30524748 21.7378213,1.0815865 22.3772123,1.0815865 C23.0163658,1.0815865 23.6555193,1.30524748 24.1445632,1.75039798 C25.116713,2.64069898 25.116713,4.0862438 24.1424255,4.97893341 L23.6199753,5.45757979 Z M22.3772123,2.01965974 C22.7695875,2.01965974 23.1384486,2.16102217 23.417054,2.4137808 C23.9901783,2.93753836 23.9901783,3.79135873 23.417054,4.31576774 C23.3488871,4.37570019 23.2887958,4.43302689 23.2329797,4.48405634 L21.1525837,2.5820694 C21.258753,2.48305056 21.3352329,2.4137808 21.3352329,2.4137808 C21.6138383,2.15906785 21.9843621,2.01965974 22.3772123,2.01965974 Z M12.9963105,7.38274611 L12.2604883,6.71002599 L10.3589413,8.44893584 L9.63333229,7.78555302 L11.5351168,6.04686031 L10.7213896,5.30291611 L9.332638,6.57278934 L8.60726647,5.90940653 L9.99601806,4.63975044 L9.18229086,3.89580624 L7.28050636,5.6347161 L6.55513483,4.97133328 L8.45691933,3.23264057 L7.64319213,2.48869637 L6.25444054,3.75835245 L5.52906901,3.09518678 L6.9178206,1.8255307 L5.34689483,0.388888889 L0.516784987,4.80499899 L8.18258923,11.7812673 L12.9963105,7.38274611 Z M24.5735157,17.8592003 L23.1847641,19.1301592 L22.459155,18.4650392 L23.8479066,17.1953831 L23.0344169,16.4520904 L21.1326324,18.192086 L20.4070234,17.526966 L22.3088079,15.7882733 L21.4953182,15.0449805 L20.1065666,16.3159395 L19.3809576,15.6508195 L20.7697092,14.3811634 L19.9562195,13.6378706 L18.054435,15.3778662 L17.3288259,14.7127462 L19.2306104,12.9740535 L18.4171208,12.2307608 L17.0283692,13.5017197 L16.5951414,13.1045586 L13.1542582,16.2503612 L20.8017737,23.2418298 L25.6318836,18.8281083 L24.5735157,17.8592003 Z" id="ico-track-design" fill="#0096FF" sketch:type="MSShapeGroup"></path>
    </g>
</svg>
