<?xml version="1.0" encoding="UTF-8" standalone="no"?>
<svg width="20px" height="20px" viewBox="0 0 20 20" version="1.1" xmlns="http://www.w3.org/2000/svg" xmlns:xlink="http://www.w3.org/1999/xlink" xmlns:sketch="http://www.bohemiancoding.com/sketch/ns">
    <!-- Generator: Sketch 3.3.3 (12081) - http://www.bohemiancoding.com/sketch -->
    <title>ico-help-normal</title>
    <desc>Created with Sketch.</desc>
    <defs></defs>
    <g id="Intro-JS" stroke="none" stroke-width="1" fill="none" fill-rule="evenodd" sketch:type="MSPage">
        <g id="IntroJS-style" sketch:type="MSArtboardGroup" transform="translate(-1303.000000, -117.000000)" fill="#B7B7B7">
            <g id="ico-help-normal" sketch:type="MSLayerGroup" transform="translate(1303.000000, 117.000000)">
                <path d="M10,18.5 L10,18.5 C14.6944204,18.5 18.5,14.6944204 18.5,10 C18.5,5.30557963 14.6944204,1.5 10,1.5 C5.30557963,1.5 1.5,5.30557963 1.5,10 C1.5,14.6944204 5.30557963,18.5 10,18.5 L10,18.5 Z M10,20 C4.4771525,20 0,15.5228475 0,10 C0,4.4771525 4.4771525,0 10,0 C15.5228475,0 20,4.4771525 20,10 C20,15.5228475 15.5228475,20 10,20 Z M8.29,8.135 C8.29,7.025 9.085,6.335 9.955,6.335 C10.84,6.335 11.695,6.95 11.695,7.925 C11.695,8.63 11.095,9.29 10.465,9.47 C9.31,9.83 8.455,10.4 8.455,11.855 L8.455,12.68 L9.775,12.68 L9.805,11.855 C9.805,11.15 10.255,10.94 10.87,10.76 C12.04,10.4 13.03,9.38 13.03,7.925 C13.03,6.125 11.575,5 9.955,5 C8.35,5 7,6.215 7,8.135 L8.29,8.135 Z M8.14,14.66 C8.14,15.2 8.59,15.59 9.13,15.59 C9.67,15.59 10.105,15.2 10.105,14.66 C10.105,14.12 9.67,13.715 9.13,13.715 C8.59,13.715 8.14,14.12 8.14,14.66 L8.14,14.66 Z" id="i" sketch:type="MSShapeGroup"></path>
            </g>
        </g>
    </g>
</svg>