<?xml version="1.0" encoding="UTF-8" standalone="no"?>
<svg width="27px" height="25px" viewBox="0 0 27 25" version="1.1" xmlns="http://www.w3.org/2000/svg" xmlns:xlink="http://www.w3.org/1999/xlink" xmlns:sketch="http://www.bohemiancoding.com/sketch/ns">
    <!-- Generator: Sketch 3.3.3 (12081) - http://www.bohemiancoding.com/sketch -->
    <title>ico-track-develop</title>
    <desc>Created with Sketch.</desc>
    <defs></defs>
    <g id="ASSETS-EXPORT" stroke="none" stroke-width="1" fill="none" fill-rule="evenodd" sketch:type="MSPage">
        <path d="M7.54344719,21.2204907 L5.08041419,21.8308898 L3.28479901,20.1892616 L3.95221682,17.9852237 L6.36299647,17.3750418 L8.15861165,19.01667 L7.54344719,21.2204907 L7.54344719,21.2204907 Z M13.1469066,16.4810494 C13.1407312,16.4091738 13.1345558,16.3359954 13.1366935,16.2647714 L12.793959,15.9514288 C12.1685814,16.0610879 11.4733743,15.8689131 11.0244705,15.4585061 L10.6658225,15.1306147 C9.94805144,14.4743978 9.92026216,13.3936592 10.5653535,12.6953158 L9.91836204,12.1020713 L6.81593802,14.9382229 C6.45942766,14.8739475 6.10030462,14.8431127 5.74783201,14.8431127 C2.86202189,14.8431127 0.515371358,16.9885209 0.515371358,19.6268519 C0.515371358,22.2651829 2.86202189,24.4105912 5.74783201,24.4105912 C8.63364213,24.4105912 10.9802927,22.2651829 10.9802927,19.6268519 C10.9802927,19.2290394 10.9382525,18.8955022 10.845859,18.5821597 L13.1469066,16.4810494 Z M13.3008165,10.1963929 C13.643551,9.93255978 14.0943549,9.77708283 14.571523,9.77708283 C15.1026071,9.77708283 15.6094646,9.96187457 15.9645499,10.2845544 L16.3231979,10.6141829 C16.7899153,11.0410931 16.9865779,11.651275 16.8642576,12.2338793 L17.2229056,12.5617706 C17.2870347,12.5617706 17.3490262,12.5747994 17.4112552,12.5800109 L17.9601529,12.0799224 L17.9601529,12.0781852 L18.5054879,11.5800509 C19.4232468,12.0321501 20.3032407,12.2577654 21.1148303,12.2577654 C22.1147694,12.2577654 23.012577,11.914891 23.7578998,11.2332678 C25.1369133,9.97294905 26.6339718,7.03973297 25.9342519,5.12515153 C25.8781983,4.9711946 25.7383018,4.85588976 25.5658658,4.81745482 C25.3915296,4.77901987 25.211018,4.82635783 25.0846599,4.94166267 L22.3651105,7.42799107 C22.1990873,7.57999368 21.8843796,7.57109067 21.7057682,7.42799107 L18.9862187,4.94166267 C18.8199581,4.78966006 18.8304087,4.5041123 18.9862187,4.33886375 L21.7057682,1.85253534 C21.8299886,1.73918483 21.882242,1.5726334 21.8444771,1.41498498 C21.804337,1.25733655 21.6779789,1.13074009 21.5093431,1.07775633 C19.4572114,0.434568143 16.1809263,1.82734634 14.8240017,3.06551617 C13.425512,4.34646388 13.3069919,6.10730554 14.4753294,7.93372546 L12.6519249,9.60293126 L13.3008165,10.1963929 Z M5.2846773,4.19402697 L5.49131555,2.92806238 L1.74570028,0.958542853 L0.463118006,2.13113441 L2.6173812,5.55575321 L4.00209502,5.36661853 L12.0063585,12.6844585 L13.2889408,11.512084 L5.2846773,4.19402697 Z M22.1608474,21.4589177 L16.0044524,15.8304782 L16.7300615,15.1670954 L22.8864564,20.7955349 L22.1608474,21.4589177 Z M25.3212251,20.1671126 L18.5738923,13.9984124 C18.1912552,13.646635 17.641645,13.4687919 17.0526072,13.5052725 L16.8200798,13.5198214 L15.6899823,12.4866379 L15.8099275,12.2028273 C15.9443611,11.8821018 15.8624183,11.519467 15.5975888,11.2773486 L15.2391784,10.9496744 C14.9142575,10.6526179 14.2287885,10.6526179 13.9041052,10.9496744 L11.3914315,13.2468681 C11.0363463,13.5715023 11.0363463,14.1408606 11.3914315,14.4674491 L11.749842,14.7951233 C12.0001831,15.0242129 12.4291356,15.1047743 12.762132,14.9894695 L13.0725644,14.8795933 L14.197199,15.9073481 L14.1708348,16.1310091 C14.1124061,16.627189 14.3192818,17.1461693 14.7240078,17.5161871 L21.4734783,23.6848873 C21.9945867,24.1615241 22.6781555,24.4231857 23.3973517,24.4231857 C24.1165478,24.4231857 24.8020168,24.1595698 25.3293006,23.6779386 C26.3575041,22.691876 26.3575041,21.1145232 25.3212251,20.1671126 L25.3212251,20.1671126 Z" id="ico-track-develop" fill="#d1d3d4" sketch:type="MSShapeGroup"></path>
    </g>
</svg>
