<?xml version="1.0" encoding="UTF-8" standalone="no"?>
<svg width="28px" height="24px" viewBox="0 0 28 24" version="1.1" xmlns="http://www.w3.org/2000/svg" xmlns:xlink="http://www.w3.org/1999/xlink" xmlns:sketch="http://www.bohemiancoding.com/sketch/ns">
    <!-- Generator: Sketch 3.3.3 (12081) - http://www.bohemiancoding.com/sketch -->
    <title>ico-twitter</title>
    <desc>Created with Sketch.</desc>
    <defs></defs>
    <g id="navigation-states" stroke="none" stroke-width="1" fill="none" fill-rule="evenodd" sketch:type="MSPage">
        <g id="Mobile-320-menu-speck-10" sketch:type="MSArtboardGroup" transform="translate(-117.000000, -1255.000000)" fill="#B7B7B7">
            <g id="©-2015-topcoder.-All-Copy-+-Group" sketch:type="MSLayerGroup" transform="translate(20.000000, 1212.000000)">
                <g id="Group" sketch:type="MSShapeGroup">
                    <g id="twitter-copy" transform="translate(97.000000, 43.000000)">
                        <path d="M24.974,6.369 C24.986,6.612 24.9905,6.858 24.9905,7.101 C24.9905,14.586 19.295,23.214 8.8805,23.214 C5.681,23.214 2.7065,22.2765 0.2,20.6685 C0.644,20.721 1.094,20.748 1.55,20.748 C4.205,20.748 6.6455,19.842 8.582,18.3255 C6.1055,18.279 4.013,16.644 3.293,14.394 C3.638,14.4585 3.9935,14.493 4.358,14.493 C4.8755,14.493 5.3765,14.4255 5.8505,14.2965 C3.26,13.7745 1.3085,11.487 1.3085,8.742 L1.3085,8.6715 C2.072,9.096 2.9465,9.351 3.8735,9.381 C2.354,8.364 1.3535,6.633 1.3535,4.6665 C1.3535,3.63 1.6325,2.6565 2.1215,1.8195 C4.913,5.247 9.0875,7.5 13.793,7.737 C13.697,7.3215 13.6475,6.891 13.6475,6.4455 C13.6475,3.3195 16.181,0.786 19.3085,0.786 C20.9375,0.786 22.409,1.4715 23.4425,2.5725 C24.731,2.3175 25.943,1.8465 27.038,1.1985 C26.615,2.52 25.7165,3.63 24.548,4.3305 C25.694,4.1925 26.783,3.891 27.8,3.4395 C27.041,4.5765 26.081,5.5725 24.974,6.369 L24.974,6.369 Z" id="ico-twitter"></path>
                    </g>
                </g>
            </g>
        </g>
    </g>
</svg>