<?xml version="1.0" encoding="UTF-8" standalone="no"?>
<svg width="162px" height="25px" viewBox="0 0 162 25" version="1.1" xmlns="http://www.w3.org/2000/svg" xmlns:xlink="http://www.w3.org/1999/xlink">
    <defs></defs>
    <g id="Profile-Web" stroke="none" stroke-width="1" fill="none" fill-rule="evenodd">
        <g id="Profile-v2-Edit-Profile" transform="translate(-20.000000, -14.000000)">
            <g id="logo_topcoder" transform="translate(20.200500, 14.944845)">
                <g id="Group-5" transform="translate(64.961711, 1.904762)" fill="#57585A">
                    <path d="M2.07983846,14.9717333 L2.07983846,6.12525714 L0.028416,6.12525714 L0.028416,4.94278095 L2.07983846,4.94278095 L2.07983846,1.54811429 L3.43909579,1.54811429 L3.43909579,4.94278095 L5.9520883,4.94278095 L5.9520883,6.12525714 L3.43909579,6.12525714 L3.43909579,14.766019 C3.43909579,15.7690667 3.84938028,16.4635429 4.72123482,16.4635429 C5.31082883,16.4635429 5.82368445,16.1804952 6.10594498,15.8719238 L6.6188006,16.9004952 C6.13177771,17.3633524 5.54180381,17.6723048 4.51609258,17.6723048 C2.87457472,17.6723048 2.07983846,16.6692571 2.07983846,14.9717333" id="Fill-3"></path>
                    <path d="M18.1327511,11.1402667 C18.1327511,8.38826667 16.5170659,5.84274286 13.5937889,5.84274286 C10.7214176,5.84274286 9.08027961,8.38826667 9.08027961,11.1402667 C9.08027961,13.9174095 10.7214176,16.4636952 13.5937889,16.4636952 C16.5170659,16.4636952 18.1327511,13.9174095 18.1327511,11.1402667 M7.64428389,11.1402667 C7.64428389,7.51398095 9.97758699,4.63398095 13.5937889,4.63398095 C17.2608965,4.63398095 19.5687468,7.51398095 19.5687468,11.1402667 C19.5687468,14.7661714 17.2608965,17.6720762 13.5937889,17.6720762 C9.97758699,17.6720762 7.64428389,14.7661714 7.64428389,11.1402667" id="Fill-5"></path>
                    <g id="Group-9" transform="translate(22.413690, 4.571429)">
                        <path d="M9.82259063,6.5688381 C9.82259063,3.56007619 8.25819106,1.27131429 5.48877074,1.27131429 C3.77013459,1.27131429 2.12899662,2.29988571 1.41099876,3.48274286 L1.41099876,9.62902857 C2.12899662,10.8118857 3.77013459,11.8922667 5.48877074,11.8922667 C8.25819106,11.8922667 9.82259063,9.57721905 9.82259063,6.5688381 M1.41099876,10.785981 L1.41099876,17.5238857 L0.0775741604,17.5238857 L0.0775741604,0.37112381 L1.41099876,0.37112381 L1.41099876,2.32540952 C2.2828533,1.0656 3.8730856,0.062552381 5.71936582,0.062552381 C9.02747448,0.062552381 11.2585864,2.58255238 11.2585864,6.5688381 C11.2585864,10.529219 9.02747448,13.1006476 5.71936582,13.1006476 C3.97565673,13.1006476 2.41125716,12.2004571 1.41099876,10.785981" id="Fill-7"></path>
                    </g>
                    <path d="M35.7992214,11.1402667 C35.7992214,7.51398095 38.1841899,4.63398095 41.8258447,4.63398095 C43.9802182,4.63398095 45.2110717,5.4823619 46.2113301,6.74255238 L45.2881899,7.56540952 C44.3905027,6.33112381 43.2622203,5.84274286 41.9025831,5.84274286 C39.0047589,5.84274286 37.235597,8.15702857 37.235597,11.1402667 C37.235597,14.1231238 39.0047589,16.4636952 41.9025831,16.4636952 C43.2622203,16.4636952 44.3905027,15.9490286 45.2881899,14.7147429 L46.2113301,15.5376 C45.2110717,16.8233143 43.9802182,17.6720762 41.8258447,17.6720762 C38.1841899,17.6720762 35.7992214,14.7661714 35.7992214,11.1402667" id="Fill-10"></path>
                    <path d="M58.4425566,11.1402667 C58.4425566,8.38826667 56.8268714,5.84274286 53.9035944,5.84274286 C51.0312231,5.84274286 49.3900851,8.38826667 49.3900851,11.1402667 C49.3900851,13.9174095 51.0312231,16.4636952 53.9035944,16.4636952 C56.8268714,16.4636952 58.4425566,13.9174095 58.4425566,11.1402667 M47.9537095,11.1402667 C47.9537095,7.51398095 50.2873925,4.63398095 53.9035944,4.63398095 C57.5703221,4.63398095 59.8785523,7.51398095 59.8785523,11.1402667 C59.8785523,14.7661714 57.5703221,17.6720762 53.9035944,17.6720762 C50.2873925,17.6720762 47.9537095,14.7661714 47.9537095,11.1402667" id="Fill-12"></path>
                    <path d="M71.9306213,14.2518476 L71.9306213,8.1055619 C71.2122435,6.8968 69.5965584,5.84270476 67.8532292,5.84270476 C65.1088818,5.84270476 63.5186495,8.15699048 63.5186495,11.1657524 C63.5186495,14.1745143 65.1088818,16.4636571 67.8532292,16.4636571 C69.5965584,16.4636571 71.2122435,15.4347048 71.9306213,14.2518476 L71.9306213,14.2518476 Z M71.9306213,17.3634667 L71.9306213,15.3832762 C71.0587667,16.6693714 69.4689143,17.672419 67.6218743,17.672419 C64.3395984,17.672419 62.0830337,15.1516571 62.0830337,11.1657524 C62.0830337,7.23127619 64.3395984,4.63394286 67.6218743,4.63394286 C69.3914161,4.63394286 70.9303629,5.53375238 71.9306213,6.94822857 L71.9306213,0.211085714 L73.2894987,0.211085714 L73.2894987,17.3634667 L71.9306213,17.3634667 Z" id="Fill-14"></path>
                    <path d="M82.1617869,5.79127619 C79.2385099,5.79127619 77.7763015,8.36270476 77.6741103,10.5230857 L86.6752962,10.5230857 C86.6494634,8.41413333 85.2647533,5.79127619 82.1617869,5.79127619 M76.2119019,11.1402286 C76.2119019,7.53984762 78.7507272,4.63394286 82.1872397,4.63394286 C85.9569184,4.63394286 88.0341736,7.64270476 88.0341736,11.217181 L88.0341736,11.577181 L77.6741103,11.577181 C77.8017544,14.2773714 79.5971289,16.5147048 82.5207858,16.5147048 C84.0848055,16.5147048 85.5211811,15.9234667 86.5723452,14.7920381 L87.2652701,15.6663238 C86.0340367,16.9520381 84.4696371,17.6720381 82.4182147,17.6720381 C78.8020127,17.6720381 76.2119019,14.9718476 76.2119019,11.1402286" id="Fill-16"></path>
                    <path d="M90.9564629,17.3634667 L90.9564629,4.94289524 L92.2898875,4.94289524 L92.2898875,7.07699048 C93.3410516,5.68841905 94.7515944,4.68537143 96.4702306,4.68537143 L96.4702306,6.15127619 C96.2392556,6.09984762 96.0599461,6.09984762 95.8031384,6.09984762 C94.5468321,6.09984762 92.8540287,7.23127619 92.2898875,8.31127619 L92.2898875,17.3634667 L90.9564629,17.3634667 Z" id="Fill-18"></path>
                </g>
                <g id="Group-2">
                    <path d="M14.9492972,6.55244051 C8.04544077,5.31525559 1.54020507,5.4217839 0.233718524,8.88493016 C-0.687452207,11.3262693 1.19730444,15.0097187 4.43282147,18.6448356 C5.38701045,19.7167339 6.4910131,20.0584793 7.52822853,20.051169 C8.48730806,15.2849701 12.3130418,10.1917782 14.9492972,6.55244051 Z" id="Fill-1" fill="#2AA7DF"></path>
                    <path d="M30.8906502,10.2548855 C34.4353993,8.82017181 39.2573166,7.38218745 43.898335,6.55108555 C44.1357875,6.78039263 44.3692523,7.01551416 44.5994543,7.25463311 C40.2944947,2.77896585 34.7127294,0.019649396 29.4191697,0.019649396 C24.4087405,0.019649396 19.1398324,2.49151434 14.9400044,6.55108555 C19.5810228,7.38218745 24.4029401,8.82017181 27.9476892,10.2548855 C28.39613,10.4365869 28.8906113,10.6317341 29.4191697,10.8385102 C29.9477281,10.6317341 30.4422094,10.4365869 30.8906502,10.2548855 Z" id="Fill-4" fill="#8AC441"></path>
                    <path d="M14.9475303,6.5570359 C11.3040313,10.1189641 7.52070269,17.0964693 7.52070269,20.0473008 C8.77773069,20.0473003 10.2778391,19.4404927 11.3598184,18.8811086 C16.751373,16.0936706 22.3234428,11.5724168 29.3879464,10.8367289 C25.8006108,9.27190344 18.8753465,7.08383199 14.9475303,6.5570359 Z" id="Fill-7" fill="#0A72B8"></path>
                    <path d="M43.9090835,6.54513495 C50.7977336,5.31568892 57.2799027,5.42861517 58.5838121,8.88493016 C59.5049828,11.3262693 57.6202262,15.0097187 54.3847092,18.6448356 C53.5126654,19.6244552 52.5154923,19.9942268 51.5585275,20.045053 C48.5577697,13.7951078 47.9320035,12.6700148 43.9090835,6.54513495 Z" id="Fill-9" fill="#F59022"></path>
                    <path d="M43.9029705,6.54907638 C47.5464695,10.1110046 51.5705327,20.0473008 51.5705327,20.0473008 C49.8318001,20.1203987 48.14203,19.1516451 47.6440427,18.8658758 C40.1670714,14.5752276 35.514648,11.6400747 29.4036654,10.838519 C33.0440612,9.10794638 40.9909161,6.91206154 43.9029705,6.54907638 Z" id="Fill-12" fill="#FFF100"></path>
                </g>
            </g>
        </g>
    </g>
</svg>