<?xml version="1.0" encoding="UTF-8" standalone="no"?>
<svg width="156px" height="21px" viewBox="0 0 156 21" version="1.1" xmlns="http://www.w3.org/2000/svg" xmlns:xlink="http://www.w3.org/1999/xlink" xmlns:sketch="http://www.bohemiancoding.com/sketch/ns">
    <!-- Generator: Sketch 3.3.3 (12081) - http://www.bohemiancoding.com/sketch -->
    <title>logo topcoder</title>
    <desc>Created with Sketch.</desc>
    <defs>
        <path id="path-1" d="M1.76749662,0.28422619 C1.29593424,0.32390873 0.820922602,0.368055556 0.340490707,0.423611111 C0.412432304,0.494047619 0.480924645,0.567956349 0.551880741,0.639880952 C0.667677146,0.755952381 0.782980801,0.871031746 0.895327952,0.990079365 C0.988457827,1.08829365 1.08010945,1.18948413 1.17176107,1.28918651 C1.28213722,1.41021825 1.39300612,1.53174603 1.50141127,1.65575397 C1.59109189,1.75992063 1.68027976,1.86607143 1.76996038,1.97172619 C1.87491627,2.09821429 1.98036491,2.22470238 2.08384255,2.35367063 C2.17204492,2.46329365 2.25778353,2.57390873 2.34352215,2.68551587 C2.44502878,2.81696429 2.54604267,2.94890873 2.64508555,3.0828373 C2.72934591,3.19642857 2.81212802,3.3125 2.89491014,3.42906746 C2.99148927,3.56547619 3.08806839,3.70287698 3.18218377,3.84176587 C3.26299488,3.96081349 3.34232774,4.08085317 3.42215334,4.20138889 C3.51429772,4.34275794 3.60496384,4.48561508 3.69513721,4.62946429 C3.77249906,4.75347222 3.84887542,4.87847222 3.92475902,5.00347222 C4.01197588,5.14930556 4.09820725,5.29662698 4.18246761,5.44543651 C4.25638021,5.5734127 4.32930731,5.70188492 4.40075616,5.83184524 C4.48403102,5.98263889 4.56484213,6.13541667 4.64614599,6.28968254 C4.71513108,6.42113095 4.78362342,6.5530754 4.85063751,6.68650794 C4.92997037,6.8422619 5.00536122,7 5.08124482,7.15823413 C5.14678066,7.29414683 5.21133099,7.42956349 5.27440308,7.56696429 C5.34782293,7.7281746 5.41976452,7.89087302 5.49022787,8.05406746 C5.55034345,8.19246032 5.61095178,8.33035714 5.66958911,8.47123016 C5.73906695,8.63740079 5.80558829,8.80605159 5.87161688,8.97470238 C5.92779046,9.1155754 5.98347128,9.25595238 6.0361956,9.39880952 C6.10123869,9.57043651 6.16233977,9.74454365 6.2239336,9.91865079 C6.27468692,10.062004 6.32593299,10.203869 6.37471531,10.3482143 C6.43483089,10.5277778 6.49100446,10.7093254 6.54816354,10.890873 C6.59300385,11.0327381 6.63932241,11.1746032 6.68169897,11.3184524 C6.73787254,11.5069444 6.79010411,11.6974206 6.84233568,11.8883929 C6.88126299,12.0287698 6.92216129,12.1676587 6.95911759,12.3100198 C7.01134916,12.5128968 7.05963873,12.718254 7.10842104,12.9231151 C7.13995708,13.0555556 7.17444963,13.1865079 7.20352192,13.3189484 C7.25723174,13.5565476 7.30502855,13.797123 7.35381087,14.0381944 C7.37302815,14.1349206 7.43807123,14.3338294 7.45679576,14.4310516 C7.4494045,14.3402778 6.74280005,6.15178571 1.76749662,0.28422619"></path>
        <path d="M4.89005756,11.062004 C4.90878209,11.1577381 4.97431793,11.359127 4.99304245,11.4548611 C4.97431793,11.3576389 4.90927484,11.1587302 4.89005756,11.062004 M4.73976861,10.3427579 C4.79347843,10.5808532 4.84127525,10.8209325 4.89005756,11.062004 C4.84127525,10.8209325 4.79347843,10.5803571 4.73976861,10.3427579 M1.2313839,1.65327381 C1.30874576,1.77777778 1.38512211,1.90228175 1.46100571,2.02728175 C1.38512211,1.90228175 1.30874576,1.77728175 1.2313839,1.65327381 M0.181332243,0.106646825 C0.265592606,0.221230159 0.348374718,0.336309524 0.431156829,0.452876984 C0.348374718,0.336309524 0.265592606,0.220238095 0.181332243,0.106646825" id="path-3"></path>
        <path id="path-5" d="M0.774111289,0.288690476 C0.656836632,0.433035714 0.537590972,0.575396825 0.422780067,0.723214286 L0.423272818,0.723214286 L0.424258319,0.722222222 C3.16543025,0.950396825 6.25349864,1.54761905 9.50910226,2.4469246 C9.6106089,2.47470238 9.71162278,2.50347222 9.81460767,2.53224206 C9.61701466,2.44990079 5.66219785,0.816468254 0.774111289,0.288690476"></path>
        <path id="path-7" d="M0.424258319,0.226190476 L0.423272818,0.22718254 C3.25264712,0.462301587 6.45158441,1.0922619 9.82199893,2.03968254 C9.82199893,2.03968254 9.81953518,2.03819444 9.81460767,2.03621032 C9.71162278,2.00744048 9.6106089,1.97867063 9.50910226,1.95089286 C6.25349864,1.0515873 3.16543025,0.454365079 0.424258319,0.226190476"></path>
    </defs>
    <g id="navigation-states" stroke="none" stroke-width="1" fill="none" fill-rule="evenodd" sketch:type="MSPage">
        <g id="Desktop-HD-Specked-3" sketch:type="MSArtboardGroup" transform="translate(-19.000000, -16.000000)">
            <g id="logo-topcoder" sketch:type="MSLayerGroup" transform="translate(19.800000, 15.944845)">
                <path d="M34.3363443,5.88839286 C31.1911169,2.81894841 27.2949374,1 23.0730497,1 C17.890791,1 13.1988192,3.74007937 9.78504263,8.17162698 C12.6144169,8.40674603 15.8133542,9.03621032 19.1842615,9.98412698 C24.0482033,7.92013889 29.3955335,6.46329365 34.3363443,5.88839286" id="Fill-1" fill="#8AC441" sketch:type="MSShapeGroup"></path>
                <path d="M38.7967233,5.61656746 C37.3677464,5.61656746 35.8732336,5.70982143 34.3402863,5.88789683 C34.4122279,5.95833333 34.4807203,6.03224206 34.5516764,6.10416667 C34.6674728,6.2202381 34.7827764,6.33531746 34.8951236,6.45436508 C34.9882535,6.55257937 35.0789196,6.65376984 35.1715567,6.75347222 C35.2819329,6.87450397 35.3928018,6.99603175 35.5012069,7.12003968 C35.5908875,7.22420635 35.6800754,7.33035714 35.7687705,7.4360119 C35.8747119,7.5625 35.9801605,7.6889881 36.0836382,7.81795635 C36.1718405,7.92757937 36.2575792,8.03819444 36.3433178,8.14980159 C36.4448244,8.28125 36.5458383,8.41319444 36.6448812,8.54712302 C36.7291415,8.66170635 36.8119237,8.77678571 36.8947058,8.89335317 C36.9912849,9.0297619 37.087864,9.1671627 37.1819794,9.30605159 C37.2627905,9.42509921 37.3421234,9.54513889 37.421949,9.6656746 C37.5140934,9.80704365 37.6047595,9.94990079 37.6949328,10.09375 C37.7722947,10.218254 37.848671,10.3427579 37.9245547,10.4677579 C38.0117715,10.6135913 38.0975101,10.7609127 38.1822632,10.9097222 C38.2561758,11.0376984 38.3291029,11.1661706 38.4005518,11.296131 C38.4838267,11.4469246 38.5646378,11.5997024 38.6459416,11.7539683 C38.7149267,11.8854167 38.7834191,12.0173611 38.8504331,12.1507937 C38.929766,12.3065476 39.0051569,12.4642857 39.0810405,12.6225198 C39.1465763,12.7584325 39.2111266,12.8938492 39.2741987,13.03125 C39.3476186,13.1924603 39.4195602,13.3551587 39.4900235,13.5183532 C39.5501391,13.656746 39.6107474,13.7946429 39.6693847,13.9355159 C39.7388626,14.1016865 39.8053839,14.2703373 39.8714125,14.4389881 C39.9275861,14.5798611 39.9832669,14.7202381 40.0359912,14.8630952 C40.1010343,15.0347222 40.1621354,15.2088294 40.2237292,15.3829365 C40.2744826,15.5262897 40.3257286,15.6681548 40.3745109,15.8125 C40.4346265,15.9920635 40.4908001,16.1736111 40.5479592,16.3551587 C40.5927995,16.4970238 40.639118,16.6388889 40.6814946,16.7827381 C40.7376682,16.9712302 40.7898997,17.1617063 40.8421313,17.3526786 C40.8810586,17.4930556 40.9219569,17.6319444 40.9589132,17.7743056 C41.0111448,17.9771825 41.0594344,18.1825397 41.1082167,18.3874008 C41.1397527,18.5198413 41.1742453,18.6507937 41.2033176,18.7832341 C41.2565346,19.0213294 41.3048242,19.2614087 41.3536065,19.5024802 C41.3728238,19.5997024 41.4565914,19.8953373 41.4565914,19.8953373 C42.8377715,19.8953373 44.3278495,18.4861111 45.4025387,17.4201389 C52.3626418,10.514881 49.4046596,5.61656746 38.7967233,5.61656746" id="Fill-2" fill="#F6911F" sketch:type="MSShapeGroup"></path>
                <path id="Fill-3" fill="#8AC441" sketch:type="MSShapeGroup" d="M37.9245547,10.4677579 C38.0117715,10.6135913 38.0975101,10.7609127 38.1822632,10.9097222 C38.0975101,10.7609127 38.0117715,10.6135913 37.9245547,10.4677579"></path>
                <path id="Fill-4" fill="#8AC441" sketch:type="MSShapeGroup" d="M37.421949,9.6656746 C37.5140934,9.80704365 37.6047595,9.94990079 37.6949328,10.09375 C37.6047595,9.94990079 37.5140934,9.80704365 37.421949,9.6656746"></path>
                <path id="Fill-5" fill="#8AC441" sketch:type="MSShapeGroup" d="M35.7687705,7.4360119 C35.8747119,7.5625 35.9801605,7.6889881 36.0836382,7.81795635 C35.9801605,7.6889881 35.8747119,7.5625 35.7687705,7.4360119"></path>
                <path id="Fill-6" fill="#8AC441" sketch:type="MSShapeGroup" d="M35.1715567,6.75347222 C35.2819329,6.87450397 35.3928018,6.99603175 35.5012069,7.12003968 C35.3928018,6.99603175 35.2819329,6.87450397 35.1715567,6.75347222"></path>
                <path id="Fill-7" fill="#8AC441" sketch:type="MSShapeGroup" d="M36.3433178,8.14980159 C36.4448244,8.28125 36.5458383,8.41319444 36.6448812,8.54712302 C36.5458383,8.41319444 36.4448244,8.28125 36.3433178,8.14980159"></path>
                <path id="Fill-8" fill="#8AC441" sketch:type="MSShapeGroup" d="M34.5516764,6.10416667 C34.6674728,6.2202381 34.7827764,6.33531746 34.8951236,6.45436508 C34.7827764,6.33531746 34.6674728,6.2202381 34.5516764,6.10416667"></path>
                <path id="Fill-9" fill="#8AC441" sketch:type="MSShapeGroup" d="M36.8947058,8.89335317 C36.9912849,9.0297619 37.087864,9.1671627 37.1819794,9.30605159 C37.087864,9.1671627 36.9912849,9.0297619 36.8947058,8.89335317"></path>
                <path id="Fill-10" fill="#F4CA14" sketch:type="MSShapeGroup" d="M34.8951236,6.45436508 C34.9882535,6.55257937 35.0789196,6.65376984 35.1715567,6.75347222 C35.0789196,6.65376984 34.9882535,6.55257937 34.8951236,6.45436508"></path>
                <path id="Fill-11" fill="#F4CA14" sketch:type="MSShapeGroup" d="M34.3402863,5.88789683 L34.3363443,5.88839286 C34.4087787,5.9593254 34.4802275,6.03174603 34.5516764,6.10416667 C34.4807203,6.03224206 34.4122279,5.95833333 34.3402863,5.88789683"></path>
                <path id="Fill-12" fill="#F4CA14" sketch:type="MSShapeGroup" d="M37.6949328,10.09375 C37.7722947,10.2177579 37.848671,10.3427579 37.9245547,10.4677579 C37.848671,10.3427579 37.7722947,10.218254 37.6949328,10.09375"></path>
                <path id="Fill-13" fill="#F4CA14" sketch:type="MSShapeGroup" d="M37.1819794,9.30605159 C37.2627905,9.42509921 37.3421234,9.54513889 37.421949,9.6656746 C37.3421234,9.54513889 37.2627905,9.42509921 37.1819794,9.30605159"></path>
                <path id="Fill-14" fill="#F4CA14" sketch:type="MSShapeGroup" d="M36.6448812,8.54712302 C36.7291415,8.66071429 36.8119237,8.77678571 36.8947058,8.89335317 C36.8119237,8.77678571 36.7291415,8.66170635 36.6448812,8.54712302"></path>
                <path id="Fill-15" fill="#F4CA14" sketch:type="MSShapeGroup" d="M35.5012069,7.12003968 C35.5908875,7.22420635 35.6800754,7.33035714 35.7687705,7.4360119 C35.6800754,7.33035714 35.5908875,7.22420635 35.5012069,7.12003968"></path>
                <path id="Fill-16" fill="#F4CA14" sketch:type="MSShapeGroup" d="M36.0836382,7.81795635 C36.1718405,7.92757937 36.2575792,8.03819444 36.3433178,8.14980159 C36.2575792,8.03819444 36.1718405,7.92757937 36.0836382,7.81795635"></path>
                <path d="M41.4565914,19.8953373 C41.4378669,19.7981151 41.3728238,19.5992063 41.3536065,19.5024802 C41.3048242,19.2614087 41.2570274,19.0208333 41.2033176,18.7832341 C41.1742453,18.6507937 41.1397527,18.5198413 41.1082167,18.3874008 C41.0594344,18.1825397 41.0111448,17.9771825 40.9589132,17.7743056 C40.9219569,17.6319444 40.8810586,17.4930556 40.8421313,17.3526786 C40.7898997,17.1617063 40.7376682,16.9712302 40.6814946,16.7827381 C40.639118,16.6388889 40.5927995,16.4970238 40.5479592,16.3551587 C40.4908001,16.1736111 40.4341338,15.9920635 40.3745109,15.8125 C40.3257286,15.6681548 40.2744826,15.5262897 40.2237292,15.3829365 C40.1621354,15.2088294 40.1010343,15.0347222 40.0359912,14.8630952 C39.9832669,14.7202381 39.9275861,14.5798611 39.8714125,14.4389881 C39.8053839,14.2703373 39.7388626,14.1016865 39.6693847,13.9355159 C39.6107474,13.7946429 39.5501391,13.656746 39.4900235,13.5183532 C39.4195602,13.3551587 39.3476186,13.1924603 39.2741987,13.03125 C39.2111266,12.8938492 39.1465763,12.7584325 39.0810405,12.6225198 C39.0051569,12.4642857 38.929766,12.3065476 38.8504331,12.1507937 C38.7834191,12.0173611 38.7149267,11.8854167 38.6459416,11.7539683 C38.5646378,11.5997024 38.4838267,11.4469246 38.4005518,11.296131 C38.3291029,11.1661706 38.2561758,11.0376984 38.1822632,10.9097222 C38.0975101,10.7609127 38.0117715,10.6135913 37.9245547,10.4677579 C37.848671,10.3427579 37.7722947,10.2177579 37.6949328,10.09375 C37.6047595,9.94990079 37.5140934,9.80704365 37.421949,9.6656746 C37.3421234,9.54513889 37.2627905,9.42509921 37.1819794,9.30605159 C37.087864,9.1671627 36.9912849,9.0297619 36.8947058,8.89335317 C36.8119237,8.77678571 36.7291415,8.66071429 36.6448812,8.54712302 C36.5458383,8.41319444 36.4448244,8.28125 36.3433178,8.14980159 C36.2575792,8.03819444 36.1718405,7.92757937 36.0836382,7.81795635 C35.9801605,7.6889881 35.8747119,7.5625 35.7687705,7.4360119 C35.6800754,7.33035714 35.5908875,7.22420635 35.5012069,7.12003968 C35.3928018,6.99603175 35.2819329,6.87450397 35.1715567,6.75347222 C35.0789196,6.65376984 34.9882535,6.55257937 34.8951236,6.45436508 C34.7827764,6.33531746 34.6674728,6.2202381 34.5516764,6.10416667 C34.4802275,6.03174603 34.4087787,5.9593254 34.3363443,5.88839286 C29.3955335,6.46329365 24.0482033,7.92013889 19.1842615,9.98412698 C26.4503628,12.0267857 34.5605459,15.6517857 41.4565914,19.8953373" id="Fill-17" fill="#D7DE27" sketch:type="MSShapeGroup"></path>
                <path d="M9.78257888,8.17013889 L9.72837631,8.24553571 C9.46721846,8.58829365 9.21246636,8.94146825 8.96707654,9.30406746 C8.91829422,9.37450397 8.87148291,9.4469246 8.82417884,9.51835317 C8.79313555,9.56547619 8.76159951,9.61309524 8.73006347,9.66021825 C8.54232547,9.94593254 8.35902222,10.2356151 8.18163198,10.531746 C8.15206694,10.5813492 8.12299465,10.6314484 8.09342961,10.6805556 L8.08308185,10.6989087 C7.96777819,10.8963294 7.85444554,11.0967262 7.74406939,11.3000992 C7.68937407,11.4012897 7.634186,11.5029762 7.57998342,11.6056548 C7.52578085,11.7078373 7.47256378,11.8110119 7.41885396,11.9146825 C7.3794339,11.9910714 7.3395211,12.0664683 7.3005938,12.1428571 C7.09560952,12.5500992 6.89506,12.9131944 6.70781475,13.3363095 C6.67233671,13.4166667 6.62651089,13.5505952 6.5915256,13.6314484 C6.40132384,14.0734127 6.24955664,14.4320437 6.0322536,14.9801587 C5.86866038,15.4568452 5.73709595,15.7797619 5.5877925,16.2519841 L5.12214312,17.7911706 C5.09996935,17.8794643 5.01275248,18.1949405 4.99107145,18.2837302 C4.87527504,18.7619048 4.68704429,19.4196429 4.59342167,19.9102183 C4.59095791,19.9241071 4.60081293,19.9335317 4.66142126,19.9181548 L4.62495771,19.9335317 L4.57026238,19.9414683 C-2.23560975,13.1795635 -1.54378782,8.10763889 7.42624522,8.10763889 C8.17818273,8.10763889 8.96510553,8.10267857 9.78257888,8.17013889" id="Fill-18" fill="#29A8E0" sketch:type="MSShapeGroup"></path>
                <path d="M8.6768464,9.54811508 C8.48910839,9.83382937 8.3053124,10.1230159 8.12792216,10.4196429 C8.30481965,10.1230159 8.48910839,9.83382937 8.6768464,9.54811508" id="Fill-19" fill="#29A8E0" sketch:type="MSShapeGroup"></path>
                <path id="Fill-20" fill="#EDB035" sketch:type="MSShapeGroup" d="M9.73281106,8.05853175 L9.67466649,8.13293651 L9.72886906,8.05803571 L9.73281106,8.05853175"></path>
                <path d="M19.1862325,9.98313492 C14.3498848,12.0347222 9.99199791,14.6860119 6.98917538,17.6641865 C6.02141308,18.625 4.98170919,19.5818452 4.66388501,19.9176587 L4.66092851,19.9181548 C4.60081293,19.9335317 4.59095791,19.9241071 4.59342167,19.9102183 C4.68704429,19.4196429 4.87527504,18.7624008 4.9915642,18.2837302 C5.01225973,18.1949405 5.09996935,17.8794643 5.12214312,17.7911706 L5.5877925,16.2519841 C5.7366032,15.7797619 5.86866038,15.4568452 6.03274635,14.9801587 C6.24955664,14.4320437 6.40132384,14.0734127 6.5915256,13.6319444 C6.62651089,13.5505952 6.67233671,13.4166667 6.70781475,13.3363095 C6.89506,12.9131944 7.09560952,12.5500992 7.3005938,12.1433532 C7.3395211,12.0664683 7.3794339,11.9910714 7.41934671,11.9146825 C7.47207103,11.8105159 7.52578085,11.7078373 7.57998342,11.6056548 C7.634186,11.5029762 7.68937407,11.4012897 7.74406939,11.2996032 C7.85444554,11.0962302 7.96777819,10.8963294 8.08308185,10.6989087 L8.09342961,10.6805556 C8.12299465,10.6309524 8.15206694,10.5813492 8.18163198,10.531746 C8.35852947,10.235119 8.54232547,9.94642857 8.73006347,9.66021825 C8.76159951,9.61309524 8.79313555,9.56547619 8.82417884,9.51835317 C8.87148291,9.4469246 8.91780147,9.375 8.96707654,9.30357143 C9.21295912,8.94146825 9.46672571,8.58829365 9.72886906,8.24553571 L9.78652089,8.17063492 C12.5276928,8.39880952 15.6157612,8.99603175 18.8713648,9.8953373 C18.975828,9.92410714 19.0802911,9.95386905 19.1862325,9.98313492" id="Fill-21" fill="#0D72B8" sketch:type="MSShapeGroup"></path>
                <g id="Group-24" transform="translate(33.999796, 5.464286)">
                    <mask id="mask-2" sketch:name="Clip 23" fill="white">
                        <use xlink:href="#path-1"></use>
                    </mask>
                    <g id="Clip-23"></g>
                    <path d="M1.76749662,0.28422619 C1.29593424,0.32390873 0.820922602,0.368055556 0.340490707,0.423611111 C0.412432304,0.494047619 0.480924645,0.567956349 0.551880741,0.639880952 C0.667677146,0.755952381 0.782980801,0.871031746 0.895327952,0.990079365 C0.988457827,1.08829365 1.08010945,1.18948413 1.17176107,1.28918651 C1.28213722,1.41021825 1.39300612,1.53174603 1.50141127,1.65575397 C1.59109189,1.75992063 1.68027976,1.86607143 1.76996038,1.97172619 C1.87491627,2.09821429 1.98036491,2.22470238 2.08384255,2.35367063 C2.17204492,2.46329365 2.25778353,2.57390873 2.34352215,2.68551587 C2.44502878,2.81696429 2.54604267,2.94890873 2.64508555,3.0828373 C2.72934591,3.19642857 2.81212802,3.3125 2.89491014,3.42906746 C2.99148927,3.56547619 3.08806839,3.70287698 3.18218377,3.84176587 C3.26299488,3.96081349 3.34232774,4.08085317 3.42215334,4.20138889 C3.51429772,4.34275794 3.60496384,4.48561508 3.69513721,4.62946429 C3.77249906,4.75347222 3.84887542,4.87847222 3.92475902,5.00347222 C4.01197588,5.14930556 4.09820725,5.29662698 4.18246761,5.44543651 C4.25638021,5.5734127 4.32930731,5.70188492 4.40075616,5.83184524 C4.48403102,5.98263889 4.56484213,6.13541667 4.64614599,6.28968254 C4.71513108,6.42113095 4.78362342,6.5530754 4.85063751,6.68650794 C4.92997037,6.8422619 5.00536122,7 5.08124482,7.15823413 C5.14678066,7.29414683 5.21133099,7.42956349 5.27440308,7.56696429 C5.34782293,7.7281746 5.41976452,7.89087302 5.49022787,8.05406746 C5.55034345,8.19246032 5.61095178,8.33035714 5.66958911,8.47123016 C5.73906695,8.63740079 5.80558829,8.80605159 5.87161688,8.97470238 C5.92779046,9.1155754 5.98347128,9.25595238 6.0361956,9.39880952 C6.10123869,9.57043651 6.16233977,9.74454365 6.2239336,9.91865079 C6.27468692,10.062004 6.32593299,10.203869 6.37471531,10.3482143 C6.43483089,10.5277778 6.49100446,10.7093254 6.54816354,10.890873 C6.59300385,11.0327381 6.63932241,11.1746032 6.68169897,11.3184524 C6.73787254,11.5069444 6.79010411,11.6974206 6.84233568,11.8883929 C6.88126299,12.0287698 6.92216129,12.1676587 6.95911759,12.3100198 C7.01134916,12.5128968 7.05963873,12.718254 7.10842104,12.9231151 C7.13995708,13.0555556 7.17444963,13.1865079 7.20352192,13.3189484 C7.25723174,13.5565476 7.30502855,13.797123 7.35381087,14.0381944 C7.37302815,14.1349206 7.43807123,14.3338294 7.45679576,14.4310516 C7.4494045,14.3402778 6.74280005,6.15178571 1.76749662,0.28422619" id="Fill-22" sketch:type="MSShapeGroup" mask="url(#mask-2)"></path>
                </g>
                <g id="Group-27" transform="translate(36.463549, 8.440476)">
                    <mask id="mask-4" sketch:name="Clip 26" fill="white">
                        <use xlink:href="#path-3"></use>
                    </mask>
                    <g id="Clip-26"></g>
                    <path d="M4.89005756,11.062004 C4.90878209,11.1577381 4.97431793,11.359127 4.99304245,11.4548611 C4.97431793,11.3576389 4.90927484,11.1587302 4.89005756,11.062004 M4.73976861,10.3427579 C4.79347843,10.5808532 4.84127525,10.8209325 4.89005756,11.062004 C4.84127525,10.8209325 4.79347843,10.5803571 4.73976861,10.3427579 M1.2313839,1.65327381 C1.30874576,1.77777778 1.38512211,1.90228175 1.46100571,2.02728175 C1.38512211,1.90228175 1.30874576,1.77728175 1.2313839,1.65327381 M0.181332243,0.106646825 C0.265592606,0.221230159 0.348374718,0.336309524 0.431156829,0.452876984 C0.348374718,0.336309524 0.265592606,0.220238095 0.181332243,0.106646825" id="Fill-25" sketch:type="MSShapeGroup" mask="url(#mask-4)"></path>
                </g>
                <g id="Group-30" transform="translate(9.362263, 7.448413)">
                    <mask id="mask-6" sketch:name="Clip 29" fill="white">
                        <use xlink:href="#path-5"></use>
                    </mask>
                    <g id="Clip-29"></g>
                    <path d="M0.774111289,0.288690476 C0.656836632,0.433035714 0.537590972,0.575396825 0.422780067,0.723214286 L0.423272818,0.723214286 L0.424258319,0.722222222 C3.16543025,0.950396825 6.25349864,1.54761905 9.50910226,2.4469246 C9.6106089,2.47470238 9.71162278,2.50347222 9.81460767,2.53224206 C9.61701466,2.44990079 5.66219785,0.816468254 0.774111289,0.288690476" id="Fill-28" sketch:type="MSShapeGroup" mask="url(#mask-6)"></path>
                </g>
                <g id="Group-33" transform="translate(9.362263, 7.944444)">
                    <mask id="mask-8" sketch:name="Clip 32" fill="white">
                        <use xlink:href="#path-7"></use>
                    </mask>
                    <g id="Clip-32"></g>
                    <path d="M0.424258319,0.226190476 L0.423272818,0.22718254 C3.25264712,0.462301587 6.45158441,1.0922619 9.82199893,2.03968254 C9.82199893,2.03968254 9.81953518,2.03819444 9.81460767,2.03621032 C9.71162278,2.00744048 9.6106089,1.97867063 9.50910226,1.95089286 C6.25349864,1.0515873 3.16543025,0.454365079 0.424258319,0.226190476" id="Fill-31" sketch:type="MSShapeGroup" mask="url(#mask-8)"></path>
                </g>
                <path d="M151.289728,7.96478175 L151.289728,6.05059524 L150.613182,6.05059524 L150.613182,5.81150794 L152.236302,5.81150794 L152.236302,6.05059524 L151.556306,6.05059524 L151.556306,7.96478175 L151.289728,7.96478175" id="Fill-34" fill="#3D3D3D" sketch:type="MSShapeGroup"></path>
                <path d="M154.41771,7.96478175 L154.41771,6.15376984 L153.692381,7.96478175 L153.583483,7.96478175 L152.856183,6.15376984 L152.856183,7.96478175 L152.589605,7.96478175 L152.589605,5.81150794 L152.971486,5.81150794 L153.638178,7.47123016 L154.301913,5.81150794 L154.683795,5.81150794 L154.683795,7.96478175 L154.41771,7.96478175" id="Fill-35" fill="#3D3D3D" sketch:type="MSShapeGroup"></path>
                <path d="M67.9749537,15.9697421 L67.9749537,10.5684524 L66.6169329,10.5684524 L66.6169329,9.43998016 L67.9749537,9.43998016 L67.9749537,7.18353175 L69.2659605,7.18353175 L69.2659605,9.43998016 L70.9299794,9.43998016 L70.9299794,10.5684524 L69.2659605,10.5684524 L69.2659605,15.6964286 C69.2659605,16.3115079 69.5369733,16.7559524 70.0804773,16.7559524 C70.4539823,16.7559524 70.776734,16.5848214 70.946733,16.3968254 L71.320238,17.3715278 C70.9974863,17.6790675 70.5392282,17.9012897 69.8089717,17.9012897 C68.5864573,17.9012897 67.9749537,17.2003968 67.9749537,15.9697421" id="Fill-36" fill="#3D3D3D" sketch:type="MSShapeGroup"></path>
                <path d="M73.4252688,13.5595238 C73.4252688,11.1661706 74.9877811,9.23511905 77.4835632,9.23511905 C79.9798381,9.23511905 81.5418577,11.1661706 81.5418577,13.5595238 C81.5418577,15.952381 79.9798381,17.9012897 77.4835632,17.9012897 C74.9877811,17.9012897 73.4252688,15.952381 73.4252688,13.5595238 L73.4252688,13.5595238 Z M80.2005904,13.5595238 C80.2005904,11.8844246 79.2323353,10.3799603 77.4835632,10.3799603 C75.7347911,10.3799603 74.7665361,11.8844246 74.7665361,13.5595238 C74.7665361,15.2519841 75.7347911,16.7559524 77.4835632,16.7559524 C79.2323353,16.7559524 80.2005904,15.2519841 80.2005904,13.5595238 L80.2005904,13.5595238 Z" id="Fill-37" fill="#3D3D3D" sketch:type="MSShapeGroup"></path>
                <path d="M86.0751638,16.4484127 L86.0751638,20.8412698 L84.8014033,20.8412698 L84.8014033,9.43998016 L86.0751638,9.43998016 L86.0751638,10.6706349 C86.6694211,9.83333333 87.6884294,9.23511905 88.8429442,9.23511905 C90.9992211,9.23511905 92.4937339,10.8759921 92.4937339,13.5595238 C92.4937339,16.2261905 90.9992211,17.9012897 88.8429442,17.9012897 C87.7224292,17.9012897 86.7546669,17.3541667 86.0751638,16.4484127 L86.0751638,16.4484127 Z M91.1524666,13.5595238 C91.1524666,11.7306548 90.167458,10.3799603 88.5206853,10.3799603 C87.5184305,10.3799603 86.5166684,10.9781746 86.0751638,11.6964286 L86.0751638,15.422619 C86.5166684,16.140377 87.5184305,16.7559524 88.5206853,16.7559524 C90.167458,16.7559524 91.1524666,15.3883929 91.1524666,13.5595238 L91.1524666,13.5595238 Z" id="Fill-38" fill="#3D3D3D" sketch:type="MSShapeGroup"></path>
                <path d="M95.2265291,13.5595238 C95.2265291,11.1150794 96.8737945,9.23511905 99.3188233,9.23511905 C100.813336,9.23511905 101.696345,9.85019841 102.324602,10.6706349 L101.4751,11.4399802 C100.932089,10.687996 100.236325,10.3799603 99.3868229,10.3799603 C97.6552971,10.3799603 96.5515356,11.7306548 96.5515356,13.5595238 C96.5515356,15.3883929 97.6552971,16.7559524 99.3868229,16.7559524 C100.236325,16.7559524 100.932089,16.4141865 101.4751,15.6790675 L102.324602,16.4652778 C101.696345,17.2857143 100.813336,17.9012897 99.3188233,17.9012897 C96.8737945,17.9012897 95.2265291,16.0039683 95.2265291,13.5595238" id="Fill-39" fill="#3D3D3D" sketch:type="MSShapeGroup"></path>
                <path d="M104.837138,13.5595238 C104.837138,11.1661706 106.39965,9.23511905 108.895432,9.23511905 C111.391707,9.23511905 112.953727,11.1661706 112.953727,13.5595238 C112.953727,15.952381 111.391707,17.9012897 108.895432,17.9012897 C106.39965,17.9012897 104.837138,15.952381 104.837138,13.5595238 L104.837138,13.5595238 Z M111.61246,13.5595238 C111.61246,11.8844246 110.644205,10.3799603 108.895432,10.3799603 C107.14666,10.3799603 106.178898,11.8844246 106.178898,13.5595238 C106.178898,15.2519841 107.14666,16.7559524 108.895432,16.7559524 C110.644205,16.7559524 111.61246,15.2519841 111.61246,13.5595238 L111.61246,13.5595238 Z" id="Fill-40" fill="#3D3D3D" sketch:type="MSShapeGroup"></path>
                <path d="M122.156338,17.6959325 L122.156338,16.4652778 C121.544835,17.3030754 120.543073,17.9012897 119.388065,17.9012897 C117.249034,17.9012897 115.737768,16.2604167 115.737768,13.5768849 C115.737768,10.9270833 117.249034,9.23511905 119.388065,9.23511905 C120.492319,9.23511905 121.494081,9.78224206 122.156338,10.687996 L122.156338,6.29464286 L123.429606,6.29464286 L123.429606,17.6959325 L122.156338,17.6959325 L122.156338,17.6959325 Z M122.156338,15.4399802 L122.156338,11.7132937 C121.714834,10.9955357 120.713072,10.3799603 119.710817,10.3799603 C118.04729,10.3799603 117.062282,11.7475198 117.062282,13.5768849 C117.062282,15.405754 118.04729,16.7559524 119.710817,16.7559524 C120.713072,16.7559524 121.714834,16.1577381 122.156338,15.4399802 L122.156338,15.4399802 Z" id="Fill-41" fill="#3D3D3D" sketch:type="MSShapeGroup"></path>
                <path d="M126.689644,13.5595238 C126.689644,11.1661706 128.387663,9.23511905 130.730692,9.23511905 C133.209721,9.23511905 134.670234,11.1835317 134.670234,13.6622024 L134.670234,13.9871032 L128.048158,13.9871032 C128.149664,15.5421627 129.219426,16.8412698 130.985445,16.8412698 C131.936453,16.8412698 132.870216,16.4652778 133.532473,15.781746 L134.143976,16.6195437 C133.31172,17.4399802 132.207959,17.9012897 130.883938,17.9012897 C128.438416,17.9012897 126.689644,16.140377 126.689644,13.5595238 L126.689644,13.5595238 Z M130.713939,10.2946429 C128.964674,10.2946429 128.098911,11.781746 128.031404,13.0297619 L133.41372,13.0297619 C133.396966,11.8159722 132.581464,10.2946429 130.713939,10.2946429 L130.713939,10.2946429 Z" id="Fill-42" fill="#3D3D3D" sketch:type="MSShapeGroup"></path>
                <path d="M137.913026,17.6959325 L137.913026,9.43998016 L139.186294,9.43998016 L139.186294,10.7564484 C139.849043,9.90128968 140.799559,9.25198413 141.920567,9.25198413 L141.920567,10.5684524 C141.767815,10.5510913 141.615062,10.5342262 141.427817,10.5342262 C140.630053,10.5342262 139.560292,11.1835317 139.186294,11.8501984 L139.186294,17.6959325 L137.913026,17.6959325" id="Fill-43" fill="#3D3D3D" sketch:type="MSShapeGroup"></path>
                <path d="M148.96296,6.07539683 L148.96296,19.9508929 L145.802457,19.9508929 L145.802457,18.9945437 L147.788242,18.9945437 L147.788242,7.03174603 L145.802457,7.03174603 L145.802457,6.07539683 L148.96296,6.07539683" id="Fill-44" fill="#3D3D3D" sketch:type="MSShapeGroup"></path>
                <path d="M59.3828605,19.9508929 L59.3828605,6.09275794 L62.5438559,6.09275794 L62.5438559,7.04910714 L60.557578,7.04910714 L60.557578,18.9945437 L62.5438559,18.9945437 L62.5438559,19.9508929 L59.3828605,19.9508929" id="Fill-45" fill="#3D3D3D" sketch:type="MSShapeGroup"></path>
            </g>
        </g>
    </g>
</svg>