<?xml version="1.0" encoding="UTF-8" standalone="no"?>
<svg width="59px" height="21px" viewBox="0 0 59 21" version="1.1" xmlns="http://www.w3.org/2000/svg" xmlns:xlink="http://www.w3.org/1999/xlink">
    <defs></defs>
    <g id="Profile-Web" stroke="none" stroke-width="1" fill="none" fill-rule="evenodd">
        <g id="Profile-v2-Edit-Profile" transform="translate(-250.000000, -15.000000)">
            <g id="logo_mobile" transform="translate(250.000000, 15.000000)">
                <g id="Group-2">
                    <path d="M14.9492972,6.55244051 C8.04544077,5.31525559 1.54020507,5.4217839 0.233718524,8.88493016 C-0.687452207,11.3262693 1.19730444,15.0097187 4.43282147,18.6448356 C5.38701045,19.7167339 6.4910131,20.0584793 7.52822853,20.051169 C8.48730806,15.2849701 12.3130418,10.1917782 14.9492972,6.55244051 Z" id="Fill-1" fill="#2AA7DF"></path>
                    <path d="M30.8906502,10.2548855 C34.4353993,8.82017181 39.2573166,7.38218745 43.898335,6.55108555 C44.1357875,6.78039263 44.3692523,7.01551416 44.5994543,7.25463311 C40.2944947,2.77896585 34.7127294,0.019649396 29.4191697,0.019649396 C24.4087405,0.019649396 19.1398324,2.49151434 14.9400044,6.55108555 C19.5810228,7.38218745 24.4029401,8.82017181 27.9476892,10.2548855 C28.39613,10.4365869 28.8906113,10.6317341 29.4191697,10.8385102 C29.9477281,10.6317341 30.4422094,10.4365869 30.8906502,10.2548855 Z" id="Fill-4" fill="#8AC441"></path>
                    <path d="M14.9475303,6.5570359 C11.3040313,10.1189641 7.52070269,17.0964693 7.52070269,20.0473008 C8.77773069,20.0473003 10.2778391,19.4404927 11.3598184,18.8811086 C16.751373,16.0936706 22.3234428,11.5724168 29.3879464,10.8367289 C25.8006108,9.27190344 18.8753465,7.08383199 14.9475303,6.5570359 Z" id="Fill-7" fill="#0A72B8"></path>
                    <path d="M43.9090835,6.54513495 C50.7977336,5.31568892 57.2799027,5.42861517 58.5838121,8.88493016 C59.5049828,11.3262693 57.6202262,15.0097187 54.3847092,18.6448356 C53.5126654,19.6244552 52.5154923,19.9942268 51.5585275,20.045053 C48.5577697,13.7951078 47.9320035,12.6700148 43.9090835,6.54513495 Z" id="Fill-9" fill="#F59022"></path>
                    <path d="M43.9029705,6.54907638 C47.5464695,10.1110046 51.5705327,20.0473008 51.5705327,20.0473008 C49.8318001,20.1203987 48.14203,19.1516451 47.6440427,18.8658758 C40.1670714,14.5752276 35.514648,11.6400747 29.4036654,10.838519 C33.0440612,9.10794638 40.9909161,6.91206154 43.9029705,6.54907638 Z" id="Fill-12" fill="#FFF100"></path>
                </g>
            </g>
        </g>
    </g>
</svg>