<?xml version="1.0" encoding="UTF-8" standalone="no"?>
<svg width="49px" height="19px" viewBox="0 0 49 19" version="1.1" xmlns="http://www.w3.org/2000/svg" xmlns:xlink="http://www.w3.org/1999/xlink" xmlns:sketch="http://www.bohemiancoding.com/sketch/ns">
    <!-- Generator: Sketch 3.3.3 (12081) - http://www.bohemiancoding.com/sketch -->
    <title>logo topcoder mobile</title>
    <desc>Created with Sketch.</desc>
    <defs>
        <path id="path-1" d="M1.74145931,0.28422619 C1.2768436,0.32390873 0.808829441,0.368055556 0.335474876,0.423611111 C0.406356688,0.494047619 0.473840057,0.567956349 0.543750885,0.639880952 C0.657841472,0.755952381 0.771446568,0.871031746 0.882138712,0.990079365 C0.973896674,1.08829365 1.06419816,1.18948413 1.15449965,1.28918651 C1.26324982,1.41021825 1.37248549,1.53174603 1.4792937,1.65575397 C1.56765322,1.75992063 1.65552725,1.86607143 1.74388677,1.97172619 C1.84729653,2.09821429 1.95119179,2.22470238 2.05314508,2.35367063 C2.14004812,2.46329365 2.22452371,2.57390873 2.30899929,2.68551587 C2.40901062,2.81696429 2.50853645,2.94890873 2.60612031,3.0828373 C2.68913942,3.19642857 2.77070205,3.3125 2.85226469,3.42906746 C2.94742109,3.56547619 3.04257749,3.70287698 3.13530644,3.84176587 C3.21492711,3.96081349 3.2930913,4.08085317 3.37174098,4.20138889 C3.46252795,4.34275794 3.55185846,4.48561508 3.64070347,4.62946429 C3.71692569,4.75347222 3.79217693,4.87847222 3.86694268,5.00347222 C3.95287473,5.14930556 4.03783581,5.29662698 4.12085492,5.44543651 C4.1936787,5.5734127 4.26553149,5.70188492 4.33592781,5.83184524 C4.41797594,5.98263889 4.4975966,6.13541667 4.57770276,6.28968254 C4.64567162,6.42113095 4.71315499,6.5530754 4.77918188,6.68650794 C4.85734607,6.8422619 4.93162633,7 5.00639207,7.15823413 C5.07096249,7.29414683 5.13456192,7.42956349 5.19670488,7.56696429 C5.26904317,7.7281746 5.33992498,7.89087302 5.40935032,8.05406746 C5.46858033,8.19246032 5.52829582,8.33035714 5.58606936,8.47123016 C5.65452371,8.63740079 5.72006511,8.80605159 5.78512102,8.97470238 C5.84046709,9.1155754 5.89532767,9.25595238 5.9472753,9.39880952 C6.01136023,9.57043651 6.07156122,9.74454365 6.1322477,9.91865079 C6.18225336,10.062004 6.23274452,10.203869 6.28080821,10.3482143 C6.34003822,10.5277778 6.39538429,10.7093254 6.45170134,10.890873 C6.4958811,11.0327381 6.54151734,11.1746032 6.58326964,11.3184524 C6.63861571,11.5069444 6.69007785,11.6974206 6.74153999,11.8883929 C6.77989384,12.0287698 6.82018967,12.1676587 6.85660156,12.3100198 C6.90806369,12.5128968 6.9556419,12.718254 7.00370559,12.9231151 C7.03477707,13.0555556 7.0687615,13.1865079 7.09740552,13.3189484 C7.15032413,13.5565476 7.19741684,13.797123 7.24548054,14.0381944 C7.26441472,14.1349206 7.32849965,14.3338294 7.34694834,14.4310516 C7.33966596,14.3402778 6.64347063,6.15178571 1.74145931,0.28422619"></path>
        <path d="M4.81802123,11.062004 C4.83646992,11.1577381 4.90104034,11.359127 4.91948903,11.4548611 C4.90104034,11.3576389 4.83695541,11.1587302 4.81802123,11.062004 M4.66994621,10.3427579 C4.72286483,10.5808532 4.76995754,10.8209325 4.81802123,11.062004 C4.76995754,10.8209325 4.72286483,10.5803571 4.66994621,10.3427579 M1.21324416,1.65327381 C1.28946638,1.77777778 1.36471762,1.90228175 1.43948337,2.02728175 C1.36471762,1.90228175 1.28946638,1.77728175 1.21324416,1.65327381 M0.178661005,0.106646825 C0.261680113,0.221230159 0.343242746,0.336309524 0.424805379,0.452876984 C0.343242746,0.336309524 0.261680113,0.220238095 0.178661005,0.106646825" id="path-3"></path>
        <path id="path-5" d="M0.762707714,0.288690476 C0.647160651,0.433035714 0.529671621,0.575396825 0.416552017,0.723214286 L0.417037509,0.723214286 L0.418008493,0.722222222 C3.11879972,0.950396825 6.16137721,1.54761905 9.36902194,2.4469246 C9.46903326,2.47470238 9.56855909,2.50347222 9.67002689,2.53224206 C9.47534466,2.44990079 5.57878698,0.816468254 0.762707714,0.288690476"></path>
        <path id="path-7" d="M0.418008493,0.226190476 L0.417037509,0.22718254 C3.20473178,0.462301587 6.35654494,1.0922619 9.67730927,2.03968254 C9.67730927,2.03968254 9.67488181,2.03819444 9.67002689,2.03621032 C9.56855909,2.00744048 9.46903326,1.97867063 9.36902194,1.95089286 C6.16137721,1.0515873 3.11879972,0.454365079 0.418008493,0.226190476"></path>
    </defs>
    <g id="navigation-states" stroke="none" stroke-width="1" fill="none" fill-rule="evenodd" sketch:type="MSPage">
        <g id="Mobile-320-speck-5" sketch:type="MSArtboardGroup" transform="translate(-14.000000, -17.000000)">
            <g id="logo-topcoder-mobile" sketch:type="MSLayerGroup" transform="translate(14.000000, 17.000000)">
                <path d="M33.8305294,4.88839286 C30.7316348,1.81894841 26.8928507,1.13686838e-13 22.7331564,1.13686838e-13 C17.6272385,1.13686838e-13 13.004385,2.74007937 9.64089738,7.17162698 C12.4285916,7.40674603 15.5804048,8.03621032 18.9016546,8.98412698 C23.6939448,6.92013889 28.9625025,5.46329365 33.8305294,4.88839286" id="Fill-1" fill="#8AC441" sketch:type="MSShapeGroup"></path>
                <path d="M38.2252017,4.61656746 C36.8172753,4.61656746 35.3447785,4.70982143 33.8344133,4.88789683 C33.9052951,4.95833333 33.9727785,5.03224206 34.0426893,5.10416667 C34.1567799,5.2202381 34.270385,5.33531746 34.3810771,5.45436508 C34.4728351,5.55257937 34.5621656,5.65376984 34.6534381,5.75347222 C34.7621883,5.87450397 34.8714239,5.99603175 34.9782321,6.12003968 C35.0665916,6.22420635 35.1544657,6.33035714 35.2418542,6.4360119 C35.346235,6.5625 35.4501302,6.6889881 35.5520835,6.81795635 C35.6389866,6.92757937 35.7234621,7.03819444 35.8079377,7.14980159 C35.907949,7.28125 36.0074749,7.41319444 36.1050587,7.54712302 C36.1880778,7.66170635 36.2696405,7.77678571 36.3512031,7.89335317 C36.4463595,8.0297619 36.5415159,8.1671627 36.6342449,8.30605159 C36.7138655,8.42509921 36.7920297,8.54513889 36.8706794,8.6656746 C36.9614664,8.80704365 37.0507969,8.94990079 37.1396419,9.09375 C37.2158641,9.21825397 37.2911154,9.34275794 37.3658811,9.46775794 C37.4518132,9.61359127 37.5362887,9.7609127 37.6197933,9.90972222 C37.6926171,10.0376984 37.7644699,10.1661706 37.8348662,10.296131 C37.9169144,10.4469246 37.996535,10.5997024 38.0766412,10.7539683 C38.14461,10.8854167 38.2120934,11.0173611 38.2781203,11.1507937 C38.3562845,11.3065476 38.4305648,11.4642857 38.5053305,11.6225198 C38.5699009,11.7584325 38.6335004,11.8938492 38.6956433,12.03125 C38.7679816,12.1924603 38.8388634,12.3551587 38.9082887,12.5183532 C38.9675188,12.656746 39.0272343,12.7946429 39.0850078,12.9355159 C39.1534621,13.1016865 39.2190035,13.2703373 39.2840594,13.4389881 C39.3394055,13.5798611 39.3942661,13.7202381 39.4462137,13.8630952 C39.5102987,14.0347222 39.5704996,14.2088294 39.6311861,14.3829365 C39.6811918,14.5262897 39.7316829,14.6681548 39.7797466,14.8125 C39.8389766,14.9920635 39.8943227,15.1736111 39.9506398,15.3551587 C39.9948195,15.4970238 40.0404558,15.6388889 40.0822081,15.7827381 C40.1375541,15.9712302 40.1890163,16.1617063 40.2404784,16.3526786 C40.2788323,16.4930556 40.3191281,16.6319444 40.35554,16.7743056 C40.4070021,16.9771825 40.4545803,17.1825397 40.502644,17.3874008 C40.5337155,17.5198413 40.5676999,17.6507937 40.5963439,17.7832341 C40.6487771,18.0213294 40.6963553,18.2614087 40.744419,18.5024802 C40.7633531,18.5997024 40.8458868,18.8953373 40.8458868,18.8953373 C42.2067205,18.8953373 43.6748478,17.4861111 44.7337056,16.4201389 C51.5912781,9.51488095 48.6768705,4.61656746 38.2252017,4.61656746" id="Fill-2" fill="#F6911F" sketch:type="MSShapeGroup"></path>
                <path id="Fill-3" fill="#8AC441" sketch:type="MSShapeGroup" d="M37.3658811,9.46775794 C37.4518132,9.61359127 37.5362887,9.7609127 37.6197933,9.90972222 C37.5362887,9.7609127 37.4518132,9.61359127 37.3658811,9.46775794"></path>
                <path id="Fill-4" fill="#8AC441" sketch:type="MSShapeGroup" d="M36.8706794,8.6656746 C36.9614664,8.80704365 37.0507969,8.94990079 37.1396419,9.09375 C37.0507969,8.94990079 36.9614664,8.80704365 36.8706794,8.6656746"></path>
                <path id="Fill-5" fill="#8AC441" sketch:type="MSShapeGroup" d="M35.2418542,6.4360119 C35.346235,6.5625 35.4501302,6.6889881 35.5520835,6.81795635 C35.4501302,6.6889881 35.346235,6.5625 35.2418542,6.4360119"></path>
                <path id="Fill-6" fill="#8AC441" sketch:type="MSShapeGroup" d="M34.6534381,5.75347222 C34.7621883,5.87450397 34.8714239,5.99603175 34.9782321,6.12003968 C34.8714239,5.99603175 34.7621883,5.87450397 34.6534381,5.75347222"></path>
                <path id="Fill-7" fill="#8AC441" sketch:type="MSShapeGroup" d="M35.8079377,7.14980159 C35.907949,7.28125 36.0074749,7.41319444 36.1050587,7.54712302 C36.0074749,7.41319444 35.907949,7.28125 35.8079377,7.14980159"></path>
                <path id="Fill-8" fill="#8AC441" sketch:type="MSShapeGroup" d="M34.0426893,5.10416667 C34.1567799,5.2202381 34.270385,5.33531746 34.3810771,5.45436508 C34.270385,5.33531746 34.1567799,5.2202381 34.0426893,5.10416667"></path>
                <path id="Fill-9" fill="#8AC441" sketch:type="MSShapeGroup" d="M36.3512031,7.89335317 C36.4463595,8.0297619 36.5415159,8.1671627 36.6342449,8.30605159 C36.5415159,8.1671627 36.4463595,8.0297619 36.3512031,7.89335317"></path>
                <path id="Fill-10" fill="#F4CA14" sketch:type="MSShapeGroup" d="M34.3810771,5.45436508 C34.4728351,5.55257937 34.5621656,5.65376984 34.6534381,5.75347222 C34.5621656,5.65376984 34.4728351,5.55257937 34.3810771,5.45436508"></path>
                <path id="Fill-11" fill="#F4CA14" sketch:type="MSShapeGroup" d="M33.8344133,4.88789683 L33.8305294,4.88839286 C33.9018967,4.9593254 33.972293,5.03174603 34.0426893,5.10416667 C33.9727785,5.03224206 33.9052951,4.95833333 33.8344133,4.88789683"></path>
                <path id="Fill-12" fill="#F4CA14" sketch:type="MSShapeGroup" d="M37.1396419,9.09375 C37.2158641,9.21775794 37.2911154,9.34275794 37.3658811,9.46775794 C37.2911154,9.34275794 37.2158641,9.21825397 37.1396419,9.09375"></path>
                <path id="Fill-13" fill="#F4CA14" sketch:type="MSShapeGroup" d="M36.6342449,8.30605159 C36.7138655,8.42509921 36.7920297,8.54513889 36.8706794,8.6656746 C36.7920297,8.54513889 36.7138655,8.42509921 36.6342449,8.30605159"></path>
                <path id="Fill-14" fill="#F4CA14" sketch:type="MSShapeGroup" d="M36.1050587,7.54712302 C36.1880778,7.66071429 36.2696405,7.77678571 36.3512031,7.89335317 C36.2696405,7.77678571 36.1880778,7.66170635 36.1050587,7.54712302"></path>
                <path id="Fill-15" fill="#F4CA14" sketch:type="MSShapeGroup" d="M34.9782321,6.12003968 C35.0665916,6.22420635 35.1544657,6.33035714 35.2418542,6.4360119 C35.1544657,6.33035714 35.0665916,6.22420635 34.9782321,6.12003968"></path>
                <path id="Fill-16" fill="#F4CA14" sketch:type="MSShapeGroup" d="M35.5520835,6.81795635 C35.6389866,6.92757937 35.7234621,7.03819444 35.8079377,7.14980159 C35.7234621,7.03819444 35.6389866,6.92757937 35.5520835,6.81795635"></path>
                <path d="M40.8458868,18.8953373 C40.8274381,18.7981151 40.7633531,18.5992063 40.744419,18.5024802 C40.6963553,18.2614087 40.6492626,18.0208333 40.5963439,17.7832341 C40.5676999,17.6507937 40.5337155,17.5198413 40.502644,17.3874008 C40.4545803,17.1825397 40.4070021,16.9771825 40.35554,16.7743056 C40.3191281,16.6319444 40.2788323,16.4930556 40.2404784,16.3526786 C40.1890163,16.1617063 40.1375541,15.9712302 40.0822081,15.7827381 C40.0404558,15.6388889 39.9948195,15.4970238 39.9506398,15.3551587 C39.8943227,15.1736111 39.8384912,14.9920635 39.7797466,14.8125 C39.7316829,14.6681548 39.6811918,14.5262897 39.6311861,14.3829365 C39.5704996,14.2088294 39.5102987,14.0347222 39.4462137,13.8630952 C39.3942661,13.7202381 39.3394055,13.5798611 39.2840594,13.4389881 C39.2190035,13.2703373 39.1534621,13.1016865 39.0850078,12.9355159 C39.0272343,12.7946429 38.9675188,12.656746 38.9082887,12.5183532 C38.8388634,12.3551587 38.7679816,12.1924603 38.6956433,12.03125 C38.6335004,11.8938492 38.5699009,11.7584325 38.5053305,11.6225198 C38.4305648,11.4642857 38.3562845,11.3065476 38.2781203,11.1507937 C38.2120934,11.0173611 38.14461,10.8854167 38.0766412,10.7539683 C37.996535,10.5997024 37.9169144,10.4469246 37.8348662,10.296131 C37.7644699,10.1661706 37.6926171,10.0376984 37.6197933,9.90972222 C37.5362887,9.7609127 37.4518132,9.61359127 37.3658811,9.46775794 C37.2911154,9.34275794 37.2158641,9.21775794 37.1396419,9.09375 C37.0507969,8.94990079 36.9614664,8.80704365 36.8706794,8.6656746 C36.7920297,8.54513889 36.7138655,8.42509921 36.6342449,8.30605159 C36.5415159,8.1671627 36.4463595,8.0297619 36.3512031,7.89335317 C36.2696405,7.77678571 36.1880778,7.66071429 36.1050587,7.54712302 C36.0074749,7.41319444 35.907949,7.28125 35.8079377,7.14980159 C35.7234621,7.03819444 35.6389866,6.92757937 35.5520835,6.81795635 C35.4501302,6.6889881 35.346235,6.5625 35.2418542,6.4360119 C35.1544657,6.33035714 35.0665916,6.22420635 34.9782321,6.12003968 C34.8714239,5.99603175 34.7621883,5.87450397 34.6534381,5.75347222 C34.5621656,5.65376984 34.4728351,5.55257937 34.3810771,5.45436508 C34.270385,5.33531746 34.1567799,5.2202381 34.0426893,5.10416667 C33.972293,5.03174603 33.9018967,4.9593254 33.8305294,4.88839286 C28.9625025,5.46329365 23.6939448,6.92013889 18.9016546,8.98412698 C26.0607176,11.0267857 34.0514282,14.6517857 40.8458868,18.8953373" id="Fill-17" fill="#D7DE27" sketch:type="MSShapeGroup"></path>
                <path d="M9.63846992,7.17013889 L9.58506582,7.24553571 C9.32775513,7.58829365 9.07675584,7.94146825 8.83498089,8.30406746 C8.7869172,8.37450397 8.74079547,8.4469246 8.69418825,8.51835317 C8.66360226,8.56547619 8.63253079,8.61309524 8.60145931,8.66021825 C8.41648691,8.94593254 8.23588393,9.23561508 8.06110686,9.53174603 C8.03197735,9.58134921 8.00333333,9.63144841 7.97420382,9.68055556 L7.96400849,9.69890873 C7.8504034,9.89632937 7.73874027,10.0967262 7.62999009,10.3000992 C7.5761005,10.4012897 7.52172541,10.5029762 7.4683213,10.6056548 C7.4149172,10.7078373 7.36248408,10.8110119 7.30956546,10.9146825 C7.27072611,10.9910714 7.23140127,11.0664683 7.19304742,11.1428571 C6.9910828,11.5500992 6.79348762,11.9131944 6.60900071,12.3363095 C6.57404529,12.4166667 6.52889455,12.5505952 6.49442463,12.6314484 C6.30702477,13.0734127 6.15749328,13.4320437 5.94339137,13.9801587 C5.78220807,14.4568452 5.65258174,14.7797619 5.50547771,15.2519841 L5.0466879,16.7911706 C5.02484076,16.8794643 4.9389087,17.1949405 4.91754706,17.2837302 C4.80345648,17.7619048 4.61799858,18.4196429 4.52575513,18.9102183 C4.52332767,18.9241071 4.53303751,18.9335317 4.59275301,18.9181548 L4.55682661,18.9335317 L4.50293701,18.9414683 C-2.20267657,12.1795635 -1.521046,7.10763889 7.31684784,7.10763889 C8.05770842,7.10763889 8.83303892,7.10267857 9.63846992,7.17013889" id="Fill-18" fill="#29A8E0" sketch:type="MSShapeGroup"></path>
                <path d="M8.54902619,8.54811508 C8.36405379,8.83382937 8.18296532,9.12301587 8.00818825,9.41964286 C8.18247983,9.12301587 8.36405379,8.83382937 8.54902619,8.54811508" id="Fill-19" fill="#29A8E0" sketch:type="MSShapeGroup"></path>
                <path id="Fill-20" fill="#EDB035" sketch:type="MSShapeGroup" d="M9.58943524,7.05853175 L9.5321472,7.13293651 L9.58555131,7.05803571 L9.58943524,7.05853175"></path>
                <path d="M18.9035966,8.98313492 C14.138494,11.0347222 9.84480396,13.6860119 6.88621656,16.6641865 C5.93271054,17.625 4.90832272,18.5818452 4.59518047,18.9176587 L4.59226752,18.9181548 C4.53303751,18.9335317 4.52332767,18.9241071 4.52575513,18.9102183 C4.61799858,18.4196429 4.80345648,17.7624008 4.91803255,17.2837302 C4.93842321,17.1949405 5.02484076,16.8794643 5.0466879,16.7911706 L5.50547771,15.2519841 C5.65209625,14.7797619 5.78220807,14.4568452 5.94387686,13.9801587 C6.15749328,13.4320437 6.30702477,13.0734127 6.49442463,12.6319444 C6.52889455,12.5505952 6.57404529,12.4166667 6.60900071,12.3363095 C6.79348762,11.9131944 6.9910828,11.5500992 7.19304742,11.1433532 C7.23140127,11.0664683 7.27072611,10.9910714 7.31005096,10.9146825 C7.36199858,10.8105159 7.4149172,10.7078373 7.4683213,10.6056548 C7.52172541,10.5029762 7.5761005,10.4012897 7.62999009,10.2996032 C7.73874027,10.0962302 7.8504034,9.89632937 7.96400849,9.69890873 L7.97420382,9.68055556 C8.00333333,9.63095238 8.03197735,9.58134921 8.06110686,9.53174603 C8.23539844,9.23511905 8.41648691,8.94642857 8.60145931,8.66021825 C8.63253079,8.61309524 8.66360226,8.56547619 8.69418825,8.51835317 C8.74079547,8.4469246 8.78643171,8.375 8.83498089,8.30357143 C9.07724133,7.94146825 9.32726964,7.58829365 9.58555131,7.24553571 L9.64235386,7.17063492 C12.3431451,7.39880952 15.3857226,7.99603175 18.5933673,8.8953373 C18.6962916,8.92410714 18.7992159,8.95386905 18.9035966,8.98313492" id="Fill-21" fill="#0D72B8" sketch:type="MSShapeGroup"></path>
                <g id="Group-24" transform="translate(33.498938, 4.464286)">
                    <mask id="mask-2" sketch:name="Clip 23" fill="white">
                        <use xlink:href="#path-1"></use>
                    </mask>
                    <g id="Clip-23"></g>
                    <path d="M1.74145931,0.28422619 C1.2768436,0.32390873 0.808829441,0.368055556 0.335474876,0.423611111 C0.406356688,0.494047619 0.473840057,0.567956349 0.543750885,0.639880952 C0.657841472,0.755952381 0.771446568,0.871031746 0.882138712,0.990079365 C0.973896674,1.08829365 1.06419816,1.18948413 1.15449965,1.28918651 C1.26324982,1.41021825 1.37248549,1.53174603 1.4792937,1.65575397 C1.56765322,1.75992063 1.65552725,1.86607143 1.74388677,1.97172619 C1.84729653,2.09821429 1.95119179,2.22470238 2.05314508,2.35367063 C2.14004812,2.46329365 2.22452371,2.57390873 2.30899929,2.68551587 C2.40901062,2.81696429 2.50853645,2.94890873 2.60612031,3.0828373 C2.68913942,3.19642857 2.77070205,3.3125 2.85226469,3.42906746 C2.94742109,3.56547619 3.04257749,3.70287698 3.13530644,3.84176587 C3.21492711,3.96081349 3.2930913,4.08085317 3.37174098,4.20138889 C3.46252795,4.34275794 3.55185846,4.48561508 3.64070347,4.62946429 C3.71692569,4.75347222 3.79217693,4.87847222 3.86694268,5.00347222 C3.95287473,5.14930556 4.03783581,5.29662698 4.12085492,5.44543651 C4.1936787,5.5734127 4.26553149,5.70188492 4.33592781,5.83184524 C4.41797594,5.98263889 4.4975966,6.13541667 4.57770276,6.28968254 C4.64567162,6.42113095 4.71315499,6.5530754 4.77918188,6.68650794 C4.85734607,6.8422619 4.93162633,7 5.00639207,7.15823413 C5.07096249,7.29414683 5.13456192,7.42956349 5.19670488,7.56696429 C5.26904317,7.7281746 5.33992498,7.89087302 5.40935032,8.05406746 C5.46858033,8.19246032 5.52829582,8.33035714 5.58606936,8.47123016 C5.65452371,8.63740079 5.72006511,8.80605159 5.78512102,8.97470238 C5.84046709,9.1155754 5.89532767,9.25595238 5.9472753,9.39880952 C6.01136023,9.57043651 6.07156122,9.74454365 6.1322477,9.91865079 C6.18225336,10.062004 6.23274452,10.203869 6.28080821,10.3482143 C6.34003822,10.5277778 6.39538429,10.7093254 6.45170134,10.890873 C6.4958811,11.0327381 6.54151734,11.1746032 6.58326964,11.3184524 C6.63861571,11.5069444 6.69007785,11.6974206 6.74153999,11.8883929 C6.77989384,12.0287698 6.82018967,12.1676587 6.85660156,12.3100198 C6.90806369,12.5128968 6.9556419,12.718254 7.00370559,12.9231151 C7.03477707,13.0555556 7.0687615,13.1865079 7.09740552,13.3189484 C7.15032413,13.5565476 7.19741684,13.797123 7.24548054,14.0381944 C7.26441472,14.1349206 7.32849965,14.3338294 7.34694834,14.4310516 C7.33966596,14.3402778 6.64347063,6.15178571 1.74145931,0.28422619" id="Fill-22" sketch:type="MSShapeGroup" mask="url(#mask-2)"></path>
                </g>
                <g id="Group-27" transform="translate(35.926398, 7.440476)">
                    <mask id="mask-4" sketch:name="Clip 26" fill="white">
                        <use xlink:href="#path-3"></use>
                    </mask>
                    <g id="Clip-26"></g>
                    <path d="M4.81802123,11.062004 C4.83646992,11.1577381 4.90104034,11.359127 4.91948903,11.4548611 C4.90104034,11.3576389 4.83695541,11.1587302 4.81802123,11.062004 M4.66994621,10.3427579 C4.72286483,10.5808532 4.76995754,10.8209325 4.81802123,11.062004 C4.76995754,10.8209325 4.72286483,10.5803571 4.66994621,10.3427579 M1.21324416,1.65327381 C1.28946638,1.77777778 1.36471762,1.90228175 1.43948337,2.02728175 C1.36471762,1.90228175 1.28946638,1.77728175 1.21324416,1.65327381 M0.178661005,0.106646825 C0.261680113,0.221230159 0.343242746,0.336309524 0.424805379,0.452876984 C0.343242746,0.336309524 0.261680113,0.220238095 0.178661005,0.106646825" id="Fill-25" sketch:type="MSShapeGroup" mask="url(#mask-4)"></path>
                </g>
                <g id="Group-30" transform="translate(9.224345, 6.448413)">
                    <mask id="mask-6" sketch:name="Clip 29" fill="white">
                        <use xlink:href="#path-5"></use>
                    </mask>
                    <g id="Clip-29"></g>
                    <path d="M0.762707714,0.288690476 C0.647160651,0.433035714 0.529671621,0.575396825 0.416552017,0.723214286 L0.417037509,0.723214286 L0.418008493,0.722222222 C3.11879972,0.950396825 6.16137721,1.54761905 9.36902194,2.4469246 C9.46903326,2.47470238 9.56855909,2.50347222 9.67002689,2.53224206 C9.47534466,2.44990079 5.57878698,0.816468254 0.762707714,0.288690476" id="Fill-28" sketch:type="MSShapeGroup" mask="url(#mask-6)"></path>
                </g>
                <g id="Group-33" transform="translate(9.224345, 6.944444)">
                    <mask id="mask-8" sketch:name="Clip 32" fill="white">
                        <use xlink:href="#path-7"></use>
                    </mask>
                    <g id="Clip-32"></g>
                    <path d="M0.418008493,0.226190476 L0.417037509,0.22718254 C3.20473178,0.462301587 6.35654494,1.0922619 9.67730927,2.03968254 C9.67730927,2.03968254 9.67488181,2.03819444 9.67002689,2.03621032 C9.56855909,2.00744048 9.46903326,1.97867063 9.36902194,1.95089286 C6.16137721,1.0515873 3.11879972,0.454365079 0.418008493,0.226190476" id="Fill-31" sketch:type="MSShapeGroup" mask="url(#mask-8)"></path>
                </g>
            </g>
        </g>
    </g>
</svg>