<?xml version="1.0" encoding="utf-8"?>
<!-- Generator: Adobe Illustrator 16.0.3, SVG Export Plug-In . SVG Version: 6.00 Build 0)  -->
<!DOCTYPE svg PUBLIC "-//W3C//DTD SVG 1.1//EN" "http://www.w3.org/Graphics/SVG/1.1/DTD/svg11.dtd">
<svg version="1.1" id="Layer_1" xmlns="http://www.w3.org/2000/svg" xmlns:xlink="http://www.w3.org/1999/xlink" x="0px" y="0px"
	 width="150.004px" height="93.491px" viewBox="5.998 4.755 150.004 93.491" enable-background="new 5.998 4.755 150.004 93.491"
	 xml:space="preserve">
<g id="Layer_3">
	<g>
		<g>
			<g>
				<path fill="#FFFFFF" d="M12.292,72.197H5.998v-8.956h23.85v8.956h-6.295v25.18H12.292V72.197z"/>
				<path fill="#FFFFFF" d="M29.335,80.335c0-2.729,0.478-5.194,1.433-7.396c0.955-2.203,2.253-4.086,3.891-5.655
					c1.638-1.569,3.55-2.771,5.733-3.608c2.182-0.835,4.504-1.253,6.958-1.253c1.945,0,3.676,0.188,5.195,0.563
					c1.518,0.375,2.824,0.802,3.914,1.279c1.264,0.545,2.354,1.144,3.275,1.791l-5.373,9.467c-0.545-0.409-1.143-0.801-1.791-1.179
					c-0.58-0.271-1.271-0.536-2.072-0.793c-0.801-0.256-1.715-0.384-2.738-0.384c-1.057,0-2.029,0.188-2.917,0.562
					c-0.887,0.377-1.662,0.889-2.329,1.537c-0.665,0.646-1.185,1.405-1.56,2.274c-0.377,0.871-0.562,1.801-0.562,2.79
					s0.195,1.919,0.588,2.789c0.391,0.87,0.93,1.63,1.611,2.275c0.683,0.647,1.484,1.16,2.405,1.535
					c0.922,0.377,1.928,0.563,3.02,0.563c1.092,0,2.064-0.136,2.916-0.41c0.854-0.272,1.57-0.58,2.15-0.921
					c0.682-0.375,1.279-0.818,1.791-1.331l5.373,9.469c-0.922,0.75-2.014,1.416-3.275,1.995c-1.092,0.479-2.404,0.921-3.938,1.331
					c-1.535,0.409-3.293,0.613-5.271,0.613c-2.66,0-5.117-0.435-7.368-1.304c-2.254-0.871-4.197-2.09-5.836-3.659
					c-1.638-1.57-2.917-3.455-3.839-5.655C29.797,85.427,29.335,82.996,29.335,80.335z"/>
				<path fill="#FFFFFF" d="M57.688,80.335c0-2.457,0.469-4.776,1.408-6.96c0.939-2.184,2.217-4.086,3.837-5.707
					c1.621-1.62,3.523-2.898,5.707-3.838c2.184-0.938,4.504-1.407,6.961-1.407c2.456,0,4.776,0.47,6.959,1.407
					c2.184,0.939,4.086,2.219,5.707,3.838c1.618,1.621,2.898,3.523,3.84,5.707c0.938,2.184,1.404,4.503,1.404,6.96
					c0,2.456-0.469,4.777-1.404,6.96c-0.939,2.184-2.222,4.086-3.84,5.706c-1.621,1.621-3.523,2.899-5.707,3.839
					c-2.185,0.938-4.503,1.406-6.959,1.406c-2.457,0-4.777-0.469-6.961-1.406s-4.086-2.218-5.707-3.839
					c-1.62-1.62-2.899-3.522-3.837-5.706C58.156,85.112,57.688,82.791,57.688,80.335z M68.435,80.335
					c0,0.989,0.189,1.919,0.564,2.789s0.887,1.63,1.535,2.276c0.646,0.646,1.406,1.16,2.277,1.535
					c0.869,0.377,1.799,0.562,2.789,0.562c0.989,0,1.919-0.188,2.789-0.562c0.871-0.375,1.629-0.889,2.277-1.535
					c0.646-0.646,1.16-1.406,1.535-2.276s0.562-1.8,0.562-2.789s-0.188-1.919-0.562-2.79c-0.375-0.869-0.889-1.629-1.535-2.275
					c-0.648-0.647-1.406-1.16-2.277-1.537c-0.87-0.375-1.8-0.562-2.789-0.562c-0.99,0-1.92,0.188-2.789,0.562
					c-0.871,0.377-1.631,0.89-2.277,1.537c-0.648,0.646-1.16,1.406-1.535,2.275C68.624,78.416,68.435,79.346,68.435,80.335z"/>
				<path fill="#FFFFFF" d="M97.862,76.547l-4.605-5.374l7.472-7.932h8.189v34.136H97.862V76.547z"/>
				<path fill="#FFFFFF" d="M119.664,72.76h-9.365l3.787-9.519h20.828l-13.458,34.136h-11.517L119.664,72.76z"/>
			</g>
		</g>
		<g>
			<path fill="#FFFFFF" d="M35.382,30.124c-3.129,0.234-5.535,0.909-8.059,3.308c4.294,4.721,5.602,13.788,5.802,16.743
				c1.463-6.579,3.153-11.884,5.581-17.017C37.841,32.118,36.144,30.626,35.382,30.124z"/>
			<path fill="#FFFFFF" d="M34.112,29.301c0,0-0.924-0.578-2.119-1.003c-1.335-0.476-3.204-0.936-5.351-0.954
				c-1.658-0.014-3.481,0.24-5.352,0.954c-0.699,0.267-1.404,0.597-2.111,1.004c-5.22,3.01-10.455,10.128-13.181,25.552h13.953
				c0,0-0.363-15.167,6.691-22.146c1.9-1.879,4.334-3.171,7.463-3.405C34.105,29.302,34.109,29.302,34.112,29.301z"/>
			<path fill="#FFFFFF" d="M73.01,20.811c-4.538,0.222-7.991,1.597-10.875,4.494c6.181,6.837,7.868,18.4,8.271,24.51
				c1.895-9.219,4.843-17.156,8.466-23.402C76.753,23.642,74.831,22.079,73.01,20.811z"/>
			<path fill="#FFFFFF" d="M71.64,19.942c-0.221-0.158-1.26-0.789-2.891-1.371c-1.826-0.65-4.381-1.278-7.313-1.303
				c-2.266-0.019-4.758,0.328-7.312,1.303c-0.955,0.365-1.918,0.813-2.883,1.371c-4.168,2.403-8.343,6.726-11.837,14.109
				c-2.428,5.133-4.527,11.75-6.066,20.229c-0.035,0.192-0.072,0.379-0.106,0.573h0.104h13.953h5.006c0,0-0.5-20.735,9.143-30.271
				c2.595-2.565,5.923-4.322,10.195-4.641C71.634,19.943,71.637,19.943,71.64,19.942z"/>
			<path fill="#FFFFFF" d="M115.425,15.86c-4.969,0.485-8.577,1.875-12.145,5.253c9.689,10.06,10.413,30.5,10.413,30.5
				c3.074-10.207,7.024-18.821,11.33-25.581C122.534,21.735,118.189,17.407,115.425,15.86z"/>
			<path fill="#FFFFFF" d="M114.209,15.12c-0.297-0.207-1.705-1.045-3.916-1.764c-1.525-0.494-3.413-0.949-5.547-1.152
				c-0.005-0.001-0.012-0.001-0.018-0.002c-0.127-0.012-0.254-0.02-0.385-0.03c-3.168-0.251-6.837,0.063-10.606,1.608
				c-0.936,0.382-1.873,0.842-2.814,1.386c-3.95,2.283-7.903,6.077-11.408,12.122c-3.623,6.246-6.764,14.9-8.933,26.78
				c-0.048,0.265-0.099,0.52-0.146,0.787h0.143h19.062h2.469c0,0-0.504-23.584,10.477-34.439c2.961-2.928,6.754-4.933,11.623-5.294
				V15.12z"/>
			<path fill="#FFFFFF" d="M125.598,26.985c-4.306,6.759-8.387,15.762-11.77,27.869h21.046h0.04c0,0,3.845-35.307,21.088-50.099
				C150.448,6.891,137.208,8.757,125.598,26.985z"/>
		</g>
	</g>
</g>
</svg>
