<?xml version="1.0" encoding="UTF-8" standalone="no"?>
<svg
   xmlns:dc="http://purl.org/dc/elements/1.1/"
   xmlns:cc="http://creativecommons.org/ns#"
   xmlns:rdf="http://www.w3.org/1999/02/22-rdf-syntax-ns#"
   xmlns:svg="http://www.w3.org/2000/svg"
   xmlns="http://www.w3.org/2000/svg"
   viewBox="0 0 1293.275 897.435"
   height="897.435"
   width="1293.275"
   xml:space="preserve"
   version="1.1"
   id="svg3355"><metadata
     id="metadata3361"><rdf:RDF><cc:Work
         rdf:about=""><dc:format>image/svg+xml</dc:format><dc:type
           rdf:resource="http://purl.org/dc/dcmitype/StillImage" /><dc:title></dc:title></cc:Work></rdf:RDF></metadata><defs
     id="defs3359"><clipPath
       id="clipPath3369"
       clipPathUnits="userSpaceOnUse"><path
         id="path3371"
         d="m 0,717.948 1034.615,0 L 1034.615,0 0,0 0,717.948 Z" /></clipPath><clipPath
       id="clipPath3441"
       clipPathUnits="userSpaceOnUse"><path
         id="path3443"
         d="m 378.029,207.614 277.513,0 0,-48.519 -277.513,0 0,48.519 z" /></clipPath><clipPath
       id="clipPath3457"
       clipPathUnits="userSpaceOnUse"><path
         id="path3459"
         d="m 12.0498,187.722 351.6612,0 0,-1 -351.6612,0 0,1 z" /></clipPath><clipPath
       id="clipPath3473"
       clipPathUnits="userSpaceOnUse"><path
         id="path3475"
         d="m 673.912,187.722 351.658,0 0,-1 -351.658,0 0,1 z" /></clipPath></defs><g
     transform="matrix(1.25,0,0,-1.25,0,897.435)"
     id="g3363"><g
       id="g3365"><g
         clip-path="url(#clipPath3369)"
         id="g3367"><g
           transform="translate(38.6377,32.2764)"
           id="g3373"><path
             id="path3375"
             style="fill:#ffffff;fill-opacity:1;fill-rule:nonzero;stroke:none"
             d="m 0,0 c 6.631,0 12.324,0.336 17.861,4.646 4.823,3.752 6.971,9.168 6.971,15.28 0,9.326 -6.052,16.498 -14.996,18.381 l 0,0.201 c 7.92,1.883 12.762,8.055 12.762,16.258 0,5.91 -2.727,10.953 -7.625,14.242 -4.853,3.176 -9.28,3.377 -14.865,3.377 l -26.696,0 L -26.588,0 0,0 Z m -17.943,41.242 0,24.336 16.318,0 c 3.631,0 6.915,0 10.042,-1.801 3.721,-2.3 5.432,-5.595 5.432,-10.004 0,-3.58 -1.637,-7.576 -4.558,-9.757 -3.706,-2.87 -8.667,-2.774 -13.206,-2.774 l -14.028,0 z m 0,-34.152 0,27.443 16.482,0 c 4.109,0 8.626,0 12.115,-2.763 3.392,-2.75 5.29,-7.114 5.29,-11.567 0,-3.953 -1.483,-7.711 -4.539,-10.064 C 8.211,7.568 3.795,7.09 -0.206,7.09 l -17.737,0 z" /></g><g
           transform="translate(71.5088,59.5166)"
           id="g3377"><path
             id="path3379"
             style="fill:#ffffff;fill-opacity:1;fill-rule:nonzero;stroke:none"
             d="m 0,0 c 0,-14.121 7.187,-28.287 23.24,-28.287 16.251,0 24.918,13.18 24.918,28.176 0,14.113 -7.819,27.853 -23.543,27.853 C 8.484,27.742 0,14.885 0,0 m 9.063,0 c 0,4.35 0.643,9.58 2.66,13.486 2.342,4.739 7.042,7.748 12.268,7.748 4.658,0 9.16,-2.464 11.712,-6.394 2.794,-4.401 3.425,-9.736 3.425,-14.84 0,-4.699 -0.414,-9.607 -2.663,-13.873 -2.563,-4.918 -6.956,-7.793 -12.474,-7.793 -4.897,0 -9.508,2.66 -11.846,6.852 C 9.792,-10.578 9.063,-4.916 9.063,0" /></g><g
           transform="translate(127.6611,59.5166)"
           id="g3381"><path
             id="path3383"
             style="fill:#ffffff;fill-opacity:1;fill-rule:nonzero;stroke:none"
             d="m 0,0 c 0,-14.121 7.21,-28.287 23.252,-28.287 16.25,0 24.895,13.18 24.895,28.176 0,14.113 -7.808,27.853 -23.543,27.853 C 8.466,27.742 0,14.885 0,0 m 9.063,0 c 0,4.35 0.631,9.58 2.638,13.486 2.357,4.739 7.034,7.748 12.283,7.748 4.685,0 9.167,-2.464 11.723,-6.394 2.757,-4.401 3.422,-9.736 3.422,-14.84 0,-4.699 -0.434,-9.607 -2.671,-13.873 -2.563,-4.918 -6.937,-7.793 -12.474,-7.793 -4.901,0 -9.489,2.66 -11.846,6.852 C 9.803,-10.578 9.063,-4.916 9.063,0" /></g><g
           transform="translate(220.3911,81.3428)"
           id="g3385"><path
             id="path3387"
             style="fill:#ffffff;fill-opacity:1;fill-rule:nonzero;stroke:none"
             d="m 0,0 -29.475,-42.627 29.475,0 0,-6.439 -39.487,0 0,6.439 28.504,40.617 -26.3,0 0,6.612 L 0,4.602 0,0 Z" /></g><path
           id="path3389"
           style="fill:#ffffff;fill-opacity:1;fill-rule:nonzero;stroke:none"
           d="m 273.962,8.524 -6.75,0 0,111.596 6.75,0 0,-111.596 z" /><g
           transform="translate(348.9692,104.6611)"
           id="g3391"><path
             id="path3393"
             style="fill:#ffffff;fill-opacity:1;fill-rule:nonzero;stroke:none"
             d="m 0,0 -9.87,0 -23.423,-72.385 7.613,0 6.444,21.115 26.775,0 7.33,-21.115 8.644,0 L 0,0 Z m 5.589,-44.389 -22.296,0 11.223,34.713 11.073,-34.713 z" /></g><g
           transform="translate(464.4946,48.3467)"
           id="g3395"><path
             id="path3397"
             style="fill:#ffffff;fill-opacity:1;fill-rule:nonzero;stroke:none"
             d="m 0,0 c -2.301,-6.357 -7.546,-10.355 -14.513,-10.355 -5.593,0 -11.604,3.236 -14.125,8.316 -1.984,3.998 -2.223,7.949 -2.223,12.135 l 39.379,0 c 0.403,14.867 -6.803,28.816 -23.491,28.816 -16.008,0 -24.768,-13.426 -24.768,-28.174 0,-15.011 8.334,-27.855 24.604,-27.855 10.198,0 19.597,5.918 22.796,15.713 L 0,0 Z m -30.417,16.207 c 0.307,8.42 6.516,16.369 15.444,16.369 9.556,0 14.869,-7.455 14.79,-16.369 l -30.234,0 z" /></g><g
           transform="translate(492.7002,76.7686)"
           id="g3399"><path
             id="path3401"
             style="fill:#ffffff;fill-opacity:1;fill-rule:nonzero;stroke:none"
             d="m 0,0 0.216,0 c 2.825,6.113 9.347,10.49 16.684,10.49 6.437,0 11.79,-2.779 15.161,-8.33 2.816,-4.527 2.585,-11.723 2.585,-16.99 l 0,-29.662 -8.256,0 0,33.129 c 0,3.197 0.119,7.187 -1.517,9.922 -1.741,3.048 -5.671,4.894 -9.161,4.894 -4.318,0 -8.199,-2.047 -11.065,-5.418 -3.493,-4.221 -4.214,-9.084 -4.214,-14.433 l 0,-28.094 -8.241,0 0,53.668 L 0,9.176 0,0 Z" /></g><g
           transform="translate(986.9072,76.7686)"
           id="g3403"><path
             id="path3405"
             style="fill:#ffffff;fill-opacity:1;fill-rule:nonzero;stroke:none"
             d="m 0,0 0.224,0 c 2.75,6.113 9.317,10.49 16.625,10.49 6.439,0 11.864,-2.779 15.218,-8.33 2.743,-4.527 2.556,-11.723 2.556,-16.99 l 0,-29.662 -8.278,0 0,33.129 c 0,3.197 0.111,7.187 -1.473,9.922 -1.763,3.048 -5.648,4.894 -9.189,4.894 -4.289,0 -8.249,-2.047 -11.096,-5.418 -3.422,-4.221 -4.184,-9.084 -4.184,-14.433 l 0,-28.094 -8.271,0 0,53.668 L 0,9.176 0,0 Z" /></g><path
           id="path3407"
           style="fill:#ffffff;fill-opacity:1;fill-rule:nonzero;stroke:none"
           d="m 581.417,8.524 -6.672,0 0,111.596 6.672,0 0,-111.596 z" /><g
           transform="translate(674.9014,32.2764)"
           id="g3409"><path
             id="path3411"
             style="fill:#ffffff;fill-opacity:1;fill-rule:nonzero;stroke:none"
             d="m 0,0 0,34.787 -33.495,0 0,-34.787 -8.569,0 0,72.385 8.569,0 0,-30.664 33.495,0 0,30.664 8.548,0 L 8.548,0 0,0 Z" /></g><g
           transform="translate(724.8262,65.5166)"
           id="g3413"><path
             id="path3415"
             style="fill:#ffffff;fill-opacity:1;fill-rule:nonzero;stroke:none"
             d="m 0,0 c -6.545,0 -14.277,-0.307 -20.098,-3.168 -5.881,-2.615 -9.773,-8.436 -9.773,-14.867 0,-10.662 8.451,-16.252 18.298,-16.252 8.353,0 14.681,3.355 18.365,11.088 l 0.941,-10.041 8.047,0 c -1.038,3.467 -1.12,7.404 -1.12,11.281 l 0,20.832 c 0,6.096 0,12.836 -4.334,17.596 -3.96,4.631 -10.378,5.273 -16.213,5.273 -9.534,0 -21.137,-3.496 -22.587,-14.666 l 7.636,-1.256 c 1.435,7.354 7.711,9.483 14.293,9.483 9.369,0 13.337,-3.594 13.337,-12.979 L 6.792,0 0,0 Z m 6.792,-9.727 c 0,-9.482 -6.694,-18.119 -16.609,-18.119 -6.844,0 -11.566,2.742 -11.566,9.414 0,11.059 11.633,12.223 21.481,12.223 l 6.694,0 0,-3.518 z" /></g><g
           transform="translate(761.2881,85.9443)"
           id="g3417"><path
             id="path3419"
             style="fill:#ffffff;fill-opacity:1;fill-rule:nonzero;stroke:none"
             d="m 0,0 0,-9.623 0.164,0 c 2.54,5.947 8.816,10.937 16.116,10.937 7.547,0 13.651,-5.527 15.063,-11.939 2.668,6.838 9.325,11.939 17.372,11.939 5.431,0 10.684,-3.07 13.501,-7.716 2.585,-4.44 2.495,-10.289 2.495,-15.303 l 0,-31.963 -8.241,0 0,31.963 c 0,3.601 0.224,7.404 -1.472,10.685 -1.77,3.452 -5.237,5.618 -8.988,5.618 -4.05,0 -7.92,-2.563 -10.325,-6.045 -3.094,-4.332 -2.982,-8.24 -2.982,-13.336 l 0,-28.885 -8.257,0 0,33.981 c 0,2.996 -0.216,6.41 -1.777,9.07 -1.854,3.168 -5.32,5.215 -8.967,5.215 -3.676,0 -7.486,-2.465 -9.705,-5.276 -2.765,-3.51 -3.28,-7.851 -3.28,-12.252 l 0,-30.738 -8.203,0 L -7.486,0 0,0 Z" /></g><path
           id="path3421"
           style="fill:#ffffff;fill-opacity:1;fill-rule:nonzero;stroke:none"
           d="m 849.744,95.366 -9.041,0 0,9.295 9.041,0 0,-9.295 z m -0.426,-63.09 -8.137,0 0,53.668 8.137,0 0,-53.668 z" /><path
           id="path3423"
           style="fill:#ffffff;fill-opacity:1;fill-rule:nonzero;stroke:none"
           d="m 866.278,104.661 8.002,0 0,-72.385 -8.002,0 0,72.385 z" /><path
           id="path3425"
           style="fill:#ffffff;fill-opacity:1;fill-rule:nonzero;stroke:none"
           d="m 380.959,104.661 8.028,0 0,-72.385 -8.028,0 0,72.385 z" /><path
           id="path3427"
           style="fill:#ffffff;fill-opacity:1;fill-rule:nonzero;stroke:none"
           d="m 405.581,104.661 8.04,0 0,-72.385 -8.04,0 0,72.385 z" /><g
           transform="translate(915.9043,31.8721)"
           id="g3429"><path
             id="path3431"
             style="fill:#ffffff;fill-opacity:1;fill-rule:nonzero;stroke:none"
             d="m 0,0 -7.882,-0.643 c -11.716,0 -15.28,6.838 -15.28,17.522 l 0,31.029 -9.474,0 0,6.553 9.474,0 0,13.314 8.279,0.852 0,-14.166 11.932,0 0,-6.553 -11.932,0 0,-32.396 c 0,-6.254 1.808,-9.533 8.592,-9.533 L 0,6.479 0,0 Z" /></g><g
           transform="translate(920.0586,59.5166)"
           id="g3433"><path
             id="path3435"
             style="fill:#ffffff;fill-opacity:1;fill-rule:nonzero;stroke:none"
             d="m 0,0 c 0,-14.121 7.128,-28.287 23.222,-28.287 16.214,0 24.918,13.18 24.918,28.176 0,14.113 -7.861,27.853 -23.574,27.853 C 8.398,27.742 0,14.885 0,0 m 8.966,0 c 0,4.35 0.657,9.58 2.675,13.486 2.353,4.739 7.031,7.748 12.298,7.748 4.67,0 9.161,-2.464 11.707,-6.394 2.736,-4.401 3.409,-9.736 3.409,-14.84 0,-4.699 -0.456,-9.607 -2.66,-13.873 -2.519,-4.918 -6.912,-7.793 -12.456,-7.793 -4.939,0 -9.474,2.66 -11.85,6.852 C 9.751,-10.578 8.966,-4.916 8.966,0" /></g><g
           id="g3437"><g
             id="g3439" /><g
             id="g3445"><g
               style="opacity:0.89999402"
               id="g3447"
               clip-path="url(#clipPath3441)"><text
                 id="text3449"
                 style="font-variant:normal;font-weight:normal;font-stretch:normal;font-size:42.07989883px;font-family:'Source Sans Pro';-inkscape-font-specification:SourceSansPro-Regular;writing-mode:lr-tb;fill:#ffffff;fill-opacity:1;fill-rule:nonzero;stroke:none"
                 transform="matrix(1,0,0,-1,378.0293,172.6875)"><tspan
                   id="tspan3451"
                   y="0"
                   x="0 22.470667 46.708691 74.649742 101.87543 124.34611 152.28716 176.73558 198.91168 224.79083 233.29097 257.44482">SPONSORED BY</tspan></text>
</g></g></g><g
           id="g3453"><g
             id="g3455" /><g
             id="g3461"><g
               style="opacity:0.89999402"
               id="g3463"
               clip-path="url(#clipPath3457)"><g
                 id="g3465"
                 transform="translate(363.7109,187.2217)"><path
                   id="path3467"
                   style="fill:none;stroke:#ffffff;stroke-width:1;stroke-linecap:butt;stroke-linejoin:miter;stroke-miterlimit:10;stroke-dasharray:none;stroke-opacity:1"
                   d="M 0,0 -351.661,0" /></g></g></g></g><g
           id="g3469"><g
             id="g3471" /><g
             id="g3477"><g
               style="opacity:0.89999402"
               id="g3479"
               clip-path="url(#clipPath3473)"><g
                 id="g3481"
                 transform="translate(1025.5723,187.2217)"><path
                   id="path3483"
                   style="fill:none;stroke:#ffffff;stroke-width:1;stroke-linecap:butt;stroke-linejoin:miter;stroke-miterlimit:10;stroke-dasharray:none;stroke-opacity:1"
                   d="M 0,0 -351.66,0" /></g></g></g></g><g
           transform="translate(632.7842,487.4243)"
           id="g3485"><path
             id="path3487"
             style="fill:#fbb118;fill-opacity:1;fill-rule:nonzero;stroke:none"
             d="m 0,0 c 0,35.043 -21.409,57.048 -55.013,57.048 -32.724,0 -55.3,-23.736 -55.3,-57.048 0,-33.876 22.875,-57.339 55.3,-57.339 C -21.409,-57.339 0,-33.876 0,0" /></g><g
           transform="translate(663.0361,701.5112)"
           id="g3489"><path
             id="path3491"
             style="fill:#fbb118;fill-opacity:1;fill-rule:nonzero;stroke:none"
             d="m 0,0 -125.728,-44.645 c -29.32,-12.025 -36.412,-30.648 -36.412,-41.376 l 0,-46.5 c 19.543,15.844 46.043,24.425 76.875,24.425 66.609,0 112.369,-38.81 112.369,-105.991 0,-68.048 -45.76,-106.275 -112.369,-106.275 -30.832,0 -57.332,8.275 -76.875,23.954 l 0,-43.09 c 0,-8.453 6.811,-25.875 35.784,-38.709 L 0.625,-426.984 c 28.966,-12.83 52.676,2.588 52.676,34.269 l 0,356.976 C 53.301,-4.055 29.31,12.025 0,0" /></g><g
           transform="translate(970.0342,452.2466)"
           id="g3493"><path
             id="path3495"
             style="fill:#ffffff;fill-opacity:1;fill-rule:nonzero;stroke:none"
             d="m 0,0 c 0,15.638 -12.16,24.615 -30.985,24.615 -22.296,0 -33.009,-10.716 -33.009,-24.323 0,-11.876 11.3,-23.168 32.731,-23.168 C -13.896,-22.876 0,-14.479 0,0 m -2.315,77.612 c -1.153,12.156 -14.192,17.662 -30.402,17.662 -15.924,0 -31.861,-8.689 -31.861,-24.327 l 0,-19.121 c 11.592,8.693 30.709,13.914 46.92,13.914 42.856,0 74.709,-22.883 74.709,-65.74 0,-49.811 -43.725,-69.788 -88.314,-69.788 -43.735,0 -89.487,20.266 -89.487,70.364 l 0,70.371 c 0,48.071 43.152,68.92 87.733,68.92 45.76,0 85.438,-15.351 85.438,-62.255 l -54.736,0 z" /></g><g
           transform="translate(229.7427,510.1543)"
           id="g3497"><path
             id="path3499"
             style="fill:#33c5f3;fill-opacity:1;fill-rule:nonzero;stroke:none"
             d="m 0,0 -48.367,0 -1.728,29.83 -18.238,0 0,-108.882 23.744,0 0,-45.173 -105.706,0 0,45.173 24.047,0 0,108.882 -18.545,0 -1.728,-29.83 -48.366,0 0,78.488 L 0,78.488 0,0 Z m -28.419,193.78 -154.926,-49.492 c -29.833,-10.697 -37.351,-28.225 -37.351,-38.952 l 0,-77.111 0,-103.383 0,-72.983 c 0,-8.453 7.29,-24.734 36.842,-36.176 l 155.947,-53.838 c 29.542,-11.447 53.716,5.116 53.716,36.797 l 0,356.976 c 0,31.684 -24.403,48.856 -54.228,38.162" /></g><g
           transform="translate(432.3989,701.5112)"
           id="g3501"><path
             id="path3503"
             style="fill:#69bc45;fill-opacity:1;fill-rule:nonzero;stroke:none"
             d="m 0,0 -125.709,-44.645 c -29.317,-12.025 -36.42,-30.648 -36.42,-41.376 l 0,-77.111 0,-22.479 c 10.783,41.682 46.694,77.956 108.859,77.956 25.79,0 52.417,-8.401 70.962,-26.646 l 0,-58.499 -48.644,0 -1.462,32.432 c -7.234,2.615 -14.191,3.191 -20.856,3.191 -35.605,0 -55.593,-24.904 -55.593,-57.041 0,-33.887 21.717,-56.763 55.032,-57.052 16.79,0 34.74,6.083 48.344,19.985 l 33.599,-37.654 c -22.883,-22.292 -49.81,-31.558 -81.943,-31.856 -54.864,-0.24 -96.374,27.233 -108.298,76.535 l 0,-22.255 0,-72.983 c 0,-8.453 6.818,-25.875 35.798,-38.711 L 0.625,-426.984 c 28.972,-12.83 52.675,2.588 52.675,34.269 l 0,356.976 C 53.3,-4.055 29.313,12.025 0,0" /></g><g
           transform="translate(810.7549,429.0786)"
           id="g3505"><path
             id="path3507"
             style="fill:#ffffff;fill-opacity:1;fill-rule:nonzero;stroke:none"
             d="m 0,0 0,163.035 -79.132,-28.723 0,-45.269 25.267,7.391 0,-96.434 -25.267,0 0,-43.141 109.249,0 L 30.117,0 0,0 Z" /></g><g
           transform="translate(161.4102,452.4336)"
           id="g3509"><path
             id="path3511"
             style="fill:#23a5de;fill-opacity:1;fill-rule:nonzero;stroke:none"
             d="m 0,0 0,-21.332 23.744,0 0,-45.172 -105.706,0 0,20.408 c -39.712,-22.775 -70.401,-41.342 -70.401,-44.324 0,-8.453 7.29,-24.734 36.842,-36.177 l 155.947,-53.838 c 29.541,-11.446 53.715,5.117 53.715,36.797 l 0,195.3 C 94.141,51.662 50.532,28.022 0,0" /></g><g
           transform="translate(690.1318,487.7573)"
           id="g3513"><path
             id="path3515"
             style="fill:#f37a20;fill-opacity:1;fill-rule:nonzero;stroke:none"
             d="m 0,0 c 0,-0.112 0.008,-0.221 0.008,-0.333 0,-68.048 -45.76,-106.275 -112.368,-106.275 -15.774,0 -30.398,2.189 -43.553,6.4 -20.007,-13.596 -33.323,-23.433 -33.323,-25.536 0,-8.453 6.811,-25.875 35.784,-38.709 l 126.981,-48.777 c 28.966,-12.83 52.676,2.588 52.676,34.269 l 0,195.299 C 26.205,16.338 15.982,10.001 0,0" /></g><g
           transform="translate(369.7441,430.9448)"
           id="g3517"><path
             id="path3519"
             style="fill:#2c8b43;fill-opacity:1;fill-rule:nonzero;stroke:none"
             d="m 0,0 c 2.85,-0.4 5.771,-0.677 8.824,-0.703 16.79,0 34.74,6.082 48.343,19.985 l 33.6,-37.655 C 67.884,-40.665 40.957,-49.93 8.824,-50.229 c -23.924,-0.104 -45.296,5.079 -62.797,15.028 -26.602,-17.74 -45.502,-31.223 -45.502,-33.73 0,-8.453 6.819,-25.875 35.799,-38.712 l 126.955,-48.774 c 28.973,-12.831 52.676,2.587 52.676,34.268 l 0,195.299 C 115.955,73.15 56.461,36.248 0,0" /></g></g></g></g></svg>