<?xml version="1.0" encoding="UTF-8" standalone="no"?>
<svg width="36px" height="36px" viewBox="0 0 36 36" version="1.1" xmlns="http://www.w3.org/2000/svg" xmlns:xlink="http://www.w3.org/1999/xlink" xmlns:sketch="http://www.bohemiancoding.com/sketch/ns">
    <!-- Generator: Sketch 3.3.3 (12081) - http://www.bohemiancoding.com/sketch -->
    <title>icons/nav/black-board</title>
    <desc>Created with Sketch.</desc>
    <defs></defs>
    <g id="Icons" stroke="none" stroke-width="1" fill="none" fill-rule="evenodd" sketch:type="MSPage">
        <g id="icons/nav/black-board" sketch:type="MSArtboardGroup" fill="#FFFFFF">
            <g id="education-outline_chalkboard" sketch:type="MSLayerGroup" transform="translate(2.000000, 2.000000)">
                <path d="M31.4,6.1 C31.3,6 31.1,6 31,6 L22.4,6 L18,2.3 L18,2 C18,0.9 17.1,0 16,0 C14.9,0 14,0.9 14,2 L14,2.3 L9.6,6 L1,6 C0.9,6 0.7,6 0.6,6.1 C0.4,6.2 0.2,6.4 0.1,6.6 C0,6.7 0,6.9 0,7 L0,31 C0,31.1 0,31.3 0.1,31.4 C0.2,31.6 0.4,31.8 0.6,31.9 C0.7,32 0.9,32 1,32 L31,32 C31.1,32 31.3,32 31.4,31.9 C31.6,31.8 31.8,31.6 31.9,31.4 C32,31.3 32,31.1 32,31 L32,7 C32,6.9 32,6.7 31.9,6.6 C31.8,6.4 31.6,6.2 31.4,6.1 L31.4,6.1 Z M28.6,8 L26.6,10 L5.4,10 L3.4,8 L28.6,8 L28.6,8 Z M18,26 L18,25 L23,25 L23,26 L18,26 L18,26 Z M24,23 L17,23 C16.4,23 16,23.4 16,24 L16,26 L6,26 L6,12 L26,12 L26,26 L25,26 L25,24 C25,23.4 24.6,23 24,23 L24,23 Z M4,11.4 L4,26.6 L2,28.6 L2,9.4 L4,11.4 L4,11.4 Z M5.4,28 L26.6,28 L28.6,30 L3.4,30 L5.4,28 L5.4,28 Z M28,26.6 L28,11.4 L30,9.4 L30,28.6 L28,26.6 L28,26.6 Z M15.3,3.9 C15.5,4 15.8,4 16,4 C16.2,4 16.5,4 16.7,3.9 L19.2,6 L12.7,6 L15.3,3.9 L15.3,3.9 Z" id="Shape" sketch:type="MSShapeGroup"></path>
            </g>
        </g>
    </g>
</svg>