<?xml version="1.0" encoding="UTF-8" standalone="no"?>
<svg width="32px" height="32px" viewBox="0 0 32 32" version="1.1" xmlns="http://www.w3.org/2000/svg" xmlns:xlink="http://www.w3.org/1999/xlink" xmlns:sketch="http://www.bohemiancoding.com/sketch/ns">
    <!-- Generator: Sketch 3.3.3 (12081) - http://www.bohemiancoding.com/sketch -->
    <title>nav/blog</title>
    <desc>Created with Sketch.</desc>
    <defs></defs>
    <g id="Page-1" stroke="none" stroke-width="1" fill="none" fill-rule="evenodd" sketch:type="MSPage">
        <g id="nav/blog" sketch:type="MSArtboardGroup" stroke="#F6F6F6" stroke-width="1.2" stroke-linecap="round" stroke-linejoin="round">
            <path d="M3.727273,31.99996 C2.221136,31.99996 1,30.77883 1,29.27269 L1,18.3636 L6.454545,18.3636" id="Stroke-35" sketch:type="MSShapeGroup"></path>
            <path d="M6.454573,2 L6.454573,29.27273 C6.454573,30.77886 5.233436,32 3.7273,32 L28.27275,32 C29.77889,32 31.00003,30.77886 31.00003,29.27273 L31.00003,2 L6.454573,2 L6.454573,2 Z" id="Stroke-37" sketch:type="MSShapeGroup"></path>
            <path d="M13,22.5 L25,22.5" id="Stroke-39" sketch:type="MSShapeGroup"></path>
            <path d="M13,26.5 L25,26.5" id="Stroke-41" sketch:type="MSShapeGroup"></path>
            <path d="M16.8,16.466667 L14,16.466667 L14,9 L16.8,9" id="Stroke-183" sketch:type="MSShapeGroup"></path>
            <path d="M21,9 L23.8,9 L23.8,16.466667 L21,16.466667" id="Stroke-185" sketch:type="MSShapeGroup"></path>
        </g>
    </g>
</svg>