<?xml version="1.0" encoding="UTF-8" standalone="no"?>
<svg width="36px" height="36px" viewBox="0 0 36 36" version="1.1" xmlns="http://www.w3.org/2000/svg" xmlns:xlink="http://www.w3.org/1999/xlink" xmlns:sketch="http://www.bohemiancoding.com/sketch/ns">
    <!-- Generator: Sketch 3.3.3 (12081) - http://www.bohemiancoding.com/sketch -->
    <title>icons/nav/book</title>
    <desc>Created with Sketch.</desc>
    <defs></defs>
    <g id="Icons" stroke="none" stroke-width="1" fill="none" fill-rule="evenodd" sketch:type="MSPage">
        <g id="icons/nav/book" sketch:type="MSArtboardGroup" fill="#FFFFFF">
            <g id="education-outline_book-open" sketch:type="MSLayerGroup" transform="translate(2.000000, 3.000000)">
                <path d="M31.6,0.2 C31.3,-9.90874049e-15 31,-9.90874049e-15 30.7,0.1 L16,4.9 L1.3,0.1 C1,-9.90874049e-15 0.7,-9.90874049e-15 0.4,0.2 C0.2,0.4 0,0.7 0,1 L0,24 C0,24.4 0.3,24.8 0.7,24.9 L15.7,29.9 C15.8,29.9 15.9,30 16,30 C16.1,30 16.2,30 16.3,29.9 L31.3,24.9 C31.7,24.8 32,24.4 32,24 L32,1 C32,0.7 31.8,0.4 31.6,0.2 L31.6,0.2 Z M30,23.3 L16,28 L2,23.3 L2,2.4 L15.7,7 C15.9,7.1 16.1,7.1 16.3,7 L30,2.4 L30,23.3 L30,23.3 Z" id="Shape" sketch:type="MSShapeGroup"></path>
                <path d="M13.3,9.7 L5.3,7 C4.8,6.9 4.2,7.2 4.1,7.7 C3.9,8.2 4.2,8.8 4.7,8.9 L12.7,11.6 C12.8,11.6 12.9,11.7 13,11.7 C13.4,11.7 13.8,11.4 13.9,11 C14.1,10.5 13.8,9.9 13.3,9.7 L13.3,9.7 Z" id="Shape" sketch:type="MSShapeGroup"></path>
                <path d="M13.3,15.4 L5.3,12.7 C4.8,12.5 4.2,12.8 4,13.3 C3.8,13.8 4.1,14.4 4.6,14.6 L12.6,17.3 C12.7,17.3 12.8,17.4 12.9,17.4 C13.3,17.4 13.7,17.1 13.8,16.7 C14.1,16.1 13.8,15.6 13.3,15.4 L13.3,15.4 Z" id="Shape" sketch:type="MSShapeGroup"></path>
                <path d="M13.3,21.7 L5.3,19 C4.8,18.8 4.2,19.1 4,19.6 C3.8,20.1 4.1,20.7 4.6,20.9 L12.6,23.6 C12.7,23.6 12.8,23.7 12.9,23.7 C13.3,23.7 13.7,23.4 13.8,23 C14.1,22.5 13.8,21.9 13.3,21.7 L13.3,21.7 Z" id="Shape" sketch:type="MSShapeGroup"></path>
                <path d="M19,11.7 C19.1,11.7 19.2,11.7 19.3,11.6 L27.3,8.9 C27.8,8.7 28.1,8.2 27.9,7.6 C27.7,7.1 27.2,6.8 26.6,7 L18.6,9.7 C18.1,9.9 17.8,10.4 18,11 C18.2,11.4 18.6,11.7 19,11.7 L19,11.7 Z" id="Shape" sketch:type="MSShapeGroup"></path>
                <path d="M19,17.3 C19.1,17.3 19.2,17.3 19.3,17.2 L27.3,14.5 C27.8,14.3 28.1,13.8 27.9,13.2 C27.7,12.7 27.2,12.4 26.6,12.6 L18.6,15.3 C18.1,15.5 17.8,16 18,16.6 C18.2,17.1 18.6,17.3 19,17.3 L19,17.3 Z" id="Shape" sketch:type="MSShapeGroup"></path>
                <path d="M19,23.7 C19.1,23.7 19.2,23.7 19.3,23.6 L27.3,20.9 C27.8,20.7 28.1,20.2 27.9,19.6 C27.7,19.1 27.2,18.8 26.6,19 L18.6,21.7 C18.1,21.9 17.8,22.4 18,23 C18.2,23.4 18.6,23.7 19,23.7 L19,23.7 Z" id="Shape" sketch:type="MSShapeGroup"></path>
            </g>
        </g>
    </g>
</svg>