<?xml version="1.0" encoding="UTF-8" standalone="no"?>
<svg width="36px" height="36px" viewBox="0 0 36 36" version="1.1" xmlns="http://www.w3.org/2000/svg" xmlns:xlink="http://www.w3.org/1999/xlink" xmlns:sketch="http://www.bohemiancoding.com/sketch/ns">
    <!-- Generator: Sketch 3.3.3 (12081) - http://www.bohemiancoding.com/sketch -->
    <title>icons/nav/calendar</title>
    <desc>Created with Sketch.</desc>
    <defs></defs>
    <g id="Icons" stroke="none" stroke-width="1" fill="none" fill-rule="evenodd" sketch:type="MSPage">
        <g id="icons/nav/calendar" sketch:type="MSArtboardGroup" fill="#FFFFFF">
            <g id="Shape-+-Shape" sketch:type="MSLayerGroup" transform="translate(2.000000, 2.000000)">
                <path d="M31,3 L26,3 L26,1 C26,0.4 25.6,0 25,0 L22,0 C21.4,0 21,0.4 21,1 L21,3 L11,3 L11,1 C11,0.4 10.6,0 10,0 L7,0 C6.4,0 6,0.4 6,1 L6,3 L1,3 C0.4,3 0,3.4 0,4 L0,31 C0,31.6 0.4,32 1,32 L31,32 C31.6,32 32,31.6 32,31 L32,4 C32,3.4 31.6,3 31,3 L31,3 Z M23,2 L24,2 L24,6 L23,6 L23,2 L23,2 Z M8,2 L9,2 L9,6 L8,6 L8,2 L8,2 Z M6,5 L6,7 C6,7.6 6.4,8 7,8 L10,8 C10.6,8 11,7.6 11,7 L11,5 L21,5 L21,7 C21,7.6 21.4,8 22,8 L25,8 C25.6,8 26,7.6 26,7 L26,5 L30,5 L30,10 L2,10 L2,5 L6,5 L6,5 Z M2,30 L2,12 L30,12 L30,30 L2,30 L2,30 Z" id="Shape" sketch:type="MSShapeGroup"></path>
                <path d="M25,15 L7,15 C6.4,15 6,15.4 6,16 L6,26 C6,26.6 6.4,27 7,27 L19,27 C19.6,27 20,26.6 20,26 L20,22 L25,22 C25.6,22 26,21.6 26,21 L26,16 C26,15.4 25.6,15 25,15 L25,15 Z M18,17 L18,20 L14,20 L14,17 L18,17 L18,17 Z M12,17 L12,20 L8,20 L8,17 L12,17 L12,17 Z M8,22 L12,22 L12,25 L8,25 L8,22 L8,22 Z M14,25 L14,22 L18,22 L18,25 L14,25 L14,25 Z M24,20 L20,20 L20,17 L24,17 L24,20 L24,20 Z" id="Shape" sketch:type="MSShapeGroup"></path>
            </g>
        </g>
    </g>
</svg>