<?xml version="1.0" encoding="UTF-8" standalone="no"?>
<svg width="36px" height="36px" viewBox="0 0 36 36" version="1.1" xmlns="http://www.w3.org/2000/svg" xmlns:xlink="http://www.w3.org/1999/xlink" xmlns:sketch="http://www.bohemiancoding.com/sketch/ns">
    <!-- Generator: Sketch 3.3.3 (12081) - http://www.bohemiancoding.com/sketch -->
    <title>icons/nav/dashboard</title>
    <desc>Created with Sketch.</desc>
    <defs></defs>
    <g id="Icons" stroke="none" stroke-width="1" fill="none" fill-rule="evenodd" sketch:type="MSPage">
        <g id="icons/nav/dashboard" sketch:type="MSArtboardGroup" fill="#FFFFFF">
            <g id="ui-outline-1_dashboard-30" sketch:type="MSLayerGroup" transform="translate(2.000000, 2.000000)">
                <path d="M16,8 C16.6,8 17,7.6 17,7 L17,4 C17,3.4 16.6,3 16,3 C15.4,3 15,3.4 15,4 L15,7 C15,7.6 15.4,8 16,8 L16,8 Z" id="Shape" sketch:type="MSShapeGroup"></path>
                <path d="M24,16 C24,16.6 24.4,17 25,17 L28,17 C28.6,17 29,16.6 29,16 C29,15.4 28.6,15 28,15 L25,15 C24.4,15 24,15.4 24,16 L24,16 Z" id="Shape" sketch:type="MSShapeGroup"></path>
                <path d="M22.4,10.6 C22.7,10.6 22.9,10.5 23.1,10.3 L25.2,8.2 C25.6,7.8 25.6,7.2 25.2,6.8 C24.8,6.4 24.2,6.4 23.8,6.8 L21.7,8.9 C21.3,9.3 21.3,9.9 21.7,10.3 C21.9,10.5 22.1,10.6 22.4,10.6 L22.4,10.6 Z" id="Shape" sketch:type="MSShapeGroup"></path>
                <path d="M8,16 C8,15.4 7.6,15 7,15 L4,15 C3.4,15 3,15.4 3,16 C3,16.6 3.4,17 4,17 L7,17 C7.6,17 8,16.6 8,16 L8,16 Z" id="Shape" sketch:type="MSShapeGroup"></path>
                <path d="M16,32 C24.8,32 32,24.8 32,16 C32,7.2 24.8,0 16,0 C7.2,0 0,7.2 0,16 C0,24.8 7.2,32 16,32 L16,32 Z M16,2 C23.7,2 30,8.3 30,16 C30,23.7 23.7,30 16,30 C8.3,30 2,23.7 2,16 C2,8.3 8.3,2 16,2 L16,2 Z" id="Shape" sketch:type="MSShapeGroup"></path>
                <path d="M12.6,14 C12.2,14.6 12,15.3 12,16 C12,18.2 13.8,20 16,20 C18.2,20 20,18.2 20,16 C20,13.8 18.2,12 16,12 C15.3,12 14.6,12.2 14,12.6 L8.7,7.3 C8.3,6.9 7.7,6.9 7.3,7.3 C6.9,7.7 6.9,8.3 7.3,8.7 L12.6,14 L12.6,14 Z M18,16 C18,17.1 17.1,18 16,18 C14.9,18 14,17.1 14,16 C14,15.4 14.2,14.9 14.6,14.6 L14.6,14.6 C15,14.2 15.5,14 16,14 C17.1,14 18,14.9 18,16 L18,16 Z" id="Shape" sketch:type="MSShapeGroup"></path>
            </g>
        </g>
    </g>
</svg>