<?xml version="1.0" encoding="UTF-8" standalone="no"?>
<svg width="36px" height="36px" viewBox="0 0 36 36" version="1.1" xmlns="http://www.w3.org/2000/svg" xmlns:xlink="http://www.w3.org/1999/xlink" xmlns:sketch="http://www.bohemiancoding.com/sketch/ns">
    <!-- Generator: Sketch 3.3.3 (12081) - http://www.bohemiancoding.com/sketch -->
    <title>icons/nav/data-science</title>
    <desc>Created with Sketch.</desc>
    <defs></defs>
    <g id="Icons" stroke="none" stroke-width="1" fill="none" fill-rule="evenodd" sketch:type="MSPage">
        <g id="icons/nav/data-science" sketch:type="MSArtboardGroup" stroke="#F6F6F6" stroke-width="1.79999995" stroke-linecap="round" stroke-linejoin="round">
            <g id="Group" sketch:type="MSLayerGroup" transform="translate(3.000000, 3.000000)">
                <g sketch:type="MSShapeGroup">
                    <path d="M8.7804878,2.95238095 C8.7804878,1.32192857 10.0909756,0 11.7073171,0 C13.3236585,0 14.6341463,1.32192857 14.6341463,2.95238095 C14.6341463,4.58283333 13.3236585,5.9047619 11.7073171,5.9047619 C10.0909756,5.9047619 8.7804878,4.58283333 8.7804878,2.95238095 L8.7804878,2.95238095 Z" id="Stroke-1045"></path>
                    <path d="M24.1463415,8.85714286 C24.1463415,7.22669048 25.4568293,5.9047619 27.0731707,5.9047619 C28.6895122,5.9047619 30,7.22669048 30,8.85714286 C30,10.4875952 28.6895122,11.8095238 27.0731707,11.8095238 C25.4568293,11.8095238 24.1463415,10.4875952 24.1463415,8.85714286 L24.1463415,8.85714286 Z" id="Stroke-1045"></path>
                    <path d="M0,18.822019 C0,17.1915667 1.3104878,15.8696381 2.92682927,15.8696381 C4.54317073,15.8696381 5.85365854,17.1915667 5.85365854,18.822019 C5.85365854,20.4524714 4.54317073,21.7744 2.92682927,21.7744 C1.3104878,21.7744 0,20.4524714 0,18.822019 L0,18.822019 Z" id="Stroke-1045"></path>
                    <path d="M12.4386585,27.6791619 C12.4386585,26.0487095 13.7491463,24.726781 15.3654878,24.726781 C16.9818293,24.726781 18.2923171,26.0487095 18.2923171,27.6791619 C18.2923171,29.3096143 16.9818293,30.6315429 15.3654878,30.6315429 C13.7491463,30.6315429 12.4386585,29.3096143 12.4386585,27.6791619 L12.4386585,27.6791619 Z" id="Stroke-1045"></path>
                    <path d="M24.1463415,21.7744 C24.1463415,20.1439476 25.4568293,18.822019 27.0731707,18.822019 C28.6895122,18.822019 30,20.1439476 30,21.7744 C30,23.4048524 28.6895122,24.726781 27.0731707,24.726781 C25.4568293,24.726781 24.1463415,23.4048524 24.1463415,21.7744 L24.1463415,21.7744 Z" id="Stroke-1045"></path>
                    <path d="M4.75609756,15.7764253 L10.4268293,5.8121396" id="Stroke-1107"></path>
                    <path d="M26.9817073,18.7288063 L26.9817073,12.0859491" id="Stroke-1107"></path>
                    <path d="M5.39634146,20.9430919 L12.8963415,26.1097586" id="Stroke-1107"></path>
                    <path d="M15.1829267,24.6335681 L12.2560975,6.27344913" id="Stroke-1107"></path>
                    <path d="M24.8780488,19.6514253 L13.8109756,5.44309198" id="Stroke-1107"></path>
                    <path d="M17.2865854,24.9103538 L25.5182927,11.6246395" id="Stroke-1107"></path>
                    <path d="M18.3841463,26.66333 L24.4207317,23.2496395" id="Stroke-1107"></path>
                    <path d="M6.12804876,17.8061873 L24.4207317,10.3329729" id="Stroke-1107"></path>
                </g>
            </g>
        </g>
    </g>
</svg>