<?xml version="1.0" encoding="UTF-8" standalone="no"?>
<svg width="36px" height="36px" viewBox="0 0 36 36" version="1.1" xmlns="http://www.w3.org/2000/svg" xmlns:xlink="http://www.w3.org/1999/xlink" xmlns:sketch="http://www.bohemiancoding.com/sketch/ns">
    <!-- Generator: Sketch 3.3.3 (12081) - http://www.bohemiancoding.com/sketch -->
    <title>icons/nav/development</title>
    <desc>Created with Sketch.</desc>
    <defs></defs>
    <g id="Icons" stroke="none" stroke-width="1" fill="none" fill-rule="evenodd" sketch:type="MSPage">
        <g id="icons/nav/development" sketch:type="MSArtboardGroup" fill="#FFFFFF">
            <g id="ui-outline-1_settings" sketch:type="MSLayerGroup" transform="translate(3.000000, 3.000000)">
                <path d="M19.3,21.7 L23.3,25.7 C23.5,25.9 23.8,26 24,26 C24.2,26 24.5,25.9 24.7,25.7 C25.1,25.3 25.1,24.7 24.7,24.3 L20.7,20.3 C20.3,19.9 19.7,19.9 19.3,20.3 C18.9,20.7 18.9,21.3 19.3,21.7 L19.3,21.7 Z" id="Shape" sketch:type="MSShapeGroup"></path>
                <path d="M29.6,3.6 C29.3,3.5 28.9,3.6 28.7,3.9 L26,6.6 L24.4,5 L27.2,2.2 C27.4,2 27.5,1.6 27.5,1.3 C27.4,1 27.2,0.7 26.9,0.6 C26,0.2 25,0 24,0 C20.1,0 17,3.1 17,7 C17,7.3 17,7.7 17.1,8.1 L13.6,11.2 L10.6,8.2 L10.6,6.4 C10.6,6.1 10.5,5.9 10.3,5.7 L6.1,1.4 C5.7,1 5.1,1 4.7,1.4 L0.4,5.7 C0,6.1 0,6.7 0.4,7.1 L4.6,11.3 C4.8,11.5 5,11.6 5.3,11.6 L7.1,11.6 L9.9,14.4 L0.2,23.2 C0.1,23.4 0,23.7 0,24 C0,24.3 0.1,24.5 0.3,24.7 L6.3,30.7 C6.5,30.9 6.7,31 7,31 L7,31 C7.3,31 7.5,30.9 7.7,30.7 L14.6,23.1 L20.9,29.4 C21.9,30.4 23.3,30.9 24.6,30.9 C25.9,30.9 27.3,30.4 28.3,29.4 C30.3,27.4 30.3,24 28.3,22 L21.7,15.4 L22.9,14 C27.3,14.6 31,11.2 31,7 C31,6 30.8,5 30.4,4.1 C30.2,3.8 30,3.6 29.6,3.6 L29.6,3.6 Z M8.3,9.9 C8.1,9.7 7.9,9.6 7.6,9.6 L5.8,9.6 L2.5,6.4 L5.3,3.6 L8.5,6.8 L8.5,8.6 C8.5,8.9 8.6,9.1 8.8,9.3 L12,12.5 L11.4,13.1 L8.3,9.9 L8.3,9.9 Z M26.9,23.3 C28.2,24.6 28.2,26.6 26.9,27.9 C25.6,29.2 23.6,29.2 22.3,27.9 L16,21.6 L20.4,16.8 L26.9,23.3 L26.9,23.3 Z M22.8,11.9 C22.4,11.8 22.1,11.9 21.8,12.2 L19.6,14.6 L19.6,14.6 L7,28.6 L2.4,24 L12.1,15.2 C12.1,15.2 12.2,15.2 12.2,15.1 L12.2,15.1 L18.8,9.1 C19.1,8.9 19.2,8.5 19.1,8.1 C19,7.8 19,7.4 19,7 C19,4.2 21.2,2 24,2 L24.6,2 L22.3,4.3 C21.9,4.7 21.9,5.3 22.3,5.7 L25.3,8.7 C25.7,9.1 26.3,9.1 26.7,8.7 L29,6.4 L29,7 C29,10.1 26.1,12.7 22.8,11.9 L22.8,11.9 Z" id="Shape" sketch:type="MSShapeGroup"></path>
            </g>
        </g>
    </g>
</svg>