<?xml version="1.0" encoding="UTF-8" standalone="no"?>
<svg width="36px" height="36px" viewBox="0 0 36 36" version="1.1" xmlns="http://www.w3.org/2000/svg" xmlns:xlink="http://www.w3.org/1999/xlink" xmlns:sketch="http://www.bohemiancoding.com/sketch/ns">
    <!-- Generator: Sketch 3.3.3 (12081) - http://www.bohemiancoding.com/sketch -->
    <title>icons/nav/forum</title>
    <desc>Created with Sketch.</desc>
    <defs></defs>
    <g id="Icons" stroke="none" stroke-width="1" fill="none" fill-rule="evenodd" sketch:type="MSPage">
        <g id="icons/nav/forum" sketch:type="MSArtboardGroup" fill="#FFFFFF">
            <g id="education-outline_language" sketch:type="MSLayerGroup" transform="translate(2.000000, 4.000000)">
                <path d="M10.2,13 C10.3,12.3 10.1,11.7 9.7,11.2 L6,7.6 L6,1 C6,0.4 5.6,0 5,0 C4.4,0 4,0.4 4,1 L4,8 C4,8.3 4.1,8.5 4.3,8.7 L8.2,12.6 L4.6,14 C4.2,14.2 4,14.6 4,15 L4,16.4 L2.1,17.3 C1.1,17.8 0.4,18.8 0.4,20 C0.4,21.2 1,22.2 2.1,22.7 L4,23.6 L4,25 C4,25.6 3.6,26 3,26 L1,26 C0.4,26 0,26.4 0,27 C0,27.6 0.4,28 1,28 L3,28 C4.7,28 6,26.7 6,25 L6,23 C6,22.6 5.8,22.3 5.4,22.1 L3,20.9 C2.7,20.7 2.4,20.4 2.4,20 C2.4,19.6 2.6,19.3 3,19.1 L5.4,17.9 C5.8,17.7 6,17.4 6,17 L6,15.7 L9,14.5 C9.6,14.2 10,13.7 10.2,13 L10.2,13 Z" id="Shape" sketch:type="MSShapeGroup"></path>
                <path d="M28,3 L17,3 C14.8,3 13,4.8 13,7 L13,15.6 L9.2,20.3 C9,20.6 8.9,21 9.1,21.4 C9.3,21.8 9.6,22 10,22 L28,22 C30.2,22 32,20.2 32,18 L32,7 C32,4.8 30.2,3 28,3 L28,3 Z M30,18 C30,19.1 29.1,20 28,20 L12.1,20 L14.8,16.6 C14.9,16.4 15,16.2 15,16 L15,7 C15,5.9 15.9,5 17,5 L28,5 C29.1,5 30,5.9 30,7 L30,18 L30,18 Z" id="Shape" sketch:type="MSShapeGroup"></path>
                <path d="M26,9 L19,9 C18.4,9 18,9.4 18,10 C18,10.6 18.4,11 19,11 L26,11 C26.6,11 27,10.6 27,10 C27,9.4 26.6,9 26,9 L26,9 Z" id="Shape" sketch:type="MSShapeGroup"></path>
                <path d="M26,14 L19,14 C18.4,14 18,14.4 18,15 C18,15.6 18.4,16 19,16 L26,16 C26.6,16 27,15.6 27,15 C27,14.4 26.6,14 26,14 L26,14 Z" id="Shape" sketch:type="MSShapeGroup"></path>
            </g>
        </g>
    </g>
</svg>