<?xml version="1.0" encoding="UTF-8" standalone="no"?>
<svg width="36px" height="36px" viewBox="0 0 36 36" version="1.1" xmlns="http://www.w3.org/2000/svg" xmlns:xlink="http://www.w3.org/1999/xlink" xmlns:sketch="http://www.bohemiancoding.com/sketch/ns">
    <!-- Generator: Sketch 3.3.3 (12081) - http://www.bohemiancoding.com/sketch -->
    <title>icons/nav/gear</title>
    <desc>Created with Sketch.</desc>
    <defs></defs>
    <g id="Icons" stroke="none" stroke-width="1" fill="none" fill-rule="evenodd" sketch:type="MSPage">
        <g id="icons/nav/gear" sketch:type="MSArtboardGroup" fill="#FFFFFF">
            <g id="ui-outline-1_settings-gear-63" sketch:type="MSLayerGroup" transform="translate(2.000000, 2.000000)">
                <path d="M16,11 C13.2,11 11,13.2 11,16 C11,18.8 13.2,21 16,21 C18.8,21 21,18.8 21,16 C21,13.2 18.8,11 16,11 L16,11 Z M16,19 C14.3,19 13,17.7 13,16 C13,14.3 14.3,13 16,13 C17.7,13 19,14.3 19,16 C19,17.7 17.7,19 16,19 L16,19 Z" id="Shape" sketch:type="MSShapeGroup"></path>
                <path d="M31,12 L27.3,12 C27.2,11.6 27,11.2 26.8,10.8 L29.4,8.2 C29.6,8 29.7,7.8 29.7,7.5 C29.7,7.2 29.6,7 29.4,6.8 L25.2,2.6 C24.8,2.2 24.2,2.2 23.8,2.6 L21.2,5.2 C20.8,5 20.4,4.8 20,4.7 L20,1 C20,0.4 19.6,0 19,0 L13,0 C12.4,0 12,0.4 12,1 L12,4.7 C11.6,4.8 11.2,5 10.8,5.2 L8.2,2.6 C7.8,2.2 7.2,2.2 6.8,2.6 L2.6,6.8 C2.4,7 2.3,7.2 2.3,7.5 C2.3,7.8 2.4,8 2.6,8.2 L5.2,10.8 C5,11.2 4.8,11.6 4.7,12 L1,12 C0.4,12 0,12.4 0,13 L0,19 C0,19.6 0.4,20 1,20 L4.7,20 C4.8,20.4 5,20.8 5.2,21.2 L2.6,23.8 C2.4,24 2.3,24.2 2.3,24.5 C2.3,24.8 2.4,25 2.6,25.2 L6.8,29.4 C7.2,29.8 7.8,29.8 8.2,29.4 L10.8,26.8 C11.2,27 11.6,27.1 12,27.3 L12,31 C12,31.6 12.4,32 13,32 L19,32 C19.6,32 20,31.6 20,31 L20,27.3 C20.4,27.2 20.8,27 21.2,26.8 L23.8,29.4 C24.2,29.8 24.8,29.8 25.2,29.4 L29.4,25.2 C29.6,25 29.7,24.8 29.7,24.5 C29.7,24.2 29.6,24 29.4,23.8 L26.8,21.2 C27,20.8 27.1,20.4 27.3,20 L31,20 C31.6,20 32,19.6 32,19 L32,13 C32,12.4 31.6,12 31,12 L31,12 Z M30,18 L26.6,18 C26.2,18 25.8,18.3 25.6,18.7 C25.4,19.5 25.1,20.2 24.7,20.8 C24.5,21.2 24.5,21.7 24.9,22 L27.3,24.4 L24.5,27.2 L22.1,24.8 C21.8,24.5 21.3,24.4 20.9,24.6 C20.2,25 19.5,25.3 18.8,25.5 C18.4,25.6 18.1,26 18.1,26.5 L18.1,30 L14.1,30 L14.1,26.6 C14.1,26.2 13.8,25.8 13.4,25.6 C12.6,25.4 11.9,25.1 11.3,24.7 C10.9,24.5 10.4,24.5 10.1,24.9 L7.7,27.3 L4.9,24.5 L7.3,22.1 C7.6,21.8 7.7,21.3 7.5,20.9 C7.1,20.2 6.8,19.5 6.6,18.8 C6.5,18.4 6.1,18.1 5.6,18.1 L2,18.1 L2,14.1 L5.4,14.1 C5.8,14.1 6.2,13.8 6.4,13.4 C6.6,12.6 6.9,11.9 7.3,11.3 C7.5,10.9 7.5,10.4 7.1,10.1 L4.7,7.5 L7.5,4.7 L9.9,7.1 C10.2,7.4 10.7,7.5 11.1,7.3 C11.8,6.9 12.5,6.6 13.2,6.4 C13.6,6.3 13.9,5.9 13.9,5.4 L13.9,2 L17.9,2 L17.9,5.4 C17.9,5.8 18.2,6.2 18.6,6.4 C19.4,6.6 20.1,6.9 20.7,7.3 C21.1,7.5 21.6,7.5 21.9,7.1 L24.3,4.7 L27.1,7.5 L24.7,9.9 C24.4,10.2 24.3,10.7 24.5,11.1 C24.9,11.8 25.2,12.5 25.4,13.2 C25.5,13.6 25.9,13.9 26.4,13.9 L30,13.9 L30,18 L30,18 Z" id="Shape" sketch:type="MSShapeGroup"></path>
            </g>
        </g>
    </g>
</svg>