<?xml version="1.0" encoding="UTF-8" standalone="no"?>
<svg width="36px" height="36px" viewBox="0 0 36 36" version="1.1" xmlns="http://www.w3.org/2000/svg" xmlns:xlink="http://www.w3.org/1999/xlink" xmlns:sketch="http://www.bohemiancoding.com/sketch/ns">
    <!-- Generator: Sketch 3.3.3 (12081) - http://www.bohemiancoding.com/sketch -->
    <title>icons/nav/help</title>
    <desc>Created with Sketch.</desc>
    <defs></defs>
    <g id="Icons" stroke="none" stroke-width="1" fill="none" fill-rule="evenodd" sketch:type="MSPage">
        <g id="icons/nav/help" sketch:type="MSArtboardGroup" fill="#F6F6F6">
            <path d="M18,2 C13.7,2 9.7,3.7 6.7,6.7 C3.7,9.7 2,13.7 2,18 C2,22.3 3.7,26.3 6.7,29.3 C9.7,32.3 13.7,34 18,34 C22.3,34 26.3,32.3 29.3,29.3 C32.3,26.3 34,22.3 34,18 C34,13.7 32.3,9.7 29.3,6.7 C26.3,3.7 22.3,2 18,2 L18,2 Z M29,9.4 L24.7,13.7 C24.4,13.2 24,12.8 23.6,12.3 C23.2,11.9 22.7,11.5 22.2,11.2 L26.6,7 C27.1,7.4 27.5,7.7 27.9,8.1 C28.3,8.5 28.7,9 29,9.4 L29,9.4 Z M20.3,23.6 L20.3,23.6 C19.5,23.8 18.8,24 18,24 C17.2,24 16.5,23.8 15.7,23.6 L15.7,23.6 C15,23.3 14.3,22.9 13.7,22.3 C11.4,20 11.4,16.2 13.7,13.8 C14.3,13.2 15,12.8 15.7,12.5 L15.7,12.5 C16.4,12.2 17.2,12.1 18,12.1 C18.8,12.1 19.5,12.3 20.3,12.5 L20.3,12.5 C21,12.8 21.7,13.2 22.3,13.8 C24.6,16.1 24.6,19.9 22.3,22.3 C21.7,22.8 21,23.3 20.3,23.6 L20.3,23.6 Z M24.9,5.8 L20.4,10.3 C19.6,10.1 18.8,10 18,10 C17.2,10 16.4,10.1 15.6,10.4 L11.1,5.8 C13.2,4.6 15.5,4 18,4 C20.5,4 22.8,4.6 24.9,5.8 L24.9,5.8 Z M9.4,7 L13.7,11.3 C13.2,11.6 12.8,12 12.3,12.4 C11.9,12.8 11.5,13.3 11.2,13.8 L7,9.4 C7.3,9 7.7,8.5 8.1,8.1 C8.5,7.7 9,7.3 9.4,7 L9.4,7 Z M5.8,11.1 L10.3,15.6 C9.8,17.1 9.8,18.8 10.3,20.3 L5.8,24.8 C4.6,22.8 4,20.5 4,18 C4,15.5 4.6,13.2 5.8,11.1 L5.8,11.1 Z M7,26.6 L11.3,22.3 C11.6,22.8 12,23.2 12.4,23.7 C12.8,24.1 13.3,24.5 13.8,24.8 L9.4,29 C8.9,28.6 8.5,28.3 8.1,27.9 C7.7,27.5 7.3,27 7,26.6 L7,26.6 Z M11.1,30.2 L15.6,25.7 C16.4,25.9 17.2,26.1 18,26.1 C18.8,26.1 19.6,26 20.4,25.7 L24.9,30.2 C22.8,31.4 20.5,32 18,32 C15.5,32 13.2,31.4 11.1,30.2 L11.1,30.2 Z M26.6,29 L22.3,24.7 C22.8,24.4 23.2,24 23.7,23.6 C24.1,23.2 24.5,22.7 24.8,22.2 L29.1,26.5 C28.7,27 28.4,27.4 28,27.8 C27.5,28.3 27,28.7 26.6,29 L26.6,29 Z M30.2,24.9 L25.7,20.4 C26.2,18.9 26.2,17.2 25.7,15.7 L30.2,11.2 C31.4,13.3 32,15.6 32,18.1 C32,20.6 31.4,22.8 30.2,24.9 L30.2,24.9 Z" id="Shape" sketch:type="MSShapeGroup"></path>
        </g>
    </g>
</svg>