<?xml version="1.0" encoding="UTF-8" standalone="no"?>
<svg width="36px" height="36px" viewBox="0 0 36 36" version="1.1" xmlns="http://www.w3.org/2000/svg" xmlns:xlink="http://www.w3.org/1999/xlink" xmlns:sketch="http://www.bohemiancoding.com/sketch/ns">
    <!-- Generator: Sketch 3.3.3 (12081) - http://www.bohemiancoding.com/sketch -->
    <title>icons/nav/home</title>
    <desc>Created with Sketch.</desc>
    <defs></defs>
    <g id="Icons" stroke="none" stroke-width="1" fill="none" fill-rule="evenodd" sketch:type="MSPage">
        <g id="icons/nav/home" sketch:type="MSArtboardGroup" fill="#FFFFFF">
            <g id="ui-outline-1_home-51" sketch:type="MSLayerGroup" transform="translate(2.000000, 4.000000)">
                <path d="M19,29 L27,29 C27.6,29 28,28.6 28,28 L28,12.6 L29.3,13.8 C29.7,14.2 30.4,14.1 30.7,13.7 C31.1,13.3 31,12.6 30.6,12.3 L16.6,0.3 C16.2,-2.2037927e-14 15.7,-2.2037927e-14 15.3,0.3 L1.3,12.3 C0.9,12.7 0.8,13.3 1.2,13.7 C1.4,13.9 1.7,14 2,14 C2.2,14 2.5,13.9 2.7,13.8 L4,12.6 L4,28 C4,28.6 4.4,29 5,29 L13,29 C13.6,29 14,28.6 14,28 L14,21 L18,21 L18,28 C18,28.6 18.4,29 19,29 L19,29 Z M13,19 C12.4,19 12,19.4 12,20 L12,27 L6,27 L6,10.9 L16,2.3 L26,10.9 L26,27 L20,27 L20,20 C20,19.4 19.6,19 19,19 L13,19 L13,19 Z" id="Shape" sketch:type="MSShapeGroup"></path>
                <path d="M20,15 L20,10 C20,9.4 19.6,9 19,9 L13,9 C12.4,9 12,9.4 12,10 L12,15 C12,15.6 12.4,16 13,16 L19,16 C19.6,16 20,15.6 20,15 L20,15 Z M18,14 L14,14 L14,11 L18,11 L18,14 L18,14 Z" id="Shape" sketch:type="MSShapeGroup"></path>
            </g>
        </g>
    </g>
</svg>