<?xml version="1.0" encoding="utf-8"?>
<!-- Generator: Adobe Illustrator 16.0.3, SVG Export Plug-In . SVG Version: 6.00 Build 0)  -->
<!DOCTYPE svg PUBLIC "-//W3C//DTD SVG 1.1//EN" "http://www.w3.org/Graphics/SVG/1.1/DTD/svg11.dtd">
<svg version="1.1" id="Layer_1" xmlns="http://www.w3.org/2000/svg" xmlns:xlink="http://www.w3.org/1999/xlink" x="0px" y="0px"
	 width="301.754px" height="145.614px" viewBox="0 0 301.754 145.614" enable-background="new 0 0 301.754 145.614"
	 xml:space="preserve">
<g>
	<g>
		<path fill="#FCB218" d="M180.333,69.912c0-9.149-5.59-14.895-14.363-14.895c-8.544,0-14.438,6.197-14.438,14.895
			c0,8.845,5.973,14.971,14.438,14.971C174.743,84.882,180.333,78.756,180.333,69.912z"/>
		<path fill="#FCB218" d="M188.231,14.016l-32.826,11.657c-7.655,3.139-9.507,8.001-9.507,10.802c0,1.9,0,6.682,0,12.141
			c5.103-4.136,12.021-6.377,20.071-6.377c17.391,0,29.338,10.133,29.338,27.673c0,17.767-11.947,27.747-29.338,27.747
			c-8.05,0-14.969-2.16-20.071-6.254c0,5.296,0,9.748,0,11.25c0,2.207,1.778,6.756,9.343,10.106l33.153,12.735
			c7.562,3.35,13.753-0.676,13.753-8.947V23.347C202.147,15.074,195.883,10.876,188.231,14.016z"/>
	</g>
	<path fill="#FFFFFF" d="M267.78,58.833c-0.301-3.174-3.705-4.612-7.938-4.612c-4.157,0-8.318,2.269-8.318,6.351v4.992
		c3.026-2.269,8.018-3.632,12.25-3.632c11.189,0,19.506,5.974,19.506,17.164c0,13.005-11.416,18.221-23.058,18.221
		c-11.419,0-23.364-5.291-23.364-18.371V60.572c0-12.551,11.267-17.994,22.906-17.994c11.947,0,22.307,4.008,22.307,16.254H267.78z
		 M268.384,79.096c0-4.083-3.175-6.427-8.09-6.427c-5.821,0-8.618,2.798-8.618,6.351c0,3.101,2.95,6.049,8.546,6.049
		C264.756,85.069,268.384,82.876,268.384,79.096z"/>
	<path fill="#33C6F4" d="M67.683,13.384L27.234,26.305c-7.789,2.793-9.752,7.369-9.752,10.17c0,2.801,0,11.861,0,20.133V83.6
		c0,8.271,0,16.848,0,19.055s1.903,6.458,9.619,9.445l40.716,14.057c7.713,2.988,14.024-1.336,14.024-9.607V23.347
		C81.841,15.074,75.47,10.591,67.683,13.384z M75.103,63.978H62.475l-0.451-7.789h-4.762v28.428h6.199v11.794H35.863V84.617h6.278
		V56.189h-4.842l-0.451,7.789H24.22V43.485h50.883V63.978z"/>
	<path fill="#69BD45" d="M128.014,14.016L95.193,25.673c-7.654,3.139-9.509,8.001-9.509,10.802c0,2.801,0,11.861,0,20.133v5.869
		c2.815-10.882,12.191-20.353,28.422-20.353c6.733,0,13.686,2.193,18.527,6.957v15.273h-12.7l-0.382-8.467
		c-1.889-0.682-3.705-0.833-5.445-0.833c-9.296,0-14.515,6.502-14.515,14.893c0,8.847,5.67,14.82,14.368,14.895
		c4.384,0,9.07-1.588,12.622-5.218l8.772,9.831c-5.975,5.82-13.005,8.239-21.395,8.317c-14.324,0.062-25.162-7.11-28.275-19.982
		V83.6c0,8.271,0,16.848,0,19.055s1.78,6.756,9.347,10.107l33.146,12.734c7.564,3.35,13.753-0.676,13.753-8.947V23.347
		C141.93,15.074,135.667,10.876,128.014,14.016z"/>
	<polygon fill="#FFFFFF" points="226.798,85.145 226.798,42.579 206.138,50.078 206.138,61.896 212.735,59.968 212.735,85.145 
		206.138,85.145 206.138,96.409 234.662,96.409 234.662,85.145 	"/>
	<path fill="#23A6DF" d="M57.262,79.047v5.569h6.199v11.794H35.863v-5.328c-10.368,5.946-18.381,10.794-18.381,11.572
		c0,2.207,1.903,6.458,9.619,9.445l40.716,14.057c7.713,2.988,14.024-1.336,14.024-9.607V65.559
		C81.841,65.559,70.456,71.731,57.262,79.047z"/>
	<path fill="#F47A20" d="M195.305,69.825c0,0.029,0.002,0.058,0.002,0.087c0,17.767-11.947,27.747-29.338,27.747
		c-4.118,0-7.937-0.571-11.371-1.671c-5.224,3.55-8.7,6.118-8.7,6.667c0,2.207,1.778,6.756,9.343,10.106l33.153,12.735
		c7.562,3.35,13.753-0.676,13.753-8.947V65.559C202.147,65.559,199.478,67.214,195.305,69.825z"/>
	<path fill="#2C8C43" d="M111.656,84.658c0.744,0.104,1.507,0.177,2.304,0.184c4.384,0,9.07-1.588,12.622-5.218l8.772,9.831
		c-5.975,5.82-13.005,8.239-21.395,8.317c-6.246,0.027-11.826-1.326-16.396-3.924c-6.945,4.632-11.88,8.152-11.88,8.807
		c0,2.207,1.78,6.756,9.347,10.107l33.146,12.734c7.564,3.35,13.753-0.676,13.753-8.947V65.559
		C141.93,65.559,126.397,75.194,111.656,84.658z"/>
</g>
</svg>
