<?xml version="1.0" encoding="UTF-8" standalone="no"?>
<svg width="221px" height="156px" viewBox="0 0 221 156" version="1.1" xmlns="http://www.w3.org/2000/svg" xmlns:xlink="http://www.w3.org/1999/xlink">
    <!-- Generator: Sketch 3.8.3 (29802) - http://www.bohemiancoding.com/sketch -->
    <title>tco16-bah</title>
    <desc>Created with Sketch.</desc>
    <defs>
        <polygon id="path-1" points="53.0702767 0.173041678 6.46664079e-05 0.173041678 6.46664079e-05 95.4337826 53.0702767 95.4337826"></polygon>
        <polygon id="path-3" points="53.0701689 51.2328767 0 51.2328767 0 0.122459601 53.0701689 0.122459601"></polygon>
    </defs>
    <g id="Dashboard-Banners" stroke="none" stroke-width="1" fill="none" fill-rule="evenodd">
        <g id="TCO-Banner" transform="translate(-895.000000, -118.000000)">
            <g id="tco16-bah" transform="translate(895.000000, 118.000000)">
                <g id="Group-2" transform="translate(1.000000, 113.000000)">
                    <g id="Group" transform="translate(0.000000, 18.000000)" fill="#FFFFFF">
                        <path d="M5.79142376,19.5438053 C7.2358,19.5438053 8.47585941,19.469469 9.68193861,18.5159292 C10.7324931,17.6858407 11.2003743,16.4876106 11.2003743,15.1353982 C11.2003743,13.0721239 9.88211683,11.4853982 7.93391881,11.0688053 L7.93391881,11.0243363 C9.65906733,10.6077434 10.7137604,9.24225664 10.7137604,7.42743363 C10.7137604,6.1199115 10.1197604,5.00420354 9.05286931,4.27654867 C7.9957802,3.57389381 7.03148317,3.52942478 5.81494851,3.52942478 L-2.17821782e-05,3.52942478 L-2.17821782e-05,19.5438053 L5.79142376,19.5438053 Z M1.88304752,10.419469 L1.88304752,5.03539823 L5.43746337,5.03539823 C6.22837426,5.03539823 6.94370099,5.03539823 7.62461188,5.43384956 C8.43534455,5.94269912 8.80803762,6.67168142 8.80803762,7.64712389 C8.80803762,8.43915929 8.45146337,9.32323009 7.81520594,9.80575221 C7.00795842,10.440708 5.92734455,10.419469 4.93865149,10.419469 L1.88304752,10.419469 Z M1.88304752,17.9752212 L1.88304752,11.9037611 L5.47318614,11.9037611 C6.36821584,11.9037611 7.35211683,11.9037611 8.11209703,12.5150442 C8.85094851,13.1234513 9.26437426,14.0889381 9.26437426,15.074115 C9.26437426,15.9486726 8.94134455,16.7800885 8.27568119,17.3006637 C7.57995842,17.869469 6.61805743,17.9752212 5.74655248,17.9752212 L1.88304752,17.9752212 Z" id="Fill-1"></path>
                        <path d="M12.9514653,13.5172124 C12.9514653,16.6413274 14.5169505,19.7753982 18.0136436,19.7753982 C21.5534653,19.7753982 23.4413267,16.859469 23.4413267,13.5417699 C23.4413267,10.4194248 21.7381782,7.37960177 18.3131485,7.37960177 C14.7994653,7.37960177 12.9514653,10.2240708 12.9514653,13.5172124 M14.9255842,13.5172124 C14.9255842,12.554823 15.0656436,11.3977434 15.5049901,10.5335841 C16.0151287,9.48513274 17.0388911,8.81942478 18.1772277,8.81942478 C19.1918416,8.81942478 20.1724752,9.36455752 20.7283564,10.2340265 C21.3369505,11.2076991 21.474396,12.3880088 21.474396,13.5172124 C21.474396,14.5568142 21.3842178,15.6426549 20.8943366,16.5864602 C20.3360594,17.6745133 19.3791683,18.3105752 18.1772277,18.3105752 C17.1105545,18.3105752 16.1061782,17.7220796 15.5969109,16.794646 C15.0843762,15.8574779 14.9255842,14.604823 14.9255842,13.5172124" id="Fill-4"></path>
                        <path d="M25.1826812,13.5172124 C25.1826812,16.6413274 26.7531762,19.7753982 30.2474733,19.7753982 C33.7870772,19.7753982 35.6701465,16.859469 35.6701465,13.5417699 C35.6701465,10.4194248 33.9693941,7.37960177 30.5419683,7.37960177 C27.0267604,7.37960177 25.1826812,10.2240708 25.1826812,13.5172124 M27.1568,13.5172124 C27.1568,12.554823 27.2942455,11.3977434 27.7314139,10.5335841 C28.2448198,9.48513274 29.2635723,8.81942478 30.4069188,8.81942478 C31.4274139,8.81942478 32.4036911,9.36455752 32.9604436,10.2340265 C33.5609782,11.2076991 33.7058297,12.3880088 33.7058297,13.5172124 C33.7058297,14.5568142 33.611295,15.6426549 33.1240277,16.5864602 C32.5657505,17.6745133 31.6127802,18.3105752 30.4069188,18.3105752 C29.3391564,18.3105752 28.3400079,17.7220796 27.826602,16.794646 C27.3179881,15.8574779 27.1568,14.604823 27.1568,13.5172124" id="Fill-6"></path>
                        <polygon id="Fill-8" points="45.3812733 8.68840708 38.9609762 18.1191593 45.3812733 18.1191593 45.3812733 19.5437168 36.7801446 19.5437168 36.7801446 18.1191593 42.9889366 9.13309735 37.2602238 9.13309735 37.2602238 7.67026549 45.3812733 7.67026549"></polygon>
                        <polygon id="Fill-10" points="55.5798416 24.7986726 57.0501386 24.7986726 57.0501386 0.109292035 55.5798416 0.109292035"></polygon>
                        <path d="M73.3884059,3.52949115 L71.238505,3.52949115 L66.1364653,19.5438717 L67.7947426,19.5438717 L69.1983861,14.8724115 L75.0303465,14.8724115 L76.627198,19.5438717 L78.5100495,19.5438717 L73.3884059,3.52949115 Z M74.6058119,13.3500664 L69.7492574,13.3500664 L72.1938713,5.67019912 L74.6058119,13.3500664 Z" id="Fill-12"></path>
                        <path d="M98.5523545,15.9884292 C98.0511465,17.3948451 96.9086713,18.2793584 95.3911069,18.2793584 C94.1728297,18.2793584 92.863503,17.5634292 92.3143743,16.4395354 C91.8822158,15.5550221 91.8301564,14.6809071 91.8301564,13.7548009 L100.40776,13.7548009 C100.495543,10.4656416 98.9259188,7.37957965 95.2909089,7.37957965 C91.8040178,7.37957965 89.895899,10.3499336 89.895899,13.6127655 C89.895899,16.9337832 91.7112257,19.7753761 95.2551861,19.7753761 C97.4765327,19.7753761 99.5238396,18.4660841 100.220651,16.2990487 L98.5523545,15.9884292 Z M91.9268693,12.4028097 C91.9937406,10.5399779 93.346196,8.78134956 95.2909089,8.78134956 C97.3724139,8.78134956 98.529701,10.4306858 98.5124931,12.4028097 L91.9268693,12.4028097 Z" id="Fill-13"></path>
                        <path d="M104.696127,9.70039823 L104.743176,9.70039823 C105.358305,8.3479646 106.779374,7.37960177 108.377315,7.37960177 C109.779434,7.37960177 110.945434,7.99442478 111.679711,9.22252212 C112.293097,10.2240708 112.24278,11.8161062 112.24278,12.9813717 L112.24278,19.5437611 L110.444444,19.5437611 L110.444444,12.2143363 C110.444444,11.5070354 110.470364,10.624292 110.114008,10.0192035 C109.73478,9.34486726 108.878741,8.93646018 108.118543,8.93646018 C107.177988,8.93646018 106.332622,9.38933628 105.708345,10.1351327 C104.947493,11.0689823 104.790444,12.1448673 104.790444,13.3282743 L104.790444,19.5437611 L102.995374,19.5437611 L102.995374,7.67030973 L104.696127,7.67030973 L104.696127,9.70039823 Z" id="Fill-14"></path>
                        <path d="M212.345176,9.70039823 L212.393968,9.70039823 C212.992978,8.3479646 214.423414,7.37960177 216.015255,7.37960177 C217.41781,7.37960177 218.599493,7.99442478 219.330067,9.22252212 C219.927552,10.2240708 219.88682,11.8161062 219.88682,12.9813717 L219.88682,19.5437611 L218.083691,19.5437611 L218.083691,12.2143363 C218.083691,11.5070354 218.107869,10.624292 217.76284,10.0192035 C217.37882,9.34486726 216.532582,8.93646018 215.761275,8.93646018 C214.827038,8.93646018 213.964463,9.38933628 213.344325,10.1351327 C212.598939,11.0689823 212.432958,12.1448673 212.432958,13.3282743 L212.432958,19.5437611 L210.631354,19.5437611 L210.631354,7.67030973 L212.345176,7.67030973 L212.345176,9.70039823 Z" id="Fill-15"></path>
                        <polygon id="Fill-16" points="122.567228 24.7986726 124.020535 24.7986726 124.020535 0.109292035 122.567228 0.109292035"></polygon>
                        <polygon id="Fill-17" points="144.383517 19.5438053 144.383517 11.8475664 137.087576 11.8475664 137.087576 19.5438053 135.221061 19.5438053 135.221061 3.52942478 137.087576 3.52942478 137.087576 10.3134956 144.383517 10.3134956 144.383517 3.52942478 146.245457 3.52942478 146.245457 19.5438053"></polygon>
                        <path d="M155.258226,12.1897788 C153.832582,12.1897788 152.148384,12.2576991 150.880444,12.8906637 C149.599651,13.4692035 148.751671,14.7570354 148.751671,16.179823 C148.751671,18.5386726 150.592483,19.7753982 152.737374,19.7753982 C154.55684,19.7753982 155.935216,19.0331416 156.737671,17.3223009 L156.942642,19.5437611 L158.695453,19.5437611 C158.469354,18.7767257 158.451493,17.905708 158.451493,17.0479646 L158.451493,12.439115 C158.451493,11.0904425 158.451493,9.59929204 157.507453,8.54619469 C156.644879,7.52163717 155.246899,7.37960177 153.975909,7.37960177 C151.899196,7.37960177 149.37181,8.1530531 149.055968,10.624292 L150.719255,10.9021681 C151.03183,9.27517699 152.398879,8.80415929 153.832582,8.80415929 C155.873354,8.80415929 156.737671,9.59929204 156.737671,11.6756195 L156.737671,12.1897788 L155.258226,12.1897788 Z M156.737671,14.3417699 C156.737671,16.4395575 155.279572,18.3503982 153.119869,18.3503982 C151.629097,18.3503982 150.600543,17.7437611 150.600543,16.2676549 C150.600543,13.8209735 153.134463,13.5634513 155.279572,13.5634513 L156.737671,13.5634513 L156.737671,14.3417699 Z" id="Fill-18"></path>
                        <path d="M163.200422,7.67035398 L163.200422,9.79933628 L163.236145,9.79933628 C163.789412,8.48362832 165.156679,7.37964602 166.74656,7.37964602 C168.390461,7.37964602 169.720046,8.60243363 170.02761,10.0210177 C170.608758,8.50818584 172.058798,7.37964602 173.81161,7.37964602 C174.9946,7.37964602 176.138818,8.05884956 176.752422,9.08672566 C177.315491,10.0690265 177.295887,11.3630531 177.295887,12.4723451 L177.295887,19.5438053 L175.500818,19.5438053 L175.500818,12.4723451 C175.500818,11.6756637 175.54961,10.834292 175.180184,10.1084071 C174.794422,9.34469027 174.039451,8.86548673 173.222402,8.86548673 C172.340224,8.86548673 171.497253,9.43252212 170.973392,10.2028761 C170.299451,11.1612832 170.323848,12.025885 170.323848,13.1533186 L170.323848,19.5438053 L168.525293,19.5438053 L168.525293,12.025885 C168.525293,11.3630531 168.478244,10.6077434 168.138224,10.0192478 C167.734382,9.31836283 166.979412,8.86548673 166.185016,8.86548673 C165.384303,8.86548673 164.554402,9.41084071 164.071055,10.0327434 C163.468778,10.809292 163.3566,11.7696903 163.3566,12.7433628 L163.3566,19.5438053 L161.569808,19.5438053 L161.569808,7.67035398 L163.200422,7.67035398 Z" id="Fill-19"></path>
                        <path d="M180.498673,5.58584071 L182.468,5.58584071 L182.468,3.52942478 L180.498673,3.52942478 L180.498673,5.58584071 Z M180.60301,19.5438053 L182.375426,19.5438053 L182.375426,7.67035398 L180.60301,7.67035398 L180.60301,19.5438053 Z" id="Fill-20"></path>
                        <polygon id="Fill-21" points="186.069465 19.5438053 187.812475 19.5438053 187.812475 3.52942478 186.069465 3.52942478"></polygon>
                        <polygon id="Fill-22" points="80.3564158 19.5438053 82.1050891 19.5438053 82.1050891 3.52942478 80.3564158 3.52942478"></polygon>
                        <polygon id="Fill-23" points="85.7196238 19.5438053 87.4709109 19.5438053 87.4709109 3.52942478 85.7196238 3.52942478"></polygon>
                        <path d="M196.879198,19.6332522 L195.162327,19.7755088 C192.610327,19.7755088 191.83401,18.262677 191.83401,15.8989602 L191.83401,9.03413717 L189.770366,9.03413717 L189.770366,7.58435841 L191.83401,7.58435841 L191.83401,4.63878319 L193.637356,4.45028761 L193.637356,7.58435841 L196.236406,7.58435841 L196.236406,9.03413717 L193.637356,9.03413717 L193.637356,16.2013938 C193.637356,17.5850221 194.031178,18.3104646 195.508881,18.3104646 L196.879198,18.1998451 L196.879198,19.6332522 Z" id="Fill-24"></path>
                        <path d="M197.784095,13.5172124 C197.784095,16.6413274 199.336729,19.7753982 202.842352,19.7753982 C206.374115,19.7753982 208.270036,16.859469 208.270036,13.5417699 C208.270036,10.4194248 206.557739,7.37960177 203.135105,7.37960177 C199.613362,7.37960177 197.784095,10.2240708 197.784095,13.5172124 M199.737085,13.5172124 C199.737085,12.554823 199.880194,11.3977434 200.319758,10.5335841 C200.832293,9.48513274 201.851263,8.81942478 202.998749,8.81942478 C204.015758,8.81942478 204.993996,9.36455752 205.54857,10.2340265 C206.144531,11.2076991 206.291125,12.3880088 206.291125,13.5172124 C206.291125,14.5568142 206.191798,15.6426549 205.711719,16.5864602 C205.163026,17.6745133 204.206135,18.3105752 202.998749,18.3105752 C201.922709,18.3105752 200.934887,17.7220796 200.417343,16.794646 C199.908075,15.8574779 199.737085,14.604823 199.737085,13.5172124" id="Fill-25"></path>
                    </g>
                    <path d="M83.0590123,3.31684492 C82.404471,3.1270044 81.928147,2.89371796 81.630026,2.61697861 C81.3319049,2.34023926 81.1828467,1.99866513 81.1828467,1.59224599 C81.1828467,1.13235064 81.365029,0.752006852 81.7293992,0.451203209 C82.0937693,0.150399566 82.5674434,0 83.1504357,0 C83.5479304,0 83.9023579,0.0775393316 84.2137287,0.232620321 C84.5250996,0.38770131 84.7662428,0.601602914 84.9371655,0.874331551 C85.1080882,1.14706019 85.1935483,1.44518555 85.1935483,1.76871658 L84.4263873,1.76871658 C84.4263873,1.41577364 84.3150905,1.13836999 84.0924934,0.936497326 C83.8698964,0.734624659 83.5558803,0.63368984 83.1504357,0.63368984 C82.7741407,0.63368984 82.4806615,0.717245154 82.2699893,0.884358289 C82.0593171,1.05147142 81.9539826,1.28342098 81.9539826,1.5802139 C81.9539826,1.81818301 82.0540172,2.0193842 82.2540896,2.18382353 C82.4541619,2.34826285 82.7946773,2.49866242 83.2756459,2.63502674 C83.7566145,2.77139106 84.1329038,2.92179062 84.4045252,3.08622995 C84.6761466,3.25066927 84.8775409,3.44251227 85.0087142,3.66176471 C85.1398874,3.88101714 85.2054731,4.13903595 85.2054731,4.43582888 C85.2054731,4.90909328 85.0226283,5.28810018 84.6569331,5.57286096 C84.291238,5.85762174 83.8023268,6 83.1901849,6 C82.7926902,6 82.4217007,5.92312911 82.0772053,5.76938503 C81.7327099,5.61564094 81.4670549,5.40508155 81.2802324,5.13770053 C81.0934099,4.87031952 81,4.56684662 81,4.22727273 L81.767161,4.22727273 C81.767161,4.58021567 81.8963448,4.8589562 82.1547164,5.06350267 C82.4130879,5.26804915 82.7582407,5.37032086 83.1901849,5.37032086 C83.5929796,5.37032086 83.9016959,5.28743398 84.116343,5.12165775 C84.3309901,4.95588152 84.4383121,4.72994795 84.4383121,4.44385027 C84.4383121,4.15775258 84.3389399,3.93649811 84.1401926,3.78008021 C83.9414452,3.62366232 83.5810554,3.4692521 83.0590123,3.31684492 L83.0590123,3.31684492 Z M86.9464912,3.63368984 L86.9464912,5.9197861 L86.1833052,5.9197861 L86.1833052,0.0802139037 L88.3178412,0.0802139037 C88.9511827,0.0802139037 89.4473812,0.243313877 89.8064514,0.569518717 C90.1655217,0.895723556 90.3450541,1.32753742 90.3450541,1.86497326 C90.3450541,2.43182102 90.1694965,2.86831398 89.8183762,3.17446524 C89.4672559,3.4806165 88.9644326,3.63368984 88.3098913,3.63368984 L86.9464912,3.63368984 Z M86.9464912,3.0040107 L88.3178412,3.0040107 C88.7259357,3.0040107 89.0386269,2.90708653 89.255924,2.71323529 C89.4732211,2.51938406 89.581868,2.23930664 89.581868,1.87299465 C89.581868,1.52539933 89.4732211,1.24732725 89.255924,1.03877005 C89.0386269,0.830212861 88.7405103,0.721925174 88.3615654,0.713903743 L86.9464912,0.713903743 L86.9464912,3.0040107 Z M95.7708298,3.18850267 C95.7708298,3.76069805 95.6754325,4.26002461 95.4846351,4.68649733 C95.2938376,5.11297005 95.0235453,5.43850155 94.6737499,5.6631016 C94.3239546,5.88770166 93.9158661,6 93.4494723,6 C92.9936784,6 92.5895648,5.88703322 92.2371195,5.66109626 C91.8846742,5.4351593 91.6110694,5.11297001 91.416297,4.69451872 C91.2215246,4.27606743 91.1214899,3.7914466 91.11619,3.24064171 L91.11619,2.81951872 C91.11619,2.25801858 91.2129122,1.76203424 91.4063597,1.3315508 C91.5998071,0.901067366 91.8734119,0.571525207 92.2271822,0.342914439 C92.5809525,0.11430367 92.9857285,0 93.4415224,0 C93.9052663,0 94.3140172,0.112966785 94.6677875,0.338903743 C95.0215578,0.564840702 95.2938376,0.892377533 95.4846351,1.32152406 C95.6754325,1.75067059 95.7708298,2.24999715 95.7708298,2.81951872 L95.7708298,3.18850267 Z M95.0116187,2.81149733 C95.0116187,2.11898049 94.8738226,1.5875687 94.5982263,1.21724599 C94.3226299,0.846923282 93.9370659,0.661764706 93.4415224,0.661764706 C92.9592289,0.661764706 92.5796271,0.846923282 92.3027058,1.21724599 C92.0257845,1.5875687 91.883351,2.10160099 91.8754011,2.75935829 L91.8754011,3.18850267 C91.8754011,3.85962902 92.0151846,4.38703017 92.2947559,4.77072193 C92.5743272,5.15441368 92.9592288,5.34625668 93.4494723,5.34625668 C93.9423657,5.34625668 94.323955,5.16510876 94.5942514,4.80280749 C94.8645478,4.44050621 95.0036688,3.92112638 95.0116187,3.24465241 L95.0116187,2.81149733 Z M101.363553,5.9197861 L100.596392,5.9197861 L97.6827699,1.4197861 L97.6827699,5.9197861 L96.9156089,5.9197861 L96.9156089,0.0802139037 L97.6827699,0.0802139037 L100.604341,4.60026738 L100.604341,0.0802139037 L101.363553,0.0802139037 L101.363553,5.9197861 Z M104.424247,3.31684492 C103.769705,3.1270044 103.293381,2.89371796 102.99526,2.61697861 C102.697139,2.34023926 102.548081,1.99866513 102.548081,1.59224599 C102.548081,1.13235064 102.730263,0.752006852 103.094633,0.451203209 C103.459004,0.150399566 103.932678,0 104.51567,0 C104.913165,0 105.267592,0.0775393316 105.578963,0.232620321 C105.890334,0.38770131 106.131477,0.601602914 106.3024,0.874331551 C106.473322,1.14706019 106.558783,1.44518555 106.558783,1.76871658 L105.791622,1.76871658 C105.791622,1.41577364 105.680325,1.13836999 105.457728,0.936497326 C105.235131,0.734624659 104.921115,0.63368984 104.51567,0.63368984 C104.139375,0.63368984 103.845896,0.717245154 103.635223,0.884358289 C103.424551,1.05147142 103.319217,1.28342098 103.319217,1.5802139 C103.319217,1.81818301 103.419251,2.0193842 103.619324,2.18382353 C103.819396,2.34826285 104.159911,2.49866242 104.64088,2.63502674 C105.121849,2.77139106 105.498138,2.92179062 105.769759,3.08622995 C106.041381,3.25066927 106.242775,3.44251227 106.373948,3.66176471 C106.505122,3.88101714 106.570707,4.13903595 106.570707,4.43582888 C106.570707,4.90909328 106.387862,5.28810018 106.022167,5.57286096 C105.656472,5.85762174 105.167561,6 104.555419,6 C104.157924,6 103.786935,5.92312911 103.44244,5.76938503 C103.097944,5.61564094 102.832289,5.40508155 102.645467,5.13770053 C102.458644,4.87031952 102.365234,4.56684662 102.365234,4.22727273 L103.132395,4.22727273 C103.132395,4.58021567 103.261579,4.8589562 103.519951,5.06350267 C103.778322,5.26804915 104.123475,5.37032086 104.555419,5.37032086 C104.958214,5.37032086 105.26693,5.28743398 105.481577,5.12165775 C105.696224,4.95588152 105.803546,4.72994795 105.803546,4.44385027 C105.803546,4.15775258 105.704174,3.93649811 105.505427,3.78008021 C105.306679,3.62366232 104.94629,3.4692521 104.424247,3.31684492 L104.424247,3.31684492 Z M112.000458,3.18850267 C112.000458,3.76069805 111.905061,4.26002461 111.714263,4.68649733 C111.523466,5.11297005 111.253173,5.43850155 110.903378,5.6631016 C110.553583,5.88770166 110.145494,6 109.6791,6 C109.223307,6 108.819193,5.88703322 108.466748,5.66109626 C108.114302,5.4351593 107.840698,5.11297001 107.645925,4.69451872 C107.451153,4.27606743 107.351118,3.7914466 107.345818,3.24064171 L107.345818,2.81951872 C107.345818,2.25801858 107.44254,1.76203424 107.635988,1.3315508 C107.829435,0.901067366 108.10304,0.571525207 108.45681,0.342914439 C108.810581,0.11430367 109.215357,0 109.671151,0 C110.134894,0 110.543645,0.112966785 110.897416,0.338903743 C111.251186,0.564840702 111.523466,0.892377533 111.714263,1.32152406 C111.905061,1.75067059 112.000458,2.24999715 112.000458,2.81951872 L112.000458,3.18850267 Z M111.241247,2.81149733 C111.241247,2.11898049 111.103451,1.5875687 110.827854,1.21724599 C110.552258,0.846923282 110.166694,0.661764706 109.671151,0.661764706 C109.188857,0.661764706 108.809255,0.846923282 108.532334,1.21724599 C108.255413,1.5875687 108.112979,2.10160099 108.105029,2.75935829 L108.105029,3.18850267 C108.105029,3.85962902 108.244813,4.38703017 108.524384,4.77072193 C108.803955,5.15441368 109.188857,5.34625668 109.6791,5.34625668 C110.171994,5.34625668 110.553583,5.16510876 110.82388,4.80280749 C111.094176,4.44050621 111.233297,3.92112638 111.241247,3.24465241 L111.241247,2.81149733 Z M115.267848,3.55748663 L113.908423,3.55748663 L113.908423,5.9197861 L113.141262,5.9197861 L113.141262,0.0802139037 L115.057177,0.0802139037 C115.709068,0.0802139037 116.210567,0.229945027 116.561687,0.529411765 C116.912807,0.828878503 117.088365,1.26470302 117.088365,1.8368984 C117.088365,2.20053658 116.99098,2.51737833 116.796208,2.78743316 C116.601435,3.05748798 116.330481,3.25935762 115.983335,3.39304813 L117.34276,5.87165775 L117.34276,5.9197861 L116.523925,5.9197861 L115.267848,3.55748663 Z M113.908423,2.92780749 L115.081027,2.92780749 C115.459972,2.92780749 115.761401,2.82887799 115.985323,2.63101604 C116.209245,2.43315409 116.321204,2.16845086 116.321204,1.8368984 C116.321204,1.47593402 116.214544,1.19919882 116.001222,1.00668449 C115.7879,0.81417016 115.479846,0.716577553 115.077052,0.713903743 L113.908423,0.713903743 L113.908423,2.92780749 Z M121.428986,3.22058824 L118.920806,3.22058824 L118.920806,5.29010695 L121.834428,5.29010695 L121.834428,5.9197861 L118.15762,5.9197861 L118.15762,0.0802139037 L121.794679,0.0802139037 L121.794679,0.713903743 L118.920806,0.713903743 L118.920806,2.59090909 L121.428986,2.59090909 L121.428986,3.22058824 Z M122.784436,5.9197861 L122.784436,0.0802139037 L124.418131,0.0802139037 C124.921624,0.0802139037 125.366812,0.192512246 125.753706,0.417112299 C126.140601,0.641712353 126.43938,0.961227874 126.650053,1.37566845 C126.860725,1.79010902 126.967384,2.26604009 126.970034,2.80347594 L126.970034,3.17647059 C126.970034,3.72727548 126.8647,4.20989098 126.654027,4.62433155 C126.443355,5.03877213 126.142589,5.35695076 125.751719,5.57887701 C125.360849,5.80080325 124.905725,5.91443848 124.386331,5.9197861 L122.784436,5.9197861 Z M123.547622,0.713903743 L123.547622,5.29010695 L124.350557,5.29010695 C124.938849,5.29010695 125.396624,5.10561682 125.723894,4.73663102 C126.051165,4.36764521 126.214798,3.8422494 126.214798,3.16042781 L126.214798,2.81951872 C126.214798,2.1564138 126.06044,1.64104462 125.751719,1.27339572 C125.442998,0.905746825 125.005098,0.719251364 124.438006,0.713903743 L123.547622,0.713903743 Z M130.138051,5.9197861 L130.138051,0.0802139037 L132.030117,0.0802139037 C132.658158,0.0802139037 133.130507,0.211228636 133.447178,0.473262032 C133.763849,0.735295428 133.922182,1.12299209 133.922182,1.63636364 C133.922182,1.90909227 133.845334,2.15040002 133.691636,2.36029412 C133.537938,2.57018822 133.328594,2.73261975 133.063598,2.84759358 C133.376294,2.93582932 133.623399,3.10360839 133.804922,3.35093583 C133.986444,3.59826327 134.077204,3.89304642 134.077204,4.23529412 C134.077204,4.75936091 133.908934,5.1711215 133.572388,5.47058824 C133.235843,5.77005497 132.760181,5.9197861 132.14539,5.9197861 L130.138051,5.9197861 Z M130.901237,3.18850267 L130.901237,5.29010695 L132.161289,5.29010695 C132.516385,5.29010695 132.796614,5.19719344 133.001986,5.01136364 C133.207359,4.82553383 133.310043,4.56952035 133.310043,4.24331551 C133.310043,3.54010344 132.931104,3.18850267 132.173214,3.18850267 L130.901237,3.18850267 Z M130.901237,2.57085561 L132.053966,2.57085561 C132.387862,2.57085561 132.654842,2.48663186 132.854914,2.31818182 C133.054986,2.14973178 133.155021,1.92112444 133.155021,1.63235294 C133.155021,1.31149572 133.062274,1.07820928 132.876776,0.932486631 C132.691279,0.786763977 132.409062,0.713903743 132.030117,0.713903743 L130.901237,0.713903743 L130.901237,2.57085561 Z M136.622993,3.01203209 L138.133466,0.0802139037 L139,0.0802139037 L137.004586,3.74197861 L137.004586,5.9197861 L136.2414,5.9197861 L136.2414,3.74197861 L134.245987,0.0802139037 L135.120471,0.0802139037 L136.622993,3.01203209 Z" id="SPONSORED-BY" fill="#DCDCE0"></path>
                    <rect id="Rectangle-24" fill="#DCDCE0" x="0" y="3" width="76" height="0.5"></rect>
                    <rect id="Rectangle-24" fill="#DCDCE0" x="144" y="3" width="76" height="0.5"></rect>
                </g>
                <g id="Page-1">
                    <path d="M134.611872,47.6849107 C134.611872,39.9908745 129.932455,35.1598174 122.588151,35.1598174 C115.436635,35.1598174 110.502283,40.3711689 110.502283,47.6849107 C110.502283,55.1226328 115.502064,60.2739726 122.588151,60.2739726 C129.932455,60.2739726 134.611872,55.1226328 134.611872,47.6849107" id="Fill-1" fill="#FBB118"></path>
                    <path d="M140.257143,1.87001886 L113.289077,11.5508173 C107.000788,14.1579376 105.479452,18.1959455 105.479452,20.521925 L105.479452,30.6047874 C109.670857,27.1696584 115.355895,25.308267 121.968252,25.308267 C136.255153,25.308267 146.07039,33.72404 146.07039,48.2908281 C146.07039,63.0458394 136.255153,71.3346106 121.968252,71.3346106 C115.355895,71.3346106 109.670857,69.5405193 105.479452,66.1407771 L105.479452,75.4837723 C105.479452,77.316724 106.939797,81.0939982 113.15421,83.8776185 L140.391795,94.4535087 C146.604919,97.234958 151.689498,93.8920953 151.689498,87.0224886 L151.689498,9.61930348 C151.689498,2.74882834 146.543714,-0.737535629 140.257143,1.87001886" id="Fill-3" fill="#FBB118"></path>
                    <path d="M207.750761,55.2721542 C207.750761,51.9000609 205.140772,49.9646693 201.098534,49.9646693 C196.311475,49.9646693 194.011666,52.2752656 194.011666,55.2091163 C194.011666,57.7697052 196.437654,60.2046502 201.038991,60.2046502 C204.768254,60.2046502 207.750761,58.394039 207.750761,55.2721542 L207.750761,55.2721542 Z M207.254214,38.5377635 C207.007015,35.9167273 204.20765,34.7291546 200.726661,34.7291546 C197.308223,34.7291546 193.886347,36.6025878 193.886347,39.9742493 L193.886347,44.096968 C196.375102,42.2231031 200.479247,41.0974888 203.960451,41.0974888 C213.161406,41.0974888 220,46.0308483 220,55.2721542 C220,66.0121202 210.612464,70.3196347 201.038991,70.3196347 C191.649305,70.3196347 181.826484,65.9501617 181.826484,55.1478055 L181.826484,39.9742493 C181.826484,29.6090563 191.091066,25.1141553 200.662389,25.1141553 C210.48736,25.1141553 219.005831,28.4240742 219.005831,38.5377635 L207.254214,38.5377635 Z" id="Fill-5" fill="#FFFFFF"></path>
                    <g id="Group-9">
                        <mask id="mask-2" fill="white">
                            <use xlink:href="#path-1"></use>
                        </mask>
                        <g id="Clip-8"></g>
                        <path d="M47.5139234,42.9378577 L37.1002606,42.9378577 L36.7282132,36.4607512 L32.8016689,36.4607512 L32.8016689,60.1015922 L37.9135485,60.1015922 L37.9135485,69.9095337 L15.1567929,69.9095337 L15.1567929,60.1015922 L20.3329077,60.1015922 L20.3329077,36.4607512 L16.3404037,36.4607512 L15.9683563,42.9378577 L5.55641798,42.9378577 L5.55641798,25.8962959 L47.5139234,25.8962959 L47.5139234,42.9378577 Z M41.395619,0.863512757 L8.04133248,11.6092706 C1.61866485,13.9318551 6.46664079e-05,17.7374677 6.46664079e-05,20.0665739 L6.46664079e-05,36.8092258 L6.46664079e-05,59.2561663 L6.46664079e-05,75.1023058 C6.46664079e-05,76.9377215 1.56865617,80.4733369 7.93204625,82.9565719 L41.5049052,94.6464503 C47.865062,97.1314245 53.0702767,93.5353749 53.0702767,86.6565334 L53.0702767,9.14929614 C53.0702767,2.2693677 47.8167777,-1.458637 41.395619,0.863512757 L41.395619,0.863512757 Z" id="Fill-7" fill="#33C5F3" mask="url(#mask-2)"></path>
                    </g>
                    <path d="M91.0327585,1.87001886 L64.0686301,11.5508173 C57.7801071,14.1579376 56.2557078,18.1959455 56.2557078,20.521925 L56.2557078,37.2423173 L56.2557078,42.1161494 C58.5695819,33.0788271 66.2716857,25.2129613 79.6062066,25.2129613 C85.1389729,25.2129613 90.8497791,27.0346239 94.8276495,30.990352 L94.8276495,43.6749074 L84.3943839,43.6749074 L84.0799685,36.6429119 C82.5282941,36.0762882 81.0358947,35.9510231 79.6062066,35.9510231 C71.9698207,35.9510231 67.6822597,41.3508818 67.6822597,48.319702 C67.6822597,55.6671397 72.3405045,60.6273766 79.4859384,60.6899006 C83.0881855,60.6899006 86.9378414,59.371035 89.8564927,56.3566404 L97.0629197,64.5210149 C92.1544742,69.3549012 86.3794534,71.3637016 79.4859384,71.4286136 C67.7174811,71.480717 58.8135545,65.5235698 56.2557078,54.8332693 L56.2557078,59.659123 L56.2557078,75.4837723 C56.2557078,77.316724 57.7191139,81.0939982 63.935476,83.8776185 L91.1676307,94.4535087 C97.3822747,97.234958 102.465753,93.8920953 102.465753,87.0224886 L102.465753,9.61930348 C102.465753,2.74882834 97.3212816,-0.737535629 91.0327585,1.87001886" id="Fill-10" fill="#69BC45"></path>
                    <polygon id="Fill-12" fill="#FFFFFF" points="173.447875 60.0663702 173.447875 25.1141553 156.712329 31.2719406 156.712329 40.9765486 162.055024 39.392885 162.055024 60.0663702 156.712329 60.0663702 156.712329 69.3150685 179.817352 69.3150685 179.817352 60.0663702"></polygon>
                    <g id="Group-16" transform="translate(0.000000, 44.200913)">
                        <mask id="mask-4" fill="white">
                            <use xlink:href="#path-3"></use>
                        </mask>
                        <g id="Clip-15"></g>
                        <path d="M32.8017767,11.3244413 L32.8017767,15.9495109 L37.9136563,15.9495109 L37.9136563,25.743891 L15.1566851,25.743891 L15.1566851,21.319194 C6.60649267,26.2573052 -4.31109386e-05,30.2832107 -4.31109386e-05,30.9294831 C-4.31109386e-05,32.7623609 1.56876394,36.2930876 7.93193848,38.7728891 L41.505013,50.446604 C47.8649542,52.9283593 53.0701689,49.3370649 53.0701689,42.4677347 L53.0701689,0.122459601 C53.0701689,0.122459601 43.6808221,5.24835233 32.8017767,11.3244413" id="Fill-14" fill="#23A5DE" mask="url(#mask-4)"></path>
                    </g>
                    <path d="M146.068672,47.7069551 C146.068672,47.7310162 146.07039,47.7542179 146.07039,47.7784939 C146.07039,62.3794826 136.255153,70.5815153 121.968038,70.5815153 C118.58562,70.5815153 115.44867,70.1121096 112.626338,69.2083156 C108.335715,72.1257205 105.479452,74.2364351 105.479452,74.6873653 C105.479452,76.5013983 106.939797,80.239028 113.153995,82.9935911 L140.391795,93.4590831 C146.604705,96.2117127 151.689498,92.9035302 151.689498,86.1058477 L151.689498,44.2009132 C151.689498,44.2009132 149.497691,45.5612231 146.068672,47.7069551" id="Fill-17" fill="#F37A1F"></path>
                    <path d="M77.5939776,59.8970721 C78.2054097,59.9830043 78.8312309,60.0422975 79.4858304,60.0480979 C83.0882755,60.0480979 86.9376988,58.7430028 89.8565513,55.7598669 L97.0627301,63.8392113 C92.1543073,68.6226266 86.3793134,70.610453 79.4858304,70.6746873 C74.3542683,70.6970297 69.7697091,69.5848523 66.0167147,67.4500819 C60.3104451,71.2564482 56.2557078,74.1499999 56.2557078,74.6875057 C56.2557078,76.5013194 57.7191071,80.23894 63.9354404,82.9937112 L91.1674685,93.4591777 C97.3822983,96.2115857 102.465753,92.9036261 102.465753,86.1057454 L102.465753,44.2009132 C102.465753,44.2009132 89.7040691,52.1193497 77.5939776,59.8970721" id="Fill-19" fill="#2C8B43"></path>
                </g>
            </g>
        </g>
    </g>
</svg>