<?xml version="1.0" encoding="UTF-8" standalone="no"?>
<svg width="73px" height="30px" viewBox="0 0 73 30" version="1.1" xmlns="http://www.w3.org/2000/svg" xmlns:xlink="http://www.w3.org/1999/xlink">
    <g id="Page-1" stroke="none" stroke-width="1" fill="none" fill-rule="evenodd">
        <g id="ico-tco16" transform="translate(-36.000000, -20.000000)">
            <g id="Group" transform="translate(36.000000, 20.125000)">
                <path d="M2.44068828,3.24173143 L15.4494216,0.0718170565 C16.7973765,-0.256647027 17.8901099,0.573653293 17.8901099,1.90761525 L17.8901099,27.857356 C17.8901099,29.1997034 16.7979339,30.0217541 15.4494216,29.6931542 L2.44068828,26.5232398 C1.09273336,26.1947757 0,25.1422358 0,24.1857555 L0,5.57921579 C0,4.61672291 1.09217597,3.57033134 2.44068828,3.24173143 Z M4.81081323,10.5089189 L8.8946374,10.5089189 L8.8946374,22.7027027 L12.1441319,22.7027027 L12.1441319,10.5089189 L16.2279561,10.5089189 L16.2279561,7.61918919 L4.81081323,7.61918919 L4.81081323,10.5089189 Z" id="Rectangle-124" fill="#35C6F4"></path>
                <path d="M18.7032967,17.2108469 L18.7032967,24.1857555 C18.7032967,25.1422358 19.5973513,26.1947757 20.7002235,26.5232398 L31.3437326,29.6931542 C32.4470608,30.0217541 33.3406593,29.1997034 33.3406593,27.857356 L33.3406593,1.90761525 C33.3406593,0.573653293 32.4466048,-0.256647027 31.3437326,0.0718170565 L20.7002235,3.24173143 C19.5968952,3.57033134 18.7032967,4.61672291 18.7032967,5.57921579 L18.7032967,13.1600838 C19.5509256,9.86082793 22.4300624,7.44405405 26.0455604,7.44405405 C28.7461538,7.44405405 31.0295824,8.71378378 32.3469451,10.6402703 L29.7341758,12.4354054 C28.9218022,11.2532432 27.6044396,10.4651351 26.0455604,10.4651351 C23.5206154,10.4651351 21.6763077,12.5667568 21.6763077,15.1937838 C21.6763077,17.7989189 23.5206154,19.9005405 26.0455604,19.9005405 C27.6263956,19.9005405 29.0096264,19.0467568 29.822,17.8208108 L32.4128132,19.6159459 C31.0954505,21.6081081 28.7900659,22.9216216 26.0455604,22.9216216 C22.4300624,22.9216216 19.5509256,20.4895517 18.7032967,17.2108469 Z" id="Rectangle-124" fill="#69BD46"></path>
                <path d="M37.1858405,3.24173143 L49.0119617,0.0718170565 C50.2373753,-0.256647027 51.2307692,0.573653293 51.2307692,1.90761525 L51.2307692,27.857356 C51.2307692,29.1997034 50.237882,30.0217541 49.0119617,29.6931542 L37.1858405,26.5232398 C35.9604269,26.1947757 34.967033,25.1422358 34.967033,24.1857555 L34.967033,5.57921579 C34.967033,4.61672291 35.9599202,3.57033134 37.1858405,3.24173143 Z M34.9672192,15.1937838 C34.9672192,19.4408108 38.34845,22.9216216 42.6298786,22.9216216 C46.9332632,22.9216216 50.314494,19.4408108 50.314494,15.1937838 C50.314494,10.902973 46.9332632,7.44405405 42.6298786,7.44405405 C38.34845,7.44405405 34.9672192,10.902973 34.9672192,15.1937838 Z M38.1728016,15.1937838 C38.1728016,12.6762162 40.1268896,10.6183784 42.6298786,10.6183784 C45.1328676,10.6183784 47.1089115,12.6762162 47.1089115,15.1937838 C47.1089115,17.7113514 45.1328676,19.7472973 42.6298786,19.7472973 C40.1268896,19.7472973 38.1728016,17.7113514 38.1728016,15.1937838 L38.1728016,15.1937838 Z" id="Rectangle-124" fill="#FCB217"></path>
                <path d="M57.7822088,7.35567568 L52.2492858,9.9827027 L52.2492858,12.6754054 L54.7083627,11.6245946 L54.7083627,21.8918919 L57.7822088,21.8918919 L57.7822088,7.35567568 Z M68.016978,12.6535135 C66.2165824,12.6535135 65.2944286,13.77 65.1187802,14.2735135 C65.0529121,12.347027 65.6457253,10.1359459 67.7535055,10.1359459 C68.4121868,10.1359459 69.026956,10.4424324 69.4221648,11.2743243 L72.2984066,10.0483784 C71.2445165,7.85918919 69.5758571,7.33378378 67.8632857,7.26810811 C62.4620989,7.09297297 61.6936374,12.6972973 62.0449341,17.1194595 C62.3084066,20.1624324 64.4820549,22.1108108 67.2046044,22.1108108 C70.3443187,22.1108108 72.4301429,20.25 72.4301429,17.4916216 C72.4301429,14.1859459 70.0588901,12.6535135 68.016978,12.6535135 L68.016978,12.6535135 Z M69.2465165,17.3164865 C69.2465165,18.3454054 68.3902308,19.1991892 67.3582967,19.1991892 C66.3263626,19.1991892 65.4700769,18.3454054 65.4700769,17.3164865 C65.4700769,16.2875676 66.3263626,15.4337838 67.3582967,15.4337838 C68.3902308,15.4337838 69.2465165,16.2875676 69.2465165,17.3164865 L69.2465165,17.3164865 Z" id="16" fill="#FFFFFF"></path>
            </g>
        </g>
    </g>
</svg>