<?xml version="1.0" encoding="UTF-8" standalone="no"?>
<svg width="36px" height="36px" viewBox="0 0 36 36" version="1.1" xmlns="http://www.w3.org/2000/svg" xmlns:xlink="http://www.w3.org/1999/xlink" xmlns:sketch="http://www.bohemiancoding.com/sketch/ns">
    <!-- Generator: Sketch 3.3.3 (12081) - http://www.bohemiancoding.com/sketch -->
    <title>icons/nav/logout</title>
    <desc>Created with Sketch.</desc>
    <defs></defs>
    <g id="Icons" stroke="none" stroke-width="1" fill="none" fill-rule="evenodd" sketch:type="MSPage">
        <g id="icons/nav/logout" sketch:type="MSArtboardGroup" fill="#FFFFFF">
            <path d="M32.9,14.6 C32.8,14.5 32.8,14.4 32.7,14.3 L26.7,8.3 C26.3,7.9 25.7,7.9 25.3,8.3 C24.9,8.7 24.9,9.3 25.3,9.7 L29.6,14 L22,14 L22,5 C22,4.4 21.6,4 21,4 L4,4 L4,4 C3.9,4 3.8,4 3.7,4.1 L3.6,4.1 C3.6,4.1 3.6,4.1 3.5,4.1 C3.4,4.1 3.4,4.2 3.3,4.3 L3.3,4.3 C3.2,4.4 3.2,4.5 3.1,4.6 L3.1,4.7 C3,4.8 3,4.9 3,5 L3,24.1 L3,27 C3,27.4 3.2,27.7 3.5,27.9 L13.5,33.9 C13.6,34 13.8,34 14,34 C14.2,34 14.3,34 14.5,33.9 C14.8,33.7 15,33.4 15,33 L15,28 L21,28 C21.6,28 22,27.6 22,27 L22,19 C22,18.4 21.6,18 21,18 C20.4,18 20,18.4 20,19 L20,26 L15,26 L15,11 C15,10.6 14.8,10.3 14.5,10.1 L7.6,6 L20,6 L20,14 L18,14 C17.4,14 17,14.4 17,15 C17,15.6 17.4,16 18,16 L29.6,16 L25.3,20.3 C24.9,20.7 24.9,21.3 25.3,21.7 C25.5,21.9 25.8,22 26,22 C26.2,22 26.5,21.9 26.7,21.7 L32.7,15.7 C32.8,15.6 32.9,15.5 32.9,15.4 C33,15.1 33,14.9 32.9,14.6 L32.9,14.6 Z M13,31.2 L5,26.4 L5,24.1 L5,6.8 L13,11.6 L13,31.2 L13,31.2 Z" id="Shape" sketch:type="MSShapeGroup"></path>
        </g>
    </g>
</svg>