<?xml version="1.0" encoding="UTF-8" standalone="no"?>
<svg width="36px" height="36px" viewBox="0 0 36 36" version="1.1" xmlns="http://www.w3.org/2000/svg" xmlns:xlink="http://www.w3.org/1999/xlink" xmlns:sketch="http://www.bohemiancoding.com/sketch/ns">
    <!-- Generator: Sketch 3.3.3 (12081) - http://www.bohemiancoding.com/sketch -->
    <title>icons/nav/mail</title>
    <desc>Created with Sketch.</desc>
    <defs></defs>
    <g id="Icons" stroke="none" stroke-width="1" fill="none" fill-rule="evenodd" sketch:type="MSPage">
        <g id="icons/nav/mail" sketch:type="MSArtboardGroup" fill="#FCFCFC">
            <g id="ui-outline-1_email-83" sketch:type="MSLayerGroup" transform="translate(2.000000, 6.000000)">
                <path d="M31,0 L1,0 C0.4,0 0,0.4 0,1 L0,6 L0,23 C0,23.6 0.4,24 1,24 L31,24 C31.6,24 32,23.6 32,23 L32,6 L32,1 C32,0.4 31.6,0 31,0 L31,0 Z M2,2 L30,2 L30,5.4 L16,12.9 L2,5.4 L2,2 L2,2 Z M2,22 L2,7.7 L15.5,14.9 C15.7,15 15.8,15 16,15 C16.2,15 16.3,15 16.5,14.9 L30,7.7 L30,22 L2,22 L2,22 Z" id="Shape" sketch:type="MSShapeGroup"></path>
            </g>
        </g>
    </g>
</svg>