<?xml version="1.0" encoding="UTF-8" standalone="no"?>
<svg width="36px" height="36px" viewBox="0 0 36 36" version="1.1" xmlns="http://www.w3.org/2000/svg" xmlns:xlink="http://www.w3.org/1999/xlink" xmlns:sketch="http://www.bohemiancoding.com/sketch/ns">
    <!-- Generator: Sketch 3.3.3 (12081) - http://www.bohemiancoding.com/sketch -->
    <title>icons/nav/map</title>
    <desc>Created with Sketch.</desc>
    <defs></defs>
    <g id="Icons" stroke="none" stroke-width="1" fill="none" fill-rule="evenodd" sketch:type="MSPage">
        <g id="icons/nav/map" sketch:type="MSArtboardGroup" fill="#FCFCFC">
            <g id="location-outline_treasure-map-21" sketch:type="MSLayerGroup" transform="translate(2.000000, 3.000000)">
                <path d="M30.7,1 L21,3.9 L11.3,4.4408921e-16 C11.2,0 10.9,0 10.7,0 L0.7,3 C0.3,3.2 0,3.6 0,4 L0,28 C0,28.3 0.1,28.6 0.4,28.8 C0.7,29 1,29 1.3,29 L11,26.1 L20.7,30 C20.8,30 20.9,30.1 21.1,30.1 L21.4,30.1 L31.4,27.1 C31.8,27 32.1,26.6 32.1,26.1 L32.1,2 C32.1,1.7 32,1.4 31.7,1.2 C31.3,1 31,1 30.7,1 L30.7,1 Z M30,25.3 L21,28 L11.3,24.1 C11.3,24 11.1,24 11,24 L10.7,24 L2,26.7 L2,4.7 L11,2 L20.7,5.9 C20.8,6 21.1,6 21.3,6 L30,3.3 L30,25.3 L30,25.3 Z" id="Shape" sketch:type="MSShapeGroup"></path>
                <path d="M20.3,12.3 C19.9,12.7 19.9,13.3 20.3,13.7 L21.6,15 L20.3,16.3 C19.9,16.7 19.9,17.3 20.3,17.7 C20.5,17.9 20.8,18 21,18 C21.2,18 21.5,17.9 21.7,17.7 L23,16.4 L24.3,17.7 C24.5,17.9 24.8,18 25,18 C25.2,18 25.5,17.9 25.7,17.7 C26.1,17.3 26.1,16.7 25.7,16.3 L24.4,15 L25.7,13.7 C26.1,13.3 26.1,12.7 25.7,12.3 C25.3,11.9 24.7,11.9 24.3,12.3 L23,13.6 L21.7,12.3 C21.3,11.9 20.7,11.9 20.3,12.3 L20.3,12.3 Z" id="Shape" sketch:type="MSShapeGroup"></path>
                <path d="M12,14 L11,14 C10.4,14 10,14.4 10,15 C10,15.6 10.4,16 11,16 L12,16 C12.6,16 13,15.6 13,15 C13,14.4 12.6,14 12,14 L12,14 Z" id="Shape" sketch:type="MSShapeGroup"></path>
                <path d="M7,14 L6,14 C5.4,14 5,14.4 5,15 C5,15.6 5.4,16 6,16 L7,16 C7.6,16 8,15.6 8,15 C8,14.4 7.6,14 7,14 L7,14 Z" id="Shape" sketch:type="MSShapeGroup"></path>
                <path d="M17,14 L16,14 C15.4,14 15,14.4 15,15 C15,15.6 15.4,16 16,16 L17,16 C17.6,16 18,15.6 18,15 C18,14.4 17.6,14 17,14 L17,14 Z" id="Shape" sketch:type="MSShapeGroup"></path>
            </g>
        </g>
    </g>
</svg>