<?xml version="1.0" encoding="UTF-8" standalone="no"?>
<svg width="36px" height="36px" viewBox="0 0 36 36" version="1.1" xmlns="http://www.w3.org/2000/svg" xmlns:xlink="http://www.w3.org/1999/xlink" xmlns:sketch="http://www.bohemiancoding.com/sketch/ns">
    <!-- Generator: Sketch 3.3.3 (12081) - http://www.bohemiancoding.com/sketch -->
    <title>icons/nav/medal</title>
    <desc>Created with Sketch.</desc>
    <defs></defs>
    <g id="Icons" stroke="none" stroke-width="1" fill="none" fill-rule="evenodd" sketch:type="MSPage">
        <g id="icons/nav/medal" sketch:type="MSArtboardGroup" fill="#FFFFFF">
            <g id="education-outline_award-55" sketch:type="MSLayerGroup" transform="translate(1.000000, 2.000000)">
                <path d="M26.8,0.4 C26.8,0.3 26.7,0.3 26.8,0.4 C26.7,0.3 26.6,0.2 26.6,0.2 L26.5,0.2 C26.4,0.2 26.4,0.2 26.3,0.1 C26.2,0.1 26.1,0.1 26.1,0 L26,0 L6,0 L5.9,0 C5.8,0 5.8,0 5.7,0.1 C5.6,0.1 5.6,0.1 5.5,0.2 L5.4,0.2 L5.3,0.3 C5.3,0.3 5.2,0.3 5.2,0.4 L1.2,5.4 C0.9,5.8 0.9,6.2 1.2,6.6 L8,16 C6.7,17.7 6,19.8 6,22 C6,27.5 10.5,32 16,32 C21.5,32 26,27.5 26,22 C26,19.7 25.2,17.7 24,16 L30.8,6.6 C31.1,6.2 31.1,5.7 30.8,5.4 L26.8,0.4 L26.8,0.4 Z M16,12 C15.6,12 15.2,12 14.9,12.1 L11.4,7 L20.7,7 L17.2,12.1 C16.8,12 16.4,12 16,12 L16,12 Z M22,5 L10,5 L7.9,2 L24.1,2 L22,5 L22,5 Z M5.9,2.7 L12.7,12.6 C11.4,13 10.3,13.7 9.3,14.6 L3.3,6 L5.9,2.7 L5.9,2.7 Z M16,30 C11.6,30 8,26.4 8,22 C8,17.6 11.6,14 16,14 C20.4,14 24,17.6 24,22 C24,26.4 20.4,30 16,30 L16,30 Z M22.6,14.5 C21.6,13.6 20.5,13 19.2,12.6 L26,2.7 L28.7,6 L22.6,14.5 L22.6,14.5 Z" id="Shape" sketch:type="MSShapeGroup"></path>
                <path d="M21.2,19.7 L18.3,19.3 L17,16.6 C16.8,16.2 16.4,16 16,16 C15.6,16 15.3,16.2 15.1,16.6 L13.8,19.2 L10.9,19.6 C10.5,19.7 10.2,19.9 10.1,20.3 C10,20.7 10.1,21.1 10.3,21.3 L12.4,23.4 L11.9,26.3 C11.8,26.7 12,27.1 12.3,27.3 C12.6,27.5 13,27.6 13.4,27.4 L16,26 L18.6,27.4 C18.7,27.5 18.9,27.5 19.1,27.5 C19.3,27.5 19.5,27.4 19.7,27.3 C20,27.1 20.2,26.7 20.1,26.3 L19.6,23.4 L21.7,21.3 C22,21 22.1,20.6 22,20.3 C21.8,20 21.5,19.7 21.2,19.7 L21.2,19.7 Z M17.8,22.3 C17.6,22.5 17.5,22.9 17.5,23.2 L17.7,24.6 L16.4,24 C16.3,23.9 16.1,23.9 15.9,23.9 C15.7,23.9 15.6,23.9 15.4,24 L14.1,24.7 L14.4,23.3 C14.5,23 14.4,22.6 14.1,22.4 L13.1,21.4 L14.6,21.2 C14.9,21.2 15.2,21 15.4,20.7 L16.1,19.4 L16.7,20.7 C16.8,21 17.1,21.2 17.4,21.3 L18.8,21.5 L17.8,22.3 L17.8,22.3 Z" id="Shape" sketch:type="MSShapeGroup"></path>
            </g>
        </g>
    </g>
</svg>