<?xml version="1.0" encoding="UTF-8" standalone="no"?>
<svg width="36px" height="36px" viewBox="0 0 36 36" version="1.1" xmlns="http://www.w3.org/2000/svg" xmlns:xlink="http://www.w3.org/1999/xlink" xmlns:sketch="http://www.bohemiancoding.com/sketch/ns">
    <!-- Generator: Sketch 3.3.3 (12081) - http://www.bohemiancoding.com/sketch -->
    <title>icons/nav/money-bag</title>
    <desc>Created with Sketch.</desc>
    <defs></defs>
    <g id="Icons" stroke="none" stroke-width="1" fill="none" fill-rule="evenodd" sketch:type="MSPage">
        <g id="icons/nav/money-bag" sketch:type="MSArtboardGroup" fill="#FFFFFF">
            <g id="business-outline_money-bag" sketch:type="MSLayerGroup" transform="translate(7.000000, 3.000000)">
                <path d="M1.1,27.1 C2.3,28.9 4.3,30 6.4,30 L15.7,30 C17.8,30 19.8,28.9 21,27.1 C22.2,25.3 22.4,23.1 21.5,21.2 L16.1,8 L18.9,1.4 C19,1.1 19,0.7 18.8,0.5 C18.6,0.2 18.3,0 18,0 L4,0 C3.7,0 3.4,0.2 3.2,0.4 C3,0.7 2.9,1.1 3.1,1.4 L5.9,8 L0.5,21.2 C-0.3,23.1 -0.1,25.4 1.1,27.1 L1.1,27.1 Z M16.5,2 L14.4,7 L12,7 L12,5 C12,4.4 11.6,4 11,4 C10.4,4 10,4.4 10,5 L10,7 L7.7,7 L5.6,2 L16.5,2 L16.5,2 Z M2.4,22 L7.7,9 L14.4,9 L19.7,22 C20.3,23.4 20.1,24.8 19.3,26.1 C18.5,27.3 17.1,28.1 15.7,28.1 L11,28.1 L6.4,28.1 C4.9,28.1 3.6,27.4 2.8,26.1 C1.9,24.8 1.8,23.3 2.4,22 L2.4,22 Z" id="Shape" sketch:type="MSShapeGroup"></path>
                <path d="M12,27 L12,24.9 C13.7,24.7 15,23.2 15,21.5 C15,19 12.7,18.4 11.2,18 C9.5,17.6 9,17.3 9,16.5 C9,15.7 9.7,15 10.5,15 L11.5,15 C12.3,15 13,15.7 13,16.5 C13,17.1 13.4,17.5 14,17.5 C14.6,17.5 15,17.1 15,16.5 C15,14.7 13.7,13.3 12,13.1 L12,11 C12,10.4 11.6,10 11,10 C10.4,10 10,10.4 10,11 L10,13.1 C8.3,13.3 7,14.8 7,16.5 C7,19 9.3,19.6 10.8,20 C12.5,20.4 13,20.7 13,21.5 C13,22.3 12.3,23 11.5,23 L11.2,23 L11,23 L10.8,23 L10.5,23 C9.7,23 9,22.3 9,21.5 C9,20.9 8.6,20.5 8,20.5 C7.4,20.5 7,20.9 7,21.5 C7,23.3 8.3,24.7 10,24.9 L10,27 C10,27.6 10.4,28 11,28 C11.6,28 12,27.6 12,27 L12,27 Z" id="Shape" sketch:type="MSShapeGroup"></path>
            </g>
        </g>
    </g>
</svg>