<?xml version="1.0" encoding="UTF-8" standalone="no"?>
<svg width="32px" height="32px" viewBox="0 0 32 32" version="1.1" xmlns="http://www.w3.org/2000/svg" xmlns:xlink="http://www.w3.org/1999/xlink" xmlns:sketch="http://www.bohemiancoding.com/sketch/ns">
    <!-- Generator: Sketch 3.3.3 (12081) - http://www.bohemiancoding.com/sketch -->
    <title>nav/profile</title>
    <desc>Created with Sketch.</desc>
    <defs></defs>
    <g id="Page-1" stroke="none" stroke-width="1" fill="none" fill-rule="evenodd" sketch:type="MSPage">
        <g id="nav/profile" sketch:type="MSArtboardGroup" stroke="#F6F6F6" stroke-width="1.2" stroke-linecap="round" stroke-linejoin="round">
            <path d="M27,31 C27,27.686 24.314,25 21,25 L11,25 C7.686,25 5,27.686 5,31" id="Stroke-225" sketch:type="MSShapeGroup"></path>
            <path d="M16,21 L16,21 C13.239,21 11,18.761 11,16 L11,13 C11,10.239 13.239,8 16,8 L16,8 C18.761,8 21,10.239 21,13 L21,16 C21,18.761 18.761,21 16,21 L16,21 L16,21 Z" id="Stroke-227" sketch:type="MSShapeGroup"></path>
            <path d="M31,31 L1,31 L1,1 L31,1 L31,31 L31,31 Z" id="Stroke-229" sketch:type="MSShapeGroup"></path>
        </g>
    </g>
</svg>