<?xml version="1.0" encoding="UTF-8" standalone="no"?>
<svg width="36px" height="36px" viewBox="0 0 36 36" version="1.1" xmlns="http://www.w3.org/2000/svg" xmlns:xlink="http://www.w3.org/1999/xlink" xmlns:sketch="http://www.bohemiancoding.com/sketch/ns">
    <!-- Generator: Sketch 3.3.3 (12081) - http://www.bohemiancoding.com/sketch -->
    <title>icons/nav/rocket</title>
    <desc>Created with Sketch.</desc>
    <defs></defs>
    <g id="Icons" stroke="none" stroke-width="1" fill="none" fill-rule="evenodd" sketch:type="MSPage">
        <g id="icons/nav/rocket" sketch:type="MSArtboardGroup" fill="#F6F6F6">
            <path d="M15.3037635,29.6415574 L6.35781004,20.6956039 L6.55647161,21.6676764 C6.61243007,21.5284693 6.73427466,21.2514806 6.92513987,20.8564909 C7.24773742,20.1888852 7.64570066,19.4425272 8.12208686,18.6371814 C9.48656149,16.3304943 11.2020333,14.0221777 13.2918354,11.8691412 C18.8345815,6.15867968 25.9516988,2.56688673 34.8422858,2.10277618 L33.896814,1.15299274 C33.3955034,9.98417601 29.809647,17.081904 24.1324555,22.6344607 C21.9778615,24.7417537 19.667916,26.4750885 17.3596104,27.8568422 C16.5536992,28.3392614 15.8068108,28.7427489 15.1387173,29.0702403 C14.7434027,29.2640187 14.4661507,29.3879011 14.3267498,29.4448991 L15.3037635,29.6415574 L15.3037635,29.6415574 Z M18.9147024,5.5302188 C13.8575385,3.35222766 7.92585168,4.43595899 3.96722095,8.39541944 C3.16729498,9.19534541 2.47759534,10.099454 1.88500355,11.1038618 C1.67642203,11.457395 1.73347589,11.9072676 2.02370634,12.1975404 L7.4439389,17.6185636 C7.79538511,17.9700611 8.36523358,17.9701027 8.71673106,17.6186565 C9.06822855,17.2672102 9.06827011,16.6973618 8.71682389,16.3458643 L3.29659134,10.924841 L3.43529413,12.0185196 C3.9530097,11.1410225 4.55070576,10.357519 5.24007981,9.66814492 C8.67305906,6.23444613 13.8170538,5.29462776 18.2027116,7.18341841 C18.65923,7.38002924 19.188696,7.16933247 19.3853068,6.712814 C19.5819176,6.25629554 19.3712208,5.72682963 18.9147024,5.5302188 L18.9147024,5.5302188 Z M28.7802774,17.7145887 C30.715648,22.1151366 29.7878841,27.3031005 26.3315388,30.7594458 C25.6418847,31.4490999 24.8583084,32.0467118 23.9806711,32.5640559 L25.0740984,32.7029807 L19.6056333,27.2345155 C19.2541614,26.8830437 18.684313,26.8830437 18.3328411,27.2345155 C17.9813693,27.5859874 17.9813693,28.1558359 18.3328411,28.5073077 L23.8013062,33.9757728 C24.0914842,34.2659507 24.54121,34.3230904 24.8947336,34.1146976 C25.8995451,33.5223876 26.8039325,32.8326365 27.604331,32.0322379 C31.5899026,28.0466664 32.6597159,22.0643759 30.4279645,16.9899323 C30.2278562,16.534936 29.696789,16.3283086 29.2417927,16.5284169 C28.7867965,16.7285252 28.580169,17.2595924 28.7802774,17.7145887 L28.7802774,17.7145887 Z M14.0309714,30.9143496 C14.287313,31.1706912 14.6724292,31.2482093 15.0079851,31.1110078 C15.1840336,31.0390255 15.4982494,30.8986267 15.9309896,30.6865028 C16.6429874,30.3374901 17.433915,29.9102115 18.2841134,29.401282 C20.7075495,27.950611 23.1293457,26.1333458 25.3910439,23.9212999 C31.3725711,18.0710887 35.1655179,10.5634526 35.6939208,1.25500726 C35.7242851,0.720104922 35.2834841,0.277293674 34.7484491,0.305223817 C25.3753274,0.794523871 17.8430382,4.59584143 12.0002173,10.6154577 C9.8054211,12.8766652 8.00603508,15.2978957 6.57284064,17.7207558 C6.07004266,18.5707515 5.64841204,19.3614963 5.30443711,20.0733419 C5.09535883,20.5060229 4.95714338,20.8202275 4.8863563,20.9963236 C4.75186823,21.3308877 4.83004709,21.7134253 5.08501787,21.9683961 L14.0309714,30.9143496 L14.0309714,30.9143496 Z" id="Shape" sketch:type="MSShapeGroup"></path>
            <path d="M18.6583775,14.1410426 C19.5419754,13.2574447 20.9749641,13.2574447 21.8585621,14.1410426 C22.74216,15.0246405 22.74216,16.4576293 21.8585621,17.3412272 C20.9749641,18.2248251 19.5419754,18.2248251 18.6583775,17.3412272 C17.7747796,16.4576293 17.7747796,15.0246405 18.6583775,14.1410426 L18.6583775,14.1410426 Z M17.3855853,12.8682504 C15.7990437,14.454792 15.7990437,17.0274777 17.3855853,18.6140193 C18.9721269,20.200561 21.5448126,20.200561 23.1313542,18.6140193 C24.7178958,17.0274777 24.7178958,14.454792 23.1313542,12.8682504 C21.5448126,11.2817088 18.9721269,11.2817088 17.3855853,12.8682504 L17.3855853,12.8682504 Z" id="Shape" sketch:type="MSShapeGroup"></path>
            <path d="M0.951911814,31.2378462 C0.85050106,32.1355048 0.837042782,33.07498 0.874115574,33.9341445 C0.880943879,34.092391 0.887905525,34.2088366 0.89283951,34.275458 C0.925764702,34.7200325 1.27918377,35.0735134 1.72375251,35.1065163 C1.79059911,35.1114787 1.90743536,35.1184812 2.06619505,35.1253499 C2.92529685,35.1625187 3.86443057,35.1491883 4.76171147,35.0479879 C6.13756135,34.8928118 7.18326251,34.5626645 7.8264519,33.9194752 C9.41299352,32.3329335 9.41299352,29.7602479 7.8264519,28.1737062 C6.23991028,26.5871646 3.6672246,26.5871646 2.08068298,28.1737062 C1.43757467,28.8168145 1.10730903,29.862315 0.951911814,31.2378462 Z M3.35347516,29.4464984 C4.23707307,28.5629005 5.67006181,28.5629005 6.55365973,29.4464984 C7.43725764,30.3300963 7.43725764,31.7630851 6.55365973,32.646683 C6.28210905,32.9182337 5.55840725,33.1467197 4.55997638,33.2593284 C3.77016942,33.3484073 2.91772327,33.3605072 2.14399873,33.3270322 C2.00450661,33.3209972 1.90604464,33.3150959 1.85701028,33.3114558 L2.68792328,34.1425141 C2.684306,34.0936715 2.67844074,33.9955649 2.67244215,33.8565471 C2.639055,33.0827976 2.65127099,32.2300421 2.74053405,31.4399113 C2.85330743,30.441674 3.08188144,29.7180921 3.35347516,29.4464984 L3.35347516,29.4464984 Z" id="Shape" sketch:type="MSShapeGroup"></path>
        </g>
    </g>
</svg>