<?xml version="1.0" encoding="UTF-8" standalone="no"?>
<svg width="36px" height="36px" viewBox="0 0 36 36" version="1.1" xmlns="http://www.w3.org/2000/svg" xmlns:xlink="http://www.w3.org/1999/xlink" xmlns:sketch="http://www.bohemiancoding.com/sketch/ns">
    <!-- Generator: Sketch 3.3.3 (12081) - http://www.bohemiancoding.com/sketch -->
    <title>icons/nav/scroll-data</title>
    <desc>Created with Sketch.</desc>
    <defs></defs>
    <g id="Icons" stroke="none" stroke-width="1" fill="none" fill-rule="evenodd" sketch:type="MSPage">
        <g id="icons/nav/scroll-data" sketch:type="MSArtboardGroup" fill="#FFFFFF">
            <g id="design-outline_paper-dev" sketch:type="MSLayerGroup" transform="translate(2.000000, 2.000000)">
                <path d="M31,25 L27,25 L27,4 C27,1.8 25.2,0 23,0 L4,0 C1.8,0 0,1.8 0,4 L0,6 C0,6.6 0.4,7 1,7 L6,7 L6,28 C6,30.2 7.8,32 10,32 L26,32 L28,32 C30.2,32 32,30.2 32,28 L32,26 C32,25.4 31.6,25 31,25 L31,25 Z M2,5 L2,4 C2,2.9 2.9,2 4,2 C5.1,2 6,2.9 6,4 L6,5 L2,5 L2,5 Z M8,28 L8,6 L8,4 C8,3.8 8,3.5 7.9,3.3 L7.9,3.1 C7.8,2.9 7.8,2.7 7.7,2.5 L7.7,2.5 C7.6,2.3 7.5,2.1 7.5,2 L23,2 C24.1,2 25,2.9 25,4 L25,25 L13,25 C12.4,25 12,25.4 12,26 L12,28 C12,29.1 11.1,30 10,30 C8.9,30 8,29.1 8,28 L8,28 Z M30,28 C30,29.1 29.1,30 28,30 L26,30 L13.5,30 C13.8,29.4 14,28.7 14,28 L14,27 L30,27 L30,28 L30,28 Z" id="Shape" sketch:type="MSShapeGroup"></path>
                <path d="M13.1179775,9.42752807 C13.1179775,8.91904989 13.5302859,8.50674153 14.0387641,8.50674153 C14.5472422,8.50674153 14.9595506,8.91904989 14.9595506,9.42752807 C14.9595506,9.93600626 14.5472422,10.3483146 14.0387641,10.3483146 C13.5302859,10.3483146 13.1179775,9.93600626 13.1179775,9.42752807 L13.1179775,9.42752807 L13.1179775,9.42752807 Z M11.611236,9.42752807 C11.611236,10.7681566 12.6981355,11.8550561 14.0387641,11.8550561 C15.3793926,11.8550561 16.4662921,10.7681566 16.4662921,9.42752807 C16.4662921,8.08689951 15.3793926,7 14.0387641,7 C12.6981355,7 11.611236,8.08689951 11.611236,9.42752807 Z M20.6516854,12.7758427 C20.6516854,12.2673645 21.0639937,11.8550561 21.5724719,11.8550561 C22.0809501,11.8550561 22.4932585,12.2673645 22.4932585,12.7758427 C22.4932585,13.2843209 22.0809501,13.6966292 21.5724719,13.6966292 C21.0639937,13.6966292 20.6516854,13.2843209 20.6516854,12.7758427 Z M19.1449439,12.7758427 C19.1449439,14.1164712 20.2318434,15.2033708 21.5724719,15.2033708 C22.9131005,15.2033708 24,14.1164712 24,12.7758427 C24,11.4352141 22.9131005,10.3483146 21.5724719,10.3483146 C20.2318434,10.3483146 19.1449439,11.4352141 19.1449439,12.7758427 Z M10.6067416,17.7983146 C10.6067416,17.2898364 11.0190499,16.8775281 11.5275281,16.8775281 C12.0360063,16.8775281 12.4483146,17.2898364 12.4483146,17.7983146 C12.4483146,18.3067928 12.0360063,18.7191011 11.5275281,18.7191011 C11.0190499,18.7191011 10.6067416,18.3067928 10.6067416,17.7983146 Z M9.10000002,17.7983146 C9.10000002,19.1389432 10.1868995,20.2258427 11.5275281,20.2258427 C12.8681567,20.2258427 13.9550562,19.1389432 13.9550562,17.7983146 C13.9550562,16.457686 12.8681567,15.3707865 11.5275281,15.3707865 C10.1868995,15.3707865 9.10000002,16.457686 9.10000002,17.7983146 Z M20.6516854,19.4724719 C20.6516854,18.9639937 21.0639937,18.5516854 21.5724719,18.5516854 C22.0809501,18.5516854 22.4932585,18.9639937 22.4932585,19.4724719 C22.4932585,19.9809501 22.0809501,20.3932584 21.5724719,20.3932584 C21.0639937,20.3932584 20.6516854,19.9809501 20.6516854,19.4724719 Z M17.239788,14.9474001 L19.7732834,17.8428235 C19.6997473,17.9239598 19.6316229,18.0100916 19.5694801,18.1006492 L13.2565883,17.6393623 C12.8416195,17.6090403 12.4806399,17.9208581 12.4503179,18.335827 C12.4199958,18.7507958 12.7318137,19.1117754 13.1467825,19.1420974 L19.1473075,19.5805594 L19.1473075,19.5805594 C19.2038587,20.8710368 20.2680632,21.9 21.5724719,21.9 C22.9131005,21.9 24,20.8131005 24,19.4724719 C24,18.4577579 23.3773274,17.5884025 22.4932584,17.2256818 L22.4932584,17.2256818 L22.4932584,14.45 C22.4932584,14.0339248 22.1559628,13.6966292 21.7398877,13.6966292 C21.3238125,13.6966292 20.9865169,14.0339248 20.9865169,14.45 L20.9865169,16.94125 L20.9865169,16.94125 L18.6325603,14.2510139 L20.2352323,13.449678 C20.6073812,13.2636035 20.7582244,12.811074 20.5721499,12.438925 C20.3860754,12.0667761 19.9335459,11.9159329 19.561397,12.1020074 L17.6071588,13.0791265 L15.442812,10.6055873 C15.1688246,10.2924588 14.6928731,10.2607287 14.3797446,10.5347161 C14.0666161,10.8087035 14.034886,11.284655 14.3088734,11.5977835 L16.2143864,13.7755127 L12.8647678,15.450322 C12.4926188,15.6363965 12.3417756,16.088926 12.5278501,16.4610749 C12.7139246,16.8332239 13.1664541,16.9840671 13.5386031,16.7979926 L17.239788,14.9474001 Z M12.2422384,16.362394 L13.9163957,11.3399221 C14.0479702,10.9451986 13.8346457,10.5185496 13.4399222,10.3869751 C13.0451986,10.2554006 12.6185497,10.468725 12.4869751,10.8634486 L10.8128178,15.8859205 C10.6812433,16.2806441 10.8945678,16.707293 11.2892913,16.8388676 C11.6840149,16.9704421 12.1106638,16.7571176 12.2422384,16.362394 Z" id="Shape" sketch:type="MSShapeGroup"></path>
            </g>
        </g>
    </g>
</svg>