<?xml version="1.0" encoding="UTF-8" standalone="no"?>
<svg width="36px" height="36px" viewBox="0 0 36 36" version="1.1" xmlns="http://www.w3.org/2000/svg" xmlns:xlink="http://www.w3.org/1999/xlink" xmlns:sketch="http://www.bohemiancoding.com/sketch/ns">
    <!-- Generator: Sketch 3.3.3 (12081) - http://www.bohemiancoding.com/sketch -->
    <title>icons/nav/scroll-design</title>
    <desc>Created with Sketch.</desc>
    <defs></defs>
    <g id="Icons" stroke="none" stroke-width="1" fill="none" fill-rule="evenodd" sketch:type="MSPage">
        <g id="icons/nav/scroll-design" sketch:type="MSArtboardGroup" fill="#FFFFFF">
            <g id="design-outline_paper-design" sketch:type="MSLayerGroup" transform="translate(2.000000, 2.000000)">
                <path d="M31,25 L27,25 L27,10.3 L30.1,7.2 C31.3,6 31.3,4 30.1,2.8 C29.2,1.9 27.7,1.7 26.6,2.2 C25.9,0.9 24.6,0 23,0 L4,0 C1.8,0 0,1.8 0,4 L0,6 C0,6.6 0.4,7 1,7 L6,7 L6,28 C6,30.2 7.8,32 10,32 L26,32 L28,32 C30.2,32 32,30.2 32,28 L32,26 C32,25.4 31.6,25 31,25 L31,25 Z M28.7,4.2 C29.1,4.6 29.1,5.3 28.7,5.8 L25.5,9 C25.4,9.1 25.2,9.2 25.2,9.3 L21.9,12.6 L20.3,11 L26.4,4.9 C26.7,4.8 26.9,4.6 27,4.3 L27.2,4.1 C27.5,3.8 28.2,3.8 28.7,4.2 L28.7,4.2 Z M2,5 L2,4 C2,2.9 2.9,2 4,2 C5.1,2 6,2.9 6,4 L6,5 L2,5 L2,5 Z M8,28 L8,6 L8,4 C8,3.8 8,3.5 7.9,3.3 L7.9,3.1 C7.8,2.9 7.8,2.7 7.7,2.5 L7.7,2.5 C7.6,2.3 7.5,2.1 7.5,2 L23,2 C23.9,2 24.7,2.7 24.9,3.5 L18.1,10.3 C17.7,10.7 17.7,11.3 18.1,11.7 L21.1,14.7 C21.3,14.9 21.6,15 21.8,15 C22,15 22.3,14.9 22.5,14.7 L24.9,12.3 L24.9,25 L13,25 C12.4,25 12,25.4 12,26 L12,28 C12,29.1 11.1,30 10,30 C8.9,30 8,29.1 8,28 L8,28 Z M30,28 C30,29.1 29.1,30 28,30 L26,30 L13.5,30 C13.8,29.4 14,28.7 14,28 L14,27 L30,27 L30,28 L30,28 Z" id="Shape" sketch:type="MSShapeGroup"></path>
                <path d="M15.8,19.8 C17.2,19.8 18.4,19.3 19.3,18.4 C20.7,17 20.7,14.6 19.3,13.2 C17.9,11.8 15.5,11.8 14.1,13.2 C13.1,14.2 13,15.3 13.1,16.1 C13.1,16.4 12.7,16.4 12.4,16.4 C12,16.4 11.6,16.7 11.5,17 C11.4,17.4 11.4,17.8 11.7,18.1 C12.7,19.2 14.2,19.8 15.8,19.8 L15.8,19.8 Z M15.1,16.1 C15.1,15.4 15.2,15 15.6,14.6 C16.2,14 17.3,14 18,14.6 C18.6,15.2 18.7,16.3 18,17 C17.2,17.8 15.8,18 14.6,17.6 C14.9,17.2 15.1,16.7 15.1,16.1 L15.1,16.1 Z" id="Shape" sketch:type="MSShapeGroup"></path>
            </g>
        </g>
    </g>
</svg>