<?xml version="1.0" encoding="UTF-8" standalone="no"?>
<svg width="36px" height="36px" viewBox="0 0 36 36" version="1.1" xmlns="http://www.w3.org/2000/svg" xmlns:xlink="http://www.w3.org/1999/xlink" xmlns:sketch="http://www.bohemiancoding.com/sketch/ns">
    <!-- Generator: Sketch 3.3.3 (12081) - http://www.bohemiancoding.com/sketch -->
    <title>icons/nav/scroll-develop</title>
    <desc>Created with Sketch.</desc>
    <defs></defs>
    <g id="Icons" stroke="none" stroke-width="1" fill="none" fill-rule="evenodd" sketch:type="MSPage">
        <g id="icons/nav/scroll-develop" sketch:type="MSArtboardGroup" fill="#FFFFFF">
            <g id="design-outline_paper-dev" sketch:type="MSLayerGroup" transform="translate(2.000000, 2.000000)">
                <path d="M31,25 L27,25 L27,4 C27,1.8 25.2,0 23,0 L4,0 C1.8,0 0,1.8 0,4 L0,6 C0,6.6 0.4,7 1,7 L6,7 L6,28 C6,30.2 7.8,32 10,32 L26,32 L28,32 C30.2,32 32,30.2 32,28 L32,26 C32,25.4 31.6,25 31,25 L31,25 Z M2,5 L2,4 C2,2.9 2.9,2 4,2 C5.1,2 6,2.9 6,4 L6,5 L2,5 L2,5 Z M8,28 L8,6 L8,4 C8,3.8 8,3.5 7.9,3.3 L7.9,3.1 C7.8,2.9 7.8,2.7 7.7,2.5 L7.7,2.5 C7.6,2.3 7.5,2.1 7.5,2 L23,2 C24.1,2 25,2.9 25,4 L25,25 L13,25 C12.4,25 12,25.4 12,26 L12,28 C12,29.1 11.1,30 10,30 C8.9,30 8,29.1 8,28 L8,28 Z M30,28 C30,29.1 29.1,30 28,30 L26,30 L13.5,30 C13.8,29.4 14,28.7 14,28 L14,27 L30,27 L30,28 L30,28 Z" id="Shape" sketch:type="MSShapeGroup"></path>
                <path d="M14,19 C14.3,19 14.5,18.9 14.7,18.7 C15.1,18.3 15.1,17.7 14.7,17.3 L13.4,16 L14.7,14.7 C15.1,14.3 15.1,13.7 14.7,13.3 C14.3,12.9 13.7,12.9 13.3,13.3 L11.3,15.3 C10.9,15.7 10.9,16.3 11.3,16.7 L13.3,18.7 C13.5,18.9 13.7,19 14,19 L14,19 Z" id="Shape" sketch:type="MSShapeGroup"></path>
                <path d="M19.3,18.7 C19.5,18.9 19.8,19 20,19 C20.2,19 20.5,18.9 20.7,18.7 L22.7,16.7 C23.1,16.3 23.1,15.7 22.7,15.3 L20.7,13.3 C20.3,12.9 19.7,12.9 19.3,13.3 C18.9,13.7 18.9,14.3 19.3,14.7 L20.6,16 L19.3,17.3 C18.9,17.7 18.9,18.3 19.3,18.7 L19.3,18.7 Z" id="Shape" sketch:type="MSShapeGroup"></path>
            </g>
        </g>
    </g>
</svg>