<?xml version="1.0" encoding="UTF-8" standalone="no"?>
<svg width="36px" height="36px" viewBox="0 0 36 36" version="1.1" xmlns="http://www.w3.org/2000/svg" xmlns:xlink="http://www.w3.org/1999/xlink" xmlns:sketch="http://www.bohemiancoding.com/sketch/ns">
    <!-- Generator: Sketch 3.3.3 (12081) - http://www.bohemiancoding.com/sketch -->
    <title>icons/nav/shake-hands</title>
    <desc>Created with Sketch.</desc>
    <defs></defs>
    <g id="Icons" stroke="none" stroke-width="1" fill="none" fill-rule="evenodd" sketch:type="MSPage">
        <g id="icons/nav/shake-hands" sketch:type="MSArtboardGroup" fill="#FCFCFC">
            <g id="business-outline_handshake" sketch:type="MSLayerGroup" transform="translate(4.000000, 4.000000)">
                <path d="M1.5,14.6 C1,15.1 0.7,15.8 0.7,16.5 C0.7,17.2 1,18 1.5,18.5 C2,19 2.6,19.2 3.2,19.3 C3.3,19.9 3.5,20.5 4,21 C4.5,21.5 5.1,21.7 5.7,21.8 C5.8,22.4 6,23 6.5,23.5 C7,24 7.6,24.2 8.2,24.3 C8.3,24.9 8.5,25.5 9,26 C9.5,26.5 10.2,26.8 10.9,26.8 C11.5,26.8 12.2,26.6 12.6,26.2 L13.7,27.3 C14.2,27.8 14.9,28.1 15.6,28.1 C16.3,28.1 17,27.8 17.5,27.3 C18,26.8 18.2,26.2 18.3,25.6 C18.9,25.5 19.5,25.3 20,24.8 C20.5,24.3 20.7,23.7 20.8,23.1 C21.4,23 22,22.8 22.5,22.3 C23,21.8 23.2,21.2 23.3,20.6 C23.9,20.5 24.5,20.3 25,19.8 C26,18.8 26.1,17.2 25.2,16.2 C28.4,12.3 28.3,6.6 24.7,3 C22.9,1 20.5,0 17.9,0 C16.5,0 15.2,0.3 14,0.8 C10.3,-0.7 6,0 3.2,2.9 C0.1,6 -0.5,10.8 1.5,14.6 L1.5,14.6 L1.5,14.6 Z M2.7,16.6 C2.7,16.4 2.8,16.2 2.9,16.1 L4.8,14.2 C5,14 5.1,14 5.3,14 C5.5,14 5.7,14.1 5.8,14.2 C5.9,14.3 6,14.5 6,14.7 C6,14.9 5.9,15.1 5.8,15.2 L4,17.1 C3.7,17.4 3.2,17.4 2.9,17.1 C2.8,17 2.7,16.8 2.7,16.6 L2.7,16.6 Z M5.4,18.5 L7.3,16.6 C7.4,16.5 7.6,16.4 7.8,16.4 C8,16.4 8.2,16.5 8.3,16.6 C8.6,16.9 8.6,17.4 8.3,17.7 L6.4,19.6 C6.1,19.9 5.6,19.9 5.3,19.6 C5.1,19.3 5.1,18.8 5.4,18.5 L5.4,18.5 Z M7.7,21.5 C7.7,21.3 7.8,21.1 7.9,21 L9.8,19.1 C9.9,19 10.1,18.9 10.3,18.9 C10.5,18.9 10.7,19 10.8,19.1 C10.9,19.2 11,19.4 11,19.6 C11,19.8 10.9,20 10.8,20.1 L9,22.1 C8.7,22.4 8.2,22.4 7.9,22.1 C7.8,21.9 7.7,21.7 7.7,21.5 L7.7,21.5 Z M10.4,24.5 C10.3,24.4 10.2,24.2 10.2,24 C10.2,23.8 10.3,23.6 10.4,23.5 L12.3,21.6 C12.4,21.5 12.6,21.4 12.8,21.4 C13,21.4 13.2,21.5 13.3,21.6 C13.6,21.9 13.6,22.4 13.3,22.7 L12,24 L12,24 L11.5,24.5 C11.2,24.8 10.7,24.8 10.4,24.5 L10.4,24.5 Z M16.2,25.8 C15.9,26.1 15.4,26.1 15.1,25.8 L14,24.7 L14.6,24.1 C14.7,24 14.9,23.8 15,23.6 L16.1,24.7 C16.2,24.8 16.3,25 16.3,25.2 C16.4,25.4 16.4,25.6 16.2,25.8 L16.2,25.8 Z M23.4,4.3 C26.1,7 26.3,11.5 23.9,14.6 L19.7,10.2 C20.1,10 20.6,9.7 20.9,9.3 C21.3,8.9 21.3,8.3 20.9,7.9 C20.5,7.5 19.9,7.5 19.5,7.9 C17,10.4 12.1,7.7 12.1,7.7 C11.7,7.5 11.2,7.6 10.9,7.9 C9.5,9.3 8.2,9.5 7.2,9.4 L12.3,4.3 C13.9,2.8 15.8,2 17.9,2 C20,2 21.9,2.8 23.4,4.3 L23.4,4.3 Z M4.6,4.3 C6.5,2.4 9.1,1.7 11.7,2.2 C11.5,2.4 11.2,2.6 11,2.9 L4.8,9.1 C4.6,9.3 4.5,9.6 4.5,9.9 C4.5,10.2 4.7,10.5 4.9,10.6 C6.1,11.4 9,12.1 11.8,9.7 C12.9,10.2 15.3,11.1 17.6,10.8 L23.7,17.2 C24,17.5 24,18 23.7,18.3 C23.4,18.6 22.9,18.6 22.6,18.3 L22.6,18.3 L20.4,16.1 C20,15.7 19.4,15.7 19,16.1 C18.6,16.5 18.6,17.1 19,17.5 L21.2,19.7 C21.3,19.8 21.4,20 21.4,20.2 C21.4,20.4 21.3,20.6 21.2,20.7 C20.9,21 20.4,21 20.1,20.7 L20.1,20.7 L17.9,18.5 C17.5,18.1 16.9,18.1 16.5,18.5 C16.1,18.9 16.1,19.5 16.5,19.9 L18.7,22.1 C19,22.4 19,22.9 18.7,23.2 C18.4,23.5 17.9,23.5 17.6,23.2 L15.2,20.8 C15.1,20.6 14.9,20.3 14.7,20.1 C14.2,19.6 13.6,19.4 13,19.3 C12.9,18.7 12.7,18 12.2,17.6 C11.7,17.1 11.1,16.9 10.5,16.8 C10.4,16.2 10.2,15.6 9.7,15.1 C9.2,14.6 8.6,14.4 8,14.3 C7.9,13.7 7.7,13 7.2,12.6 C6.2,11.6 4.3,11.6 3.3,12.6 L3,12.9 C1.7,10.2 2.3,6.6 4.6,4.3 L4.6,4.3 Z" id="Shape" sketch:type="MSShapeGroup"></path>
            </g>
        </g>
    </g>
</svg>