<?xml version="1.0" encoding="UTF-8" standalone="no"?>
<svg width="36px" height="36px" viewBox="0 0 36 36" version="1.1" xmlns="http://www.w3.org/2000/svg" xmlns:xlink="http://www.w3.org/1999/xlink" xmlns:sketch="http://www.bohemiancoding.com/sketch/ns">
    <!-- Generator: Sketch 3.3.3 (12081) - http://www.bohemiancoding.com/sketch -->
    <title>icons/nav/srms</title>
    <desc>Created with Sketch.</desc>
    <defs></defs>
    <g id="Icons" stroke="none" stroke-width="1" fill="none" fill-rule="evenodd" sketch:type="MSPage">
        <g id="icons/nav/srms" sketch:type="MSArtboardGroup" fill="#FFFFFF">
            <g id="design-outline_note-code" sketch:type="MSLayerGroup" transform="translate(2.000000, 3.000000)">
                <path d="M9.9,26 L21.6,30.9 C21.7,31 21.9,31 22,31 C22.1,31 22.3,31 22.4,30.9 L31.4,26.9 C31.8,26.7 32,26.4 32,26 L32,3 C32,2.4 31.6,2 31,2 L22,2 L22,1 C22,0.4 21.6,0 21,0 L11,0 C10.4,0 10,0.4 10,1 L10,2 L1,2 C0.4,2 0,2.4 0,3 L0,27 C0,27.3 0.1,27.6 0.4,27.8 C0.6,28 0.9,28 1.2,28 L9.9,26 L9.9,26 Z M12,2 L20,2 L20,5 L12,5 L12,2 L12,2 Z M2,4 L10,4 L10,6 C10,6.6 10.4,7 11,7 L21,7 C21.6,7 22,6.6 22,6 L22,4 L30,4 L30,25.4 L22,29 L10.4,24.2 C10.2,24 10,24 9.8,24 L2,25.8 L2,4 L2,4 Z" id="Shape" sketch:type="MSShapeGroup"></path>
                <path d="M11,19 C11.3,19 11.5,18.9 11.7,18.7 C12.1,18.3 12.1,17.7 11.7,17.3 L10.4,16 L11.7,14.7 C12.1,14.3 12.1,13.7 11.7,13.3 C11.3,12.9 10.7,12.9 10.3,13.3 L8.3,15.3 C7.9,15.7 7.9,16.3 8.3,16.7 L10.3,18.7 C10.5,18.9 10.7,19 11,19 L11,19 Z" id="Shape" sketch:type="MSShapeGroup"></path>
                <path d="M20.3,18.7 C20.5,18.9 20.8,19 21,19 C21.2,19 21.5,18.9 21.7,18.7 L23.7,16.7 C24.1,16.3 24.1,15.7 23.7,15.3 L21.7,13.3 C21.3,12.9 20.7,12.9 20.3,13.3 C19.9,13.7 19.9,14.3 20.3,14.7 L21.6,16 L20.3,17.3 C19.9,17.7 19.9,18.3 20.3,18.7 L20.3,18.7 Z" id="Shape" sketch:type="MSShapeGroup"></path>
                <path d="M13.6,20.9 C13.7,21 13.8,21 14,21 C14.4,21 14.7,20.8 14.9,20.4 L18.9,12.4 C19.1,11.9 18.9,11.3 18.5,11.1 C18,10.9 17.4,11.1 17.2,11.5 L13.2,19.5 C12.9,20 13.1,20.6 13.6,20.9 L13.6,20.9 Z" id="Shape" sketch:type="MSShapeGroup"></path>
            </g>
        </g>
    </g>
</svg>