<?xml version="1.0" encoding="UTF-8" standalone="no"?>
<svg width="36px" height="36px" viewBox="0 0 36 36" version="1.1" xmlns="http://www.w3.org/2000/svg" xmlns:xlink="http://www.w3.org/1999/xlink" xmlns:sketch="http://www.bohemiancoding.com/sketch/ns">
    <!-- Generator: Sketch 3.3.3 (12081) - http://www.bohemiancoding.com/sketch -->
    <title>icons/nav/statistics</title>
    <desc>Created with Sketch.</desc>
    <defs></defs>
    <g id="Icons" stroke="none" stroke-width="1" fill="none" fill-rule="evenodd" sketch:type="MSPage">
        <g id="icons/nav/statistics" sketch:type="MSArtboardGroup" fill="#FFFFFF">
            <g id="business-outline_chart-bar-33" sketch:type="MSLayerGroup" transform="translate(4.000000, 3.000000)">
                <path d="M11,17 C10.4,17 10,17.4 10,18 L10,30 C10,30.6 10.4,31 11,31 L17,31 C17.6,31 18,30.6 18,30 L18,18 C18,17.4 17.6,17 17,17 L11,17 L11,17 Z M16,29 L12,29 L12,19 L16,19 L16,29 L16,29 Z" id="Shape" sketch:type="MSShapeGroup"></path>
                <path d="M0,24 L0,30 C0,30.6 0.4,31 1,31 L7,31 C7.6,31 8,30.6 8,30 L8,24 C8,23.4 7.6,23 7,23 L1,23 C0.4,23 0,23.4 0,24 L0,24 Z M2,25 L6,25 L6,29 L2,29 L2,25 L2,25 Z" id="Shape" sketch:type="MSShapeGroup"></path>
                <path d="M20,12 L20,30 C20,30.6 20.4,31 21,31 L27,31 C27.6,31 28,30.6 28,30 L28,12 C28,11.4 27.6,11 27,11 L21,11 C20.4,11 20,11.4 20,12 L20,12 Z M22,13 L26,13 L26,29 L22,29 L22,13 L22,13 Z" id="Shape" sketch:type="MSShapeGroup"></path>
                <path d="M3.3,11.7 C3.7,12.1 4.3,12.1 4.7,11.7 L9,7.4 L13.3,11.7 C13.5,11.9 13.8,12 14,12 C14.2,12 14.5,11.9 14.7,11.7 L23,3.4 L23,7 C23,7.6 23.4,8 24,8 C24.6,8 25,7.6 25,7 L25,1 C25,0.9 25,0.7 24.9,0.6 C24.8,0.4 24.6,0.2 24.4,0.1 C24.3,0 24.1,0 24,0 L18,0 C17.4,0 17,0.4 17,1 C17,1.6 17.4,2 18,2 L21.6,2 L14,9.6 L9.7,5.3 C9.3,4.9 8.7,4.9 8.3,5.3 L3.3,10.3 C2.9,10.7 2.9,11.3 3.3,11.7 L3.3,11.7 Z" id="Shape" sketch:type="MSShapeGroup"></path>
            </g>
        </g>
    </g>
</svg>