<?xml version="1.0" encoding="UTF-8" standalone="no"?>
<svg width="32px" height="32px" viewBox="0 0 32 32" version="1.1" xmlns="http://www.w3.org/2000/svg" xmlns:xlink="http://www.w3.org/1999/xlink">
    <!-- Generator: Sketch 39.1 (31720) - http://www.bohemiancoding.com/sketch -->
    <title>nav/tco-generic</title>
    <desc>Created with Sketch.</desc>
    <defs></defs>
    <g id="Page-1" stroke="none" stroke-width="1" fill="none" fill-rule="evenodd">
        <g id="nav/tco-generic" fill="#FFFFFF">
            <g id="Group" transform="translate(0.000000, 7.000000)">
                <path d="M4,2 L2,2 L2,16 L4,16 L4,18 L0,18 L0,0 L4,0 L4,2 Z M28,0 L32,0 L32,18 L28,18 L28,16 L30,16 L30,2 L28,2 L28,0 Z" id="[-]"></path>
                <path d="M13.215775,15 L11.32515,15 L11.32515,5.8671875 L8.53608751,6.8203125 L8.53608751,5.21875 L12.9735875,3.5859375 L13.215775,3.5859375 L13.215775,15 Z M23.8971072,4.6796875 L19.3502322,15 L17.3580447,15 L21.8971072,5.1484375 L16.0142947,5.1484375 L16.0142947,3.625 L23.8971072,3.625 L23.8971072,4.6796875 Z" id="17"></path>
            </g>
        </g>
    </g>
</svg>