<?xml version="1.0" encoding="UTF-8" standalone="no"?>
<svg width="32px" height="32px" viewBox="0 0 32 32" version="1.1" xmlns="http://www.w3.org/2000/svg" xmlns:xlink="http://www.w3.org/1999/xlink" xmlns:sketch="http://www.bohemiancoding.com/sketch/ns">
    <!-- Generator: Sketch 3.3.3 (12081) - http://www.bohemiancoding.com/sketch -->
    <title>nav/track-design</title>
    <desc>Created with Sketch.</desc>
    <defs></defs>
    <g id="Page-1" stroke="none" stroke-width="1" fill="none" fill-rule="evenodd" sketch:type="MSPage">
        <g id="nav/track-design" sketch:type="MSArtboardGroup" stroke="#F6F6F6" stroke-width="1.2" stroke-linecap="round" stroke-linejoin="round">
            <path d="M22.1111,4.3333 L27.666656,9.888856" id="Stroke-77" sketch:type="MSShapeGroup"></path>
            <path d="M14.999956,22.49997 L9.4444,16.94441 L23.77773,2.666633 C25.31218,1.1321889 27.79884,1.1321889 29.33329,2.666633 C30.86773,4.201078 30.86773,6.687744 29.33329,8.222189 L14.999956,22.49997 L14.999956,22.49997 Z" id="Stroke-79" sketch:type="MSShapeGroup"></path>
            <path d="M9.071578,23.048641 C7.384911,21.3619751 4.6638,21.3497529 2.9938,23.019752 C1.927133,24.086419 1.7838,25.410863 1.796022,26.518641 C1.808244,27.613086 1.026022,28.613086 -0.8862,28.645308 C1.799356,31.329752 6.476022,31.750863 9.100467,29.126419 C10.86936,27.35753 10.60824,24.585308 9.071578,23.048641 L9.071578,23.048641 L9.071578,23.048641 Z" id="Stroke-81" sketch:type="MSShapeGroup"></path>
            <path d="M12.111133,4.3333 L8.7778,7.666633" id="Stroke-83" sketch:type="MSShapeGroup"></path>
            <path d="M27.666633,19.8889 L24.3333,23.222233" id="Stroke-85" sketch:type="MSShapeGroup"></path>
            <path d="M18.9007,26.678402 C19.3235889,27.10129 19.8706222,27.648323 20.432469,28.21017 C21.784481,29.56218 23.222256,30.99996 23.222256,30.99996 L31.00003,23.222176 C31.00003,23.222176 26.273076,18.1641053 26.05744,17.9398" id="Stroke-87" sketch:type="MSShapeGroup"></path>
            <path d="M14.13171,6.340149 L8.777777,1 L1,8.777778 C1,8.777778 2.727478,10.505257 5.196562,12.97434" id="Stroke-89" sketch:type="MSShapeGroup"></path>
        </g>
    </g>
</svg>