<?xml version="1.0" encoding="UTF-8" standalone="no"?>
<svg width="36px" height="36px" viewBox="0 0 36 36" version="1.1" xmlns="http://www.w3.org/2000/svg" xmlns:xlink="http://www.w3.org/1999/xlink" xmlns:sketch="http://www.bohemiancoding.com/sketch/ns">
    <!-- Generator: Sketch 3.3.3 (12081) - http://www.bohemiancoding.com/sketch -->
    <title>icons/nav/users</title>
    <desc>Created with Sketch.</desc>
    <defs></defs>
    <g id="Icons" stroke="none" stroke-width="1" fill="none" fill-rule="evenodd" sketch:type="MSPage">
        <g id="icons/nav/users" sketch:type="MSArtboardGroup" fill="#FFFFFF">
            <path d="M32.1,18.3 L27.5,15.4 C29,14.1 30,12.2 30,10 L30,9 C30,5.1 26.9,2 23,2 C19.1,2 16,5.1 16,9 L16,10 C16,12.2 17,14.1 18.5,15.4 L17.3,16.1 C16.2,13.7 13.8,12 11,12 C7.1,12 4,15.1 4,19 L4,20 C4,22 4.8,23.8 6.2,25.1 L3.5,27.4 C2.5,28.1 2,29.2 2,30.4 L2,33 C2,33.6 2.4,34 3,34 L19,34 L33,34 C33.6,34 34,33.6 34,33 L34,21.7 C34,20.3 33.3,19 32.1,18.3 L32.1,18.3 Z M18,10 L18,9 C18,6.2 20.2,4 23,4 C25.8,4 28,6.2 28,9 L28,10 C28,12.8 25.8,15 23,15 C20.2,15 18,12.8 18,10 L18,10 Z M6,20 L6,19 C6,16.2 8.2,14 11,14 C13.8,14 16,16.2 16,19 L16,20 C16,22.8 13.8,25 11,25 C8.2,25 6,22.8 6,20 L6,20 Z M4,30.4 C4,29.8 4.3,29.2 4.7,28.9 L7.9,26.3 C8.8,26.7 9.9,27 11,27 C12.1,27 13.2,26.7 14.1,26.3 L17.3,28.9 C17.8,29.3 18,29.8 18,30.4 L18,32 L4,32 L4,30.4 L4,30.4 Z M32,32 L20,32 L20,30.4 C20,29.2 19.5,28.1 18.5,27.3 L15.8,25 C17.2,23.8 18,22 18,20 L18,19 C18,18.7 18,18.4 17.9,18.1 L20.4,16.5 C21.2,16.8 22.1,17 23,17 C23.9,17 24.8,16.8 25.6,16.5 L31.1,20 C31.7,20.4 32,21 32,21.7 L32,32 L32,32 Z" id="Shape" sketch:type="MSShapeGroup"></path>
        </g>
    </g>
</svg>