<?xml version="1.0" encoding="UTF-8" standalone="no"?>
<svg width="32px" height="32px" viewBox="0 0 32 32" version="1.1" xmlns="http://www.w3.org/2000/svg" xmlns:xlink="http://www.w3.org/1999/xlink" xmlns:sketch="http://www.bohemiancoding.com/sketch/ns">
    <!-- Generator: Sketch 3.3.3 (12081) - http://www.bohemiancoding.com/sketch -->
    <title>nav/wallet</title>
    <desc>Created with Sketch.</desc>
    <defs></defs>
    <g id="Page-1" stroke="none" stroke-width="1" fill="none" fill-rule="evenodd" sketch:type="MSPage">
        <g id="nav/wallet" sketch:type="MSArtboardGroup" stroke="#F6F6F6" stroke-width="1.2" stroke-linecap="round" stroke-linejoin="round">
            <path d="M29.8571429,14.8570357 L29.8571429,6.28560714 L4.14285714,6.28560714 C2.95892857,6.28560714 2,5.32667857 2,4.14275 L2,25.5713214 C2,27.9381071 3.91892857,29.8570357 6.28571429,29.8570357 L29.8571429,29.8570357 L29.8571429,21.2856071" id="Stroke-65" sketch:type="MSShapeGroup"></path>
            <path d="M24.5,6.28571429 L24.5,2 L4.14285714,2 C2.95892857,2 2,2.95892857 2,4.14285714 C2,5.32678571 2.95892857,6.28571429 4.14285714,6.28571429" id="Stroke-67" sketch:type="MSShapeGroup"></path>
            <path d="M32,21.2857143 L24.5,21.2857143 C22.7246429,21.2857143 21.2857143,19.8467857 21.2857143,18.0714286 C21.2857143,16.2960714 22.7246429,14.8571429 24.5,14.8571429 L32,14.8571429 L32,21.2857143 L32,21.2857143 Z" id="Stroke-69" sketch:type="MSShapeGroup"></path>
            <path d="M26.6428571,18.0714286 L27.7142857,18.0714286" id="Stroke-71" sketch:type="MSShapeGroup"></path>
        </g>
    </g>
</svg>