<?xml version="1.0" encoding="UTF-8" standalone="no"?>
<svg width="60px" height="60px" viewBox="0 0 60 60" version="1.1" xmlns="http://www.w3.org/2000/svg" xmlns:xlink="http://www.w3.org/1999/xlink" xmlns:sketch="http://www.bohemiancoding.com/sketch/ns">
    <!-- Generator: Sketch 3.3.3 (12081) - http://www.bohemiancoding.com/sketch -->
    <title>icons/skills/id 124</title>
    <desc>Created with Sketch.</desc>
    <defs></defs>
    <g id="Page-1" stroke="none" stroke-width="1" fill="none" fill-rule="evenodd" sketch:type="MSPage">
        <g id="icons/skills/id-124" sketch:type="MSArtboardGroup">
            <g id="backbonejs-original" sketch:type="MSLayerGroup" transform="translate(6.000000, 0.000000)">
                <path d="M0.312580645,0.339193548 L0.312580645,32.4222581 L24.1930645,46.0345161 L24.1930645,36.7814516 L8.21709677,27.675 L8.21709677,13.3708065 L24.1930645,22.4777419 L24.1930645,13.9519355 L0.312580645,0.339193548 L0.312580645,0.339193548 Z" id="Shape" fill="#002A41" sketch:type="MSShapeGroup"></path>
                <path d="M48.0740323,0.339193548 L48.0740323,32.4222581 L24.1935484,46.0345161 L24.1935484,36.7814516 L40.1690323,27.675 L40.1690323,13.3708065 L24.1935484,22.4777419 L24.1935484,13.9519355 L48.0740323,0.339193548 L48.0740323,0.339193548 Z" id="Shape" fill="#0071B5" sketch:type="MSShapeGroup"></path>
                <path d="M0.312580645,59.6627419 L0.312580645,27.5796774 L24.1930645,13.9664516 L24.1930645,23.2204839 L8.21709677,32.3264516 L8.21709677,45.9033871 L24.1930645,36.7969355 L24.1930645,46.0504839 L0.312580645,59.6632258 L0.312580645,59.6627419 Z" id="Shape" fill="#0071B5" sketch:type="MSShapeGroup"></path>
                <path d="M48.0740323,59.6627419 L48.0740323,27.5796774 L24.1935484,13.9664516 L24.1935484,23.2204839 L40.1690323,32.3264516 L40.1690323,45.9033871 L24.1935484,36.7969355 L24.1935484,46.0504839 L48.0740323,59.6632258 L48.0740323,59.6627419 Z" id="Shape" fill="#002A41" sketch:type="MSShapeGroup"></path>
            </g>
        </g>
    </g>
</svg>