<?xml version="1.0" encoding="UTF-8" standalone="no"?>
<svg width="64px" height="64px" viewBox="0 0 64 64" version="1.1" xmlns="http://www.w3.org/2000/svg" xmlns:xlink="http://www.w3.org/1999/xlink" xmlns:sketch="http://www.bohemiancoding.com/sketch/ns">
    <!-- Generator: Sketch 3.4.2 (15857) - http://www.bohemiancoding.com/sketch -->
    <title>icons/skills/id-191</title>
    <desc>Created with Sketch.</desc>
    <defs></defs>
    <g id="Tools" stroke="none" stroke-width="1" fill="none" fill-rule="evenodd" sketch:type="MSPage">
        <g id="icons/skills/id-191" sketch:type="MSArtboardGroup" fill="#F34F29">
            <path d="M60.8681285,29.3272303 L34.6714032,3.13145556 C33.1637464,1.62284815 30.7168935,1.62284815 29.2068602,3.13145556 L23.7675082,8.57175817 L30.6679374,15.4721874 C32.2720805,14.9308189 34.1105472,15.2939493 35.3886334,16.5720354 C36.6733737,17.8582017 37.0336523,19.7123534 36.4789753,21.3217247 L43.1293959,27.9726206 C44.738292,27.4179436 46.5952955,27.7763211 47.8795605,29.0634379 C49.6762007,30.8586522 49.6762007,33.7689242 47.8795605,35.5650891 C46.0829203,37.3617293 43.173599,37.3617293 41.3760082,35.5650891 C40.0252009,34.2133312 39.6910638,32.2289469 40.3754982,30.5644405 L34.1737624,24.3627047 L34.1728118,40.6850384 C34.6110399,40.9013006 35.024077,41.190284 35.3891087,41.5538898 C37.1847983,43.3491041 37.1847983,46.2584255 35.3891087,48.0574422 C33.5929437,49.8526565 30.6817212,49.8526565 28.8874575,48.0574422 C27.0917679,46.2589008 27.0917679,43.3495794 28.8874575,41.5538898 C29.3313892,41.1104334 29.844715,40.7753457 30.3927378,40.5510033 L30.3927378,24.0775237 C29.844715,23.8531813 29.3323398,23.5204702 28.8874575,23.0741619 C27.5271442,21.7147992 27.1996613,19.7185323 27.8974042,18.0473717 L21.0944117,11.2443793 L3.13181204,29.2060284 C1.62272932,30.7160617 1.62272932,33.1629146 3.13181204,34.6719973 L29.3290127,60.8677721 C30.8376201,62.3763795 33.2835224,62.3763795 34.7945063,60.8677721 L60.8686038,34.7936745 C62.3772113,33.2841165 62.3772113,30.8358377 60.8681285,29.3272303 L60.8681285,29.3272303 Z" id="Shape" sketch:type="MSShapeGroup"></path>
        </g>
    </g>
</svg>