<?xml version="1.0" encoding="UTF-8" standalone="no"?>
<svg width="60px" height="60px" viewBox="0 0 60 60" version="1.1" xmlns="http://www.w3.org/2000/svg" xmlns:xlink="http://www.w3.org/1999/xlink" xmlns:sketch="http://www.bohemiancoding.com/sketch/ns">
    <!-- Generator: Sketch 3.3.3 (12081) - http://www.bohemiancoding.com/sketch -->
    <title>icons/skills/id 133</title>
    <desc>Created with Sketch.</desc>
    <defs></defs>
    <g id="Page-1" stroke="none" stroke-width="1" fill="none" fill-rule="evenodd" sketch:type="MSPage">
        <g id="icons/skills/id-133" sketch:type="MSArtboardGroup">
            <g id="Group" sketch:type="MSLayerGroup" transform="translate(4.000000, 0.000000)">
                <polygon id="Polygon-1" fill="#9C033A" sketch:type="MSShapeGroup" points="26 0.0967741935 52 15.0967742 52 45.0967742 26 60.0967742 0 45.0967742 0 15.0967742 "></polygon>
                <path d="M36.4354839,35.8548387 C34.4032258,39.4354839 30.5322581,41.8548387 26.1290323,41.8548387 C19.5967742,41.8548387 14.2741935,36.5322581 14.2741935,30 C14.2741935,23.4677419 19.5967742,18.1451613 26.1290323,18.1451613 C30.5322581,18.1451613 34.4032258,20.5645161 36.4354839,24.1935484 L42.7258065,20.5645161 C39.4354839,14.8064516 33.2419355,10.8870968 26.1290323,10.8870968 C15.5806452,10.8870968 7.01612903,19.4516129 7.01612903,30 C7.01612903,40.5483871 15.5806452,49.1129032 26.1290323,49.1129032 C33.1935484,49.1129032 39.3870968,45.2419355 42.6774194,39.5322581 L36.4354839,35.8548387 L36.4354839,35.8548387 Z" id="Shape" fill="#FFFFFF" sketch:type="MSShapeGroup"></path>
                <g transform="translate(34.838710, 26.129032)" id="Shape" fill="#FFFFFF" sketch:type="MSShapeGroup">
                    <path d="M0.0483870968,2.80645161 L2.56451613,2.80645161 L2.56451613,0.241935484 L4.69354839,0.241935484 L4.69354839,2.80645161 L7.25806452,2.80645161 L7.25806452,4.93548387 L4.69354839,4.93548387 L4.69354839,7.4516129 L2.56451613,7.4516129 L2.56451613,4.93548387 L0.0483870968,4.93548387 L0.0483870968,2.80645161 L0.0483870968,2.80645161 Z M9,2.80645161 L11.516129,2.80645161 L11.516129,0.241935484 L13.6451613,0.241935484 L13.6451613,2.80645161 L16.2096774,2.80645161 L16.2096774,4.93548387 L13.6451613,4.93548387 L13.6451613,7.4516129 L11.516129,7.4516129 L11.516129,4.93548387 L9,4.93548387 L9,2.80645161 L9,2.80645161 Z"></path>
                </g>
            </g>
        </g>
    </g>
</svg>