<?xml version="1.0" encoding="UTF-8" standalone="no"?>
<svg width="64px" height="64px" viewBox="0 0 64 64" version="1.1" xmlns="http://www.w3.org/2000/svg" xmlns:xlink="http://www.w3.org/1999/xlink" xmlns:sketch="http://www.bohemiancoding.com/sketch/ns">
    <!-- Generator: Sketch 3.4.2 (15857) - http://www.bohemiancoding.com/sketch -->
    <title>icons/skills/id-140</title>
    <desc>Created with Sketch.</desc>
    <defs></defs>
    <g id="Languages" stroke="none" stroke-width="1" fill="none" fill-rule="evenodd" sketch:type="MSPage">
        <g id="icons/skills/id-140" sketch:type="MSArtboardGroup">
            <polygon id="Polygon-4" fill="#394146" sketch:type="MSShapeGroup" points="33 5 56 19 56 46 33 60 9 46 9 19 "></polygon>
            <path d="M21,31 C23.3363229,31.31813 24.367713,30.3990878 24,28 L24,25 C24.367713,22.7502851 25.0254111,22.009122 27,22 L28,22 L28,19 L27,19 C22.3946188,19 20.3617339,20.3192702 20,24 L20,27 C20.3617339,28.8871152 19.9282511,29.8061574 18,30 L18,34 C19.9282511,33.6009122 20.3617339,34.5199544 20,37 L20,40 C20.3617339,43.5769669 22.3946188,45 27,45 L28,45 L28,42 L27,42 C25.0254111,41.9760547 24.367713,41.2348917 24,39 L24,35 C24.367713,33.2451539 23.3363229,32.0741163 21,32 L21,31 Z M42,32 C39.6716418,32.0741163 38.641791,33.2451539 39,35 L39,39 C38.641791,41.2348917 37.9552239,41.9760547 36,42 L35,42 L35,45 L36,45 C40.5970149,45 42.6119403,43.5769669 43,40 L43,37 C42.6119403,34.5199544 43.0597015,33.6009122 45,34 L45,30 C43.0597015,29.8061574 42.6119403,28.8871152 43,27 L43,24 C42.6119403,20.3192702 40.5970149,19 36,19 L35,19 L35,22 L36,22 C37.9552239,22.009122 38.641791,22.7502851 39,25 L39,28 C38.641791,30.3990878 39.6716418,31.31813 42,31 L42,32 Z" id="{-}" fill="#05C14F" sketch:type="MSShapeGroup"></path>
        </g>
    </g>
</svg>