<?xml version="1.0" encoding="UTF-8" standalone="no"?>
<svg width="64px" height="64px" viewBox="0 0 64 64" version="1.1" xmlns="http://www.w3.org/2000/svg" xmlns:xlink="http://www.w3.org/1999/xlink" xmlns:sketch="http://www.bohemiancoding.com/sketch/ns">
    <!-- Generator: Sketch 3.4.2 (15857) - http://www.bohemiancoding.com/sketch -->
    <title>icons/skills/id-133</title>
    <desc>Created with Sketch.</desc>
    <defs></defs>
    <g id="Languages" stroke="none" stroke-width="1" fill="none" fill-rule="evenodd" sketch:type="MSPage">
        <g id="icons/skills/id-133" sketch:type="MSArtboardGroup">
            <g id="Group" sketch:type="MSLayerGroup" transform="translate(6.000000, 2.000000)">
                <polygon id="Polygon-1" fill="#9C033A" sketch:type="MSShapeGroup" points="26 0.0967741935 52 15.0967742 52 45.0967742 26 60.0967742 0 45.0967742 0 15.0967742 "></polygon>
                <g transform="translate(28.838710, 27.129032)" id="Shape" fill="#FFFFFF" sketch:type="MSShapeGroup">
                    <path d="M-4.13002965e-14,2.56451613 L2.51612903,2.56451613 L2.51612903,0 L4.64516129,0 L4.64516129,2.56451613 L7.20967742,2.56451613 L7.20967742,4.69354839 L4.64516129,4.69354839 L4.64516129,7.20967742 L2.51612903,7.20967742 L2.51612903,4.69354839 L-4.13002965e-14,4.69354839 L-4.13002965e-14,2.56451613 L-4.13002965e-14,2.56451613 Z M8.9516129,2.56451613 L11.4677419,2.56451613 L11.4677419,0 L13.5967742,0 L13.5967742,2.56451613 L16.1612903,2.56451613 L16.1612903,4.69354839 L13.5967742,4.69354839 L13.5967742,7.20967742 L11.4677419,7.20967742 L11.4677419,4.69354839 L8.9516129,4.69354839 L8.9516129,2.56451613 L8.9516129,2.56451613 Z"></path>
                </g>
            </g>
            <path d="M31.034,26.868 C30.5126641,26.2333302 29.8723371,25.7460017 29.113,25.406 C28.3536629,25.0659983 27.4753383,24.896 26.478,24.896 C25.4806617,24.896 24.5570043,25.0886647 23.707,25.474 C22.8569957,25.8593353 22.1203364,26.3976632 21.497,27.089 C20.8736635,27.7803368 20.3863351,28.6019952 20.035,29.554 C19.6836649,30.5060048 19.508,31.5373278 19.508,32.648 C19.508,33.781339 19.6836649,34.8183286 20.035,35.759 C20.3863351,36.6996714 20.8679969,37.5156632 21.48,38.207 C22.0920031,38.8983368 22.8116625,39.4366647 23.639,39.822 C24.4663375,40.2073353 25.3559952,40.4 26.308,40.4 C27.3960054,40.4 28.3593291,40.1733356 29.198,39.72 C30.0366709,39.2666644 30.7279973,38.6320041 31.272,37.816 L35.692,41.114 C34.6719949,42.5420071 33.3800078,43.5959966 31.816,44.276 C30.2519922,44.9560034 28.6426749,45.296 26.988,45.296 C25.1066573,45.296 23.3726746,45.0013363 21.786,44.412 C20.1993254,43.8226637 18.8280058,42.9783388 17.672,41.879 C16.5159942,40.7796612 15.6150032,39.4480078 14.969,37.884 C14.3229968,36.3199922 14,34.5746763 14,32.648 C14,30.7213237 14.3229968,28.9760078 14.969,27.412 C15.6150032,25.8479922 16.5159942,24.5163388 17.672,23.417 C18.8280058,22.3176612 20.1993254,21.4733363 21.786,20.884 C23.3726746,20.2946637 25.1066573,20 26.988,20 C27.6680034,20 28.3763296,20.0623327 29.113,20.187 C29.8496704,20.3116673 30.5749964,20.5099986 31.289,20.782 C32.0030036,21.0540014 32.6886634,21.4166644 33.346,21.87 C34.0033366,22.3233356 34.5926641,22.8786634 35.114,23.536 L31.034,26.868 Z" id="C" fill="#FFFFFF" sketch:type="MSShapeGroup"></path>
        </g>
    </g>
</svg>