<?xml version="1.0" encoding="UTF-8" standalone="no"?>
<svg width="60px" height="60px" viewBox="0 0 60 60" version="1.1" xmlns="http://www.w3.org/2000/svg" xmlns:xlink="http://www.w3.org/1999/xlink" xmlns:sketch="http://www.bohemiancoding.com/sketch/ns">
    <!-- Generator: Sketch 3.3.3 (12081) - http://www.bohemiancoding.com/sketch -->
    <title>icons/skills/id 154</title>
    <desc>Created with Sketch.</desc>
    <defs></defs>
    <g id="Page-1" stroke="none" stroke-width="1" fill="none" fill-rule="evenodd" sketch:type="MSPage">
        <g id="icons/skills/id-154" sketch:type="MSArtboardGroup">
            <g id="css3-original-wordmark" sketch:type="MSLayerGroup" transform="translate(9.000000, 0.000000)">
                <path d="M33.4447619,2.31238095 L29.9285714,2.31238095 L33.5852381,6.28047619 L33.5852381,8.16952381 L26.0538095,8.16952381 L26.0538095,5.95761905 L29.71,5.95761905 L26.0538095,1.98952381 L26.0538095,0.0985714286 L33.4447619,0.0985714286 L33.4447619,2.31238095 L33.4447619,2.31238095 Z M24.5604762,2.31238095 L21.0442857,2.31238095 L24.7009524,6.28047619 L24.7009524,8.16952381 L17.1690476,8.16952381 L17.1690476,5.95761905 L20.8257143,5.95761905 L17.1690476,1.98952381 L17.1690476,0.0985714286 L24.5604762,0.0985714286 L24.5604762,2.31238095 L24.5604762,2.31238095 Z M15.7633333,2.40285714 L11.9690476,2.40285714 L11.9690476,5.8652381 L15.7633333,5.8652381 L15.7633333,8.16952381 L9.27190476,8.16952381 L9.27190476,0.0985714286 L15.7633333,0.0985714286 L15.7633333,2.40285714 L15.7633333,2.40285714 Z" id="Shape" fill="#131313" sketch:type="MSShapeGroup"></path>
                <path d="M4.10142857,55.0980952 L0.245714286,11.8538095 L42.6109524,11.8538095 L38.7519048,55.0909524 L21.402381,59.9014286 L4.10142857,55.0980952 L4.10142857,55.0980952 Z" id="Shape" fill="#1572B6" sketch:type="MSShapeGroup"></path>
                <path d="M21.4290476,56.2247619 L35.447619,52.3380952 L38.7457143,15.39 L21.4290476,15.39 L21.4290476,56.2247619 L21.4290476,56.2247619 Z" id="Shape" fill="#33A9DC" sketch:type="MSShapeGroup"></path>
                <path d="M21.4285714,31.0571429 L28.4466667,31.0571429 L28.9319048,25.6261905 L21.4285714,25.6261905 L21.4285714,20.322381 L34.7280952,20.322381 L34.6009524,21.7452381 L33.297619,36.3604762 L21.4285714,36.3604762 L21.4285714,31.0571429 L21.4285714,31.0571429 Z" id="Shape" fill="#FFFFFF" sketch:type="MSShapeGroup"></path>
                <path d="M21.4604762,44.8314286 L21.4371429,44.8380952 L15.5304762,43.2428571 L15.152381,39.0128571 L9.82904762,39.0128571 L10.572381,47.3404762 L21.4361905,50.3561905 L21.4609524,50.3490476 L21.4609524,44.8314286 L21.4604762,44.8314286 Z" id="Shape" fill="#EBEBEB" sketch:type="MSShapeGroup"></path>
                <path d="M27.9961905,36.1361905 L27.3571429,43.2390476 L21.4419048,44.8357143 L21.4419048,50.3538095 L32.3147619,47.3404762 L32.3947619,46.4442857 L33.317619,36.1361905 L27.9961905,36.1361905 L27.9961905,36.1361905 Z" id="Shape" fill="#FFFFFF" sketch:type="MSShapeGroup"></path>
                <path d="M21.4471429,20.322381 L21.4471429,25.6257143 L8.63619048,25.6257143 L8.52952381,24.4338095 L8.28809524,21.7452381 L8.16095238,20.322381 L21.4471429,20.322381 L21.4471429,20.322381 Z M21.4285714,31.057619 L21.4285714,36.3614286 L15.5966667,36.3614286 L15.4904762,35.1695238 L15.2485714,32.4804762 L15.1214286,31.057619 L21.4285714,31.057619 L21.4285714,31.057619 Z" id="Shape" fill="#EBEBEB" sketch:type="MSShapeGroup"></path>
            </g>
        </g>
    </g>
</svg>