<?xml version="1.0" encoding="UTF-8" standalone="no"?>
<svg width="64px" height="64px" viewBox="0 0 64 64" version="1.1" xmlns="http://www.w3.org/2000/svg" xmlns:xlink="http://www.w3.org/1999/xlink" xmlns:sketch="http://www.bohemiancoding.com/sketch/ns">
    <!-- Generator: Sketch 3.4.2 (15857) - http://www.bohemiancoding.com/sketch -->
    <title>icons/skills/id-132</title>
    <desc>Created with Sketch.</desc>
    <defs></defs>
    <g id="Languages" stroke="none" stroke-width="1" fill="none" fill-rule="evenodd" sketch:type="MSPage">
        <g id="icons/skills/id-132" sketch:type="MSArtboardGroup">
            <g id="Group" sketch:type="MSLayerGroup" transform="translate(6.000000, 2.000000)">
                <polygon id="Polygon-1" fill="#68217A" sketch:type="MSShapeGroup" points="26 0.0967741935 52 15.0967742 52 45.0967742 26 60.0967742 0 45.0967742 0 15.0967742 "></polygon>
                <path d="M34.5967742,31.3548387 L35.0322581,29.2741935 L33,29.2741935 L33,27 L35.4677419,27 L36.0483871,24 L38.4193548,24 L37.8387097,26.9516129 L39.6774194,26.9516129 L40.2580645,24 L42.5806452,24 L42,26.9516129 L43.1612903,26.9516129 L43.1612903,29.2258065 L41.5645161,29.2258065 L41.1290323,31.3064516 L43.1612903,31.3064516 L43.1612903,33.5806452 L40.6935484,33.5806452 L40.1129032,36.483871 L37.7419355,36.483871 L38.3225806,33.5806452 L36.483871,33.5806452 L35.9032258,36.483871 L33.5806452,36.483871 L34.1612903,33.5806452 L33,33.5806452 L33,31.3064516 L34.5967742,31.3064516 L34.5967742,31.3548387 Z M36.9193548,31.3548387 L38.7580645,31.3548387 L39.1935484,29.2741935 L37.3548387,29.2741935 L36.9193548,31.3548387 L36.9193548,31.3548387 Z" id="Shape" fill="#FFFFFF" sketch:type="MSShapeGroup"></path>
            </g>
            <path d="M33.034,26.868 C32.5126641,26.2333302 31.8723371,25.7460017 31.113,25.406 C30.3536629,25.0659983 29.4753383,24.896 28.478,24.896 C27.4806617,24.896 26.5570043,25.0886647 25.707,25.474 C24.8569957,25.8593353 24.1203364,26.3976632 23.497,27.089 C22.8736635,27.7803368 22.3863351,28.6019952 22.035,29.554 C21.6836649,30.5060048 21.508,31.5373278 21.508,32.648 C21.508,33.781339 21.6836649,34.8183286 22.035,35.759 C22.3863351,36.6996714 22.8679969,37.5156632 23.48,38.207 C24.0920031,38.8983368 24.8116625,39.4366647 25.639,39.822 C26.4663375,40.2073353 27.3559952,40.4 28.308,40.4 C29.3960054,40.4 30.3593291,40.1733356 31.198,39.72 C32.0366709,39.2666644 32.7279973,38.6320041 33.272,37.816 L37.692,41.114 C36.6719949,42.5420071 35.3800078,43.5959966 33.816,44.276 C32.2519922,44.9560034 30.6426749,45.296 28.988,45.296 C27.1066573,45.296 25.3726746,45.0013363 23.786,44.412 C22.1993254,43.8226637 20.8280058,42.9783388 19.672,41.879 C18.5159942,40.7796612 17.6150032,39.4480078 16.969,37.884 C16.3229968,36.3199922 16,34.5746763 16,32.648 C16,30.7213237 16.3229968,28.9760078 16.969,27.412 C17.6150032,25.8479922 18.5159942,24.5163388 19.672,23.417 C20.8280058,22.3176612 22.1993254,21.4733363 23.786,20.884 C25.3726746,20.2946637 27.1066573,20 28.988,20 C29.6680034,20 30.3763296,20.0623327 31.113,20.187 C31.8496704,20.3116673 32.5749964,20.5099986 33.289,20.782 C34.0030036,21.0540014 34.6886634,21.4166644 35.346,21.87 C36.0033366,22.3233356 36.5926641,22.8786634 37.114,23.536 L33.034,26.868 Z" id="C" fill="#FFFFFF" sketch:type="MSShapeGroup"></path>
        </g>
    </g>
</svg>