<?xml version="1.0" encoding="UTF-8" standalone="no"?>
<svg width="60px" height="60px" viewBox="0 0 60 60" version="1.1" xmlns="http://www.w3.org/2000/svg" xmlns:xlink="http://www.w3.org/1999/xlink" xmlns:sketch="http://www.bohemiancoding.com/sketch/ns">
    <!-- Generator: Sketch 3.3.3 (12081) - http://www.bohemiancoding.com/sketch -->
    <title>icons/skills/id 132</title>
    <desc>Created with Sketch.</desc>
    <defs></defs>
    <g id="Page-1" stroke="none" stroke-width="1" fill="none" fill-rule="evenodd" sketch:type="MSPage">
        <g id="icons/skills/id-132" sketch:type="MSArtboardGroup">
            <g id="Group" sketch:type="MSLayerGroup" transform="translate(4.000000, 0.000000)">
                <polygon id="Polygon-1" fill="#68217A" sketch:type="MSShapeGroup" points="26 0.0967741935 52 15.0967742 52 45.0967742 26 60.0967742 0 45.0967742 0 15.0967742 "></polygon>
                <path d="M36.4354839,35.8548387 C34.4032258,39.4354839 30.5322581,41.8548387 26.1290323,41.8548387 C19.5967742,41.8548387 14.2741935,36.5322581 14.2741935,30 C14.2741935,23.4677419 19.5967742,18.1451613 26.1290323,18.1451613 C30.5322581,18.1451613 34.4032258,20.5645161 36.4354839,24.1935484 L42.7258065,20.5645161 C39.4354839,14.8064516 33.2419355,10.8870968 26.1290323,10.8870968 C15.5806452,10.8870968 7.01612903,19.4516129 7.01612903,30 C7.01612903,40.5483871 15.5806452,49.1129032 26.1290323,49.1129032 C33.1935484,49.1129032 39.3870968,45.2419355 42.6774194,39.5322581 L36.4354839,35.8548387 L36.4354839,35.8548387 Z M42.0967742,31.0645161 L42.5322581,28.983871 L40.5,28.983871 L40.5,26.7096774 L42.9677419,26.7096774 L43.5483871,23.7096774 L45.9193548,23.7096774 L45.3387097,26.6612903 L47.1774194,26.6612903 L47.7580645,23.7096774 L50.0806452,23.7096774 L49.5,26.6612903 L50.6612903,26.6612903 L50.6612903,28.9354839 L49.0645161,28.9354839 L48.6290323,31.016129 L50.6612903,31.016129 L50.6612903,33.2903226 L48.1935484,33.2903226 L47.6129032,36.1935484 L45.2419355,36.1935484 L45.8225806,33.2903226 L43.983871,33.2903226 L43.4032258,36.1935484 L41.0806452,36.1935484 L41.6612903,33.2903226 L40.5,33.2903226 L40.5,31.016129 L42.0967742,31.016129 L42.0967742,31.0645161 Z M44.4193548,31.0645161 L46.2580645,31.0645161 L46.6935484,28.983871 L44.8548387,28.983871 L44.4193548,31.0645161 L44.4193548,31.0645161 Z" id="Shape" fill="#FFFFFF" sketch:type="MSShapeGroup"></path>
            </g>
        </g>
    </g>
</svg>