<?xml version="1.0" encoding="UTF-8" standalone="no"?>
<svg width="60px" height="60px" viewBox="0 0 60 60" version="1.1" xmlns="http://www.w3.org/2000/svg" xmlns:xlink="http://www.w3.org/1999/xlink" xmlns:sketch="http://www.bohemiancoding.com/sketch/ns">
    <!-- Generator: Sketch 3.3.3 (12081) - http://www.bohemiancoding.com/sketch -->
    <title>icons/skills/id 191</title>
    <desc>Created with Sketch.</desc>
    <defs></defs>
    <g id="Page-1" stroke="none" stroke-width="1" fill="none" fill-rule="evenodd" sketch:type="MSPage">
        <g id="icons/skills/id-191" sketch:type="MSArtboardGroup" fill="#F34F29">
            <path d="M58.8681285,27.3272303 L32.6714032,1.13145556 C31.1637464,-0.377151854 28.7168935,-0.377151854 27.2068602,1.13145556 L21.7675082,6.57175817 L28.6679374,13.4721874 C30.2720805,12.9308189 32.1105472,13.2939493 33.3886334,14.5720354 C34.6733737,15.8582017 35.0336523,17.7123534 34.4789753,19.3217247 L41.1293959,25.9726206 C42.738292,25.4179436 44.5952955,25.7763211 45.8795605,27.0634379 C47.6762007,28.8586522 47.6762007,31.7689242 45.8795605,33.5650891 C44.0829203,35.3617293 41.173599,35.3617293 39.3760082,33.5650891 C38.0252009,32.2133312 37.6910638,30.2289469 38.3754982,28.5644405 L32.1737624,22.3627047 L32.1728118,38.6850384 C32.6110399,38.9013006 33.024077,39.190284 33.3891087,39.5538898 C35.1847983,41.3491041 35.1847983,44.2584255 33.3891087,46.0574422 C31.5929437,47.8526565 28.6817212,47.8526565 26.8874575,46.0574422 C25.0917679,44.2589008 25.0917679,41.3495794 26.8874575,39.5538898 C27.3313892,39.1104334 27.844715,38.7753457 28.3927378,38.5510033 L28.3927378,22.0775237 C27.844715,21.8531813 27.3323398,21.5204702 26.8874575,21.0741619 C25.5271442,19.7147992 25.1996613,17.7185323 25.8974042,16.0473717 L19.0944117,9.24437931 L1.13181204,27.2060284 C-0.377270679,28.7160617 -0.377270679,31.1629146 1.13181204,32.6719973 L27.3290127,58.8677721 C28.8376201,60.3763795 31.2835224,60.3763795 32.7945063,58.8677721 L58.8686038,32.7936745 C60.3772113,31.2841165 60.3772113,28.8358377 58.8681285,27.3272303 L58.8681285,27.3272303 Z" id="Shape" sketch:type="MSShapeGroup"></path>
        </g>
    </g>
</svg>