<?xml version="1.0" encoding="UTF-8" standalone="no"?>
<svg width="60px" height="60px" viewBox="0 0 60 60" version="1.1" xmlns="http://www.w3.org/2000/svg" xmlns:xlink="http://www.w3.org/1999/xlink" xmlns:sketch="http://www.bohemiancoding.com/sketch/ns">
    <!-- Generator: Sketch 3.3.3 (12081) - http://www.bohemiancoding.com/sketch -->
    <title>icons/skills/id 194</title>
    <desc>Created with Sketch.</desc>
    <defs>
        <path id="path-1" d="M0.380952381,0 L43.4761905,0 L43.4761905,60 L0.380952381,60 L0.380952381,0 Z"></path>
        <path id="path-3" d="M0.380952381,0 L43.4761905,0 L43.4761905,60 L0.380952381,60 L0.380952381,0 Z"></path>
        <path id="path-5" d="M0.380952381,0 L43.4761905,0 L43.4761905,60 L0.380952381,60 L0.380952381,0 Z"></path>
        <path id="path-7" d="M0.380952381,0 L43.4761905,0 L43.4761905,60 L0.380952381,60 L0.380952381,0 Z"></path>
        <path id="path-9" d="M0.380952381,0 L43.4761905,0 L43.4761905,60 L0.380952381,60 L0.380952381,0 Z"></path>
        <path id="path-11" d="M0.380952381,0 L43.4761905,0 L43.4761905,60 L0.380952381,60 L0.380952381,0 Z"></path>
        <path id="path-13" d="M0.380952381,0 L43.4761905,0 L43.4761905,60 L0.380952381,60 L0.380952381,0 Z"></path>
        <path id="path-15" d="M0.380952381,0 L43.4761905,0 L43.4761905,60 L0.380952381,60 L0.380952381,0 Z"></path>
        <path id="path-17" d="M0.380952381,0 L43.4761905,0 L43.4761905,60 L0.380952381,60 L0.380952381,0 Z"></path>
        <path id="path-19" d="M0.380952381,0 L43.4761905,0 L43.4761905,60 L0.380952381,60 L0.380952381,0 Z"></path>
        <path id="path-21" d="M0.380952381,0 L43.4761905,0 L43.4761905,60 L0.380952381,60 L0.380952381,0 Z"></path>
        <path id="path-23" d="M0.380952381,0 L43.4761905,0 L43.4761905,60 L0.380952381,60 L0.380952381,0 Z"></path>
        <path id="path-25" d="M0.380952381,0 L43.4761905,0 L43.4761905,60 L0.380952381,60 L0.380952381,0 Z"></path>
        <path id="path-27" d="M0.380952381,0 L43.4761905,0 L43.4761905,60 L0.380952381,60 L0.380952381,0 Z"></path>
        <path id="path-29" d="M0.380952381,0 L43.4761905,0 L43.4761905,60 L0.380952381,60 L0.380952381,0 Z"></path>
        <path id="path-31" d="M0.380952381,0 L43.4761905,0 L43.4761905,60 L0.380952381,60 L0.380952381,0 Z"></path>
        <path id="path-33" d="M0.380952381,0 L43.4761905,0 L43.4761905,60 L0.380952381,60 L0.380952381,0 Z"></path>
        <path id="path-35" d="M0.380952381,0 L43.4761905,0 L43.4761905,60 L0.380952381,60 L0.380952381,0 Z"></path>
        <path id="path-37" d="M0.380952381,0 L43.4761905,0 L43.4761905,60 L0.380952381,60 L0.380952381,0 Z"></path>
        <path id="path-39" d="M0.380952381,0 L43.4761905,0 L43.4761905,60 L0.380952381,60 L0.380952381,0 Z"></path>
        <path id="path-41" d="M0.380952381,0 L43.4761905,0 L43.4761905,60 L0.380952381,60 L0.380952381,0 Z"></path>
        <path id="path-43" d="M0.380952381,0 L43.4761905,0 L43.4761905,60 L0.380952381,60 L0.380952381,0 Z"></path>
        <path id="path-45" d="M0.380952381,0 L43.4761905,0 L43.4761905,60 L0.380952381,60 L0.380952381,0 Z"></path>
        <path id="path-47" d="M0.380952381,0 L43.4761905,0 L43.4761905,60 L0.380952381,60 L0.380952381,0 Z"></path>
        <path id="path-49" d="M0.380952381,0 L43.4761905,0 L43.4761905,60 L0.380952381,60 L0.380952381,0 Z"></path>
        <path id="path-51" d="M0.380952381,0 L43.4761905,0 L43.4761905,60 L0.380952381,60 L0.380952381,0 Z"></path>
        <path id="path-53" d="M0.380952381,0 L43.4761905,0 L43.4761905,60 L0.380952381,60 L0.380952381,0 Z"></path>
        <path id="path-55" d="M0.380952381,0 L43.4761905,0 L43.4761905,60 L0.380952381,60 L0.380952381,0 Z"></path>
        <path id="path-57" d="M0.380952381,0 L43.4761905,0 L43.4761905,60 L0.380952381,60 L0.380952381,0 Z"></path>
        <path id="path-59" d="M0.380952381,0 L43.4761905,0 L43.4761905,60 L0.380952381,60 L0.380952381,0 Z"></path>
        <path id="path-61" d="M0.380952381,0 L43.4761905,0 L43.4761905,60 L0.380952381,60 L0.380952381,0 Z"></path>
        <path id="path-63" d="M0.380952381,0 L43.4761905,0 L43.4761905,60 L0.380952381,60 L0.380952381,0 Z"></path>
        <path id="path-65" d="M0.380952381,0 L43.4761905,0 L43.4761905,60 L0.380952381,60 L0.380952381,0 Z"></path>
        <path id="path-67" d="M0.380952381,0 L43.4761905,0 L43.4761905,60 L0.380952381,60 L0.380952381,0 Z"></path>
    </defs>
    <g id="Page-1" stroke="none" stroke-width="1" fill="none" fill-rule="evenodd" sketch:type="MSPage">
        <g id="icons/skills/id-194" sketch:type="MSArtboardGroup">
            <g id="Group" sketch:type="MSLayerGroup" transform="translate(8.000000, 0.000000)">
                <g id="Clipped">
                    <mask id="mask-2" sketch:name="a" fill="white">
                        <use xlink:href="#path-1"></use>
                    </mask>
                    <g id="a"></g>
                    <path d="M1.47619048,32.2380952 C1.57142857,33.9047619 3.23809524,33.1428571 4,32.6190476 C4.71428571,32.0952381 4.95238095,32.5238095 5,31.5238095 C5.04761905,30.8571429 5.0952381,30.2380952 5.0952381,29.5714286 C4,29.4761905 2.80952381,29.7142857 1.9047619,30.3809524 C1.47619048,30.7142857 0.571428571,31.8095238 1.47619048,32.2380952" id="Shape" fill="#F6D2A2" sketch:type="MSShapeGroup" mask="url(#mask-2)"></path>
                </g>
                <g id="Clipped">
                    <mask id="mask-4" sketch:name="a" fill="white">
                        <use xlink:href="#path-3"></use>
                    </mask>
                    <g id="a"></g>
                    <path d="M2.38095238,33.4285714 C2.04761905,33.4285714 1.42857143,33.2857143 1.33333333,32.3333333 C1.04761905,32.1428571 0.952380952,31.9047619 0.952380952,31.7619048 C0.904761905,31.1904762 1.52380952,30.5238095 1.85714286,30.2857143 C2.61904762,29.7142857 3.61904762,29.4285714 4.66666667,29.4285714 L5.28571429,29.4285714 L5.28571429,29.5714286 C5.33333333,30.0952381 5.28571429,30.6190476 5.23809524,31.0952381 C5.23809524,31.2380952 5.23809524,31.3809524 5.19047619,31.5238095 C5.14285714,32.2380952 5,32.3333333 4.66666667,32.4761905 C4.52380952,32.5238095 4.38095238,32.5714286 4.14285714,32.7619048 C3.9047619,32.9047619 3.0952381,33.4285714 2.38095238,33.4285714 L2.38095238,33.4285714 Z M4.66666667,29.7142857 C3.66666667,29.7142857 2.76190476,30 2.04761905,30.5238095 C1.71428571,30.7619048 1.23809524,31.3333333 1.28571429,31.7142857 C1.28571429,31.8571429 1.38095238,32 1.57142857,32.0952381 L1.66666667,32.1428571 L1.66666667,32.2380952 C1.71428571,33 2.0952381,33.0952381 2.38095238,33.0952381 C2.85714286,33.0952381 3.52380952,32.7619048 3.95238095,32.4761905 C4.23809524,32.2857143 4.42857143,32.2380952 4.57142857,32.1904762 C4.80952381,32.0952381 4.85714286,32.0952381 4.9047619,31.5238095 C4.9047619,31.3809524 4.9047619,31.2380952 4.95238095,31.0952381 C5,30.6666667 5,30.1904762 5,29.7619048 C4.85714286,29.7142857 4.76190476,29.7142857 4.66666667,29.7142857 L4.66666667,29.7142857 Z" id="Shape" fill="#000000" sketch:type="MSShapeGroup" mask="url(#mask-4)"></path>
                </g>
                <g id="Clipped">
                    <mask id="mask-6" sketch:name="a" fill="white">
                        <use xlink:href="#path-5"></use>
                    </mask>
                    <g id="a"></g>
                    <path id="Shape" fill="#C6B198" sketch:type="MSShapeGroup" mask="url(#mask-6)" d="M1.47619048,32.2380952 C1.71428571,32.1428571 2,32.0952381 2.14285714,31.8571429"></path>
                </g>
                <g id="Clipped">
                    <mask id="mask-8" sketch:name="a" fill="white">
                        <use xlink:href="#path-7"></use>
                    </mask>
                    <g id="a"></g>
                    <path d="M1.47619048,32.3809524 C1.42857143,32.3809524 1.33333333,32.3333333 1.33333333,32.2857143 C1.28571429,32.1904762 1.33333333,32.0952381 1.42857143,32.0952381 C1.47619048,32.0952381 1.52380952,32.047619 1.52380952,32.047619 C1.71428571,31.952381 1.9047619,31.9047619 2,31.7619048 C2.04761905,31.7142857 2.14285714,31.6666667 2.23809524,31.7142857 C2.28571429,31.7619048 2.33333333,31.8571429 2.28571429,31.952381 C2.0952381,32.1904762 1.85714286,32.2857143 1.66666667,32.3333333 L1.57142857,32.3809524 L1.47619048,32.3809524 L1.47619048,32.3809524 Z" id="Shape" fill="#000000" sketch:type="MSShapeGroup" mask="url(#mask-8)"></path>
                </g>
                <g id="Clipped">
                    <mask id="mask-10" sketch:name="a" fill="white">
                        <use xlink:href="#path-9"></use>
                    </mask>
                    <g id="a"></g>
                    <path d="M5.38095238,12.0952381 C-1.0952381,10.2857143 3.71428571,2.04761905 8.9047619,5.42857143 L5.38095238,12.0952381 L5.38095238,12.0952381 Z" id="Shape" fill="#6AD7E5" sketch:type="MSShapeGroup" mask="url(#mask-10)"></path>
                </g>
                <g id="Clipped">
                    <mask id="mask-12" sketch:name="a" fill="white">
                        <use xlink:href="#path-11"></use>
                    </mask>
                    <g id="a"></g>
                    <path d="M5.47619048,12.2857143 L5.33333333,12.2380952 C2,11.2857143 2.04761905,8.9047619 2.14285714,8.19047619 C2.38095238,6.38095238 4.0952381,4.47619048 6.38095238,4.47619048 C7.28571429,4.47619048 8.14285714,4.76190476 9,5.33333333 L9.14285714,5.42857143 L5.47619048,12.2857143 L5.47619048,12.2857143 Z M6.38095238,4.80952381 C4.23809524,4.80952381 2.66666667,6.57142857 2.42857143,8.23809524 C2.19047619,9.95238095 3.23809524,11.2857143 5.28571429,11.9047619 L8.66666667,5.47619048 C7.95238095,5.04761905 7.19047619,4.80952381 6.38095238,4.80952381 L6.38095238,4.80952381 Z" id="Shape" fill="#000000" sketch:type="MSShapeGroup" mask="url(#mask-12)"></path>
                </g>
                <g id="Clipped">
                    <mask id="mask-14" sketch:name="a" fill="white">
                        <use xlink:href="#path-13"></use>
                    </mask>
                    <g id="a"></g>
                    <path d="M34.0952381,4.80952381 C39.1904762,1.23809524 43.8571429,9.33333333 37.9047619,11.3809524 L34.0952381,4.80952381 L34.0952381,4.80952381 Z" id="Shape" fill="#6AD7E5" sketch:type="MSShapeGroup" mask="url(#mask-14)"></path>
                </g>
                <g id="Clipped">
                    <mask id="mask-16" sketch:name="a" fill="white">
                        <use xlink:href="#path-15"></use>
                    </mask>
                    <g id="a"></g>
                    <path d="M37.8571429,11.5714286 L33.9047619,4.76190476 L34.047619,4.66666667 C34.952381,4.04761905 35.8571429,3.71428571 36.7619048,3.71428571 C38.952381,3.71428571 40.5238095,5.52380952 40.8571429,7.28571429 C41,8 41.1428571,10.4285714 38,11.4761905 L37.8571429,11.5714286 L37.8571429,11.5714286 Z M34.3333333,4.9047619 L38,11.2380952 C39.8571429,10.5714286 40.8095238,9.14285714 40.5238095,7.42857143 C40.2380952,5.80952381 38.7619048,4.14285714 36.7619048,4.14285714 C35.952381,4.0952381 35.1428571,4.33333333 34.3333333,4.9047619 L34.3333333,4.9047619 Z" id="Shape" fill="#000000" sketch:type="MSShapeGroup" mask="url(#mask-16)"></path>
                </g>
                <g id="Clipped">
                    <mask id="mask-18" sketch:name="a" fill="white">
                        <use xlink:href="#path-17"></use>
                    </mask>
                    <g id="a"></g>
                    <path d="M35.2380952,53 C36.5238095,53.8095238 38.9047619,56.2380952 36.952381,57.4285714 C35.0952381,59.1428571 34.047619,55.5238095 32.3809524,55.047619 C33.0952381,54.0952381 34,53.1904762 35.2380952,53" id="Shape" fill="#F6D2A2" sketch:type="MSShapeGroup" mask="url(#mask-18)"></path>
                </g>
                <g id="Clipped">
                    <mask id="mask-20" sketch:name="a" fill="white">
                        <use xlink:href="#path-19"></use>
                    </mask>
                    <g id="a"></g>
                    <path d="M35.952381,58.047619 C35.1904762,58.047619 34.5238095,57.2857143 33.952381,56.5714286 C33.4285714,56 32.9047619,55.3809524 32.3333333,55.1904762 L32.0952381,55.1428571 L32.2380952,54.952381 C32.8095238,54.1428571 33.7619048,53.0952381 35.1904762,52.8571429 L35.2380952,52.8571429 L35.2857143,52.9047619 C36.0952381,53.4285714 37.8571429,54.9047619 37.8095238,56.2857143 C37.8095238,56.8095238 37.5238095,57.2380952 37,57.5714286 C36.6666667,57.9047619 36.3333333,58.047619 35.952381,58.047619 L35.952381,58.047619 Z M32.6190476,54.952381 C33.1904762,55.1904762 33.6666667,55.8095238 34.1428571,56.3333333 C34.7142857,57.047619 35.2857143,57.6666667 35.9047619,57.6666667 C36.1904762,57.6666667 36.4761905,57.5238095 36.7619048,57.2380952 L36.8095238,57.2380952 C37.2380952,56.952381 37.4761905,56.6190476 37.4761905,56.1904762 C37.4761905,55.0952381 36.0952381,53.7142857 35.1428571,53.0952381 C34.2857143,53.3333333 33.4285714,53.9047619 32.6190476,54.952381 L32.6190476,54.952381 Z M36.952381,57.5714286 C36.9047619,57.5714286 36.8571429,57.5238095 36.8095238,57.4761905 C36.7142857,57.2857143 36.6190476,57.047619 36.5714286,56.8571429 C36.4285714,56.4761905 36.2857143,56.0952381 36,55.8095238 C35.952381,55.7619048 35.952381,55.6666667 36,55.5714286 C36.047619,55.5238095 36.1428571,55.5238095 36.2380952,55.5714286 C36.5714286,55.9047619 36.7619048,56.3333333 36.9047619,56.7619048 L37.1428571,57.3333333 C37.1904762,57.4285714 37.1428571,57.5238095 37.0952381,57.5714286 L36.952381,57.5714286 L36.952381,57.5714286 Z" id="Shape" fill="#000000" sketch:type="MSShapeGroup" mask="url(#mask-20)"></path>
                </g>
                <g id="Clipped">
                    <mask id="mask-22" sketch:name="a" fill="white">
                        <use xlink:href="#path-21"></use>
                    </mask>
                    <g id="a"></g>
                    <path d="M12,55.7619048 C10.4761905,56 9.61904762,57.3809524 8.33333333,58.0952381 C7.14285714,58.8095238 6.66666667,57.8571429 6.57142857,57.6666667 C6.38095238,57.5714286 6.38095238,57.7619048 6.0952381,57.4761905 C5,55.7142857 7.23809524,54.4285714 8.42857143,53.5714286 C10.0952381,53.1904762 11.1428571,54.6190476 12,55.7619048" id="Shape" fill="#F6D2A2" sketch:type="MSShapeGroup" mask="url(#mask-22)"></path>
                </g>
                <g id="Clipped">
                    <mask id="mask-24" sketch:name="a" fill="white">
                        <use xlink:href="#path-23"></use>
                    </mask>
                    <g id="a"></g>
                    <path d="M7.52380952,58.4761905 C6.9047619,58.4761905 6.57142857,57.952381 6.47619048,57.7619048 L6.42857143,57.7619048 C6.28571429,57.7619048 6.19047619,57.7142857 6,57.5238095 L6,57.4761905 C4.95238095,55.8095238 6.76190476,54.5238095 7.95238095,53.6666667 L8.38095238,53.3809524 L8.47619048,53.3809524 C8.66666667,53.3333333 8.80952381,53.3333333 9,53.3333333 C10.4285714,53.3333333 11.3333333,54.5714286 12.0952381,55.5714286 L12.3333333,55.9047619 L12.047619,55.952381 C11.1428571,56.0952381 10.4761905,56.6666667 9.80952381,57.2380952 C9.38095238,57.6190476 8.95238095,57.952381 8.47619048,58.2380952 C8.0952381,58.3809524 7.80952381,58.4761905 7.52380952,58.4761905 L7.52380952,58.4761905 Z M6.47619048,57.4761905 C6.52380952,57.4761905 6.57142857,57.4761905 6.66666667,57.5238095 L6.71428571,57.5238095 L6.76190476,57.5714286 C6.85714286,57.7142857 7.0952381,58.1428571 7.57142857,58.1428571 C7.80952381,58.1428571 8.04761905,58.047619 8.28571429,57.9047619 C8.76190476,57.6666667 9.19047619,57.2857143 9.57142857,56.952381 C10.1904762,56.4285714 10.8571429,55.8571429 11.7142857,55.6190476 C11,54.6666667 10.1428571,53.6190476 8.95238095,53.6190476 C8.80952381,53.6190476 8.66666667,53.6190476 8.52380952,53.6666667 L8.14285714,53.952381 C6.9047619,54.8095238 5.38095238,55.9047619 6.28571429,57.3333333 C6.33333333,57.4285714 6.38095238,57.4761905 6.47619048,57.4761905 L6.47619048,57.4761905 Z M6.57142857,57.8095238 C6.47619048,57.8095238 6.38095238,57.7142857 6.42857143,57.6190476 C6.47619048,57.1428571 6.71428571,56.8095238 6.95238095,56.4285714 C7.0952381,56.2380952 7.19047619,56.047619 7.28571429,55.8571429 C7.33333333,55.7619048 7.42857143,55.7619048 7.47619048,55.7619048 C7.57142857,55.8095238 7.57142857,55.9047619 7.57142857,55.952381 C7.47619048,56.1904762 7.33333333,56.3809524 7.19047619,56.5714286 C6.95238095,56.9047619 6.76190476,57.1904762 6.71428571,57.5714286 C6.71428571,57.7619048 6.66666667,57.8095238 6.57142857,57.8095238 L6.57142857,57.8095238 Z" id="Shape" fill="#000000" sketch:type="MSShapeGroup" mask="url(#mask-24)"></path>
                </g>
                <g id="Clipped">
                    <mask id="mask-26" sketch:name="a" fill="white">
                        <use xlink:href="#path-25"></use>
                    </mask>
                    <g id="a"></g>
                    <path d="M5.66666667,9.85714286 C4.80952381,9.42857143 4.19047619,8.80952381 4.71428571,7.80952381 C5.19047619,6.9047619 6.0952381,7 6.95238095,7.42857143 L5.66666667,9.85714286 L5.66666667,9.85714286 Z M36.5714286,9 C37.4285714,8.57142857 38.047619,7.95238095 37.5238095,6.95238095 C37.047619,6.04761905 36.1428571,6.14285714 35.2857143,6.57142857 L36.5714286,9 L36.5714286,9 Z" id="Shape" fill="#000000" sketch:type="MSShapeGroup" mask="url(#mask-26)"></path>
                </g>
                <g id="Clipped">
                    <mask id="mask-28" sketch:name="a" fill="white">
                        <use xlink:href="#path-27"></use>
                    </mask>
                    <g id="a"></g>
                    <path d="M42.4285714,32 C42.3333333,33.6666667 40.6666667,32.9047619 39.9047619,32.3809524 C39.1904762,31.8571429 38.952381,32.2857143 38.9047619,31.2857143 C38.8571429,30.6190476 38.8095238,30 38.8095238,29.3333333 C39.9047619,29.2380952 41.0952381,29.4761905 42,30.1428571 C42.4761905,30.5238095 43.3333333,31.5714286 42.4285714,32" id="Shape" fill="#F6D2A2" sketch:type="MSShapeGroup" mask="url(#mask-28)"></path>
                </g>
                <g id="Clipped">
                    <mask id="mask-30" sketch:name="a" fill="white">
                        <use xlink:href="#path-29"></use>
                    </mask>
                    <g id="a"></g>
                    <path d="M41.5714286,33.1904762 C40.8571429,33.1904762 40.047619,32.6666667 39.8095238,32.5238095 C39.5714286,32.3809524 39.4285714,32.2857143 39.2857143,32.2380952 C38.9047619,32.0952381 38.8095238,32 38.7619048,31.2857143 C38.7619048,31.1428571 38.7619048,31 38.7142857,30.8571429 C38.6666667,30.3809524 38.6190476,29.8571429 38.6666667,29.3333333 L38.6666667,29.1904762 L39.2857143,29.1904762 C40.3333333,29.1904762 41.3333333,29.4761905 42.0952381,30.047619 C42.4285714,30.2857143 43.047619,30.952381 43,31.5238095 C43,31.7142857 42.9047619,31.952381 42.6190476,32.0952381 C42.5238095,33.047619 41.9047619,33.1904762 41.5714286,33.1904762 L41.5714286,33.1904762 Z M38.952381,29.5238095 C38.952381,29.952381 38.952381,30.4285714 39,30.8571429 C39,31 39,31.1428571 39.047619,31.2857143 C39.0952381,31.8571429 39.1428571,31.8571429 39.3809524,31.952381 C39.5238095,32 39.7142857,32.0952381 40,32.2380952 C40.4285714,32.5238095 41.0952381,32.8571429 41.5714286,32.8571429 C41.8571429,32.8571429 42.2380952,32.7619048 42.2857143,32 L42.2857143,31.9047619 L42.3809524,31.8571429 C42.5714286,31.7619048 42.6666667,31.6666667 42.6666667,31.4761905 C42.7142857,31.0952381 42.2380952,30.5238095 41.9047619,30.2857143 C41.1904762,29.7619048 40.2380952,29.4761905 39.2857143,29.4761905 C39.1904762,29.5238095 39.0952381,29.5238095 38.952381,29.5238095 L38.952381,29.5238095 Z" id="Shape" fill="#000000" sketch:type="MSShapeGroup" mask="url(#mask-30)"></path>
                </g>
                <g id="Clipped">
                    <mask id="mask-32" sketch:name="a" fill="white">
                        <use xlink:href="#path-31"></use>
                    </mask>
                    <g id="a"></g>
                    <path id="Shape" fill="#C6B198" sketch:type="MSShapeGroup" mask="url(#mask-32)" d="M42.4285714,32 C42.1904762,31.9047619 41.9047619,31.8571429 41.7619048,31.6190476"></path>
                </g>
                <g id="Clipped">
                    <mask id="mask-34" sketch:name="a" fill="white">
                        <use xlink:href="#path-33"></use>
                    </mask>
                    <g id="a"></g>
                    <path d="M42.4285714,32.1904762 L42.3809524,32.1904762 L42.2857143,32.1428571 C42.047619,32.047619 41.8095238,32 41.6666667,31.7619048 C41.6190476,31.7142857 41.6190476,31.5714286 41.7142857,31.5238095 C41.7619048,31.4761905 41.9047619,31.4761905 41.952381,31.5714286 C42.047619,31.7142857 42.2380952,31.7619048 42.4285714,31.8571429 C42.4761905,31.8571429 42.5238095,31.9047619 42.5238095,31.9047619 C42.6190476,31.952381 42.6666667,32.047619 42.6190476,32.0952381 C42.5714286,32.1428571 42.4761905,32.1904762 42.4285714,32.1904762 L42.4285714,32.1904762 Z" id="Shape" fill="#000000" sketch:type="MSShapeGroup" mask="url(#mask-34)"></path>
                </g>
                <g id="Clipped">
                    <mask id="mask-36" sketch:name="a" fill="white">
                        <use xlink:href="#path-35"></use>
                    </mask>
                    <g id="a"></g>
                    <path d="M21.3333333,1.42857143 C27.8095238,1.42857143 33.8571429,2.33333333 37.047619,8.57142857 C39.9047619,15.5238095 38.8571429,23.047619 39.3333333,30.4285714 C39.7142857,36.7619048 40.5238095,44.047619 37.6190476,49.9047619 C34.5238095,56.047619 26.8095238,57.6190476 20.4761905,57.3809524 C15.4761905,57.1904762 9.47619048,55.5714286 6.61904762,51 C3.33333333,45.6666667 4.85714286,37.7142857 5.0952381,31.7619048 C5.38095238,24.7142857 3.19047619,17.6190476 5.52380952,10.7619048 C7.85714286,3.57142857 14.3333333,1.95238095 21.3333333,1.42857143" id="Shape" fill="#6AD7E5" sketch:type="MSShapeGroup" mask="url(#mask-36)"></path>
                </g>
                <g id="Clipped">
                    <mask id="mask-38" sketch:name="a" fill="white">
                        <use xlink:href="#path-37"></use>
                    </mask>
                    <g id="a"></g>
                    <path d="M21.5714286,57.5714286 L20.3809524,57.5714286 C18.4285714,57.5238095 15.4761905,57.1904762 12.5714286,56 C9.76190476,54.8571429 7.71428571,53.2380952 6.38095238,51.0952381 C3.71428571,46.7619048 4.19047619,40.8095238 4.61904762,35.5238095 C4.71428571,34.1904762 4.80952381,32.952381 4.85714286,31.7619048 C4.95238095,29.2857143 4.76190476,26.7142857 4.52380952,24.2857143 C4.14285714,19.8095238 3.76190476,15.1904762 5.23809524,10.7142857 C6.38095238,7.38095238 8.42857143,5 11.5238095,3.47619048 C13.952381,2.28571429 16.952381,1.61904762 21.2380952,1.28571429 C27.6190476,1.23809524 33.952381,2.14285714 37.1428571,8.47619048 C39.2380952,13.5714286 39.2380952,19.047619 39.2857143,24.3333333 C39.2857143,26.3333333 39.2857143,28.3809524 39.4285714,30.3809524 C39.4761905,31 39.5238095,31.6190476 39.5238095,32.2380952 C39.9047619,38.047619 40.3333333,44.6190476 37.6666667,49.952381 C36.3333333,52.6666667 34,54.6666667 30.8095238,55.952381 C28.2380952,57 25,57.5714286 21.5714286,57.5714286 L21.5714286,57.5714286 Z M21.3333333,1.57142857 C14.6190476,2.0952381 8.04761905,3.57142857 5.61904762,10.8095238 C4.14285714,15.2380952 4.52380952,19.8095238 4.9047619,24.2380952 C5.0952381,26.7142857 5.33333333,29.2380952 5.23809524,31.7619048 C5.19047619,32.952381 5.0952381,34.1904762 5,35.5238095 C4.57142857,40.7619048 4.0952381,46.6666667 6.71428571,50.9047619 C7.80952381,52.6666667 11.3333333,56.8571429 20.4285714,57.1904762 L21.6190476,57.1904762 C32.1428571,57.1904762 36.047619,52.5238095 37.4761905,49.7619048 C40.0952381,44.5238095 39.6666667,37.952381 39.3333333,32.1904762 C39.2857143,31.5714286 39.2380952,30.952381 39.2380952,30.3333333 C39.1428571,28.3333333 39.0952381,26.2857143 39.0952381,24.2857143 C39.047619,19.047619 39.047619,13.5714286 37,8.52380952 C35.5714286,5.71428571 33.4285714,3.80952381 30.4761905,2.71428571 C27.4285714,1.71428571 24,1.57142857 21.3333333,1.57142857 L21.3333333,1.57142857 Z" id="Shape" fill="#000000" sketch:type="MSShapeGroup" mask="url(#mask-38)"></path>
                </g>
                <g id="Clipped">
                    <mask id="mask-40" sketch:name="a" fill="white">
                        <use xlink:href="#path-39"></use>
                    </mask>
                    <g id="a"></g>
                    <path d="M22.4761905,10.0952381 C23.6190476,16.8571429 34.6666667,15.047619 33.0952381,8.23809524 C31.6666667,2.14285714 22.0952381,3.85714286 22.4761905,10.0952381" id="Shape" fill="#FFFFFF" sketch:type="MSShapeGroup" mask="url(#mask-40)"></path>
                </g>
                <g id="Clipped">
                    <mask id="mask-42" sketch:name="a" fill="white">
                        <use xlink:href="#path-41"></use>
                    </mask>
                    <g id="a"></g>
                    <path d="M27.7142857,14.5238095 C25.5714286,14.5238095 22.8571429,13.3809524 22.2857143,10.1428571 C22.1904762,8.61904762 22.6666667,7.23809524 23.6666667,6.19047619 C24.7619048,5 26.4285714,4.33333333 28.1428571,4.33333333 C30.1428571,4.33333333 32.5238095,5.38095238 33.1904762,8.28571429 C33.5714286,9.9047619 33.2857143,11.3333333 32.3809524,12.4761905 C31.3809524,13.7142857 29.6190476,14.5238095 27.7142857,14.5238095 L27.7142857,14.5238095 Z M22.6190476,10.0952381 C22.8571429,11.4285714 23.4761905,12.4761905 24.4761905,13.2380952 C25.3333333,13.9047619 26.5238095,14.2380952 27.7142857,14.2380952 C29.4761905,14.2380952 31.1904762,13.4761905 32.1428571,12.2857143 C33,11.2380952 33.2380952,9.85714286 32.9047619,8.33333333 C32.2857143,5.61904762 30.047619,4.66666667 28.1428571,4.66666667 C26.5238095,4.66666667 24.952381,5.33333333 23.9047619,6.42857143 C23,7.38095238 22.5238095,8.66666667 22.6190476,10.0952381 L22.6190476,10.0952381 Z" id="Shape" fill="#000000" sketch:type="MSShapeGroup" mask="url(#mask-42)"></path>
                </g>
                <g id="Clipped">
                    <mask id="mask-44" sketch:name="a" fill="white">
                        <use xlink:href="#path-43"></use>
                    </mask>
                    <g id="a"></g>
                    <path d="M9.28571429,11.1904762 C10.8095238,17.047619 20.1904762,15.5714286 19.8571429,9.66666667 C19.4285714,2.61904762 7.80952381,3.95238095 9.28571429,11.1904762" id="Shape" fill="#FFFFFF" sketch:type="MSShapeGroup" mask="url(#mask-44)"></path>
                </g>
                <g id="Clipped">
                    <mask id="mask-46" sketch:name="a" fill="white">
                        <use xlink:href="#path-45"></use>
                    </mask>
                    <g id="a"></g>
                    <path d="M14.2857143,15.0952381 C12.2380952,15.0952381 9.85714286,14.0952381 9.0952381,11.2380952 C8.76190476,9.57142857 9.0952381,8.04761905 10.047619,6.9047619 C11.0952381,5.61904762 12.8095238,4.85714286 14.6666667,4.85714286 C17.1428571,4.85714286 19.7619048,6.33333333 19.952381,9.66666667 C20.047619,11.047619 19.6190476,12.2857143 18.6666667,13.2857143 C17.6666667,14.3809524 16,15.0952381 14.2857143,15.0952381 L14.2857143,15.0952381 Z M14.6666667,5.19047619 C12.9047619,5.19047619 11.2857143,5.9047619 10.2857143,7.0952381 C9.38095238,8.19047619 9.0952381,9.57142857 9.42857143,11.1428571 C10.0952381,13.8095238 12.3809524,14.7619048 14.2857143,14.7619048 C15.9047619,14.7619048 17.4761905,14.1428571 18.4761905,13.047619 C19.3333333,12.1428571 19.7619048,10.952381 19.6666667,9.66666667 C19.5714286,7.61904762 18.1904762,5.19047619 14.6666667,5.19047619 L14.6666667,5.19047619 Z" id="Shape" fill="#000000" sketch:type="MSShapeGroup" mask="url(#mask-46)"></path>
                </g>
                <g id="Clipped">
                    <mask id="mask-48" sketch:name="a" fill="white">
                        <use xlink:href="#path-47"></use>
                    </mask>
                    <g id="a"></g>
                    <path d="M23.8095238,18.1904762 C23.8095238,19.047619 24,20.047619 23.8571429,21 C23.6190476,21.4285714 23.1904762,21.4761905 22.8095238,21.6190476 C22.2857143,21.5238095 21.8571429,21.1904762 21.6190476,20.7142857 C21.4761905,19.6666667 21.6666667,18.6190476 21.7142857,17.5714286 L23.8095238,18.1904762 L23.8095238,18.1904762 Z" id="Shape" fill="#FFFFFF" sketch:type="MSShapeGroup" mask="url(#mask-48)"></path>
                </g>
                <g id="Clipped">
                    <mask id="mask-50" sketch:name="a" fill="white">
                        <use xlink:href="#path-49"></use>
                    </mask>
                    <g id="a"></g>
                    <path d="M22.8095238,21.8095238 C22.1904762,21.7142857 21.7142857,21.3333333 21.4761905,20.8095238 C21.3809524,20.047619 21.4285714,19.3333333 21.4761905,18.6190476 C21.5238095,18.2857143 21.5238095,17.952381 21.5238095,17.6190476 L21.5238095,17.4285714 L23.952381,18.1904762 L23.952381,18.2857143 C23.952381,18.5714286 24,18.8571429 24,19.1904762 C24.047619,19.8095238 24.0952381,20.4761905 24,21.0952381 L24,21.1428571 C23.8095238,21.5238095 23.4761905,21.6190476 23.1428571,21.7619048 C23.047619,21.7142857 22.952381,21.7619048 22.8095238,21.8095238 L22.8095238,21.8095238 Z M21.7619048,20.6666667 C21.952381,21.0952381 22.3333333,21.3809524 22.7619048,21.4761905 C22.8571429,21.4285714 22.952381,21.4285714 23,21.3809524 C23.2857143,21.2857143 23.5238095,21.1904762 23.6666667,20.952381 C23.7619048,20.3809524 23.7142857,19.7619048 23.6666667,19.1428571 C23.6666667,18.8571429 23.6190476,18.5714286 23.6190476,18.3333333 L21.8095238,17.7619048 C21.8095238,18.047619 21.7619048,18.3333333 21.7619048,18.5714286 C21.7142857,19.3333333 21.6666667,20 21.7619048,20.6666667 L21.7619048,20.6666667 Z" id="Shape" fill="#000000" sketch:type="MSShapeGroup" mask="url(#mask-50)"></path>
                </g>
                <g id="Clipped">
                    <mask id="mask-52" sketch:name="a" fill="white">
                        <use xlink:href="#path-51"></use>
                    </mask>
                    <g id="a"></g>
                    <path d="M13.4761905,10.2380952 C13.4761905,11.1904762 12.7619048,11.952381 11.9047619,11.952381 C11.047619,11.952381 10.3333333,11.1904762 10.3333333,10.2380952 C10.3333333,9.28571429 11.047619,8.52380952 11.9047619,8.52380952 C12.7619048,8.52380952 13.4761905,9.28571429 13.4761905,10.2380952" id="Shape" fill="#000000" sketch:type="MSShapeGroup" mask="url(#mask-52)"></path>
                </g>
                <g id="Clipped">
                    <mask id="mask-54" sketch:name="a" fill="white">
                        <use xlink:href="#path-53"></use>
                    </mask>
                    <g id="a"></g>
                    <path d="M12.952381,10.6190476 C12.952381,10.8571429 12.7619048,11.047619 12.5714286,11.047619 C12.3809524,11.047619 12.1904762,10.8571429 12.1904762,10.6190476 C12.1904762,10.3809524 12.3809524,10.1904762 12.5714286,10.1904762 C12.8095238,10.1904762 12.952381,10.3809524 12.952381,10.6190476" id="Shape" fill="#FFFFFF" sketch:type="MSShapeGroup" mask="url(#mask-54)"></path>
                </g>
                <g id="Clipped">
                    <mask id="mask-56" sketch:name="a" fill="white">
                        <use xlink:href="#path-55"></use>
                    </mask>
                    <g id="a"></g>
                    <path d="M26.7619048,9.80952381 C26.7619048,10.7619048 26.047619,11.5238095 25.1904762,11.5238095 C24.3333333,11.5238095 23.6190476,10.7619048 23.6190476,9.80952381 C23.6190476,8.85714286 24.3333333,8.0952381 25.1904762,8.0952381 C26.047619,8.0952381 26.7619048,8.85714286 26.7619048,9.80952381" id="Shape" fill="#000000" sketch:type="MSShapeGroup" mask="url(#mask-56)"></path>
                </g>
                <g id="Clipped">
                    <mask id="mask-58" sketch:name="a" fill="white">
                        <use xlink:href="#path-57"></use>
                    </mask>
                    <g id="a"></g>
                    <path d="M26.2857143,10.1904762 C26.2857143,10.4285714 26.1428571,10.6190476 25.9047619,10.6190476 C25.7142857,10.6190476 25.5238095,10.4285714 25.5238095,10.1904762 C25.5238095,9.95238095 25.6666667,9.76190476 25.9047619,9.76190476 C26.0952381,9.76190476 26.2857143,9.95238095 26.2857143,10.1904762" id="Shape" fill="#FFFFFF" sketch:type="MSShapeGroup" mask="url(#mask-58)"></path>
                </g>
                <g id="Clipped">
                    <mask id="mask-60" sketch:name="a" fill="white">
                        <use xlink:href="#path-59"></use>
                    </mask>
                    <g id="a"></g>
                    <path d="M19.2380952,18.0952381 C18.5238095,19.7619048 19.6190476,23.1428571 21.5238095,20.6666667 C21.3809524,19.6190476 21.5714286,18.5714286 21.6190476,17.5238095 L19.2380952,18.0952381 L19.2380952,18.0952381 Z" id="Shape" fill="#FFFFFF" sketch:type="MSShapeGroup" mask="url(#mask-60)"></path>
                </g>
                <g id="Clipped">
                    <mask id="mask-62" sketch:name="a" fill="white">
                        <use xlink:href="#path-61"></use>
                    </mask>
                    <g id="a"></g>
                    <path d="M20.2380952,21.7142857 C19.9047619,21.7142857 19.5714286,21.5238095 19.3333333,21.1428571 C18.8095238,20.3809524 18.7142857,18.952381 19.0952381,18.047619 L19.1428571,17.952381 L21.7619048,17.2857143 L21.7619048,17.4761905 L21.7142857,18.5238095 C21.6666667,19.2380952 21.6190476,19.9047619 21.7142857,20.6190476 L21.7142857,20.6666667 L21.6666667,20.7142857 C21.1904762,21.3809524 20.7142857,21.7142857 20.2380952,21.7142857 L20.2380952,21.7142857 Z M19.3809524,18.2380952 C19.0952381,19.047619 19.1904762,20.3333333 19.6190476,20.952381 C19.8095238,21.2380952 20,21.3809524 20.2380952,21.3809524 C20.5714286,21.3809524 20.952381,21.0952381 21.3333333,20.6190476 C21.2380952,19.9047619 21.2857143,19.1904762 21.3809524,18.5238095 L21.4285714,17.7142857 L19.3809524,18.2380952 L19.3809524,18.2380952 Z" id="Shape" fill="#000000" sketch:type="MSShapeGroup" mask="url(#mask-62)"></path>
                </g>
                <g id="Clipped">
                    <mask id="mask-64" sketch:name="a" fill="white">
                        <use xlink:href="#path-63"></use>
                    </mask>
                    <g id="a"></g>
                    <path d="M19.4761905,14.8571429 C18.1904762,14.952381 17.1428571,16.5238095 17.8095238,17.7142857 C18.7142857,19.3333333 20.6666667,17.5714286 21.9047619,17.7142857 C23.3333333,17.7619048 24.4761905,19.2380952 25.6190476,18 C26.9047619,16.6190476 25.047619,15.2857143 23.6666667,14.6666667 L19.4761905,14.8571429 L19.4761905,14.8571429 Z" id="Shape" fill="#F6D2A2" sketch:type="MSShapeGroup" mask="url(#mask-64)"></path>
                </g>
                <g id="Clipped">
                    <mask id="mask-66" sketch:name="a" fill="white">
                        <use xlink:href="#path-65"></use>
                    </mask>
                    <g id="a"></g>
                    <path d="M24.6190476,18.6666667 C24.1904762,18.6666667 23.7619048,18.4761905 23.3333333,18.2857143 C22.9047619,18.0952381 22.4285714,17.9047619 21.9047619,17.9047619 L21.7619048,17.9047619 C21.3809524,17.9047619 20.952381,18.047619 20.4761905,18.2380952 C19.952381,18.4285714 19.4285714,18.5714286 18.952381,18.5714286 C18.3809524,18.5714286 17.952381,18.3333333 17.6666667,17.8095238 C17.3333333,17.2380952 17.3809524,16.5714286 17.7142857,15.952381 C18.0952381,15.2380952 18.7619048,14.8095238 19.4761905,14.7142857 L23.7142857,14.5238095 L23.7619048,14.5238095 C24.8095238,14.952381 26,15.7619048 26.2380952,16.7142857 C26.3333333,17.1904762 26.1904762,17.6666667 25.8095238,18.0952381 C25.4285714,18.5238095 25.047619,18.6666667 24.6190476,18.6666667 L24.6190476,18.6666667 Z M21.952381,17.6190476 C22.4761905,17.6190476 23,17.8571429 23.4761905,18.047619 C23.9047619,18.2380952 24.2857143,18.3809524 24.6666667,18.3809524 C25,18.3809524 25.2857143,18.2380952 25.5714286,17.952381 C25.9047619,17.6190476 26,17.2380952 25.952381,16.8571429 C25.7619048,16.047619 24.6190476,15.2857143 23.7142857,14.9047619 L19.5714286,15.0952381 C18.952381,15.1428571 18.3809524,15.5714286 18.047619,16.1428571 C17.7619048,16.6666667 17.7619048,17.2380952 18,17.7142857 C18.2380952,18.1428571 18.5238095,18.3333333 19,18.3333333 C19.4285714,18.3333333 19.9047619,18.1428571 20.3809524,18 C20.9047619,17.8095238 21.3333333,17.6666667 21.8095238,17.6666667 C21.8095238,17.5714286 21.8571429,17.5714286 21.952381,17.6190476 L21.952381,17.6190476 Z" id="Shape" fill="#231F20" sketch:type="MSShapeGroup" mask="url(#mask-66)"></path>
                </g>
                <g id="Clipped">
                    <mask id="mask-68" sketch:name="a" fill="white">
                        <use xlink:href="#path-67"></use>
                    </mask>
                    <g id="a"></g>
                    <path d="M19.3333333,14.8095238 C19.2380952,12.5714286 23.5238095,12.2857143 24,14.1428571 C24.5238095,16.047619 19.5238095,16.4761905 19.3333333,14.8095238" id="Shape" fill="#000000" sketch:type="MSShapeGroup" mask="url(#mask-68)"></path>
                </g>
            </g>
        </g>
    </g>
</svg>