<?xml version="1.0" encoding="UTF-8" standalone="no"?>
<svg width="60px" height="60px" viewBox="0 0 60 60" version="1.1" xmlns="http://www.w3.org/2000/svg" xmlns:xlink="http://www.w3.org/1999/xlink" xmlns:sketch="http://www.bohemiancoding.com/sketch/ns">
    <!-- Generator: Sketch 3.3.3 (12081) - http://www.bohemiancoding.com/sketch -->
    <title>icons/skills/id 147</title>
    <desc>Created with Sketch.</desc>
    <defs></defs>
    <g id="Page-1" stroke="none" stroke-width="1" fill="none" fill-rule="evenodd" sketch:type="MSPage">
        <g id="icons/skills/id-147" sketch:type="MSArtboardGroup" fill="#EE4323">
            <path d="M42.4322337,22.6721014 L42.0651486,22.471609 C42.2583768,22.938456 42.3213333,23.336535 42.3145534,23.6924815 C42.3833213,23.4043343 42.4288437,23.1069858 42.4346551,22.7980144 C42.4390136,23.1820493 42.3925226,23.5428387 42.3024463,23.8784455 L42.3145534,23.6919973 C42.2084958,24.1385044 42.0312489,24.5520804 41.7944355,24.9307882 L41.9082416,24.8097179 C40.5135122,27.1434683 36.708516,27.6534162 34.8319269,25.2431494 C31.8196988,21.3737439 34.8939149,17.202147 35.3244408,13.1046451 C35.862477,7.96932887 32.6424923,2.98365551 28.6495951,-1.59872116e-13 C30.8487154,3.55752855 27.9512619,8.2647403 25.6330085,10.8953549 C23.3849759,13.4470318 20.6516937,15.5768998 18.1702376,17.8937003 C15.505239,20.3843577 12.9414552,23.0052867 10.7515363,25.9269543 C6.36927712,31.7741636 3.68587585,39.1284555 5.65786826,46.4241495 C7.62792355,53.7154849 13.9429484,58.3563501 21.074471,59.9970943 C17.4767472,58.4415836 14.1100253,54.489366 14.1022768,50.4456193 C14.0930755,46.0357561 16.8868928,42.2927479 20.3625779,39.8330845 C19.9446434,41.4113564 19.716547,42.8549982 20.7514556,44.2666774 C21.7142063,45.5795633 23.3995043,46.2168772 24.9903676,45.8706162 C28.7091617,45.0575084 28.8791443,40.9696921 26.6751813,38.5879979 C24.4954323,36.2305178 22.3868727,33.5655192 23.2159618,30.1455265 C23.6314749,28.4311716 24.6843019,26.8262642 26.0184962,25.6775495 C24.992789,28.371605 27.9057394,31.0283708 29.8244609,32.350458 C33.1543774,34.6464345 36.8058565,36.3820977 39.8674812,39.0727632 C43.0869816,41.9009645 45.4652858,45.7248477 44.984879,50.160862 C44.4637926,54.9683199 40.6437838,58.3122806 36.3593494,60 C45.4134678,58.0008878 54.7707461,50.9734856 54.9610686,40.9309496 C55.120397,32.6700835 49.4533402,26.3119577 42.4322337,22.6721014 L42.4322337,22.6721014 Z" id="Shape" sketch:type="MSShapeGroup"></path>
        </g>
    </g>
</svg>