<?xml version="1.0" encoding="UTF-8" standalone="no"?>
<svg width="60px" height="60px" viewBox="0 0 60 60" version="1.1" xmlns="http://www.w3.org/2000/svg" xmlns:xlink="http://www.w3.org/1999/xlink" xmlns:sketch="http://www.bohemiancoding.com/sketch/ns">
    <!-- Generator: Sketch 3.3.3 (12081) - http://www.bohemiancoding.com/sketch -->
    <title>icons/skills/id 128</title>
    <desc>Created with Sketch.</desc>
    <defs></defs>
    <g id="Page-1" stroke="none" stroke-width="1" fill="none" fill-rule="evenodd" sketch:type="MSPage">
        <g id="icons/skills/id-128" sketch:type="MSArtboardGroup" fill="#5B4282">
            <path d="M35.661264,30.511792 C34.578288,30.15544 33.019248,30.232 30.984144,30.232 L22.808,30.232 L22.808,40.904 L31.551616,40.904 C32.917632,40.904 33.877184,40.75784 34.429808,40.65576 C35.403744,40.481296 36.218064,40.143504 36.872304,39.736112 C37.52608,39.329648 38.063856,38.712992 38.486096,37.935328 C38.907408,37.157664 39.118528,36.24776 39.118528,35.230208 C39.118528,34.038656 38.813216,33.123648 38.202128,32.243904 C37.591504,31.36416 36.744704,30.868144 35.661264,30.511792 L35.661264,30.511792 Z M34.538848,25.632368 C35.613936,25.313136 36.424544,24.755408 36.969744,24.0144 C37.515408,23.272928 37.787776,22.329616 37.787776,21.209984 C37.787776,20.14928 37.53304,19.208288 37.024032,18.400928 C36.515024,17.593568 35.788864,17.281296 34.843696,16.982944 C33.898528,16.68552 32.277776,16.776 29.980976,16.776 L22.808,16.776 L22.808,26.056 L30.504368,26.056 C32.379856,26.056 33.724064,25.87968 34.538848,25.632368 L34.538848,25.632368 Z M59,8.714 C59,4.453552 55.546448,1 51.286,1 L8.714,1 C4.453552,1 1,4.453552 1,8.714 L1,51.286 C1,55.546448 4.453552,59 8.714,59 L51.286,59 C55.546448,59 59,55.546448 59,51.286 L59,8.714 L59,8.714 Z M42.552592,39.39368 C41.920624,40.680352 41.138784,41.672384 40.208464,42.37024 C39.27768,43.068096 38.11072,43.66016 36.708048,44.016512 C35.30584,44.373328 33.586256,44.616 31.551616,44.616 L18.632,44.616 L18.632,12.6 L31.35488,12.6 C33.797376,12.6 35.75592,12.882576 37.23144,13.528928 C38.707424,14.176208 39.862784,15.151536 40.699376,16.496208 C41.53504,17.84088 41.953104,19.237056 41.953104,20.705152 C41.953104,22.071632 41.581904,23.353664 40.840896,24.560064 C40.099424,25.767392 38.979792,26.73808 37.482928,27.479552 C39.415952,28.04656 40.902608,29.012608 41.941968,30.378624 C42.981328,31.745104 43.501008,33.358432 43.501008,35.219072 C43.501008,36.7164 43.185024,38.107472 42.552592,39.39368 L42.552592,39.39368 Z" id="Shape" sketch:type="MSShapeGroup"></path>
        </g>
    </g>
</svg>