<?xml version="1.0" encoding="UTF-8" standalone="no"?>
<svg width="64px" height="64px" viewBox="0 0 64 64" version="1.1" xmlns="http://www.w3.org/2000/svg" xmlns:xlink="http://www.w3.org/1999/xlink" xmlns:sketch="http://www.bohemiancoding.com/sketch/ns">
    <!-- Generator: Sketch 3.4.2 (15857) - http://www.bohemiancoding.com/sketch -->
    <title>icons/skills/id-213</title>
    <desc>Created with Sketch.</desc>
    <defs></defs>
    <g id="Languages" stroke="none" stroke-width="1" fill="none" fill-rule="evenodd" sketch:type="MSPage">
        <g id="icons/skills/id-213" sketch:type="MSArtboardGroup">
            <g id="html5-original-wordmark" sketch:type="MSLayerGroup" transform="translate(11.000000, 2.000000)">
                <path d="M4.21619048,54.9304762 L0.386190476,11.9728571 L42.4709524,11.9728571 L38.6371429,54.9238095 L21.4028571,59.7014286 L4.21619048,54.9304762 Z" id="Shape" fill="#E44D26" sketch:type="MSShapeGroup"></path>
                <path d="M21.4285714,56.0495238 L35.3542857,52.1885714 L38.6309524,15.4857143 L21.4285714,15.4857143 L21.4285714,56.0495238 Z" id="Shape" fill="#F16529" sketch:type="MSShapeGroup"></path>
                <path d="M21.4285714,31.4180952 L14.4566667,31.4180952 L13.9757143,26.022381 L21.4285714,26.022381 L21.4285714,20.7538095 L8.21761905,20.7538095 L8.34333333,22.167619 L9.63857143,36.6861905 L21.4285714,36.6861905 L21.4285714,31.4180952 Z M21.4285714,45.1004762 L21.4052381,45.1066667 L15.5380952,43.5219048 L15.1628571,39.3204762 L9.87380952,39.3204762 L10.6119048,47.5928571 L21.4042857,50.5890476 L21.4285714,50.5819048 L21.4285714,45.1004762 Z" id="Shape" fill="#EBEBEB" sketch:type="MSShapeGroup"></path>
                <path d="M4.30190476,0.298571429 L6.97904762,0.298571429 L6.97904762,2.94428571 L9.42857143,2.94428571 L9.42857143,0.298571429 L12.1061905,0.298571429 L12.1061905,8.30904762 L9.42857143,8.30904762 L9.42857143,5.62666667 L6.97952381,5.62666667 L6.97952381,8.30904762 L4.30190476,8.30904762 L4.30190476,0.298571429 L4.30190476,0.298571429 Z M15.6266667,2.9552381 L13.2695238,2.9552381 L13.2695238,0.298571429 L20.662381,0.298571429 L20.662381,2.9552381 L18.3042857,2.9552381 L18.3042857,8.30904762 L15.6266667,8.30904762 L15.6266667,2.9552381 L15.6266667,2.9552381 Z M21.8357143,0.298571429 L24.6271429,0.298571429 L26.3447619,3.11333333 L28.0604762,0.298571429 L30.8533333,0.298571429 L30.8533333,8.30904762 L28.1861905,8.30904762 L28.1861905,4.33857143 L26.3447619,7.18666667 L26.2980952,7.18666667 L24.4552381,4.33857143 L24.4552381,8.30904762 L21.8352381,8.30904762 L21.8352381,0.298571429 L21.8357143,0.298571429 Z M32.1861905,0.298571429 L34.8642857,0.298571429 L34.8642857,5.66142857 L38.6295238,5.66142857 L38.6295238,8.30952381 L32.1861905,8.30952381 L32.1861905,0.298571429 L32.1861905,0.298571429 Z" id="Shape" fill="#000000" sketch:type="MSShapeGroup"></path>
                <path d="M21.4104762,31.4180952 L21.4104762,36.6861905 L27.8980952,36.6861905 L27.2866667,43.5190476 L21.4104762,45.1052381 L21.4104762,50.5861905 L32.2114286,47.5928571 L32.2904762,46.702381 L33.5285714,32.832381 L33.6571429,31.4180952 L32.2371429,31.4180952 L21.4104762,31.4180952 Z M21.4104762,20.7538095 L21.4104762,26.022381 L34.1366667,26.022381 L34.2419048,24.8380952 L34.482381,22.167619 L34.6085714,20.7538095 L21.4104762,20.7538095 Z" id="Shape" fill="#FFFFFF" sketch:type="MSShapeGroup"></path>
            </g>
        </g>
    </g>
</svg>