<?xml version="1.0" encoding="UTF-8" standalone="no"?>
<svg width="60px" height="60px" viewBox="0 0 60 60" version="1.1" xmlns="http://www.w3.org/2000/svg" xmlns:xlink="http://www.w3.org/1999/xlink" xmlns:sketch="http://www.bohemiancoding.com/sketch/ns">
    <!-- Generator: Sketch 3.3.3 (12081) - http://www.bohemiancoding.com/sketch -->
    <title>icons/skills/id 248</title>
    <desc>Created with Sketch.</desc>
    <defs></defs>
    <g id="Page-1" stroke="none" stroke-width="1" fill="none" fill-rule="evenodd" sketch:type="MSPage">
        <g id="icons/skills/id-248" sketch:type="MSArtboardGroup">
            <g id="Imported-Layers" sketch:type="MSLayerGroup" transform="translate(8.000000, 0.000000)">
                <path d="M42.9131579,11.9947368 L0.517894737,11.9947368 L4.49052632,55.0921053 L21.7157895,59.9752632 L38.9347368,55.0921053 L42.9131579,11.9947368" id="Fill-1" fill="#DC9D34" sketch:type="MSShapeGroup"></path>
                <path d="M21.7157895,15.5052632 L21.7157895,56.3257895 L35.6642105,52.3715789 L39.0610526,15.5052632 L21.7157895,15.5052632" id="Fill-2" fill="#EABA31" sketch:type="MSShapeGroup"></path>
                <path d="M32.8131579,20.7936842 L11.3589474,20.7936842 L9.86789474,36.9305263 L9.89947368,36.8294737 L28.1236842,36.8294737 L27.5289474,43.6547368 L21.7157895,45.3310526 L15.8136842,43.6294737 L15.4594737,39.4989474 L10.1015789,39.4989474 L10.8668421,47.7536842 L21.7157895,50.8347368 L32.5642105,47.7536842 L34.0573684,31.5536842 L14.7194737,31.5536842 L14.9657895,26.1515789 L28.3884211,26.1515789 L28.5857895,29.2431579 L33.9915789,29.2431579 L32.8131579,20.7936842" id="Fill-3" fill="#FFFFFF" sketch:type="MSShapeGroup"></path>
                <path d="M21.7157895,20.7936842 L11.3589474,20.7936842 L9.86789474,36.9305263 L9.89947368,36.8294737 L21.7157895,36.8294737 L21.7157895,31.5536842 L15.4652632,31.5536842 L15.7121053,26.1515789 L21.7157895,26.1515789 L21.7157895,20.7936842 L21.7157895,20.7936842 Z M15.4594737,39.4989474 L10.1015789,39.4989474 L10.8668421,47.7536842 L21.7157895,50.8278947 L21.7157895,45.3310526 L15.8136842,43.6294737 L15.4594737,39.4989474 L15.4594737,39.4989474 Z" id="Fill-4" fill="#ECECE9" sketch:type="MSShapeGroup"></path>
                <path d="M17.59,5.63736842 L13.82,5.63736842 L13.82,8.34473684 L20.2915789,8.34473684 L20.2915789,0.298421053 L17.59,0.298421053 L17.59,5.63736842" id="Fill-5" fill="#1A1918" sketch:type="MSShapeGroup"></path>
                <path d="M29.6115789,0.339473684 L23.0357895,0.339473684 L23.0357895,3.15684211 C23.9147368,4.03684211 24.3742105,4.45789474 25.6468421,5.73052632 C24.9026316,5.73052632 23.0357895,5.73315789 23.0357895,5.73315789 L23.0357895,8.30315789 L29.6115789,8.30315789 L29.6115789,5.73263158 L26.9847368,3.15684211 L29.6115789,3.15684211 L29.6115789,0.339473684" id="Fill-6" fill="#1A1918" sketch:type="MSShapeGroup"></path>
            </g>
        </g>
    </g>
</svg>