<?xml version="1.0" encoding="UTF-8" standalone="no"?>
<svg width="60px" height="60px" viewBox="0 0 60 60" version="1.1" xmlns="http://www.w3.org/2000/svg" xmlns:xlink="http://www.w3.org/1999/xlink" xmlns:sketch="http://www.bohemiancoding.com/sketch/ns">
    <!-- Generator: Sketch 3.3.3 (12081) - http://www.bohemiancoding.com/sketch -->
    <title>icons/skills/id 201</title>
    <desc>Created with Sketch.</desc>
    <defs>
        <linearGradient x1="50%" y1="0%" x2="50%" y2="100%" id="linearGradient-1">
            <stop stop-color="#FFFFFF" stop-opacity="0.5" offset="0%"></stop>
            <stop stop-color="#000000" stop-opacity="0.5" offset="100%"></stop>
        </linearGradient>
        <polygon id="path-2" points="26 -1 52 14 52 44 26 59 0 44 0 14 "></polygon>
    </defs>
    <g id="Page-1" stroke="none" stroke-width="1" fill="none" fill-rule="evenodd" sketch:type="MSPage">
        <g id="icons/skills/id-201" sketch:type="MSArtboardGroup">
            <g id="Polygon-1-+-Group" sketch:type="MSLayerGroup" transform="translate(4.000000, 1.000000)">
                <g id="Polygon-1">
                    <use fill="#21B2F1" sketch:type="MSShapeGroup" xlink:href="#path-2"></use>
                    <use fill-opacity="0.300000012" fill="url(#linearGradient-1)" xlink:href="#path-2"></use>
                </g>
                <g id="Group" transform="translate(10.000000, 13.000000)" fill="#FFFFFF" sketch:type="MSShapeGroup">
                    <path d="M25.458,22 L29,22 C29.5522847,22 30,21.5522847 30,21 C30,20.4477153 29.5522847,20 29,20 L25.458,20 C24.9057153,20 24.458,20.4477153 24.458,21 C24.458,21.5522847 24.9057153,22 25.458,22 L25.458,22 Z" id="Shape"></path>
                    <path d="M10.9585,22 L20.9575,22 C21.5097847,22 21.9575,21.5522847 21.9575,21 C21.9575,20.4477153 21.5097847,20 20.9575,20 L10.9585,20 C10.4062153,20 9.9585,20.4477153 9.9585,21 C9.9585,21.5522847 10.4062153,22 10.9585,22 L10.9585,22 Z" id="Shape"></path>
                    <path d="M3,22 L6.5,22 C7.05228475,22 7.5,21.5522847 7.5,21 C7.5,20.4477153 7.05228475,20 6.5,20 L3,20 C2.44771525,20 2,20.4477153 2,21 C2,21.5522847 2.44771525,22 3,22 L3,22 Z" id="Shape"></path>
                    <path d="M14.6207612,11.5223097 L6.94976115,26.8653097 C6.08135965,28.6005014 4.12466502,29.5004438 2.24302862,29.0294308 L2.89436571,30.4472362 L13.1743657,9.91723617 C13.4216436,9.42340208 13.2217703,8.82261214 12.7279362,8.57533429 C12.2341021,8.32805643 11.6333121,8.52792974 11.3860343,9.02176383 L1.10603429,29.5517638 C0.819544159,30.123908 1.1366593,30.814192 1.75737138,30.9695692 C4.54856597,31.6682636 7.45050057,30.3335771 8.73846106,27.7600457 L16.4096388,12.4166903 C16.6566152,11.9227053 16.4563752,11.3220375 15.9623903,11.0750612 C15.4684053,10.8280848 14.8677375,11.0283248 14.6207612,11.5223097 L14.6207612,11.5223097 Z" id="Shape"></path>
                    <path d="M15.5903612,12.4166903 L23.2613612,27.7596903 C24.5494994,30.3335771 27.451434,31.6682636 30.2426286,30.9695692 C30.8633407,30.814192 31.1804558,30.123908 30.8939657,29.5517638 L20.6139657,9.02176383 C20.3666879,8.52792974 19.7658979,8.32805643 19.2720638,8.57533429 C18.7782297,8.82261214 18.5783564,9.42340208 18.8256343,9.91723617 L29.1056343,30.4472362 L29.7569714,29.0294308 C27.875335,29.5004438 25.9186403,28.6005014 25.0500611,26.8649543 L17.3792388,11.5223097 C17.1322625,11.0283248 16.5315947,10.8280848 16.0376097,11.0750612 C15.5436248,11.3220375 15.3433848,11.9227053 15.5903612,12.4166903 L15.5903612,12.4166903 Z" id="Shape"></path>
                    <path d="M13,8 C13,6.34328475 14.3432847,5 16,5 C17.6567153,5 19,6.34328475 19,8 C19,9.65671525 17.6567153,11 16,11 C14.3432847,11 13,9.65671525 13,8 L13,8 Z M11,8 C11,10.7612847 13.2387153,13 16,13 C18.7612847,13 21,10.7612847 21,8 C21,5.23871525 18.7612847,3 16,3 C13.2387153,3 11,5.23871525 11,8 L11,8 Z" id="Shape"></path>
                    <path d="M15,1 L15,4 C15,4.55228475 15.4477153,5 16,5 C16.5522847,5 17,4.55228475 17,4 L17,1 C17,0.44771525 16.5522847,0 16,0 C15.4477153,0 15,0.44771525 15,1 L15,1 Z" id="Shape"></path>
                    <path d="M15,19 L15,23 C15,23.5522847 15.4477153,24 16,24 C16.5522847,24 17,23.5522847 17,23 L17,19 C17,18.4477153 16.5522847,18 16,18 C15.4477153,18 15,18.4477153 15,19 L15,19 Z" id="Shape"></path>
                </g>
            </g>
        </g>
    </g>
</svg>