<?xml version="1.0" encoding="UTF-8" standalone="no"?>
<svg width="60px" height="60px" viewBox="0 0 60 60" version="1.1" xmlns="http://www.w3.org/2000/svg" xmlns:xlink="http://www.w3.org/1999/xlink" xmlns:sketch="http://www.bohemiancoding.com/sketch/ns">
    <!-- Generator: Sketch 3.3.3 (12081) - http://www.bohemiancoding.com/sketch -->
    <title>icons/skills/id 286</title>
    <desc>Created with Sketch.</desc>
    <defs></defs>
    <g id="Page-1" stroke="none" stroke-width="1" fill="none" fill-rule="evenodd" sketch:type="MSPage">
        <g id="icons/skills/id-286" sketch:type="MSArtboardGroup" fill="#83CD29">
            <path d="M28.2550464,57.7120927 C27.522596,57.7120927 26.7934834,57.5207285 26.1526358,57.1498675 L19.4582252,53.188702 C18.4591258,52.6294437 18.9471788,52.4317748 19.2765033,52.3168079 C20.6104901,51.8543444 20.880106,51.7475364 22.3034702,50.9398013 C22.4518146,50.8567285 22.648,50.8886225 22.8011656,50.978 L27.943894,54.0316689 C28.1304371,54.1351391 28.3933775,54.1351391 28.5647152,54.0316689 L48.6145695,42.4593245 C48.8007417,42.3525166 48.9209007,42.1374172 48.9209007,41.916755 L48.9209007,18.778 C48.9209007,18.551404 48.8007417,18.3403841 48.6097483,18.2254172 L28.568053,6.66308609 C28.3833642,6.5547947 28.1371126,6.5547947 27.9505695,6.66308609 L7.91406623,18.228755 C7.71936424,18.3403841 7.59623841,18.5584503 7.59623841,18.778 L7.59623841,41.916755 C7.59623841,42.1374172 7.71936424,42.3476954 7.91258278,42.4522781 L13.4050331,45.626106 C16.3849007,47.1154834 18.2095364,45.3609404 18.2095364,43.5978675 L18.2095364,20.7524636 C18.2095364,20.4294437 18.4691391,20.1746623 18.7921589,20.1746623 L21.3344106,20.1746623 C21.6522384,20.1746623 21.9155497,20.4294437 21.9155497,20.7524636 L21.9155497,43.5978675 C21.9155497,47.575351 19.749351,49.8565166 15.9788079,49.8565166 C14.8198675,49.8565166 13.9075497,49.8565166 11.3604768,48.6011523 L6.10278146,45.5738146 C4.80402649,44.8231921 4,43.4194834 4,41.916755 L4,18.778 C4,17.2745298 4.80402649,15.8711921 6.10278146,15.1239073 L26.1526358,3.53821192 C27.4209801,2.82059603 29.1076556,2.82059603 30.3667285,3.53821192 L50.4139868,15.1239073 C51.7131126,15.8749007 52.520106,17.2745298 52.520106,18.778 L52.520106,41.916755 C52.520106,43.4194834 51.7131126,44.8183709 50.4139868,45.5738146 L30.3667285,57.1498675 C29.7255099,57.5207285 28.9982517,57.7120927 28.2550464,57.7120927 L28.2550464,57.7120927 Z M44.4442384,34.9008079 C44.4442384,30.5702649 41.517404,29.4165166 35.3555497,28.6024768 C29.1295364,27.7784238 28.4968477,27.3537881 28.4968477,25.8951921 C28.4968477,24.6917483 29.0327417,23.0851788 33.6443974,23.0851788 C37.7635497,23.0851788 39.2814834,23.972649 39.9056424,26.7496556 C39.9605298,27.0107417 40.1986225,27.202106 40.4686093,27.202106 L43.0705695,27.202106 C43.2322649,27.202106 43.3854305,27.1323841 43.4952053,27.0174172 C43.6049801,26.8942914 43.6632053,26.7363046 43.648,26.5712715 C43.245245,21.7879073 40.0673377,19.5590331 33.6443974,19.5590331 C27.9272053,19.5590331 24.5178808,21.9714834 24.5178808,26.0168344 C24.5178808,30.4056026 27.9105166,31.6175762 33.3966623,32.1605166 C39.9605298,32.8028477 40.4700927,33.761894 40.4700927,35.0539735 C40.4700927,37.2950861 38.6721589,38.2507947 34.4484238,38.2507947 C29.1425166,38.2507947 27.9754172,36.9182914 27.5841589,34.2796159 C27.5396556,33.996649 27.2982252,33.788596 27.0082119,33.788596 L24.415894,33.788596 C24.0947285,33.788596 23.8369801,34.0448609 23.8369801,34.3660265 C23.8369801,37.7441987 25.6749669,41.7717483 34.4484238,41.7717483 C40.8012715,41.7717483 44.4442384,39.2691788 44.4442384,34.9008079 L44.4442384,34.9008079 Z M53.2562649,11.4364371 L53.2562649,11.8354834 L54.3847947,11.8354834 L54.3847947,14.7879073 L54.8416954,14.7879073 L54.8416954,11.8354834 L55.9743046,11.8354834 L55.9743046,11.4364371 L53.2562649,11.4364371 L53.2562649,11.4364371 Z M56.3792848,14.7879073 L56.8131921,14.7879073 L56.8131921,12.810106 C56.8131921,12.7296291 56.8087417,12.6057616 56.8050331,12.4388742 C56.7994702,12.2693907 56.7994702,12.1440397 56.7994702,12.0613377 L56.7994702,11.9604636 L57.7659338,14.7879073 L58.2146755,14.7879073 L59.1726093,11.9604636 C59.1726093,12.140702 59.1703841,12.3105563 59.1659338,12.4715099 C59.1640795,12.6280132 59.162596,12.7411258 59.162596,12.810106 L59.162596,14.7879073 L59.5961325,14.7879073 L59.5961325,11.4364371 L58.9500927,11.4364371 L57.9925298,14.2690728 L57.0297748,11.4364371 L56.3792848,11.4364371 L56.3792848,14.7879073 L56.3792848,14.7879073 Z" id="Imported-Layers" sketch:type="MSShapeGroup"></path>
        </g>
    </g>
</svg>