<?xml version="1.0" encoding="UTF-8" standalone="no"?>
<svg width="60px" height="60px" viewBox="0 0 60 60" version="1.1" xmlns="http://www.w3.org/2000/svg" xmlns:xlink="http://www.w3.org/1999/xlink" xmlns:sketch="http://www.bohemiancoding.com/sketch/ns">
    <!-- Generator: Sketch 3.3.3 (12081) - http://www.bohemiancoding.com/sketch -->
    <title>icons/skills/id 280</title>
    <desc>Created with Sketch.</desc>
    <defs>
        <linearGradient x1="50%" y1="0%" x2="50%" y2="100%" id="linearGradient-1">
            <stop stop-color="#FFFFFF" stop-opacity="0.5" offset="0%"></stop>
            <stop stop-color="#000000" stop-opacity="0.5" offset="100%"></stop>
        </linearGradient>
        <polygon id="path-2" points="26 -1 52 14 52 44 26 59 0 44 0 14 "></polygon>
    </defs>
    <g id="Page-1" stroke="none" stroke-width="1" fill="none" fill-rule="evenodd" sketch:type="MSPage">
        <g id="icons/skills/id-280" sketch:type="MSArtboardGroup">
            <g id="Polygon-1-+-Group" sketch:type="MSLayerGroup" transform="translate(4.000000, 1.000000)">
                <g id="Polygon-1">
                    <use fill="#21B2F1" sketch:type="MSShapeGroup" xlink:href="#path-2"></use>
                    <use fill-opacity="0.300000012" fill="url(#linearGradient-1)" xlink:href="#path-2"></use>
                </g>
                <g id="Group" transform="translate(15.000000, 13.000000)" fill="#FFFFFF" sketch:type="MSShapeGroup">
                    <path d="M19,30 L3,30 C2.44728475,30 2,29.5527153 2,29 L2,3 C2,2.44728475 2.44728475,2 3,2 L19,2 C19.5527153,2 20,2.44728475 20,3 L20,29 C20,29.5527153 19.5527153,30 19,30 L19,30 Z M19,32 C20.6572847,32 22,30.6572847 22,29 L22,3 C22,1.34271525 20.6572847,0 19,0 L3,0 C1.34271525,0 0,1.34271525 0,3 L0,29 C0,30.6572847 1.34271525,32 3,32 L19,32 L19,32 Z" id="Shape"></path>
                    <path d="M17,22 L5,22 L6,23 L6,6 L5,7 L17,7 L16,6 L16,23 L17,22 L17,22 Z M17,24 C17.5522847,24 18,23.5522847 18,23 L18,6 C18,5.44771525 17.5522847,5 17,5 L5,5 C4.44771525,5 4,5.44771525 4,6 L4,23 C4,23.5522847 4.44771525,24 5,24 L17,24 L17,24 Z" id="Shape"></path>
                    <path d="M11,27 C11,27.0002847 11.0002847,27 11,27 C10.9997153,27 11,27.0002847 11,27 C11,26.9997153 10.9997153,27 11,27 C11.0002847,27 11,26.9997153 11,27 L11,27 Z M9,27 C9,28.1042847 9.89571525,29 11,29 C12.1042847,29 13,28.1042847 13,27 C13,25.8957153 12.1042847,25 11,25 C9.89571525,25 9,25.8957153 9,27 L9,27 Z" id="Shape"></path>
                    <path d="M5,10 L17,10 C17.5522847,10 18,9.55228475 18,9 C18,8.44771525 17.5522847,8 17,8 L5,8 C4.44771525,8 4,8.44771525 4,9 C4,9.55228475 4.44771525,10 5,10 L5,10 Z" id="Shape"></path>
                    <path d="M5,20 L17,20 C17.5522847,20 18,19.5522847 18,19 C18,18.4477153 17.5522847,18 17,18 L5,18 C4.44771525,18 4,18.4477153 4,19 C4,19.5522847 4.44771525,20 5,20 L5,20 Z" id="Shape"></path>
                </g>
            </g>
        </g>
    </g>
</svg>