<?xml version="1.0" encoding="UTF-8" standalone="no"?>
<svg width="60px" height="60px" viewBox="0 0 60 60" version="1.1" xmlns="http://www.w3.org/2000/svg" xmlns:xlink="http://www.w3.org/1999/xlink" xmlns:sketch="http://www.bohemiancoding.com/sketch/ns">
    <!-- Generator: Sketch 3.3.3 (12081) - http://www.bohemiancoding.com/sketch -->
    <title>icons/skills/id 241</title>
    <desc>Created with Sketch.</desc>
    <defs>
        <linearGradient x1="50%" y1="0%" x2="50%" y2="100%" id="linearGradient-1">
            <stop stop-color="#FFFFFF" stop-opacity="0.5" offset="0%"></stop>
            <stop stop-color="#000000" stop-opacity="0.5" offset="100%"></stop>
        </linearGradient>
        <polygon id="path-2" points="26 -1 52 14 52 44 26 59 0 44 0 14 "></polygon>
    </defs>
    <g id="Page-1" stroke="none" stroke-width="1" fill="none" fill-rule="evenodd" sketch:type="MSPage">
        <g id="icons/skills/id-241" sketch:type="MSArtboardGroup">
            <g id="Polygon-1-+-Group" sketch:type="MSLayerGroup" transform="translate(4.000000, 1.000000)">
                <g id="Polygon-1">
                    <use fill="#21B2F1" sketch:type="MSShapeGroup" xlink:href="#path-2"></use>
                    <use fill-opacity="0.300000012" fill="url(#linearGradient-1)" xlink:href="#path-2"></use>
                </g>
                <g id="Group" transform="translate(11.000000, 14.000000)" fill="#FFFFFF" sketch:type="MSShapeGroup">
                    <path d="M2,3 L2,1 L1,2 L3,2 C3.55228475,2 4,1.55228475 4,1 C4,0.44771525 3.55228475,0 3,0 L1,0 C0.44771525,0 0,0.44771525 0,1 L0,3 C0,3.55228475 0.44771525,4 1,4 C1.55228475,4 2,3.55228475 2,3 L2,3 Z" id="Shape"></path>
                    <path d="M3,22 L1,22 L2,23 L2,21 C2,20.4477153 1.55228475,20 1,20 C0.44771525,20 0,20.4477153 0,21 L0,23 C0,23.5522847 0.44771525,24 1,24 L3,24 C3.55228475,24 4,23.5522847 4,23 C4,22.4477153 3.55228475,22 3,22 L3,22 Z" id="Shape"></path>
                    <path d="M21,2 L23,2 L22,1 L22,3 C22,3.55228475 22.4477153,4 23,4 C23.5522847,4 24,3.55228475 24,3 L24,1 C24,0.44771525 23.5522847,0 23,0 L21,0 C20.4477153,0 20,0.44771525 20,1 C20,1.55228475 20.4477153,2 21,2 L21,2 Z" id="Shape"></path>
                    <path d="M7,2 L10,2 C10.5522847,2 11,1.55228475 11,1 C11,0.44771525 10.5522847,0 10,0 L7,0 C6.44771525,0 6,0.44771525 6,1 C6,1.55228475 6.44771525,2 7,2 L7,2 Z" id="Shape"></path>
                    <path d="M7,24 L10,24 C10.5522847,24 11,23.5522847 11,23 C11,22.4477153 10.5522847,22 10,22 L7,22 C6.44771525,22 6,22.4477153 6,23 C6,23.5522847 6.44771525,24 7,24 L7,24 Z" id="Shape"></path>
                    <path d="M14,2 L17,2 C17.5522847,2 18,1.55228475 18,1 C18,0.44771525 17.5522847,0 17,0 L14,0 C13.4477153,0 13,0.44771525 13,1 C13,1.55228475 13.4477153,2 14,2 L14,2 Z" id="Shape"></path>
                    <path d="M0,7 L0,10 C0,10.5522847 0.44771525,11 1,11 C1.55228475,11 2,10.5522847 2,10 L2,7 C2,6.44771525 1.55228475,6 1,6 C0.44771525,6 0,6.44771525 0,7 L0,7 Z" id="Shape"></path>
                    <path d="M22,7 L22,10 C22,10.5522847 22.4477153,11 23,11 C23.5522847,11 24,10.5522847 24,10 L24,7 C24,6.44771525 23.5522847,6 23,6 C22.4477153,6 22,6.44771525 22,7 L22,7 Z" id="Shape"></path>
                    <path d="M0,14 L0,17 C0,17.5522847 0.44771525,18 1,18 C1.55228475,18 2,17.5522847 2,17 L2,14 C2,13.4477153 1.55228475,13 1,13 C0.44771525,13 0,13.4477153 0,14 L0,14 Z" id="Shape"></path>
                    <path d="M28.1414214,15.0100505 L14.1414214,13.0100505 C13.481455,12.9157696 12.9157696,13.481455 13.0100505,14.1414214 L15.0100505,28.1414214 C15.1265881,28.9571846 16.1244187,29.2897948 16.7071068,28.7071068 L20.7071068,24.7071068 L19.2928932,24.7071068 L24.2928932,29.7071068 C24.6834175,30.0976311 25.3165825,30.0976311 25.7071068,29.7071068 L29.7071068,25.7071068 C30.0976311,25.3165825 30.0976311,24.6834175 29.7071068,24.2928932 L24.7071068,19.2928932 L24.7071068,20.7071068 L28.7071068,16.7071068 C29.2897948,16.1244187 28.9571846,15.1265881 28.1414214,15.0100505 L28.1414214,15.0100505 Z M27.8585786,16.9899495 L27.2928932,15.2928932 L23.2928932,19.2928932 C22.9023689,19.6834175 22.9023689,20.3165825 23.2928932,20.7071068 L28.2928932,25.7071068 L28.2928932,24.2928932 L24.2928932,28.2928932 L25.7071068,28.2928932 L20.7071068,23.2928932 C20.3165825,22.9023689 19.6834175,22.9023689 19.2928932,23.2928932 L15.2928932,27.2928932 L16.9899495,27.8585786 L14.9899495,13.8585786 L13.8585786,14.9899495 L27.8585786,16.9899495 L27.8585786,16.9899495 Z" id="Shape"></path>
                </g>
            </g>
        </g>
    </g>
</svg>