<?xml version="1.0" encoding="UTF-8" standalone="no"?>
<svg width="60px" height="60px" viewBox="0 0 60 60" version="1.1" xmlns="http://www.w3.org/2000/svg" xmlns:xlink="http://www.w3.org/1999/xlink" xmlns:sketch="http://www.bohemiancoding.com/sketch/ns">
    <!-- Generator: Sketch 3.3.3 (12081) - http://www.bohemiancoding.com/sketch -->
    <title>icons/skills/id 284</title>
    <desc>Created with Sketch.</desc>
    <defs></defs>
    <g id="Page-1" stroke="none" stroke-width="1" fill="none" fill-rule="evenodd" sketch:type="MSPage">
        <g id="icons/skills/id-284" sketch:type="MSArtboardGroup" fill="#00618A">
            <path d="M59.2758895,58.3260496 L58.0312949,57.1190402 C56.8518797,55.5528301 55.3346732,54.1769251 53.7422962,53.0346194 C52.4724861,52.1230585 49.6217174,50.8917852 49.091718,49.4145427 L48.9941867,49.321769 C49.8948051,49.2199559 50.9462401,48.8945343 51.7773972,48.6714017 C53.1732843,48.2974524 54.325581,48.3940322 55.7671413,48.021986 C56.4170328,47.8364386 57.1463767,47.6504155 57.6221392,47.4648681 L57.6221392,47.0937734 C57.1463767,46.3463505 56.4674636,45.3567646 55.6729403,44.6802303 C53.5943341,42.9103939 51.3715718,41.1419848 49.035578,39.6671211 C47.7400768,38.8497612 46.1614969,38.3183345 44.7889222,37.6251486 C44.3269568,37.3915492 43.5272001,37.2702298 43.2217606,36.8820076 C42.5000289,35.9628345 42.1141856,34.7972165 41.5575435,33.7262751 C40.3924012,31.4821035 39.2505712,29.031451 38.2181667,26.6702419 C37.5140382,25.0602617 37.0558789,23.4731181 36.1776214,22.0287032 C31.9623659,15.0982712 27.4259707,10.9158433 20.3980074,6.80430403 C18.9017345,5.9298526 17.1014493,5.58492481 15.1983994,5.13295046 C14.1783646,5.0715771 13.1569026,5.00925221 12.1359163,4.94692733 C11.5121917,4.68716102 10.8637275,3.92451377 10.2794911,3.55437057 C7.95015807,2.083313 1.97791174,-1.11618964 0.25327277,3.09050216 C-0.835747533,5.74573252 1.88038043,8.33578343 2.8518874,9.68171547 C3.53460655,10.6246767 4.40763069,11.6832482 4.8943357,12.7446743 C5.21547537,13.4426178 5.27018806,14.1424644 5.544703,14.880372 C6.21933419,16.6987362 6.80594932,18.6769566 7.67944922,20.3568739 C8.12048104,21.2075372 8.60671029,22.1029221 9.16477967,22.8631906 C9.50637712,23.3299136 10.0925165,23.5354429 10.1852902,24.2557473 C9.61247216,25.0578829 9.57964455,26.303429 9.25755335,27.3196577 C7.8064778,31.8941138 8.35455617,37.5804269 10.4645627,40.9659527 C11.1115997,42.0059695 12.6368942,44.2349167 14.7345309,43.3794957 C16.569071,42.6325486 16.2693407,40.3165369 16.7941067,38.2736129 C16.9125716,37.8111717 16.7060906,37.4705258 17.1818531,37.1598529 L17.1818531,37.2526266 C17.6576156,38.3663865 18.1857119,39.4806223 18.7433056,40.5943822 C19.980288,42.5863997 22.0208332,44.6678605 23.8805887,46.0723113 C24.8449593,46.8007037 25.7455776,48.0595712 26.6971026,48.4858544 L26.6971026,48.4378024 L26.8022461,48.4378024 C26.5610345,47.9620399 26.1828034,47.8825875 25.8745093,47.5795269 C25.14802,46.8677862 24.3396995,45.9704982 23.7397631,45.1545655 C22.0479517,42.8580601 20.553106,40.3388978 19.190998,37.7222042 C18.540155,36.4728519 17.9744734,35.0917134 17.426395,33.8204761 C17.2156323,33.3304408 17.2180111,32.5872998 16.777455,32.3337184 C16.176567,33.2652613 15.2921246,34.0179175 14.8273046,35.1183561 C14.0846394,36.8767742 13.9890112,39.0215115 13.7135447,41.2447495 C13.5503582,41.3027925 13.6231498,41.2628285 13.5275216,41.3370474 C12.2343991,41.025423 11.7805217,39.6947154 11.2995259,38.5524097 C10.0839528,35.6645315 9.85844135,31.0149048 10.9279554,27.6912282 C11.2048492,26.8305738 12.4556287,24.1225338 11.9489417,23.3275347 C11.7072543,22.5353902 10.9098764,22.0762794 10.464087,21.4706338 C9.91172675,20.7217837 9.36079381,19.7360038 8.97828078,18.8710677 C7.98346145,16.6202354 7.51959303,14.0925094 6.47196407,11.8164617 C5.97098618,10.7283929 5.12460474,9.62700279 4.42951577,8.66025344 C3.66020785,7.58836059 2.79812624,6.79907064 2.20104434,5.50356942 C1.98933004,5.04303135 1.70101798,4.30559952 2.01549697,3.83221585 C2.11540709,3.51297923 2.25670855,3.37976574 2.57261483,3.27557376 C3.11165371,2.86023312 4.61030551,3.41354488 5.17170522,3.64619273 C6.66036601,4.26468394 7.90305759,4.83559891 9.16430391,5.67103782 C9.76899801,6.07258134 10.3817801,6.57022889 11.1135028,7.04599136 L11.9489417,7.04599136 C13.2558612,7.04599136 14.7197823,7.15636826 15.9410646,7.52746299 C18.0986474,8.18353944 20.0326219,9.21261367 21.7891369,10.321616 C27.1395617,13.7004811 31.5141976,18.5142458 34.5072194,24.2509897 C34.988691,25.1749204 35.197075,26.0584113 35.6209793,27.0380063 C36.4764002,29.0138478 37.554478,31.0477324 38.4056171,32.9798038 C39.2553289,34.9080691 40.0831556,36.8534619 41.28398,38.4577329 C41.9153168,39.300784 44.3531238,39.7537099 45.4611746,40.222336 C46.2380947,40.5501363 47.5107593,40.8926853 48.2462881,41.3356201 C49.6512147,42.1834289 51.0123711,43.1929968 52.3311847,44.1212094 C52.9896399,44.5846021 55.014485,45.6027338 55.1158224,46.4419788 C51.8506646,46.3525354 49.3571935,46.6570234 47.2253018,47.5557387 C46.6196562,47.8112232 45.6529068,47.8183596 45.5539482,48.5772008 C45.886982,48.9259347 45.9388401,49.4473703 46.203364,49.8765081 C46.7119541,50.6995772 47.5716569,51.8042976 48.338586,52.3828248 C49.1768795,53.0155889 50.0399126,53.6916474 50.9381522,54.23925 C52.5362383,55.2131357 54.3193961,55.7697778 55.8580119,56.7455667 C56.7648152,57.3212393 57.7410798,58.0458255 58.6245707,58.6947655 C59.0622722,59.0159052 59.0484751,59.51498 60,59.7162276 L60,59.6239296 C59.5247133,59.2456985 59.5499287,58.7233113 59.2758895,58.3260496 L59.2758895,58.3260496 Z M13.6202952,11.0742722 C12.9394791,11.0614266 12.4242284,11.1489669 11.9484659,11.2593438 L11.9484659,11.3288052 L12.0426669,11.3288052 C12.3676126,11.8045676 12.9409064,12.4373317 13.3419742,13.0120528 L14.2706625,14.966485 L14.3624847,14.8775174 C14.9376815,14.4716921 15.2012539,13.8256066 15.1979236,12.8360207 C14.9681303,12.5938576 14.9333997,12.2907969 14.7345309,12.0015333 C14.4690555,11.6166415 13.9547563,11.3982665 13.6202952,11.0742722 L13.6202952,11.0742722 Z" id="Shape" sketch:type="MSShapeGroup"></path>
        </g>
    </g>
</svg>