<?xml version="1.0" encoding="UTF-8" standalone="no"?>
<svg width="60px" height="60px" viewBox="0 0 60 60" version="1.1" xmlns="http://www.w3.org/2000/svg" xmlns:xlink="http://www.w3.org/1999/xlink" xmlns:sketch="http://www.bohemiancoding.com/sketch/ns">
    <!-- Generator: Sketch 3.3.3 (12081) - http://www.bohemiancoding.com/sketch -->
    <title>icons/skills/id 255</title>
    <desc>Created with Sketch.</desc>
    <defs></defs>
    <g id="Page-1" stroke="none" stroke-width="1" fill="none" fill-rule="evenodd" sketch:type="MSPage">
        <g id="icons/skills/id-255" sketch:type="MSArtboardGroup" fill="#0868AC">
            <path d="M3.81025761,14.5748168 C-1.50185757,22.2094471 -0.840552453,32.1434733 3.21734676,40.2563819 C3.31367671,40.4509684 3.41482316,40.6421833 3.51452466,40.8333983 L3.70429466,41.1989704 L3.8227805,41.4094514 L4.03422475,41.7880281 C4.16041698,42.0100686 4.28949912,42.2311459 4.42147115,42.4522231 L4.64254839,42.8163503 C4.78896992,43.0528404 4.93876299,43.2864405 5.09192761,43.519559 L5.28362422,43.8152919 C5.49506846,44.1307725 5.7113292,44.4457715 5.93481469,44.7549906 L5.95359903,44.7790731 L6.06341518,44.9274212 C6.25655673,45.1937735 6.45547808,45.4567543 6.65680768,45.7168452 L6.88029316,46.0010185 C7.05994852,46.2269123 7.24249378,46.451361 7.42841059,46.6748465 L7.63792823,46.9253044 C7.88742281,47.2191108 8.14221553,47.5114722 8.40182475,47.7980538 L8.41771919,47.8139482 L8.44709983,47.8467004 C8.70092925,48.123649 8.96053847,48.3943362 9.22351924,48.6650233 L9.47253216,48.9159629 C9.67627001,49.1211456 9.8833794,49.3229569 10.0924154,49.5238048 L10.3462448,49.7646297 C10.6256017,50.0280921 10.9078484,50.2862564 11.195875,50.5386409 L11.2093612,50.5492372 L11.3572277,50.6754294 C11.6110571,50.8950617 11.8692214,51.113249 12.1293122,51.3271015 L12.4491277,51.5818943 C12.6615352,51.7523983 12.876351,51.9200124 13.0926117,52.0847366 L13.4365097,52.3462724 C13.6754079,52.5220746 13.9157512,52.6949869 14.1585027,52.8640459 L14.4214834,53.0504444 L14.4937309,53.1019809 C14.7239595,53.2604437 14.9594862,53.4131266 15.1950129,53.5658096 L15.4984523,53.7681025 C15.8596896,53.9964045 16.2257434,54.2222982 16.5961321,54.4404856 L16.8995714,54.6114712 C17.1717035,54.7684891 17.4457623,54.922617 17.7231925,55.0733734 C17.8734672,55.1542905 18.0275952,55.2308728 18.1788332,55.3084184 C18.3748646,55.4110098 18.5694511,55.5150462 18.7688541,55.6147477 L18.905161,55.6807337 L19.1464675,55.7972929 C19.455205,55.9446778 19.7663508,56.0896543 20.0808681,56.2293328 L20.2783445,56.3179563 C20.6386185,56.4754558 21.0017824,56.6266938 21.3683179,56.7711888 L21.6337069,56.8757067 C21.9727883,57.0062338 22.3166863,57.135316 22.6620291,57.2566917 L22.7911113,57.3014851 C23.1701696,57.4339388 23.5525995,57.5567595 23.9379193,57.6766903 L24.2148679,57.7595341 C24.6069308,57.8775382 24.9946589,58.0186616 25.3987631,58.0933173 C51.0894795,62.7783245 58.5521608,42.6549977 58.5521608,42.6549977 C52.2844525,50.820406 41.1593064,52.9743437 30.6184015,50.5762096 C30.2191138,50.4861411 29.8318674,50.3613938 29.4422128,50.2462795 L29.1488881,50.1571743 C28.7683848,50.040615 28.391253,49.9177943 28.0160478,49.7887122 L27.860475,49.7323592 C27.5242834,49.614355 27.1924267,49.4896077 26.8615334,49.3619705 L26.5812132,49.2516727 C26.2190126,49.1086228 25.8587386,48.9593113 25.5027994,48.8032568 L25.287502,48.7078902 C24.9816544,48.569175 24.6791783,48.4294966 24.3776656,48.28452 L24.1146848,48.1583278 C23.8781948,48.0432135 23.644113,47.9208745 23.4109945,47.800462 C23.25494,47.7180999 23.0959956,47.6405543 22.941386,47.5548206 C22.6562493,47.4021377 22.3768925,47.2436749 22.0980173,47.0818406 L21.8133623,46.9228962 C21.4429736,46.7051905 21.0774014,46.4792967 20.7152008,46.2500314 L20.4189862,46.052555 C20.1564871,45.883496 19.8949513,45.7110654 19.6372686,45.532855 L19.3858475,45.3560895 C19.1373162,45.1802873 18.8911932,45.0025586 18.6469967,44.8219399 L18.3199566,44.5743719 C18.0959894,44.4033863 17.8734672,44.2309557 17.6533533,44.0532269 L17.3561754,43.8148103 C17.0758552,43.5841 16.7993883,43.3529082 16.5258112,43.1149732 L16.4347794,43.0383909 C16.1390465,42.7787816 15.8490933,42.5124293 15.56203,42.2451137 L15.315907,42.0086237 C15.1034995,41.8063308 14.8944635,41.6025929 14.688799,41.3935569 L14.4431577,41.1483972 C14.1816218,40.8805999 13.9249025,40.6094311 13.6734813,40.3344091 L13.635431,40.2939505 C13.3695604,40.0030341 13.1094695,39.7058562 12.8546768,39.4057884 L12.6504573,39.1630369 C12.4606873,38.9342533 12.2723622,38.7025797 12.088372,38.468498 L11.8827075,38.2122603 C11.6616303,37.925197 11.4453696,37.6395787 11.2339253,37.3481806 C5.38188077,29.3653175 3.27899793,18.3557674 7.95629872,9.31423812 M20.3005004,8.14190261 C16.4583802,13.6702785 16.6674162,21.0713087 19.664241,26.9180551 C20.1666017,27.8982124 20.7315769,28.8494706 21.3635014,29.7544905 C21.9390728,30.5795566 22.5772588,31.5611588 23.3411553,32.2239088 C23.6181039,32.5287931 23.9075754,32.8264527 24.2033084,33.1188141 L24.430647,33.3427812 C24.7177103,33.6211748 25.0091084,33.8947519 25.3111028,34.1606225 L25.3467449,34.1914481 L25.3554146,34.2001178 C25.6891979,34.4929609 26.0335774,34.7737627 26.3837368,35.0511929 L26.6173369,35.2332565 C26.9684596,35.5024987 27.3263254,35.7664428 27.6928608,36.0188273 L27.7241681,36.0424281 C27.8860024,36.1541709 28.0507266,36.2582072 28.2149692,36.3660968 L28.447606,36.519743 C28.7096235,36.6878388 28.9750125,36.8515997 29.2447364,37.0086175 L29.3579241,37.0741219 C29.5905609,37.2080205 29.8260876,37.3399926 30.0625777,37.4681114 L30.3135172,37.5986385 C30.4767964,37.6838905 30.6400757,37.7710691 30.8062449,37.8539129 L30.8809006,37.8876283 C31.2195004,38.0542792 31.5609901,38.2151502 31.9097045,38.3668699 L32.1370432,38.4603099 C32.4159184,38.5787958 32.6976835,38.6943917 32.9799302,38.8022812 L33.3411676,38.9347349 C33.5978869,39.0301016 33.8555695,39.1167985 34.1151787,39.2039771 L34.4653381,39.3162015 C34.8347635,39.4308342 35.199854,39.5758107 35.5846921,39.6398702 C55.4204741,42.9261665 60,27.6535343 60,27.6535343 C55.8722616,33.5985373 47.8778389,36.4354543 39.34734,34.2208287 C38.9682817,34.1211272 38.5950031,34.0132377 38.2236512,33.8961968 L37.8860147,33.7868623 C37.6220706,33.7016103 37.3600531,33.6110601 37.1004439,33.5161751 L36.7459497,33.3842031 C36.460813,33.274387 36.1795296,33.1616809 35.9001727,33.0431951 L35.6723524,32.9468651 C35.322193,32.7946638 34.9773318,32.6337928 34.6377687,32.465697 C34.4629298,32.380445 34.2909809,32.2903765 34.1185503,32.201753 L33.8189641,32.047625 C33.5983685,31.9281759 33.3787362,31.8039103 33.1624755,31.6767547 L33.0054577,31.5876495 C32.7366971,31.4311133 32.4722714,31.269279 32.2102539,31.1021466 L31.9703923,30.9422388 C31.7974801,30.8304961 31.6250495,30.7163451 31.4555088,30.6017125 C31.0899366,30.349328 30.7339974,30.0853839 30.3833564,29.8175867 L30.1420499,29.627335 C26.4083009,26.6796385 23.4480815,22.6501566 22.0411826,18.0817087 C20.566371,13.3442016 20.8842599,8.02582502 23.4394118,3.70927989 M34.1696051,3.33600133 C31.904888,6.66901765 31.6823658,10.8083157 33.253989,14.4890831 C34.9113458,18.3967076 38.3069766,21.461445 42.2704724,22.9155456 C42.4337517,22.9757518 42.5975126,23.0296966 42.7627185,23.0860496 L42.9799425,23.1549256 C43.2135426,23.2281363 43.4452162,23.3133883 43.6865227,23.3591451 C54.6392382,25.4755141 57.6100539,17.738774 58.4004412,16.5996724 C55.7985692,20.3464258 51.4251894,21.2456659 46.0591294,19.943285 C45.6352776,19.8406936 45.1695223,19.687529 44.7610833,19.5425524 C44.2370484,19.3556723 43.7207198,19.1427831 43.2193224,18.9024398 C42.2666192,18.4443909 41.3582278,17.8890488 40.516304,17.2532711 C35.7147376,13.6095907 32.7318806,6.6598663 35.8650123,1" id="Shape" sketch:type="MSShapeGroup"></path>
        </g>
    </g>
</svg>