<?xml version="1.0" encoding="UTF-8" standalone="no"?>
<svg width="60px" height="60px" viewBox="0 0 60 60" version="1.1" xmlns="http://www.w3.org/2000/svg" xmlns:xlink="http://www.w3.org/1999/xlink" xmlns:sketch="http://www.bohemiancoding.com/sketch/ns">
    <!-- Generator: Sketch 3.3.3 (12081) - http://www.bohemiancoding.com/sketch -->
    <title>icons/skills/id 210</title>
    <desc>Created with Sketch.</desc>
    <defs></defs>
    <g id="Page-1" stroke="none" stroke-width="1" fill="none" fill-rule="evenodd" sketch:type="MSPage">
        <g id="icons/skills/id-210" sketch:type="MSArtboardGroup" fill="#6762A6">
            <path d="M48.288,0 L11.712,0 C8.544,0 6,2.544 6,5.712 L6,53.856 C6,57.024 8.544,59.568 11.712,59.568 L48.336,59.568 C51.504,59.568 54.048,57.024 54.048,53.856 L54.048,5.712 C54,2.544 51.456,0 48.288,0 L48.288,0 Z M17.04,51.216 L17.04,37.68 L23.808,44.448 L17.04,51.216 L17.04,51.216 Z M42.48,51.36 L36.192,51.36 L36.24,51.264 L36.24,27.552 C36.24,27.552 37.728,21.888 17.184,29.856 C17.136,29.952 17.088,7.92 17.088,7.92 L23.76,7.872 L23.76,21.984 C23.76,21.984 42.48,14.592 42.48,27.6 L42.48,51.36 L42.48,51.36 Z M39.984,16.32 L32.88,16.32 C35.424,13.44 37.776,8.16 37.776,8.16 L45.12,8.16 C45.12,8.16 43.872,11.52 39.984,16.32 L39.984,16.32 Z" id="Imported-Layers" sketch:type="MSShapeGroup"></path>
        </g>
    </g>
</svg>