<?xml version="1.0" encoding="UTF-8" standalone="no"?>
<svg width="60px" height="60px" viewBox="0 0 60 60" version="1.1" xmlns="http://www.w3.org/2000/svg" xmlns:xlink="http://www.w3.org/1999/xlink" xmlns:sketch="http://www.bohemiancoding.com/sketch/ns">
    <!-- Generator: Sketch 3.3.3 (12081) - http://www.bohemiancoding.com/sketch -->
    <title>icons/skills/id 240</title>
    <desc>Created with Sketch.</desc>
    <defs>
        <linearGradient x1="50%" y1="0%" x2="50%" y2="100%" id="linearGradient-1">
            <stop stop-color="#FFFFFF" stop-opacity="0.5" offset="0%"></stop>
            <stop stop-color="#000000" stop-opacity="0.5" offset="100%"></stop>
        </linearGradient>
        <polygon id="path-2" points="26 -1 52 14 52 44 26 59 0 44 0 14 "></polygon>
    </defs>
    <g id="Page-1" stroke="none" stroke-width="1" fill="none" fill-rule="evenodd" sketch:type="MSPage">
        <g id="icons/skills/id-240" sketch:type="MSArtboardGroup">
            <g id="Polygon-1-+-Group" sketch:type="MSLayerGroup" transform="translate(4.000000, 1.000000)">
                <g id="Polygon-1">
                    <use fill="#21B2F1" sketch:type="MSShapeGroup" xlink:href="#path-2"></use>
                    <use fill-opacity="0.300000012" fill="url(#linearGradient-1)" xlink:href="#path-2"></use>
                </g>
                <g id="Group" transform="translate(10.000000, 16.000000)" fill="#FFFFFF" sketch:type="MSShapeGroup">
                    <path d="M20,25 L12,25 L13,26 L13,21 L12,22 L20,22 L19,21 L19,26 L20,25 L20,25 Z M20,27 C20.5522847,27 21,26.5522847 21,26 L21,21 C21,20.4477153 20.5522847,20 20,20 L12,20 C11.4477153,20 11,20.4477153 11,21 L11,26 C11,26.5522847 11.4477153,27 12,27 L20,27 L20,27 Z" id="Shape"></path>
                    <path d="M31,25 L23,25 L24,26 L24,21 L23,22 L31,22 L30,21 L30,26 L31,25 L31,25 Z M31,27 C31.5522847,27 32,26.5522847 32,26 L32,21 C32,20.4477153 31.5522847,20 31,20 L23,20 C22.4477153,20 22,20.4477153 22,21 L22,26 C22,26.5522847 22.4477153,27 23,27 L31,27 L31,27 Z" id="Shape"></path>
                    <path d="M9,25 L1,25 L2,26 L2,21 L1,22 L9,22 L8,21 L8,26 L9,25 L9,25 Z M9,27 C9.55228475,27 10,26.5522847 10,26 L10,21 C10,20.4477153 9.55228475,20 9,20 L1,20 C0.44771525,20 0,20.4477153 0,21 L0,26 C0,26.5522847 0.44771525,27 1,27 L9,27 L9,27 Z" id="Shape"></path>
                    <path d="M15,11 L15,17 C15,17.5522847 15.4477153,18 16,18 C16.5522847,18 17,17.5522847 17,17 L17,11 C17,10.4477153 16.5522847,10 16,10 C15.4477153,10 15,10.4477153 15,11 L15,11 Z" id="Shape"></path>
                    <path d="M6,17 L6,14 L5,15 L27,15 L26,14 L26,17 C26,17.5522847 26.4477153,18 27,18 C27.5522847,18 28,17.5522847 28,17 L28,14 C28,13.4477153 27.5522847,13 27,13 L5,13 C4.44771525,13 4,13.4477153 4,14 L4,17 C4,17.5522847 4.44771525,18 5,18 C5.55228475,18 6,17.5522847 6,17 L6,17 Z" id="Shape"></path>
                    <path d="M18,4 C18,5.10471525 17.1047153,6 16,6 C14.8952847,6 14,5.10471525 14,4 C14,2.89528475 14.8952847,2 16,2 C17.1047153,2 18,2.89528475 18,4 L18,4 Z M20,4 C20,1.79071525 18.2092847,0 16,0 C13.7907153,0 12,1.79071525 12,4 C12,6.20928475 13.7907153,8 16,8 C18.2092847,8 20,6.20928475 20,4 L20,4 Z" id="Shape"></path>
                </g>
            </g>
        </g>
    </g>
</svg>