<?xml version="1.0" encoding="UTF-8" standalone="no"?>
<svg width="60px" height="60px" viewBox="0 0 60 60" version="1.1" xmlns="http://www.w3.org/2000/svg" xmlns:xlink="http://www.w3.org/1999/xlink" xmlns:sketch="http://www.bohemiancoding.com/sketch/ns">
    <!-- Generator: Sketch 3.3.3 (12081) - http://www.bohemiancoding.com/sketch -->
    <title>icons/skills/id 303</title>
    <desc>Created with Sketch.</desc>
    <defs></defs>
    <g id="Page-1" stroke="none" stroke-width="1" fill="none" fill-rule="evenodd" sketch:type="MSPage">
        <g id="icons/skills/id-303" sketch:type="MSArtboardGroup" fill="#6181B6">
            <path d="M30,15 C13.4320883,15 -2.48689958e-14,21.8068877 -2.48689958e-14,30.2032933 C-2.48689958e-14,38.5996988 13.4320883,45.4065866 30,45.4065866 C46.5679117,45.4065866 60,38.5996988 60,30.2032933 C60,21.8068877 46.5679117,15 30,15 L30,15 Z M22.1938325,33.1652863 C21.4778865,33.8350738 20.6828821,34.111533 19.8073461,34.3963401 C18.93181,34.6816381 17.8176253,34.6227125 16.4628278,34.6227125 L13.3923135,34.6227125 L12.5413298,39.5331784 L8.95619864,39.5331784 L12.1553671,22.8375945 L19.0496612,22.8375945 C21.1238419,22.8375945 22.6367565,23.4342161 23.5879137,24.5228664 C24.5390709,25.6115167 24.8248601,27.1568403 24.4457721,29.1077684 C24.2891282,29.9116116 24.0254362,30.6589845 23.6532229,31.3248437 C23.2805185,31.9911939 22.7938914,32.6133499 22.1938325,33.1652863 L22.1938325,33.1652863 Z M32.6585262,34.6227125 L34.0732314,27.5418208 C34.2342947,26.7129342 34.1753691,26.0971618 33.8959636,25.7961502 C33.616067,25.4946476 33.0209186,25.2928274 32.1110093,25.2928274 L29.2678495,25.2928274 L27.4357547,34.6227125 L23.8786133,34.6227125 L27.0777818,18.4181753 L30.6349232,18.4181753 L29.7844305,22.8375945 L32.9531542,22.8375945 C34.9472943,22.8375945 36.3222248,23.2377975 37.0789276,23.9331195 C37.8356303,24.6284414 38.0624939,25.5810718 37.7600092,27.1386716 L36.271647,34.6227125 L32.6585262,34.6227125 L32.6585262,34.6227125 Z M52.4275706,29.1337938 C52.2714178,29.9376371 52.0072348,30.6722428 51.6355125,31.3376109 C51.2632992,32.0039611 50.7771631,32.6133499 50.1766131,33.1652863 C49.4606672,33.8350738 48.6651717,34.111533 47.7901267,34.3963401 C46.9150817,34.6816381 45.7999149,34.6227125 44.4451174,34.6227125 L41.3746031,34.6227125 L40.5241104,39.5331784 L36.9389793,39.5331784 L40.1376567,22.8375945 L47.0324418,22.8375945 C49.1066226,22.8375945 50.6195371,23.4342161 51.5702033,24.5228664 C52.5203784,25.6115167 52.8066586,27.1833568 52.4275706,29.1337938 L52.4275706,29.1337938 Z M45.6737159,25.2928274 L43.2179919,25.2928274 L41.8789079,32.1674796 L44.0601368,32.1674796 C45.5047959,32.1674796 46.5821521,32.0250761 47.2892592,31.4800144 C47.9973483,30.9359348 48.4741546,30.0913347 48.7221331,28.8180509 C48.9597997,27.5948538 48.8517694,26.6407503 48.3980424,26.1379186 C47.9438243,25.6350869 47.0358791,25.2928274 45.6737159,25.2928274 L45.6737159,25.2928274 Z M17.6914263,25.2928274 L15.2352113,25.2928274 L13.8961273,32.1674796 L16.0768652,32.1674796 C17.5220153,32.1674796 18.5988804,32.0250761 19.3064785,31.4800144 C20.0140767,30.9359348 20.4913739,30.0913347 20.7388614,28.8180509 C20.976528,27.5948538 20.8684977,26.6407503 20.4147707,26.1379186 C19.9610436,25.6350869 19.0535896,25.2928274 17.6914263,25.2928274 L17.6914263,25.2928274 Z" id="Shape" sketch:type="MSShapeGroup"></path>
        </g>
    </g>
</svg>