<?xml version="1.0" encoding="UTF-8" standalone="no"?>
<svg width="60px" height="60px" viewBox="0 0 60 60" version="1.1" xmlns="http://www.w3.org/2000/svg" xmlns:xlink="http://www.w3.org/1999/xlink" xmlns:sketch="http://www.bohemiancoding.com/sketch/ns">
    <!-- Generator: Sketch 3.3.3 (12081) - http://www.bohemiancoding.com/sketch -->
    <title>icons/skills/id 327</title>
    <desc>Created with Sketch.</desc>
    <defs></defs>
    <g id="Page-1" stroke="none" stroke-width="1" fill="none" fill-rule="evenodd" sketch:type="MSPage">
        <g id="icons/skills/id-327" sketch:type="MSArtboardGroup" fill="#F7A80D">
            <path d="M17.7937711,36.6003063 L12.2061064,39.0000613 L17.3815583,41.2125804 L23.3814357,39.0000613 L17.7937711,36.6003063 L17.7937711,36.6003063 Z M9.39364852,39.6 L9.20641274,50.3998775 L17.3815583,54 L17.3815583,42.7874196 L9.39364852,39.6 L9.39364852,39.6 Z M26.1938936,39.6 L18.8059226,42.412948 L18.8059226,52.9878485 L26.1938936,49.9876647 L26.1938936,39.6 L26.1938936,39.6 Z M35.0062289,6 L29.3813132,8.39975493 L34.5940161,10.6127642 L40.5938936,8.39975493 L35.0062289,6 L35.0062289,6 Z M27.2060451,9.18741959 L27.2060451,19.987297 L34.1813132,22.0125804 L34.4062902,12.1871132 L27.2060451,9.18741959 L27.2060451,9.18741959 Z M42.8064127,9.78735832 L36.2061064,12.5998162 L36.2061064,23.2124579 L42.8064127,20.2122741 L42.8064127,9.78735832 L42.8064127,9.78735832 Z M8.58735832,21.2004085 L3.0001838,23.6006535 L8.17514551,25.8131727 L14.175023,23.6006535 L8.58735832,21.2004085 L8.58735832,21.2004085 Z M0.187235781,24.2005923 L8.8817842e-16,35.0004697 L8.17514551,38.6005923 L8.17514551,27.3880118 L0.187235781,24.2005923 L0.187235781,24.2005923 Z M16.9869907,24.2005923 L9.6,27.0130501 L9.6,37.5874604 L16.9869907,34.5877668 L16.9869907,24.2005923 L16.9869907,24.2005923 Z M26.5874809,20.8004493 L20.9998162,23.2006944 L26.1747779,25.4132135 L32.1746554,23.2006944 L26.5874809,20.8004493 L26.5874809,20.8004493 Z M18.1878485,23.8006331 L18.0001225,34.6010007 L26.175268,38.2011233 L26.175268,26.9880527 L18.1878485,23.8006331 L18.1878485,23.8006331 Z M34.9876034,23.8006331 L27.6001225,26.613091 L27.6001225,37.1884816 L34.9876034,34.1882978 L34.9876034,23.8006331 L34.9876034,23.8006331 Z M52.5877668,6 L47.0005923,8.39975493 L52.1760441,10.6127642 L58.1759216,8.39975493 L52.5877668,6 L52.5877668,6 Z M44.1881344,9.0001838 L44.0008986,19.8000613 L52.1760441,23.3996937 L52.1760441,12.1871132 L44.1881344,9.0001838 L44.1881344,9.0001838 Z M60.9878893,9.0001838 L53.6008986,11.8126417 L53.6008986,22.3875421 L60.9878893,19.3878485 L60.9878893,9.0001838 L60.9878893,9.0001838 Z" id="Shape" sketch:type="MSShapeGroup"></path>
        </g>
    </g>
</svg>