<?xml version="1.0" encoding="UTF-8" standalone="no"?>
<svg width="60px" height="60px" viewBox="0 0 60 60" version="1.1" xmlns="http://www.w3.org/2000/svg" xmlns:xlink="http://www.w3.org/1999/xlink" xmlns:sketch="http://www.bohemiancoding.com/sketch/ns">
    <!-- Generator: Sketch 3.3.3 (12081) - http://www.bohemiancoding.com/sketch -->
    <title>icons/skills/id 331</title>
    <desc>Created with Sketch.</desc>
    <defs></defs>
    <g id="Page-1" stroke="none" stroke-width="1" fill="none" fill-rule="evenodd" sketch:type="MSPage">
        <g id="icons/skills/id-331" sketch:type="MSArtboardGroup" fill="#CB6699">
            <path d="M0,26.7119486 C0,27.0478997 0.0989215796,27.269637 0.154355895,27.4851618 C0.515634707,28.8867897 1.292193,30.0896188 2.21354955,31.1868359 C3.52581359,32.7504659 5.13293085,34.0092072 6.77923443,35.192921 C8.20714593,36.2194116 9.66420823,37.2229638 11.0978543,38.2418083 C11.3439636,38.4167131 11.5766921,38.6179015 11.8438282,38.8324705 C11.6139669,38.9567198 11.4228141,39.0661548 11.2240152,39.1669879 C9.33208022,40.126575 7.51182758,41.2022875 5.83398378,42.5054717 C4.82278542,43.2911098 3.84503879,44.1259697 3.15449926,45.2169744 C2.04342355,46.9717572 1.65012664,48.8412317 2.47829619,50.8373449 C2.7201045,51.420361 3.08902942,51.9240486 3.60944295,52.2963187 C3.7781353,52.416745 3.96737659,52.5362155 4.16474186,52.5830479 C4.67034105,52.7020406 5.18549787,52.7799353 5.69730952,52.8740781 L7.14672571,52.8731223 C8.74954203,52.7302356 10.2085159,52.1811491 11.5269924,51.2712618 C13.5876197,49.8490849 14.975867,47.9423356 15.5727416,45.4951017 C16.0066585,43.7164248 16.0243401,41.9358364 15.5130064,40.1652835 C15.465696,40.000892 15.4059608,39.8398458 15.3438361,39.6807111 C15.2817115,39.5215764 15.2085955,39.3667426 15.1225767,39.1684216 L18.4084936,37.278876 L18.4577154,37.3209296 C18.3979802,37.5163834 18.3344218,37.7113593 18.2804212,37.9087245 C17.8899916,39.3347245 17.6305016,40.7855743 17.7236886,42.265575 C17.8230881,43.8425857 18.2632174,45.3187632 19.1864855,46.636284 C19.9329372,47.7019609 21.7116141,47.7416251 22.5048983,46.6721251 C22.7863708,46.2922089 23.0592414,45.895089 23.2642528,45.4712076 C23.7999586,44.3649107 24.2960001,43.2390207 24.8078118,42.1207767 L24.8971757,41.9162432 C24.8603788,42.4457365 24.8173694,42.9107157 24.7977763,43.3761728 C24.7671918,44.1030314 24.8097233,44.825589 25.058222,45.5170843 C25.2708795,46.1087022 25.6326362,46.5507431 26.3102729,46.6286379 C26.7738184,46.6816828 27.1432212,46.4695032 27.4839511,46.2004556 C28.0163117,45.7803973 28.4487949,45.2614174 28.7699317,44.671711 C29.6783854,43.0034248 30.6112111,41.3451742 31.4346018,39.6348344 C32.3253739,37.7849531 33.1043216,35.8810711 33.9315354,33.9996496 L34.0682097,33.6660879 C34.2636634,34.4340443 34.3998598,35.1862306 34.6507479,35.8982748 C34.9422559,36.7245329 35.3030569,37.5311977 35.6958759,38.3154021 C35.881772,38.6857607 35.8602673,38.9261354 35.6026889,39.2367587 C34.524587,40.5365978 33.4651226,41.852207 32.4047024,43.1663826 C32.1700623,43.456457 31.936378,43.7517881 31.7409242,44.0686239 C31.6228874,44.2612103 31.5445147,44.4958504 31.5115409,44.7204549 C31.4479825,45.149593 31.7132071,45.5634388 32.1724517,45.6623604 C32.5920321,45.7526801 33.0388518,45.7861319 33.4665562,45.7545916 C34.9465569,45.6456345 36.2903611,45.1261768 37.4783758,44.2459181 C39.0176338,43.1056916 39.5117639,41.5497077 39.1390159,39.705561 C39.0381828,39.2052185 38.8599328,38.7187346 38.6864616,38.2365516 C38.6085668,38.0191153 38.6033101,37.8666709 38.7452411,37.6640489 C39.9757873,35.9068767 41.0271278,34.0426589 42.0048744,32.1354318 C42.0435828,32.0604043 42.083247,31.9853768 42.1511063,31.9050926 C42.4679421,33.5537856 42.9448683,35.1427434 43.7993214,36.5845134 C43.363493,37.0045717 42.9319655,37.3854437 42.5415359,37.8050241 C41.6818261,38.729248 40.9363302,39.7328002 40.5473342,40.9566561 C40.3800755,41.4842379 40.2515252,42.0204215 40.3260748,42.5838444 C40.4417223,43.4588464 41.1585453,44.027526 42.0192109,43.8282492 C43.8609682,43.4019784 45.4508817,42.5341447 46.6126129,40.9967982 C47.3944279,39.9617057 47.4656323,38.8071427 47.1382831,37.5976233 C47.0484413,37.2688405 46.9418736,36.9453144 46.8271819,36.5682654 C47.2816477,36.4272902 47.7246444,36.25812 48.1829332,36.1534638 C50.5623079,35.6105899 52.9158768,35.7052105 55.2087548,36.5644424 C56.5473024,37.0662185 57.6287494,37.9058572 58.2700671,39.2267232 C59.0533157,40.8414865 58.6203546,42.3735763 57.0983003,43.3943323 C56.9563694,43.4894308 56.7938895,43.5644583 56.6763305,43.6834509 C56.6041703,43.7565669 56.5606831,43.9027988 56.5783647,44.0036319 C56.5884002,44.0624114 56.7437119,44.1360052 56.8330758,44.1350495 C57.3334183,44.1312264 57.7391401,43.8688692 58.128614,43.5993437 C59.1044491,42.9240964 59.8164933,42.0156427 59.9698934,40.819504 L60,40.7296621 L59.9632031,39.9507144 C59.9483887,39.9057935 59.9741944,39.8613505 59.9708492,39.8274209 C59.7634484,38.0855409 58.8330121,36.7345684 57.4796502,35.6755818 C55.9121971,34.4498144 54.0613601,33.945171 52.1039553,33.8653647 C50.5087851,33.8003727 48.9408541,34.0374022 47.4374373,34.5836214 C47.0087771,34.738933 46.58394,34.9229176 46.1528904,35.0963888 C46.0950667,34.9917326 46.032942,34.8913774 45.9818086,34.787677 C45.5392899,33.8816127 45.0031062,33.0156905 44.8845915,31.9767749 C44.8004843,31.2389251 44.6972617,30.502031 44.8726444,29.7723051 C45.0413368,29.0702964 45.2611625,28.3802348 45.4680854,27.6877837 C45.5746531,27.3312838 45.4996257,27.1315291 45.1593737,26.9709607 C45.0408589,26.9150485 44.9118308,26.8663045 44.7837584,26.8476671 C43.9474648,26.7262851 43.1226405,26.795578 42.3126304,27.0311738 C42.0259012,27.1148032 41.8175446,27.2753716 41.7539863,27.5926852 C41.7176673,27.7747583 41.6435956,27.9491852 41.5919843,28.1288689 C41.3802826,28.8757985 41.2302276,29.6370645 40.8880641,30.3486309 C40.0307437,32.1335202 39.0520414,33.8510282 38.0504006,35.5561113 C37.9419214,35.7400959 37.8277076,35.9207353 37.6910333,36.1439062 C37.3393122,35.4079679 36.9641748,34.7475349 36.8504389,33.973366 C36.7218886,33.0978862 36.6205776,32.2238399 36.8384918,31.3550504 C37.0004938,30.7070424 37.2121955,30.0709814 37.4071714,29.4315753 C37.4994026,29.1276423 37.4568711,28.9680297 37.1816111,28.8079392 C37.0425474,28.7271772 36.8853242,28.6554948 36.7285789,28.6320786 C35.8612231,28.5035284 35.00677,28.5709097 34.1699986,28.841391 C33.9105086,28.9254982 33.7743122,29.0932348 33.6949838,29.3608487 C33.4617774,30.1503098 33.2629785,30.9588862 32.9356293,31.7096389 C31.6099845,34.7489686 30.2461092,37.7725282 28.8836676,40.7956099 C28.5993278,41.426892 28.266244,42.0361916 27.9455852,42.6507479 C27.8643452,42.8065374 27.7458305,42.9436896 27.6445195,43.0899215 C27.5632795,42.9938672 27.5317393,42.9279195 27.5322172,42.8619717 C27.5346066,42.4734537 27.4882521,42.0734664 27.5623238,41.6978511 C27.7864505,40.5614477 28.0445067,39.4312567 28.3164216,38.3053666 C28.5410262,37.3754082 28.8024276,36.4540516 29.0514042,35.5303057 C29.1350335,35.221116 29.1364672,34.9319974 28.914252,34.6720296 C28.5410262,34.236679 27.7611227,34.1411026 27.2985329,34.4765758 L27.0939994,34.5922233 L27.1336636,34.2624847 C27.2311515,33.5556972 27.2507447,32.851299 27.0567246,32.1550249 C26.8149163,31.2871912 26.1955812,30.7878045 25.2952514,30.8155216 C24.875671,30.8284244 24.4350638,30.9001067 24.0465457,31.053029 C22.4126671,31.6933909 21.1563152,32.8274049 20.0868152,34.1917581 C19.9898052,34.3155296 19.8617328,34.4283097 19.7250585,34.504293 C18.3425458,35.2708157 16.9557322,36.0277809 15.5693964,36.7876133 L14.0263154,37.6329866 C13.6124695,37.238256 13.2363764,36.8287112 12.8096277,36.4812909 C11.5064434,35.4184813 10.1822323,34.3819552 8.8699683,33.3310926 C7.70680345,32.3997005 6.57995763,31.4296 5.71785845,30.1961865 C5.07654077,29.278653 4.66317282,28.2746229 4.62350861,27.1401309 C4.573331,25.6945378 4.98335378,24.3736719 5.7192921,23.1440814 C6.66071969,21.5708938 7.9447887,20.3083295 9.3564522,19.1647578 C10.8498335,17.9557163 12.4650748,16.9292257 14.1390955,15.992099 C16.4811953,14.6812686 18.8901986,13.5209711 21.473151,12.7549262 C24.1215732,11.9692881 26.8087038,11.5196011 29.5804196,11.8330917 C30.6699906,11.9563853 31.7280214,12.2058397 32.6995556,12.7386782 C33.4436179,13.1463115 34.0538732,13.6801058 34.3377352,14.5144878 C34.617774,15.3354891 34.6091721,16.1674817 34.415152,17.0013859 C34.0208994,18.6902209 33.0961977,20.0822913 31.9325549,21.3262182 C30.0238941,23.3653408 27.6956529,24.7535881 25.0744699,25.6706437 C23.5619733,26.1996591 22.0059895,26.5317871 20.407952,26.666072 C19.1038119,26.775507 17.8269111,26.6598595 16.592064,26.2063495 C15.7744078,25.9057617 15.0623636,25.4460392 14.4898609,24.7789158 C14.3875942,24.6594453 14.2566545,24.5299393 14.0659796,24.6417637 C13.8791277,24.7516766 13.8461538,24.9294487 13.9087564,25.1096102 C14.0134126,25.4087644 14.1099447,25.7203434 14.2729025,25.9879574 C14.6824474,26.6593816 15.2797999,27.1463434 15.9373656,27.5640123 C17.2004078,28.367332 18.6120713,28.6373353 20.0758239,28.6999379 C22.2970196,28.7959922 24.4642146,28.464342 26.6008251,27.8684231 C29.6511461,27.0177931 32.3033914,25.515332 34.4304443,23.1450372 C36.2014751,21.1713844 37.4664288,18.9439763 37.7373879,16.2544562 C37.8697612,14.9417143 37.728786,13.6557338 37.1142297,12.4581614 C36.4475843,11.1607117 35.387642,10.1958679 34.1202988,9.53113401 C32.2747184,8.56342291 30.2829062,8 28.2270577,8 L26.1673861,8 C23.6776208,8 21.270529,8.71347787 18.9308186,9.56458576 C17.1597878,10.2092486 15.4231645,10.9700368 13.7371967,11.8120649 C10.0656291,13.646654 6.64638323,15.8587699 3.83787056,18.900489 C2.43863198,20.4158529 1.25396244,22.0879622 0.572502668,24.0568361 C0.373225863,24.6331618 0.18398458,25.2510633 0.0415757363,25.8469822 L0,26.7119486 Z M13.3453335,43.0569476 C13.1861988,45.1878236 12.2203992,46.9153671 10.6419549,48.3146057 C9.75405005,49.1011995 8.73568345,49.6612772 7.54958026,49.8581646 C7.11948644,49.929369 6.67935709,49.9465728 6.26216608,49.7683228 C5.66720296,49.5140896 5.53387387,48.9860299 5.5224047,48.4235628 C5.50472307,47.5270561 5.81869156,46.7165682 6.24926327,45.9452666 C6.81125253,44.9398028 7.63512114,44.17328 8.51490195,43.4574127 C9.90075983,42.3291333 11.4041767,41.374325 12.9439126,40.4730395 L13.0600379,40.4252513 C13.2980232,41.3045542 13.4112812,42.1728659 13.3453335,43.0569476 L13.3453335,43.0569476 Z M25.3678895,33.7960718 C25.2555872,34.4765758 25.1150899,35.1575577 24.916291,35.8170349 C24.2290966,38.0998773 23.3464485,40.3119932 22.3921181,42.4944805 C22.2157797,42.8982908 21.959157,43.2667378 21.7359861,43.6495213 C21.7015786,43.7087787 21.6504452,43.7599121 21.6007455,43.8091339 C21.3245297,44.0820046 21.0626503,44.0676681 20.9231088,43.7106902 C20.7606289,43.2958886 20.6607515,42.8519362 20.5747328,42.4127626 C20.5169091,42.1179094 20.5307676,41.8082419 20.5126081,41.5062204 C20.5312455,39.3586186 21.1864218,37.4069484 22.2979754,35.5900409 C22.7562642,34.8407219 23.2551731,34.1267662 24.0173949,33.6527072 C24.2515571,33.5069532 24.5143922,33.3898721 24.7796167,33.3153225 C25.1858165,33.2011087 25.4352709,33.3889163 25.3678895,33.7960718 L25.3678895,33.7960718 Z M33.5702566,44.246396 L36.5183108,40.8042117 C36.6411265,42.0825462 34.468197,44.6344362 33.5702566,44.246396 L33.5702566,44.246396 Z M42.9859662,41.9301018 C42.7776096,42.0495723 42.5506157,42.1355911 42.3370024,42.2459818 C42.1415487,42.3472928 42.0770346,42.245026 42.0713,42.0768116 C42.0674769,41.9625978 42.0842028,41.8431273 42.115743,41.7322586 C42.5138188,40.3282412 43.2464119,39.1297131 44.3364608,38.1548338 L44.4129219,38.1156475 C44.9314239,39.5660194 44.3321599,41.1588002 42.9859662,41.9301018 L42.9859662,41.9301018 Z" id="Shape" sketch:type="MSShapeGroup"></path>
        </g>
    </g>
</svg>