<?xml version="1.0" encoding="UTF-8" standalone="no"?>
<svg width="60px" height="60px" viewBox="0 0 60 60" version="1.1" xmlns="http://www.w3.org/2000/svg" xmlns:xlink="http://www.w3.org/1999/xlink" xmlns:sketch="http://www.bohemiancoding.com/sketch/ns">
    <!-- Generator: Sketch 3.3.3 (12081) - http://www.bohemiancoding.com/sketch -->
    <title>icons/skills/id 396</title>
    <desc>Created with Sketch.</desc>
    <defs></defs>
    <g id="Page-1" stroke="none" stroke-width="1" fill="none" fill-rule="evenodd" sketch:type="MSPage">
        <g id="icons/skills/id-396" sketch:type="MSArtboardGroup" fill="#494949">
            <path d="M29.9511179,59.9999678 C46.4531437,59.9749319 59.8117201,46.5513584 59.8117201,29.9930019 C59.8117201,13.7037813 46.5147705,0.288392612 30.6290129,0.00481294217 C13.9454769,-0.292729054 0.00433444273,13.2449503 1.30685777e-06,29.6612763 C-0.00481328855,46.5503955 13.2940622,60.0240408 29.9511179,59.9999678 L29.9511179,59.9999678 Z M29.9024905,1.45737638 C45.7458796,1.45208032 58.3692673,14.3243826 58.3644527,30.4797575 C58.3591566,45.7319143 45.4011546,58.4910736 29.9140455,58.4944438 C14.1361349,58.497814 1.44775015,45.705434 1.44823161,29.7956035 C1.44919452,14.2959765 14.3349777,1.46267243 29.9024905,1.45737638 L29.9024905,1.45737638 Z M17.9449613,16.5106904 C18.2039865,17.3739473 17.4789085,17.6743781 16.7080918,17.7345605 C15.8968324,17.7971503 15.0860546,17.8582956 14.1443197,17.9300331 C17.2526225,27.1904259 20.3142237,36.3136028 23.4485253,45.6491033 C23.6719226,45.2836755 23.7638813,45.1806431 23.8043239,45.0602782 C25.5250603,39.9173274 27.2554259,34.7777468 28.9323495,29.6203522 C29.0854536,29.1499663 29.009383,28.5269576 28.8418351,28.0435722 C27.9545052,25.4822075 26.8914425,22.976692 26.1134039,20.3845138 C25.5813911,18.609854 24.8755714,17.461573 22.7778522,17.6671562 C22.4206092,17.7023027 21.9844069,16.9334119 21.584314,16.5362077 C22.0681808,16.247332 22.5486774,15.7158007 23.0368774,15.7085788 C27.3083865,15.6435817 31.5813399,15.6435817 35.8523675,15.7124305 C36.3424933,15.7206153 36.8229899,16.2661089 37.3068568,16.5622066 C36.8831724,16.9493 36.5177446,17.5299402 36.0223227,17.6796741 C35.227433,17.919441 34.3458806,17.8741838 33.3945165,17.9589207 C36.5061895,27.2149804 39.5538284,36.2818264 42.7102772,45.6717319 C44.1214351,40.9842418 45.4343753,36.6799935 46.711206,32.3646716 C47.8503392,28.5125138 47.1714813,24.9150481 45.1117974,21.5222027 C44.4926404,20.50199 43.7319343,19.5121092 43.3809503,18.3994562 C42.9823018,17.133699 42.6510577,15.6926906 42.8624184,14.4230818 C43.2211058,12.2714391 44.8720305,11.2030804 47.1060028,10.9984601 C34.8807821,-0.347615442 15.6695835,3.71397725 8.5906839,16.0417488 C11.3157449,15.9160878 13.9175523,15.7509472 16.5212855,15.7153192 C17.0133371,15.7090602 17.829411,16.1250413 17.9449613,16.5106904 L17.9449613,16.5106904 Z M22.8158875,54.0505722 C22.7590753,54.2166758 22.755705,54.4015563 22.7109293,54.6774326 C27.9795411,56.1381808 33.1465649,56.0327412 38.4349165,54.2508594 L30.3560254,32.1229789 C27.7705876,39.6390438 25.291071,46.8436044 22.8158875,54.0505722 L22.8158875,54.0505722 Z M18.7446656,53.0500993 L6.57288696,19.6608802 C1.0818409,30.3868358 5.25898387,46.7516456 18.7446656,53.0500993 L18.7446656,53.0500993 Z M55.5416554,31.5952993 C55.927786,26.5236045 54.178162,19.5015171 52.6673419,18.5357092 C52.4988311,20.4013649 52.6163072,22.476937 52.0809242,24.3681101 C50.8209446,28.8240181 49.2802741,33.2024112 47.7964158,37.5928408 C46.1835263,42.3650677 44.5070842,47.115629 42.8580853,51.8758195 C50.6057322,47.2831769 54.8632789,40.5047081 55.5416554,31.5952993 L55.5416554,31.5952993 Z" id="Shape" sketch:type="MSShapeGroup"></path>
        </g>
    </g>
</svg>