<?xml version="1.0" encoding="UTF-8" standalone="no"?>
<svg width="60px" height="60px" viewBox="0 0 60 60" version="1.1" xmlns="http://www.w3.org/2000/svg" xmlns:xlink="http://www.w3.org/1999/xlink" xmlns:sketch="http://www.bohemiancoding.com/sketch/ns">
    <!-- Generator: Sketch 3.3.3 (12081) - http://www.bohemiancoding.com/sketch -->
    <title>icons/skills/id 309</title>
    <desc>Created with Sketch.</desc>
    <defs>
        <linearGradient x1="50%" y1="0%" x2="50%" y2="100%" id="linearGradient-1">
            <stop stop-color="#FFFFFF" stop-opacity="0.5" offset="0%"></stop>
            <stop stop-color="#000000" stop-opacity="0.5" offset="100%"></stop>
        </linearGradient>
        <polygon id="path-2" points="26 -1 52 14 52 44 26 59 0 44 0 14 "></polygon>
    </defs>
    <g id="Page-1" stroke="none" stroke-width="1" fill="none" fill-rule="evenodd" sketch:type="MSPage">
        <g id="icons/skills/id-309" sketch:type="MSArtboardGroup">
            <g id="Polygon-1-+-Group" sketch:type="MSLayerGroup" transform="translate(4.000000, 1.000000)">
                <g id="Polygon-1">
                    <use fill="#21B2F1" sketch:type="MSShapeGroup" xlink:href="#path-2"></use>
                    <use fill-opacity="0.300000012" fill="url(#linearGradient-1)" xlink:href="#path-2"></use>
                </g>
                <g id="Group" transform="translate(12.000000, 15.000000)" fill="#FFFFFF" sketch:type="MSShapeGroup">
                    <path d="M19,18 L9,18 L10,19 L10,9 L9,10 L19,10 L18,9 L18,19 L19,18 L19,18 Z M19,20 C19.5522847,20 20,19.5522847 20,19 L20,9 C20,8.44771525 19.5522847,8 19,8 L9,8 C8.44771525,8 8,8.44771525 8,9 L8,19 C8,19.5522847 8.44771525,20 9,20 L19,20 L19,20 Z" id="Shape"></path>
                    <path d="M2,5 C2,3.34328475 3.34328475,2 5,2 C6.65671525,2 8,3.34328475 8,5 L8,9 L9,8 L5,8 C3.34328475,8 2,6.65671525 2,5 L2,5 Z M0,5 C0,7.76128475 2.23871525,10 5,10 L9,10 C9.55228475,10 10,9.55228475 10,9 L10,5 C10,2.23871525 7.76128475,0 5,0 C2.23871525,0 0,2.23871525 0,5 L0,5 Z" id="Shape"></path>
                    <path d="M28,5 C28,2.23871525 25.7612847,0 23,0 C20.2387153,0 18,2.23871525 18,5 L18,9 C18,9.55228475 18.4477153,10 19,10 L23,10 C25.7612847,10 28,7.76128475 28,5 L28,5 Z M26,5 C26,6.65671525 24.6567153,8 23,8 L19,8 L20,9 L20,5 C20,3.34328475 21.3432847,2 23,2 C24.6567153,2 26,3.34328475 26,5 L26,5 Z" id="Shape"></path>
                    <path d="M26,23 C26,24.6567153 24.6567153,26 23,26 C21.3432847,26 20,24.6567153 20,23 L20,19 L19,20 L23,20 C24.6567153,20 26,21.3432847 26,23 L26,23 Z M28,23 C28,20.2387153 25.7612847,18 23,18 L19,18 C18.4477153,18 18,18.4477153 18,19 L18,23 C18,25.7612847 20.2387153,28 23,28 C25.7612847,28 28,25.7612847 28,23 L28,23 Z" id="Shape"></path>
                    <path d="M0,23 C0,25.7612847 2.23871525,28 5,28 C7.76128475,28 10,25.7612847 10,23 L10,19 C10,18.4477153 9.55228475,18 9,18 L5,18 C2.23871525,18 0,20.2387153 0,23 L0,23 Z M2,23 C2,21.3432847 3.34328475,20 5,20 L9,20 L8,19 L8,23 C8,24.6567153 6.65671525,26 5,26 C3.34328475,26 2,24.6567153 2,23 L2,23 Z" id="Shape"></path>
                </g>
            </g>
        </g>
    </g>
</svg>