<?xml version="1.0" encoding="UTF-8" standalone="no"?>
<svg width="60px" height="60px" viewBox="0 0 60 60" version="1.1" xmlns="http://www.w3.org/2000/svg" xmlns:xlink="http://www.w3.org/1999/xlink" xmlns:sketch="http://www.bohemiancoding.com/sketch/ns">
    <!-- Generator: Sketch 3.3.3 (12081) - http://www.bohemiancoding.com/sketch -->
    <title>icons/skills/id 375</title>
    <desc>Created with Sketch.</desc>
    <defs>
        <linearGradient x1="50%" y1="0%" x2="50%" y2="100%" id="linearGradient-1">
            <stop stop-color="#FFFFFF" stop-opacity="0.5" offset="0%"></stop>
            <stop stop-color="#000000" stop-opacity="0.5" offset="100%"></stop>
        </linearGradient>
        <polygon id="path-2" points="26 -1 52 14 52 44 26 59 0 44 0 14 "></polygon>
    </defs>
    <g id="Page-1" stroke="none" stroke-width="1" fill="none" fill-rule="evenodd" sketch:type="MSPage">
        <g id="icons/skills/id-375" sketch:type="MSArtboardGroup">
            <g id="Polygon-1-+-Group" sketch:type="MSLayerGroup" transform="translate(4.000000, 1.000000)">
                <g id="Polygon-1">
                    <use fill="#21B2F1" sketch:type="MSShapeGroup" xlink:href="#path-2"></use>
                    <use fill-opacity="0.300000012" fill="url(#linearGradient-1)" xlink:href="#path-2"></use>
                </g>
                <g id="Group" transform="translate(14.000000, 17.000000)" fill="#FFFFFF" sketch:type="MSShapeGroup">
                    <path d="M2,5 C2,3.34328475 3.34328475,2 5,2 C6.65671525,2 8,3.34328475 8,5 C8,6.65671525 6.65671525,8 5,8 C3.34328475,8 2,6.65671525 2,5 L2,5 Z M0,5 C0,7.76128475 2.23871525,10 5,10 C7.76128475,10 10,7.76128475 10,5 C10,2.23871525 7.76128475,0 5,0 C2.23871525,0 0,2.23871525 0,5 L0,5 Z" id="Shape"></path>
                    <path d="M23,8 L15,8 L16,9 L16,1 L15,2 L23,2 L22,1 L22,9 L23,8 L23,8 Z M23,10 C23.5522847,10 24,9.55228475 24,9 L24,1 C24,0.44771525 23.5522847,0 23,0 L15,0 C14.4477153,0 14,0.44771525 14,1 L14,9 C14,9.55228475 14.4477153,10 15,10 L23,10 L23,10 Z" id="Shape"></path>
                    <path d="M23,21 L15,21 L15.8320503,22.5547002 L19.8320503,16.5547002 L18.1679497,16.5547002 L22.1679497,22.5547002 L23,21 L23,21 Z M23,23 C23.7986954,23 24.2750868,22.1098545 23.8320503,21.4452998 L19.8320503,15.4452998 C19.4362282,14.8515667 18.5637718,14.8515667 18.1679497,15.4452998 L14.1679497,21.4452998 C13.7249132,22.1098545 14.2013046,23 15,23 L23,23 L23,23 Z" id="Shape"></path>
                    <path d="M4,15 L4,23 C4,23.5522847 4.44771525,24 5,24 C5.55228475,24 6,23.5522847 6,23 L6,15 C6,14.4477153 5.55228475,14 5,14 C4.44771525,14 4,14.4477153 4,15 L4,15 Z" id="Shape"></path>
                    <path d="M1,20 L9,20 C9.55228475,20 10,19.5522847 10,19 C10,18.4477153 9.55228475,18 9,18 L1,18 C0.44771525,18 0,18.4477153 0,19 C0,19.5522847 0.44771525,20 1,20 L1,20 Z" id="Shape"></path>
                </g>
            </g>
        </g>
    </g>
</svg>