<?xml version="1.0" encoding="UTF-8" standalone="no"?>
<svg width="60px" height="60px" viewBox="0 0 60 60" version="1.1" xmlns="http://www.w3.org/2000/svg" xmlns:xlink="http://www.w3.org/1999/xlink" xmlns:sketch="http://www.bohemiancoding.com/sketch/ns">
    <!-- Generator: Sketch 3.3.3 (12081) - http://www.bohemiancoding.com/sketch -->
    <title>icons/skills/id 321</title>
    <desc>Created with Sketch.</desc>
    <defs>
        <linearGradient x1="50%" y1="0%" x2="50%" y2="100%" id="linearGradient-1">
            <stop stop-color="#FFFFFF" stop-opacity="0.5" offset="0%"></stop>
            <stop stop-color="#000000" stop-opacity="0.5" offset="100%"></stop>
        </linearGradient>
        <polygon id="path-2" points="26 -1 52 14 52 44 26 59 0 44 0 14 "></polygon>
    </defs>
    <g id="Page-1" stroke="none" stroke-width="1" fill="none" fill-rule="evenodd" sketch:type="MSPage">
        <g id="icons/skills/id-321" sketch:type="MSArtboardGroup">
            <g id="Polygon-1-+-Group" sketch:type="MSLayerGroup" transform="translate(4.000000, 1.000000)">
                <g id="Polygon-1">
                    <use fill="#21B2F1" sketch:type="MSShapeGroup" xlink:href="#path-2"></use>
                    <use fill-opacity="0.300000012" fill="url(#linearGradient-1)" xlink:href="#path-2"></use>
                </g>
                <g id="Group" transform="translate(10.000000, 13.000000)" fill="#FFFFFF" sketch:type="MSShapeGroup">
                    <path d="M17,22 L2,22 C1.99978476,22 2,22.0002154 2,22 L2,2 C2,1.99978462 1.99978476,2 2,2 L30,2 C29.9997153,2 30,2.00028475 30,2 L30,22 C30,21.9997153 29.9997153,22 30,22 L28,22 C27.4477153,22 27,22.4477153 27,23 C27,23.5522847 27.4477153,24 28,24 L30,24 C31.1042847,24 32,23.1042847 32,22 L32,2 C32,0.89571525 31.1042847,0 30,0 L2,0 C0.894905844,0 0,0.8955243 0,2 L0,22 C0,23.1044757 0.894905844,24 2,24 L17,24 C17.5522847,24 18,23.5522847 18,23 C18,22.4477153 17.5522847,22 17,22 L17,22 Z" id="Shape"></path>
                    <path d="M17,18 L7,18 L8,19 L8,5 L7,6 L27,6 L26,5 L26,13 C26,13.5522847 26.4477153,14 27,14 C27.5522847,14 28,13.5522847 28,13 L28,5 C28,4.44771525 27.5522847,4 27,4 L7,4 C6.44771525,4 6,4.44771525 6,5 L6,19 C6,19.5522847 6.44771525,20 7,20 L17,20 C17.5522847,20 18,19.5522847 18,19 C18,18.4477153 17.5522847,18 17,18 L17,18 Z" id="Shape"></path>
                    <path d="M27,30 L18,30 C18.0002847,30 18,29.9997153 18,30 L18,14 C18,14.0002847 18.0002847,14 18,14 L27,14 C26.9997153,14 27,14.0002847 27,14 L27,30 C27,29.9997153 26.9997153,30 27,30 L27,30 Z M27,32 C28.1042847,32 29,31.1042847 29,30 L29,14 C29,12.8957153 28.1042847,12 27,12 L18,12 C16.8957153,12 16,12.8957153 16,14 L16,30 C16,31.1042847 16.8957153,32 18,32 L27,32 L27,32 Z" id="Shape"></path>
                    <path d="M3,11 L3,13 C3,13.5522847 3.44771525,14 4,14 C4.55228475,14 5,13.5522847 5,13 L5,11 C5,10.4477153 4.55228475,10 4,10 C3.44771525,10 3,10.4477153 3,11 L3,11 Z" id="Shape"></path>
                    <path d="M17,18 L28,18 C28.5522847,18 29,17.5522847 29,17 C29,16.4477153 28.5522847,16 28,16 L17,16 C16.4477153,16 16,16.4477153 16,17 C16,17.5522847 16.4477153,18 17,18 L17,18 Z" id="Shape"></path>
                    <path d="M17,26 L28,26 C28.5522847,26 29,25.5522847 29,25 C29,24.4477153 28.5522847,24 28,24 L17,24 C16.4477153,24 16,24.4477153 16,25 C16,25.5522847 16.4477153,26 17,26 L17,26 Z" id="Shape"></path>
                    <path d="M22,29 L23,29 C23.5522847,29 24,28.5522847 24,28 C24,27.4477153 23.5522847,27 23,27 L22,27 C21.4477153,27 21,27.4477153 21,28 C21,28.5522847 21.4477153,29 22,29 L22,29 Z" id="Shape"></path>
                </g>
            </g>
        </g>
    </g>
</svg>