<?xml version="1.0" encoding="UTF-8" standalone="no"?>
<svg width="60px" height="60px" viewBox="0 0 60 60" version="1.1" xmlns="http://www.w3.org/2000/svg" xmlns:xlink="http://www.w3.org/1999/xlink" xmlns:sketch="http://www.bohemiancoding.com/sketch/ns">
    <!-- Generator: Sketch 3.3.3 (12081) - http://www.bohemiancoding.com/sketch -->
    <title>icons/skills/id 377</title>
    <desc>Created with Sketch.</desc>
    <defs>
        <linearGradient x1="50%" y1="0%" x2="50%" y2="100%" id="linearGradient-1">
            <stop stop-color="#FFFFFF" stop-opacity="0.5" offset="0%"></stop>
            <stop stop-color="#000000" stop-opacity="0.5" offset="100%"></stop>
        </linearGradient>
        <polygon id="path-2" points="26 -1 52 14 52 44 26 59 0 44 0 14 "></polygon>
    </defs>
    <g id="Page-1" stroke="none" stroke-width="1" fill="none" fill-rule="evenodd" sketch:type="MSPage">
        <g id="icons/skills/id-377" sketch:type="MSArtboardGroup">
            <g id="Polygon-1-+-Group" sketch:type="MSLayerGroup" transform="translate(4.000000, 1.000000)">
                <g id="Polygon-1">
                    <use fill="#21B2F1" sketch:type="MSShapeGroup" xlink:href="#path-2"></use>
                    <use fill-opacity="0.300000012" fill="url(#linearGradient-1)" xlink:href="#path-2"></use>
                </g>
                <g id="Group" transform="translate(10.000000, 13.000000)" fill="#FFFFFF" sketch:type="MSShapeGroup">
                    <path d="M15,7 L15,11 C15,11.5522847 15.4477153,12 16,12 C16.5522847,12 17,11.5522847 17,11 L17,7 C17,6.44771525 16.5522847,6 16,6 C15.4477153,6 15,6.44771525 15,7 L15,7 Z" id="Shape"></path>
                    <path d="M5.29289322,11.7071068 L8.17189322,14.5861068 C8.56241751,14.9766311 9.19558249,14.9766311 9.58610678,14.5861068 C9.97663107,14.1955825 9.97663107,13.5624175 9.58610678,13.1718932 L6.70710678,10.2928932 C6.31658249,9.90236893 5.68341751,9.90236893 5.29289322,10.2928932 C4.90236893,10.6834175 4.90236893,11.3165825 5.29289322,11.7071068 L5.29289322,11.7071068 Z" id="Shape"></path>
                    <path d="M14,4 C14,2.89528475 14.8952847,2 16,2 C17.1047153,2 18,2.89528475 18,4 C18,5.10471525 17.1047153,6 16,6 C14.8952847,6 14,5.10471525 14,4 L14,4 Z M12,4 C12,6.20928475 13.7907153,8 16,8 C18.2092847,8 20,6.20928475 20,4 C20,1.79071525 18.2092847,0 16,0 C13.7907153,0 12,1.79071525 12,4 L12,4 Z" id="Shape"></path>
                    <path d="M2,9 C2,7.89528475 2.89528475,7 4,7 C5.10471525,7 6,7.89528475 6,9 C6,10.1047153 5.10471525,11 4,11 C2.89528475,11 2,10.1047153 2,9 L2,9 Z M0,9 C0,11.2092847 1.79071525,13 4,13 C6.20928475,13 8,11.2092847 8,9 C8,6.79071525 6.20928475,5 4,5 C1.79071525,5 0,6.79071525 0,9 L0,9 Z" id="Shape"></path>
                    <path d="M25.1718932,10.2928932 L22.2928932,13.1718932 C21.9023689,13.5624175 21.9023689,14.1955825 22.2928932,14.5861068 C22.6834175,14.9766311 23.3165825,14.9766311 23.7071068,14.5861068 L26.5861068,11.7071068 C26.9766311,11.3165825 26.9766311,10.6834175 26.5861068,10.2928932 C26.1955825,9.90236893 25.5624175,9.90236893 25.1718932,10.2928932 L25.1718932,10.2928932 Z" id="Shape"></path>
                    <path d="M32,9 C32,6.79071525 30.2092847,5 28,5 C25.7907153,5 24,6.79071525 24,9 C24,11.2092847 25.7907153,13 28,13 C30.2092847,13 32,11.2092847 32,9 L32,9 Z M30,9 C30,10.1047153 29.1047153,11 28,11 C26.8952847,11 26,10.1047153 26,9 C26,7.89528475 26.8952847,7 28,7 C29.1047153,7 30,7.89528475 30,9 L30,9 Z" id="Shape"></path>
                    <path d="M12.3934595,24.1170891 L6.53045945,27.2350891 C6.20401373,27.4086961 6,27.748262 6,28.118 L6,31.118 C6,31.6702847 6.44771525,32.118 7,32.118 L25,32.118 C25.5522847,32.118 26,31.6702847 26,31.118 L26,28.118 C26,27.7482427 25.7959652,27.4086623 25.469493,27.2350638 L19.609493,24.1190638 C19.1218608,23.85977 18.5163577,24.0448748 18.2570638,24.532507 C17.99777,25.0201392 18.1828748,25.6256423 18.670507,25.8849362 L24.530507,29.0009362 L24,28.118 L24,31.118 L25,30.118 L7,30.118 L8,31.118 L8,28.118 L7.46954055,29.0009109 L13.3325405,25.8829109 C13.8201588,25.6235908 14.005231,25.0180777 13.7459109,24.5304595 C13.4865908,24.0428412 12.8810777,23.857769 12.3934595,24.1170891 L12.3934595,24.1170891 Z" id="Shape"></path>
                    <path d="M16,25 C13.7912847,25 12,23.2087153 12,21 L12,20 C12,17.7912847 13.7912847,16 16,16 C18.2087153,16 20,17.7912847 20,20 L20,21 C20,23.2087153 18.2087153,25 16,25 L16,25 Z M16,27 C19.3132847,27 22,24.3132847 22,21 L22,20 C22,16.6867153 19.3132847,14 16,14 C12.6867153,14 10,16.6867153 10,20 L10,21 C10,24.3132847 12.6867153,27 16,27 L16,27 Z" id="Shape"></path>
                </g>
            </g>
        </g>
    </g>
</svg>