<?xml version="1.0" encoding="UTF-8" standalone="no"?>
<svg width="60px" height="60px" viewBox="0 0 60 60" version="1.1" xmlns="http://www.w3.org/2000/svg" xmlns:xlink="http://www.w3.org/1999/xlink" xmlns:sketch="http://www.bohemiancoding.com/sketch/ns">
    <!-- Generator: Sketch 3.3.3 (12081) - http://www.bohemiancoding.com/sketch -->
    <title>icons/skills/id 388</title>
    <desc>Created with Sketch.</desc>
    <defs>
        <linearGradient x1="50%" y1="0%" x2="50%" y2="100%" id="linearGradient-1">
            <stop stop-color="#FFFFFF" stop-opacity="0.5" offset="0%"></stop>
            <stop stop-color="#000000" stop-opacity="0.5" offset="100%"></stop>
        </linearGradient>
        <polygon id="path-2" points="26 -1 52 14 52 44 26 59 0 44 0 14 "></polygon>
    </defs>
    <g id="Page-1" stroke="none" stroke-width="1" fill="none" fill-rule="evenodd" sketch:type="MSPage">
        <g id="icons/skills/id-388" sketch:type="MSArtboardGroup">
            <g id="Polygon-1-+-Group" sketch:type="MSLayerGroup" transform="translate(4.000000, 1.000000)">
                <g id="Polygon-1">
                    <use fill="#21B2F1" sketch:type="MSShapeGroup" xlink:href="#path-2"></use>
                    <use fill-opacity="0.300000012" fill="url(#linearGradient-1)" xlink:href="#path-2"></use>
                </g>
                <g id="Group" transform="translate(10.000000, 16.000000)" fill="#FFFFFF" sketch:type="MSShapeGroup">
                    <path d="M31,24 L1,24 L2,25 L2,1 L1,2 L31,2 L30,1 L30,25 L31,24 L31,24 Z M31,26 C31.5522847,26 32,25.5522847 32,25 L32,1 C32,0.44771525 31.5522847,0 31,0 L1,0 C0.44771525,0 0,0.44771525 0,1 L0,25 C0,25.5522847 0.44771525,26 1,26 L31,26 L31,26 Z" id="Shape"></path>
                    <path d="M1,6 L31,6 C31.5522847,6 32,5.55228475 32,5 C32,4.44771525 31.5522847,4 31,4 L1,4 C0.44771525,4 0,4.44771525 0,5 C0,5.55228475 0.44771525,6 1,6 L1,6 Z" id="Shape"></path>
                    <path d="M4,1 L4,5 C4,5.55228475 4.44771525,6 5,6 C5.55228475,6 6,5.55228475 6,5 L6,1 C6,0.44771525 5.55228475,0 5,0 C4.44771525,0 4,0.44771525 4,1 L4,1 Z" id="Shape"></path>
                    <path d="M27,12 L5,12 L6,13 L6,9 L5,10 L27,10 L26,9 L26,13 L27,12 L27,12 Z M27,14 C27.5522847,14 28,13.5522847 28,13 L28,9 C28,8.44771525 27.5522847,8 27,8 L5,8 C4.44771525,8 4,8.44771525 4,9 L4,13 C4,13.5522847 4.44771525,14 5,14 L27,14 L27,14 Z" id="Shape"></path>
                    <path d="M8,20 L5,20 L6,21 L6,16 L5,17 L8,17 L7,16 L7,21 L8,20 L8,20 Z M8,22 C8.55228475,22 9,21.5522847 9,21 L9,16 C9,15.4477153 8.55228475,15 8,15 L5,15 C4.44771525,15 4,15.4477153 4,16 L4,21 C4,21.5522847 4.44771525,22 5,22 L8,22 L8,22 Z" id="Shape"></path>
                    <path d="M27,20 L11,20 L12,21 L12,16 L11,17 L27,17 L26,16 L26,21 L27,20 L27,20 Z M27,22 C27.5522847,22 28,21.5522847 28,21 L28,16 C28,15.4477153 27.5522847,15 27,15 L11,15 C10.4477153,15 10,15.4477153 10,16 L10,21 C10,21.5522847 10.4477153,22 11,22 L27,22 L27,22 Z" id="Shape"></path>
                </g>
            </g>
        </g>
    </g>
</svg>