<?xml version="1.0" encoding="UTF-8" standalone="no"?>
<svg width="60px" height="60px" viewBox="0 0 60 60" version="1.1" xmlns="http://www.w3.org/2000/svg" xmlns:xlink="http://www.w3.org/1999/xlink" xmlns:sketch="http://www.bohemiancoding.com/sketch/ns">
    <!-- Generator: Sketch 3.3.3 (12081) - http://www.bohemiancoding.com/sketch -->
    <title>icons/skills/id data</title>
    <desc>Created with Sketch.</desc>
    <defs>
        <linearGradient x1="50%" y1="0%" x2="50%" y2="100%" id="linearGradient-1">
            <stop stop-color="#FFFFFF" offset="0%"></stop>
            <stop stop-color="#000000" offset="100%"></stop>
        </linearGradient>
        <polygon id="path-2" points="26 0 52 15 52 45 26 60 0 45 0 15 "></polygon>
    </defs>
    <g id="Page-1" stroke="none" stroke-width="1" fill="none" fill-rule="evenodd" sketch:type="MSPage">
        <g id="icons/skills/id-data" sketch:type="MSArtboardGroup">
            <g id="Polygon-1-+-Group" sketch:type="MSLayerGroup" transform="translate(4.000000, 0.000000)">
                <g id="Polygon-1">
                    <use fill="#FC9A00" sketch:type="MSShapeGroup" xlink:href="#path-2"></use>
                    <use fill-opacity="0.100000001" fill="url(#linearGradient-1)" xlink:href="#path-2"></use>
                </g>
                <g id="Group" transform="translate(9.000000, 14.000000)" fill="#FFFFFF" sketch:type="MSShapeGroup">
                    <path d="M6.53829786,17.22158 L12.2090296,7.25729424 C12.4548817,6.82529695 12.3039812,6.27579142 11.8719839,6.02993931 C11.4399866,5.78408719 10.8904811,5.93498767 10.644629,6.36698496 L4.97389726,16.3312707 C4.72804515,16.763268 4.87894563,17.3127735 5.31094292,17.5586256 C5.74294022,17.8044777 6.29244574,17.6535773 6.53829786,17.22158 L6.53829786,17.22158 Z" id="Shape"></path>
                    <path d="M28.8817073,19.7288063 L28.8817073,13.0859491 C28.8817073,12.5888929 28.4787636,12.1859491 27.9817073,12.1859491 C27.4846511,12.1859491 27.0817073,12.5888929 27.0817073,13.0859491 L27.0817073,19.7288063 C27.0817073,20.2258625 27.4846511,20.6288062 27.9817073,20.6288062 C28.4787636,20.6288062 28.8817073,20.2258625 28.8817073,19.7288063 L28.8817073,19.7288063 Z" id="Shape"></path>
                    <path d="M5.88576676,22.6842487 L13.3857668,27.8509154 C13.7950964,28.132898 14.3555157,28.0296629 14.6374983,27.6203333 C14.9194809,27.2110036 14.8162458,26.6505844 14.4069162,26.3686017 L6.90691616,21.2019351 C6.49758655,20.9199524 5.93716726,21.0231876 5.65518464,21.4325172 C5.37320202,21.8418468 5.47643715,22.4022661 5.88576676,22.6842487 L5.88576676,22.6842487 Z" id="Shape"></path>
                    <path d="M17.0717046,25.4918859 L14.1448754,7.13176698 C14.0666265,6.64090851 13.6052739,6.30642236 13.1144154,6.38467124 C12.6235569,6.46292013 12.2890708,6.9242728 12.3673197,7.41513127 L15.2941488,25.7752502 C15.3723977,26.2661087 15.8337504,26.6005948 16.3246088,26.522346 C16.8154673,26.4440971 17.1499535,25.9827444 17.0717046,25.4918859 L17.0717046,25.4918859 Z" id="Shape"></path>
                    <path d="M26.5880746,20.0983761 L15.5210014,5.89004281 C15.2155608,5.49790642 14.6500629,5.42762561 14.2579265,5.73306623 C13.8657901,6.03850685 13.7955093,6.60400476 14.1009499,6.99614116 L25.1680231,21.2044745 C25.4734637,21.5966109 26.0389616,21.6668917 26.431098,21.3614511 C26.8232344,21.0560104 26.8935152,20.4905125 26.5880746,20.0983761 L26.5880746,20.0983761 Z" id="Shape"></path>
                    <path d="M19.0516379,26.3843734 L27.2833452,13.0986591 C27.545139,12.6761322 27.4148391,12.1213807 26.9923123,11.859587 C26.5697854,11.5977932 26.0150339,11.7280931 25.7532401,12.1506199 L17.5215328,25.4363342 C17.259739,25.8588611 17.3900389,26.4136126 17.8125658,26.6754063 C18.2350926,26.9372001 18.7898441,26.8069002 19.0516379,26.3843734 L19.0516379,26.3843734 Z" id="Shape"></path>
                    <path d="M19.8271658,28.4467416 L25.8637512,25.0330511 C26.2964174,24.7883782 26.4488162,24.2392863 26.2041433,23.8066201 C25.9594704,23.3739538 25.4103785,23.221555 24.9777123,23.4662279 L18.9411269,26.8799184 C18.5084606,27.1245913 18.3560619,27.6736831 18.6007347,28.1063494 C18.8454076,28.5390157 19.3944995,28.6914145 19.8271658,28.4467416 L19.8271658,28.4467416 Z" id="Shape"></path>
                    <path d="M7.46842203,19.6393415 L25.761105,12.1661272 C26.2212433,11.9781442 26.4418689,11.452738 26.2538859,10.9925997 C26.065903,10.5324613 25.5404968,10.3118357 25.0803584,10.4998187 L6.78767549,17.9730331 C6.32753711,18.161016 6.10691155,18.6864222 6.29489452,19.1465606 C6.48287748,19.606699 7.00828365,19.8273245 7.46842203,19.6393415 L7.46842203,19.6393415 Z" id="Shape"></path>
                    <path d="M10.6804878,3.95238095 C10.6804878,2.81724205 11.5897915,1.89999998 12.7073171,1.89999998 C13.8248427,1.89999998 14.7341464,2.81724205 14.7341464,3.95238095 C14.7341464,5.08751986 13.8248427,6.00476193 12.7073171,6.00476193 C11.5897915,6.00476193 10.6804878,5.08751986 10.6804878,3.95238095 L10.6804878,3.95238095 Z M8.88048783,3.95238095 C8.88048783,6.07814681 10.5921597,7.80476188 12.7073171,7.80476188 C14.8224744,7.80476188 16.5341463,6.07814681 16.5341463,3.95238095 C16.5341463,1.82661509 14.8224744,0.100000024 12.7073171,0.100000024 C10.5921597,0.100000024 8.88048783,1.82661509 8.88048783,3.95238095 L8.88048783,3.95238095 Z" id="Shape"></path>
                    <path d="M26.0463414,9.85714286 C26.0463414,8.72200395 26.9556451,7.80476188 28.0731707,7.80476188 C29.1906963,7.80476188 30.1,8.72200395 30.1,9.85714286 C30.1,10.9922818 29.1906963,11.9095238 28.0731707,11.9095238 C26.9556451,11.9095238 26.0463414,10.9922818 26.0463414,9.85714286 L26.0463414,9.85714286 Z M24.2463415,9.85714286 C24.2463415,11.9829087 25.9580134,13.7095238 28.0731707,13.7095238 C30.1883281,13.7095238 31.9,11.9829087 31.9,9.85714286 C31.9,7.731377 30.1883281,6.00476193 28.0731707,6.00476193 C25.9580134,6.00476193 24.2463415,7.731377 24.2463415,9.85714286 L24.2463415,9.85714286 Z" id="Shape"></path>
                    <path d="M1.89999998,19.822019 C1.89999998,18.6868801 2.80930368,17.7696381 3.92682927,17.7696381 C5.04435485,17.7696381 5.95365856,18.6868801 5.95365856,19.822019 C5.95365856,20.957158 5.04435485,21.8744 3.92682927,21.8744 C2.80930368,21.8744 1.89999998,20.957158 1.89999998,19.822019 L1.89999998,19.822019 Z M0.100000024,19.822019 C0.100000024,21.9477849 1.81167193,23.6744 3.92682927,23.6744 C6.04198661,23.6744 7.75365851,21.9477849 7.75365851,19.822019 C7.75365851,17.6962532 6.04198661,15.9696381 3.92682927,15.9696381 C1.81167193,15.9696381 0.100000024,17.6962532 0.100000024,19.822019 L0.100000024,19.822019 Z" id="Shape"></path>
                    <path d="M14.3386585,28.6791619 C14.3386585,27.544023 15.2479622,26.6267809 16.3654878,26.6267809 C17.4830134,26.6267809 18.3923171,27.544023 18.3923171,28.6791619 C18.3923171,29.8143008 17.4830134,30.7315429 16.3654878,30.7315429 C15.2479622,30.7315429 14.3386585,29.8143008 14.3386585,28.6791619 L14.3386585,28.6791619 Z M12.5386586,28.6791619 C12.5386586,30.8049278 14.2503305,32.5315428 16.3654878,32.5315428 C18.4806451,32.5315428 20.192317,30.8049278 20.192317,28.6791619 C20.192317,26.553396 18.4806451,24.826781 16.3654878,24.826781 C14.2503305,24.826781 12.5386586,26.553396 12.5386586,28.6791619 L12.5386586,28.6791619 Z" id="Shape"></path>
                    <path d="M26.0463414,22.7744 C26.0463414,21.6392611 26.9556451,20.722019 28.0731707,20.722019 C29.1906963,20.722019 30.1,21.6392611 30.1,22.7744 C30.1,23.9095389 29.1906963,24.826781 28.0731707,24.826781 C26.9556451,24.826781 26.0463414,23.9095389 26.0463414,22.7744 L26.0463414,22.7744 Z M24.2463415,22.7744 C24.2463415,24.9001659 25.9580134,26.6267809 28.0731707,26.6267809 C30.1883281,26.6267809 31.9,24.9001659 31.9,22.7744 C31.9,20.6486341 30.1883281,18.9220191 28.0731707,18.9220191 C25.9580134,18.9220191 24.2463415,20.6486341 24.2463415,22.7744 L24.2463415,22.7744 Z" id="Shape"></path>
                </g>
            </g>
        </g>
    </g>
</svg>