<?xml version="1.0" encoding="UTF-8" standalone="no"?>
<svg width="60px" height="60px" viewBox="0 0 60 60" version="1.1" xmlns="http://www.w3.org/2000/svg" xmlns:xlink="http://www.w3.org/1999/xlink" xmlns:sketch="http://www.bohemiancoding.com/sketch/ns">
    <!-- Generator: Sketch 3.3.3 (12081) - http://www.bohemiancoding.com/sketch -->
    <title>icons/skills/id design</title>
    <desc>Created with Sketch.</desc>
    <defs>
        <linearGradient x1="50%" y1="0%" x2="50%" y2="100%" id="linearGradient-1">
            <stop stop-color="#FFFFFF" stop-opacity="0.5" offset="0%"></stop>
            <stop stop-color="#000000" stop-opacity="0.5" offset="100%"></stop>
        </linearGradient>
        <polygon id="path-2" points="26 -1.17065876 52 13.8293412 52 43.8293412 26 58.8293412 0 43.8293412 0 13.8293412 "></polygon>
    </defs>
    <g id="Page-1" stroke="none" stroke-width="1" fill="none" fill-rule="evenodd" sketch:type="MSPage">
        <g id="icons/skills/id-design" sketch:type="MSArtboardGroup">
            <g id="Polygon-1-+-design-outline_design" sketch:type="MSLayerGroup" transform="translate(4.000000, 1.000000)">
                <g id="Polygon-1">
                    <use fill="#21B2F1" sketch:type="MSShapeGroup" xlink:href="#path-2"></use>
                    <use fill-opacity="0.300000012" fill="url(#linearGradient-1)" xlink:href="#path-2"></use>
                </g>
                <g id="design-outline_design" transform="translate(11.000000, 14.000000)" fill="#FFFFFF" sketch:type="MSShapeGroup">
                    <path d="M7.3,29.7 C7.5,29.9 7.7,30 8,30 C8.3,30 8.5,29.9 8.7,29.7 L15.5,22.9 L21.3,28.7 C21.4,28.8 21.5,28.9 21.6,28.9 L21.7,28.9 L21.8,28.9 L28.8,29.9 L28.9,29.9 C29.2,29.9 29.4,29.8 29.6,29.6 C29.8,29.4 29.9,29.1 29.9,28.8 L28.9,21.8 L28.9,21.7 L28.9,21.6 C28.9,21.5 28.8,21.4 28.7,21.3 L22.9,15.5 L28.7,9.7 C29.1,9.3 29.1,8.7 28.7,8.3 L21.7,1.3 C21.3,0.9 20.7,0.9 20.3,1.3 L14.5,7.1 L8.7,1.3 C8.3,0.9 7.7,0.9 7.3,1.3 L1.3,7.3 C0.9,7.7 0.9,8.3 1.3,8.7 L7.1,14.5 L0.3,21.3 C-0.1,21.7 -0.1,22.3 0.3,22.7 L7.3,29.7 L7.3,29.7 Z M24.1,27.3 L27.3,24.1 L27.8,27.8 L24.1,27.3 L24.1,27.3 Z M26.6,22 L22,26.6 L16.9,21.5 L21.5,16.9 L26.6,22 L26.6,22 Z M8.5,13.1 L6.4,11 L11,6.4 L13.1,8.5 L8.5,13.1 L8.5,13.1 Z M8,3.4 L9.6,5 L5,9.6 L3.4,8 L8,3.4 L8,3.4 Z M5,19.4 L7.3,21.7 C7.5,21.9 7.7,22 8,22 C8.3,22 8.5,21.9 8.7,21.7 C9.1,21.3 9.1,20.7 8.7,20.3 L6.4,18 L8,16.4 L9.3,17.7 C9.5,17.9 9.8,18 10,18 C10.2,18 10.5,17.9 10.7,17.7 C11.1,17.3 11.1,16.7 10.7,16.3 L9.4,15 L11,13.4 L13.3,15.7 C13.5,15.9 13.8,16 14,16 C14.2,16 14.5,15.9 14.7,15.7 C15.1,15.3 15.1,14.7 14.7,14.3 L12.4,12 L14,10.4 L15.3,11.7 C15.5,11.9 15.8,12 16,12 C16.2,12 16.5,11.9 16.7,11.7 C17.1,11.3 17.1,10.7 16.7,10.3 L15.4,9 L17,7.4 L19.3,9.7 C19.5,9.9 19.7,10 20,10 C20.3,10 20.5,9.9 20.7,9.7 C21.1,9.3 21.1,8.7 20.7,8.3 L18.4,6 L21,3.4 L26.6,9 L8,27.6 L2.4,22 L5,19.4 L5,19.4 Z" id="Shape"></path>
                </g>
            </g>
        </g>
    </g>
</svg>